%TF.GenerationSoftware,KiCad,Pcbnew,(5.1.6)-1*%
%TF.CreationDate,2020-10-14T22:44:59+01:00*%
%TF.ProjectId,Side 2,53696465-2032-42e6-9b69-6361645f7063,rev?*%
%TF.SameCoordinates,Original*%
%TF.FileFunction,Soldermask,Bot*%
%TF.FilePolarity,Negative*%
%FSLAX46Y46*%
G04 Gerber Fmt 4.6, Leading zero omitted, Abs format (unit mm)*
G04 Created by KiCad (PCBNEW (5.1.6)-1) date 2020-10-14 22:44:59*
%MOMM*%
%LPD*%
G01*
G04 APERTURE LIST*
%ADD10C,0.010000*%
%ADD11C,3.200000*%
G04 APERTURE END LIST*
D10*
%TO.C,G\u002A\u002A\u002A*%
G36*
X-32521175Y-28428959D02*
G01*
X-32526583Y-30275750D01*
X-34373375Y-30281158D01*
X-36220166Y-30286566D01*
X-36220166Y-26582167D01*
X-32515767Y-26582167D01*
X-32521175Y-28428959D01*
G37*
X-32521175Y-28428959D02*
X-32526583Y-30275750D01*
X-34373375Y-30281158D01*
X-36220166Y-30286566D01*
X-36220166Y-26582167D01*
X-32515767Y-26582167D01*
X-32521175Y-28428959D01*
G36*
X-123299833Y-30286334D02*
G01*
X-125137805Y-30286334D01*
X-125413083Y-30286175D01*
X-125676191Y-30285714D01*
X-125924056Y-30284974D01*
X-126153606Y-30283979D01*
X-126361770Y-30282752D01*
X-126545474Y-30281316D01*
X-126701647Y-30279695D01*
X-126827215Y-30277913D01*
X-126919108Y-30275992D01*
X-126974252Y-30273956D01*
X-126989889Y-30272222D01*
X-126992001Y-30249415D01*
X-126994017Y-30187348D01*
X-126995915Y-30089091D01*
X-126997669Y-29957718D01*
X-126999258Y-29796301D01*
X-127000658Y-29607912D01*
X-127001844Y-29395623D01*
X-127002795Y-29162507D01*
X-127003485Y-28911636D01*
X-127003893Y-28646082D01*
X-127004000Y-28420139D01*
X-127004000Y-26582167D01*
X-123299833Y-26582167D01*
X-123299833Y-30286334D01*
G37*
X-123299833Y-30286334D02*
X-125137805Y-30286334D01*
X-125413083Y-30286175D01*
X-125676191Y-30285714D01*
X-125924056Y-30284974D01*
X-126153606Y-30283979D01*
X-126361770Y-30282752D01*
X-126545474Y-30281316D01*
X-126701647Y-30279695D01*
X-126827215Y-30277913D01*
X-126919108Y-30275992D01*
X-126974252Y-30273956D01*
X-126989889Y-30272222D01*
X-126992001Y-30249415D01*
X-126994017Y-30187348D01*
X-126995915Y-30089091D01*
X-126997669Y-29957718D01*
X-126999258Y-29796301D01*
X-127000658Y-29607912D01*
X-127001844Y-29395623D01*
X-127002795Y-29162507D01*
X-127003485Y-28911636D01*
X-127003893Y-28646082D01*
X-127004000Y-28420139D01*
X-127004000Y-26582167D01*
X-123299833Y-26582167D01*
X-123299833Y-30286334D01*
G36*
X-32490044Y-106726850D02*
G01*
X-32489908Y-108507111D01*
X-32489777Y-110277545D01*
X-32489650Y-112037673D01*
X-32489529Y-113787018D01*
X-32489412Y-115525102D01*
X-32489300Y-117251445D01*
X-32489193Y-118965571D01*
X-32489091Y-120667001D01*
X-32488994Y-122355256D01*
X-32488901Y-124029859D01*
X-32488813Y-125690331D01*
X-32488730Y-127336193D01*
X-32488652Y-128966969D01*
X-32488579Y-130582179D01*
X-32488510Y-132181346D01*
X-32488446Y-133763991D01*
X-32488387Y-135329636D01*
X-32488332Y-136877803D01*
X-32488282Y-138408013D01*
X-32488237Y-139919789D01*
X-32488197Y-141412652D01*
X-32488161Y-142886123D01*
X-32488130Y-144339726D01*
X-32488104Y-145772981D01*
X-32488082Y-147185411D01*
X-32488065Y-148576537D01*
X-32488053Y-149945880D01*
X-32488045Y-151292964D01*
X-32488042Y-152617309D01*
X-32488043Y-153918437D01*
X-32488049Y-155195871D01*
X-32488060Y-156449132D01*
X-32488075Y-157677741D01*
X-32488095Y-158881221D01*
X-32488119Y-160059093D01*
X-32488148Y-161210879D01*
X-32488182Y-162336101D01*
X-32488220Y-163434281D01*
X-32488262Y-164504941D01*
X-32488309Y-165547602D01*
X-32488361Y-166561785D01*
X-32488417Y-167547014D01*
X-32488477Y-168502810D01*
X-32488542Y-169428694D01*
X-32488611Y-170324188D01*
X-32488685Y-171188815D01*
X-32488763Y-172022095D01*
X-32488846Y-172823551D01*
X-32488933Y-173592705D01*
X-32489025Y-174329078D01*
X-32489121Y-175032192D01*
X-32489221Y-175701568D01*
X-32489326Y-176336730D01*
X-32489435Y-176937198D01*
X-32489548Y-177502494D01*
X-32489666Y-178032141D01*
X-32489788Y-178525659D01*
X-32489915Y-178982571D01*
X-32490045Y-179402398D01*
X-32490180Y-179784663D01*
X-32490320Y-180128886D01*
X-32490463Y-180434591D01*
X-32490611Y-180701298D01*
X-32490764Y-180928530D01*
X-32490920Y-181115807D01*
X-32491081Y-181262653D01*
X-32491246Y-181368589D01*
X-32491415Y-181433136D01*
X-32491584Y-181455767D01*
X-32498919Y-181564500D01*
X-79737348Y-181564500D01*
X-81152606Y-181564494D01*
X-82557869Y-181564475D01*
X-83952536Y-181564444D01*
X-85336008Y-181564401D01*
X-86707683Y-181564346D01*
X-88066963Y-181564279D01*
X-89413247Y-181564201D01*
X-90745935Y-181564111D01*
X-92064426Y-181564010D01*
X-93368121Y-181563898D01*
X-94656420Y-181563775D01*
X-95928723Y-181563641D01*
X-97184429Y-181563497D01*
X-98422938Y-181563343D01*
X-99643650Y-181563178D01*
X-100845966Y-181563004D01*
X-102029284Y-181562819D01*
X-103193006Y-181562626D01*
X-104336530Y-181562422D01*
X-105459257Y-181562210D01*
X-106560587Y-181561988D01*
X-107639920Y-181561758D01*
X-108696654Y-181561519D01*
X-109730191Y-181561271D01*
X-110739931Y-181561015D01*
X-111725272Y-181560751D01*
X-112685616Y-181560478D01*
X-113620361Y-181560198D01*
X-114528909Y-181559911D01*
X-115410658Y-181559616D01*
X-116265009Y-181559313D01*
X-117091361Y-181559004D01*
X-117889115Y-181558687D01*
X-118657670Y-181558364D01*
X-119396426Y-181558035D01*
X-120104784Y-181557699D01*
X-120782143Y-181557356D01*
X-121427902Y-181557008D01*
X-122041463Y-181556654D01*
X-122622224Y-181556294D01*
X-123169586Y-181555929D01*
X-123682949Y-181555559D01*
X-124161712Y-181555183D01*
X-124605275Y-181554802D01*
X-125013039Y-181554417D01*
X-125384402Y-181554027D01*
X-125718766Y-181553633D01*
X-126015530Y-181553234D01*
X-126274094Y-181552832D01*
X-126493858Y-181552425D01*
X-126674221Y-181552015D01*
X-126814584Y-181551602D01*
X-126914346Y-181551185D01*
X-126972908Y-181550764D01*
X-126989889Y-181550389D01*
X-126999028Y-181521806D01*
X-127003801Y-181468927D01*
X-127004000Y-181455139D01*
X-127008885Y-181403439D01*
X-127021028Y-181375568D01*
X-127025166Y-181374000D01*
X-127028843Y-181353451D01*
X-127032182Y-181294270D01*
X-127035184Y-181200157D01*
X-127037850Y-181074813D01*
X-127040179Y-180921939D01*
X-127042170Y-180745233D01*
X-127043825Y-180548397D01*
X-127045143Y-180335130D01*
X-127046124Y-180109133D01*
X-127046769Y-179874107D01*
X-127047076Y-179633751D01*
X-127047046Y-179391765D01*
X-127046680Y-179151850D01*
X-127045976Y-178917707D01*
X-127044936Y-178693034D01*
X-127043559Y-178481534D01*
X-127041845Y-178286905D01*
X-127039794Y-178112848D01*
X-127037406Y-177963063D01*
X-127034682Y-177841251D01*
X-127031620Y-177751112D01*
X-127028222Y-177696345D01*
X-127025166Y-177680417D01*
X-127024451Y-177658805D01*
X-127023748Y-177594861D01*
X-127023058Y-177488589D01*
X-127022379Y-177339989D01*
X-127021713Y-177149064D01*
X-127021060Y-176915815D01*
X-127020418Y-176640246D01*
X-127019789Y-176322358D01*
X-127019172Y-175962152D01*
X-127018567Y-175559632D01*
X-127017975Y-175114798D01*
X-127017395Y-174627654D01*
X-127016827Y-174098201D01*
X-127016272Y-173526440D01*
X-127015728Y-172912375D01*
X-127015197Y-172256008D01*
X-127014679Y-171557339D01*
X-127014172Y-170816372D01*
X-127013678Y-170033108D01*
X-127013197Y-169207550D01*
X-127012727Y-168339699D01*
X-127012270Y-167429557D01*
X-127011825Y-166477127D01*
X-127011392Y-165482410D01*
X-127010972Y-164445409D01*
X-127010564Y-163366125D01*
X-127010168Y-162244561D01*
X-127009785Y-161080719D01*
X-127009414Y-159874600D01*
X-127009055Y-158626207D01*
X-127008708Y-157335542D01*
X-127008374Y-156002607D01*
X-127008052Y-154627403D01*
X-127007743Y-153209934D01*
X-127007445Y-151750200D01*
X-127007160Y-150248204D01*
X-127006888Y-148703948D01*
X-127006627Y-147117434D01*
X-127006379Y-145488665D01*
X-127006143Y-143817641D01*
X-127005920Y-142104365D01*
X-127005708Y-140348840D01*
X-127005509Y-138551067D01*
X-127005323Y-136711048D01*
X-127005149Y-134828785D01*
X-127004987Y-132904281D01*
X-127004837Y-130937537D01*
X-127004699Y-128928555D01*
X-127004574Y-126877338D01*
X-127004462Y-124783887D01*
X-127004361Y-122648205D01*
X-127004273Y-120470293D01*
X-127004197Y-118250154D01*
X-127004134Y-115987789D01*
X-127004082Y-113683201D01*
X-127004043Y-111336392D01*
X-127004017Y-108947363D01*
X-127004003Y-106516117D01*
X-127004000Y-104887001D01*
X-127004000Y-32106667D01*
X-32495838Y-32106667D01*
X-32490044Y-106726850D01*
G37*
X-32490044Y-106726850D02*
X-32489908Y-108507111D01*
X-32489777Y-110277545D01*
X-32489650Y-112037673D01*
X-32489529Y-113787018D01*
X-32489412Y-115525102D01*
X-32489300Y-117251445D01*
X-32489193Y-118965571D01*
X-32489091Y-120667001D01*
X-32488994Y-122355256D01*
X-32488901Y-124029859D01*
X-32488813Y-125690331D01*
X-32488730Y-127336193D01*
X-32488652Y-128966969D01*
X-32488579Y-130582179D01*
X-32488510Y-132181346D01*
X-32488446Y-133763991D01*
X-32488387Y-135329636D01*
X-32488332Y-136877803D01*
X-32488282Y-138408013D01*
X-32488237Y-139919789D01*
X-32488197Y-141412652D01*
X-32488161Y-142886123D01*
X-32488130Y-144339726D01*
X-32488104Y-145772981D01*
X-32488082Y-147185411D01*
X-32488065Y-148576537D01*
X-32488053Y-149945880D01*
X-32488045Y-151292964D01*
X-32488042Y-152617309D01*
X-32488043Y-153918437D01*
X-32488049Y-155195871D01*
X-32488060Y-156449132D01*
X-32488075Y-157677741D01*
X-32488095Y-158881221D01*
X-32488119Y-160059093D01*
X-32488148Y-161210879D01*
X-32488182Y-162336101D01*
X-32488220Y-163434281D01*
X-32488262Y-164504941D01*
X-32488309Y-165547602D01*
X-32488361Y-166561785D01*
X-32488417Y-167547014D01*
X-32488477Y-168502810D01*
X-32488542Y-169428694D01*
X-32488611Y-170324188D01*
X-32488685Y-171188815D01*
X-32488763Y-172022095D01*
X-32488846Y-172823551D01*
X-32488933Y-173592705D01*
X-32489025Y-174329078D01*
X-32489121Y-175032192D01*
X-32489221Y-175701568D01*
X-32489326Y-176336730D01*
X-32489435Y-176937198D01*
X-32489548Y-177502494D01*
X-32489666Y-178032141D01*
X-32489788Y-178525659D01*
X-32489915Y-178982571D01*
X-32490045Y-179402398D01*
X-32490180Y-179784663D01*
X-32490320Y-180128886D01*
X-32490463Y-180434591D01*
X-32490611Y-180701298D01*
X-32490764Y-180928530D01*
X-32490920Y-181115807D01*
X-32491081Y-181262653D01*
X-32491246Y-181368589D01*
X-32491415Y-181433136D01*
X-32491584Y-181455767D01*
X-32498919Y-181564500D01*
X-79737348Y-181564500D01*
X-81152606Y-181564494D01*
X-82557869Y-181564475D01*
X-83952536Y-181564444D01*
X-85336008Y-181564401D01*
X-86707683Y-181564346D01*
X-88066963Y-181564279D01*
X-89413247Y-181564201D01*
X-90745935Y-181564111D01*
X-92064426Y-181564010D01*
X-93368121Y-181563898D01*
X-94656420Y-181563775D01*
X-95928723Y-181563641D01*
X-97184429Y-181563497D01*
X-98422938Y-181563343D01*
X-99643650Y-181563178D01*
X-100845966Y-181563004D01*
X-102029284Y-181562819D01*
X-103193006Y-181562626D01*
X-104336530Y-181562422D01*
X-105459257Y-181562210D01*
X-106560587Y-181561988D01*
X-107639920Y-181561758D01*
X-108696654Y-181561519D01*
X-109730191Y-181561271D01*
X-110739931Y-181561015D01*
X-111725272Y-181560751D01*
X-112685616Y-181560478D01*
X-113620361Y-181560198D01*
X-114528909Y-181559911D01*
X-115410658Y-181559616D01*
X-116265009Y-181559313D01*
X-117091361Y-181559004D01*
X-117889115Y-181558687D01*
X-118657670Y-181558364D01*
X-119396426Y-181558035D01*
X-120104784Y-181557699D01*
X-120782143Y-181557356D01*
X-121427902Y-181557008D01*
X-122041463Y-181556654D01*
X-122622224Y-181556294D01*
X-123169586Y-181555929D01*
X-123682949Y-181555559D01*
X-124161712Y-181555183D01*
X-124605275Y-181554802D01*
X-125013039Y-181554417D01*
X-125384402Y-181554027D01*
X-125718766Y-181553633D01*
X-126015530Y-181553234D01*
X-126274094Y-181552832D01*
X-126493858Y-181552425D01*
X-126674221Y-181552015D01*
X-126814584Y-181551602D01*
X-126914346Y-181551185D01*
X-126972908Y-181550764D01*
X-126989889Y-181550389D01*
X-126999028Y-181521806D01*
X-127003801Y-181468927D01*
X-127004000Y-181455139D01*
X-127008885Y-181403439D01*
X-127021028Y-181375568D01*
X-127025166Y-181374000D01*
X-127028843Y-181353451D01*
X-127032182Y-181294270D01*
X-127035184Y-181200157D01*
X-127037850Y-181074813D01*
X-127040179Y-180921939D01*
X-127042170Y-180745233D01*
X-127043825Y-180548397D01*
X-127045143Y-180335130D01*
X-127046124Y-180109133D01*
X-127046769Y-179874107D01*
X-127047076Y-179633751D01*
X-127047046Y-179391765D01*
X-127046680Y-179151850D01*
X-127045976Y-178917707D01*
X-127044936Y-178693034D01*
X-127043559Y-178481534D01*
X-127041845Y-178286905D01*
X-127039794Y-178112848D01*
X-127037406Y-177963063D01*
X-127034682Y-177841251D01*
X-127031620Y-177751112D01*
X-127028222Y-177696345D01*
X-127025166Y-177680417D01*
X-127024451Y-177658805D01*
X-127023748Y-177594861D01*
X-127023058Y-177488589D01*
X-127022379Y-177339989D01*
X-127021713Y-177149064D01*
X-127021060Y-176915815D01*
X-127020418Y-176640246D01*
X-127019789Y-176322358D01*
X-127019172Y-175962152D01*
X-127018567Y-175559632D01*
X-127017975Y-175114798D01*
X-127017395Y-174627654D01*
X-127016827Y-174098201D01*
X-127016272Y-173526440D01*
X-127015728Y-172912375D01*
X-127015197Y-172256008D01*
X-127014679Y-171557339D01*
X-127014172Y-170816372D01*
X-127013678Y-170033108D01*
X-127013197Y-169207550D01*
X-127012727Y-168339699D01*
X-127012270Y-167429557D01*
X-127011825Y-166477127D01*
X-127011392Y-165482410D01*
X-127010972Y-164445409D01*
X-127010564Y-163366125D01*
X-127010168Y-162244561D01*
X-127009785Y-161080719D01*
X-127009414Y-159874600D01*
X-127009055Y-158626207D01*
X-127008708Y-157335542D01*
X-127008374Y-156002607D01*
X-127008052Y-154627403D01*
X-127007743Y-153209934D01*
X-127007445Y-151750200D01*
X-127007160Y-150248204D01*
X-127006888Y-148703948D01*
X-127006627Y-147117434D01*
X-127006379Y-145488665D01*
X-127006143Y-143817641D01*
X-127005920Y-142104365D01*
X-127005708Y-140348840D01*
X-127005509Y-138551067D01*
X-127005323Y-136711048D01*
X-127005149Y-134828785D01*
X-127004987Y-132904281D01*
X-127004837Y-130937537D01*
X-127004699Y-128928555D01*
X-127004574Y-126877338D01*
X-127004462Y-124783887D01*
X-127004361Y-122648205D01*
X-127004273Y-120470293D01*
X-127004197Y-118250154D01*
X-127004134Y-115987789D01*
X-127004082Y-113683201D01*
X-127004043Y-111336392D01*
X-127004017Y-108947363D01*
X-127004003Y-106516117D01*
X-127004000Y-104887001D01*
X-127004000Y-32106667D01*
X-32495838Y-32106667D01*
X-32490044Y-106726850D01*
G36*
X-32478842Y-185231625D02*
G01*
X-32484250Y-187078417D01*
X-34331041Y-187083825D01*
X-36177833Y-187089233D01*
X-36177833Y-183384834D01*
X-32473434Y-183384834D01*
X-32478842Y-185231625D01*
G37*
X-32478842Y-185231625D02*
X-32484250Y-187078417D01*
X-34331041Y-187083825D01*
X-36177833Y-187089233D01*
X-36177833Y-183384834D01*
X-32473434Y-183384834D01*
X-32478842Y-185231625D01*
G36*
X-123342166Y-187089000D02*
G01*
X-125180139Y-187089000D01*
X-125455417Y-187088841D01*
X-125718524Y-187088380D01*
X-125966389Y-187087640D01*
X-126195940Y-187086645D01*
X-126404103Y-187085418D01*
X-126587807Y-187083983D01*
X-126743980Y-187082362D01*
X-126869549Y-187080579D01*
X-126961441Y-187078659D01*
X-127016585Y-187076623D01*
X-127032222Y-187074889D01*
X-127034334Y-187052082D01*
X-127036351Y-186990014D01*
X-127038248Y-186891758D01*
X-127040003Y-186760385D01*
X-127041592Y-186598967D01*
X-127042991Y-186410578D01*
X-127044178Y-186198290D01*
X-127045128Y-185965174D01*
X-127045819Y-185714303D01*
X-127046226Y-185448749D01*
X-127046333Y-185222806D01*
X-127046333Y-183384834D01*
X-123342166Y-183384834D01*
X-123342166Y-187089000D01*
G37*
X-123342166Y-187089000D02*
X-125180139Y-187089000D01*
X-125455417Y-187088841D01*
X-125718524Y-187088380D01*
X-125966389Y-187087640D01*
X-126195940Y-187086645D01*
X-126404103Y-187085418D01*
X-126587807Y-187083983D01*
X-126743980Y-187082362D01*
X-126869549Y-187080579D01*
X-126961441Y-187078659D01*
X-127016585Y-187076623D01*
X-127032222Y-187074889D01*
X-127034334Y-187052082D01*
X-127036351Y-186990014D01*
X-127038248Y-186891758D01*
X-127040003Y-186760385D01*
X-127041592Y-186598967D01*
X-127042991Y-186410578D01*
X-127044178Y-186198290D01*
X-127045128Y-185965174D01*
X-127045819Y-185714303D01*
X-127046226Y-185448749D01*
X-127046333Y-185222806D01*
X-127046333Y-183384834D01*
X-123342166Y-183384834D01*
X-123342166Y-187089000D01*
G36*
X-32706500Y-208022834D02*
G01*
X-36410899Y-208022834D01*
X-36400083Y-204329250D01*
X-34553291Y-204323842D01*
X-32706500Y-204318434D01*
X-32706500Y-208022834D01*
G37*
X-32706500Y-208022834D02*
X-36410899Y-208022834D01*
X-36400083Y-204329250D01*
X-34553291Y-204323842D01*
X-32706500Y-204318434D01*
X-32706500Y-208022834D01*
G36*
X-123119916Y-204329250D02*
G01*
X-123114509Y-206176042D01*
X-123109101Y-208022834D01*
X-126813500Y-208022834D01*
X-126813500Y-204318434D01*
X-123119916Y-204329250D01*
G37*
X-123119916Y-204329250D02*
X-123114509Y-206176042D01*
X-123109101Y-208022834D01*
X-126813500Y-208022834D01*
X-126813500Y-204318434D01*
X-123119916Y-204329250D01*
G36*
X-32478842Y-211880459D02*
G01*
X-32484250Y-213727250D01*
X-34331041Y-213732658D01*
X-36177833Y-213738066D01*
X-36177833Y-210033667D01*
X-32473434Y-210033667D01*
X-32478842Y-211880459D01*
G37*
X-32478842Y-211880459D02*
X-32484250Y-213727250D01*
X-34331041Y-213732658D01*
X-36177833Y-213738066D01*
X-36177833Y-210033667D01*
X-32473434Y-210033667D01*
X-32478842Y-211880459D01*
G36*
X-123262675Y-211880459D02*
G01*
X-123268083Y-213727250D01*
X-125114875Y-213732658D01*
X-126961666Y-213738066D01*
X-126961666Y-210033667D01*
X-123257267Y-210033667D01*
X-123262675Y-211880459D01*
G37*
X-123262675Y-211880459D02*
X-123268083Y-213727250D01*
X-125114875Y-213732658D01*
X-126961666Y-213738066D01*
X-126961666Y-210033667D01*
X-123257267Y-210033667D01*
X-123262675Y-211880459D01*
%TD*%
D11*
%TO.C,REF\u002A\u002A*%
X-36440000Y-17000000D03*
%TD*%
%TO.C,REF\u002A\u002A*%
X-123000000Y-17000000D03*
%TD*%
M02*
