%TF.GenerationSoftware,KiCad,Pcbnew,(5.1.6)-1*%
%TF.CreationDate,2020-10-14T22:44:59+01:00*%
%TF.ProjectId,Side 2,53696465-2032-42e6-9b69-6361645f7063,rev?*%
%TF.SameCoordinates,Original*%
%TF.FileFunction,Profile,NP*%
%FSLAX46Y46*%
G04 Gerber Fmt 4.6, Leading zero omitted, Abs format (unit mm)*
G04 Created by KiCad (PCBNEW (5.1.6)-1) date 2020-10-14 22:44:59*
%MOMM*%
%LPD*%
G01*
G04 APERTURE LIST*
%TA.AperFunction,Profile*%
%ADD10C,0.100000*%
%TD*%
G04 APERTURE END LIST*
D10*
X-50947892Y-144202652D02*
X-42276838Y-139196416D01*
X-59618946Y-94830387D02*
X-50947892Y-99836623D01*
X-32514473Y-13072162D02*
X-32514473Y-32759662D01*
X-142764473Y-203647162D02*
X-128664473Y-203647162D01*
X-16764473Y-211522162D02*
X-32514473Y-211522162D01*
X-119139473Y-211522162D02*
X-119139473Y-227272162D01*
X-127014473Y-227272162D02*
X-127014473Y-211522162D01*
X-50947892Y-117724152D02*
X-45996838Y-114865659D01*
X-142764473Y-211522162D02*
X-142764473Y-203647162D01*
X-16764473Y-211522162D02*
X-16764473Y-203647162D01*
X-50947892Y-99836623D02*
X-42276838Y-94830387D01*
X-16764473Y-28822162D02*
X-30864473Y-28822162D01*
X-32514473Y-207584662D02*
X-30864473Y-207584662D01*
X-40389473Y-211522162D02*
X-119139473Y-211522162D01*
X-40389473Y-227272162D02*
X-32514473Y-227272162D01*
X-142764473Y-211522162D02*
X-127014473Y-211522162D01*
X-59618946Y-161379431D02*
X-55898946Y-159231688D01*
X-142764473Y-36697162D02*
X-127014473Y-36697162D01*
X-127014473Y-13072162D02*
X-119139473Y-13072162D01*
X-16764473Y-36697162D02*
X-32514473Y-36697162D01*
X-50947892Y-122019637D02*
X-42276838Y-117013402D01*
X-128664473Y-207584662D02*
X-128664473Y-203647162D01*
X-119139473Y-13072162D02*
X-119139473Y-28822162D01*
X-40389473Y-211522162D02*
X-40389473Y-227272162D01*
X-55898946Y-137048673D02*
X-50947892Y-139907166D01*
X-16764473Y-36697162D02*
X-16764473Y-28822162D01*
X-127014473Y-207584662D02*
X-128664473Y-207584662D01*
X-127014473Y-207584662D02*
X-127014473Y-36697162D01*
X-59618946Y-161379431D02*
X-50947892Y-166385666D01*
X-50947892Y-162090180D02*
X-45996838Y-159231688D01*
X-55898946Y-114865659D02*
X-50947892Y-117724152D01*
X-59618946Y-94830387D02*
X-55898946Y-92682644D01*
X-45996838Y-114865659D02*
X-42276838Y-117013402D01*
X-50947892Y-139907166D02*
X-45996838Y-137048673D01*
X-30864473Y-32759662D02*
X-30864473Y-28822162D01*
X-32514473Y-36697162D02*
X-32514473Y-207584662D01*
X-40389473Y-13072162D02*
X-40389473Y-28822162D01*
X-50947892Y-166385666D02*
X-42276838Y-161379431D01*
X-59618946Y-139196416D02*
X-50947892Y-144202652D01*
X-59618946Y-117013402D02*
X-55898946Y-114865659D01*
X-127014473Y-32759662D02*
X-128664473Y-32759662D01*
X-142764473Y-36697162D02*
X-142764473Y-28822162D01*
X-32514473Y-211522162D02*
X-32514473Y-227272162D01*
X-59618946Y-139196416D02*
X-55898946Y-137048673D01*
X-16764473Y-203647162D02*
X-30864473Y-203647162D01*
X-142764473Y-28822162D02*
X-128664473Y-28822162D01*
X-128664473Y-32759662D02*
X-128664473Y-28822162D01*
X-30864473Y-207584662D02*
X-30864473Y-203647162D01*
X-55898946Y-159231688D02*
X-50947892Y-162090180D01*
X-45996838Y-159231688D02*
X-42276838Y-161379431D01*
X-45996838Y-137048673D02*
X-42276838Y-139196416D01*
X-59618946Y-117013402D02*
X-50947892Y-122019637D01*
X-32514473Y-32759662D02*
X-30864473Y-32759662D01*
X-127014473Y-32759662D02*
X-127014473Y-13072162D01*
X-40389473Y-28822162D02*
X-119139473Y-28822162D01*
X-32514473Y-13072162D02*
X-40389473Y-13072162D01*
X-119139473Y-227272162D02*
X-127014473Y-227272162D01*
X-50947892Y-51175107D02*
X-45996838Y-48316615D01*
X-55898946Y-92682644D02*
X-50947892Y-95541137D01*
X-98041054Y-139196416D02*
X-89370000Y-144202652D01*
X-59618946Y-72647373D02*
X-55898946Y-70499630D01*
X-59618946Y-72647373D02*
X-50947892Y-77653608D01*
X-50947892Y-77653608D02*
X-42276838Y-72647373D01*
X-84418945Y-159231688D02*
X-80698945Y-161379431D01*
X-45996838Y-70499630D02*
X-42276838Y-72647373D01*
X-50947892Y-73358122D02*
X-45996838Y-70499630D01*
X-59618946Y-50464358D02*
X-55898946Y-48316615D01*
X-45996838Y-48316615D02*
X-42276838Y-50464358D01*
X-98041054Y-161379431D02*
X-94321054Y-159231688D01*
X-98041054Y-161379431D02*
X-89370000Y-166385666D01*
X-94321054Y-159231688D02*
X-89370000Y-162090180D01*
X-84418945Y-137048673D02*
X-80698945Y-139196416D01*
X-98041054Y-139196416D02*
X-94321054Y-137048673D01*
X-89370000Y-144202652D02*
X-80698945Y-139196416D01*
X-89370000Y-139907166D02*
X-84418945Y-137048673D01*
X-89370000Y-166385666D02*
X-80698945Y-161379431D01*
X-98041054Y-117013402D02*
X-94321054Y-114865659D01*
X-94321054Y-137048673D02*
X-89370000Y-139907166D01*
X-50947892Y-95541137D02*
X-45996838Y-92682644D01*
X-50947892Y-55470593D02*
X-42276838Y-50464358D01*
X-55898946Y-70499630D02*
X-50947892Y-73358122D01*
X-59618946Y-50464358D02*
X-50947892Y-55470593D01*
X-55898946Y-48316615D02*
X-50947892Y-51175107D01*
X-89370000Y-162090180D02*
X-84418945Y-159231688D01*
X-45996838Y-92682644D02*
X-42276838Y-94830387D01*
X-52497892Y-68167743D02*
X-52497892Y-58155272D01*
X-56217892Y-66020000D02*
X-56217892Y-60303015D01*
X-90920000Y-156899802D02*
X-90920000Y-146887330D01*
X-90920000Y-146887330D02*
X-99591054Y-141881095D01*
X-98041054Y-72647373D02*
X-94321054Y-70499630D01*
X-61168946Y-79627537D02*
X-61168946Y-75332051D01*
X-52497892Y-68167743D02*
X-56217892Y-66020000D01*
X-99591054Y-168359596D02*
X-99591054Y-164064110D01*
X-56217892Y-110386030D02*
X-56217892Y-104669045D01*
X-61168946Y-57444522D02*
X-61168946Y-53149036D01*
X-84418945Y-70499630D02*
X-80698945Y-72647373D01*
X-52497892Y-58155272D02*
X-61168946Y-53149036D01*
X-98041054Y-117013402D02*
X-89370000Y-122019637D01*
X-52497892Y-80338287D02*
X-61168946Y-75332051D01*
X-89370000Y-122019637D02*
X-80698945Y-117013402D01*
X-84418945Y-114865659D02*
X-80698945Y-117013402D01*
X-89370000Y-117724152D02*
X-84418945Y-114865659D01*
X-94321054Y-114865659D02*
X-89370000Y-117724152D01*
X-98041054Y-94830387D02*
X-94321054Y-92682644D01*
X-90920000Y-169070345D02*
X-99591054Y-164064110D01*
X-61168946Y-146176581D02*
X-61168946Y-141881095D01*
X-89370000Y-95541137D02*
X-84418945Y-92682644D01*
X-89370000Y-99836623D02*
X-80698945Y-94830387D01*
X-56217892Y-88203015D02*
X-56217892Y-82486030D01*
X-98041054Y-94830387D02*
X-89370000Y-99836623D01*
X-94321054Y-92682644D02*
X-89370000Y-95541137D01*
X-52497892Y-179082816D02*
X-52497892Y-169070345D01*
X-90920000Y-179082816D02*
X-90920000Y-169070345D01*
X-89370000Y-73358122D02*
X-84418945Y-70499630D01*
X-52497892Y-179082816D02*
X-56217892Y-176935073D01*
X-94640000Y-171218088D02*
X-99591054Y-168359596D01*
X-89370000Y-77653608D02*
X-80698945Y-72647373D01*
X-56217892Y-132569044D02*
X-56217892Y-126852059D01*
X-56217892Y-176935073D02*
X-56217892Y-171218088D01*
X-52497892Y-156899802D02*
X-56217892Y-154752059D01*
X-56217892Y-149035073D02*
X-61168946Y-146176581D01*
X-52497892Y-134716787D02*
X-52497892Y-124704316D01*
X-52497892Y-146887330D02*
X-61168946Y-141881095D01*
X-56217892Y-154752059D02*
X-56217892Y-149035073D01*
X-56217892Y-126852059D02*
X-61168946Y-123993566D01*
X-99591054Y-146176581D02*
X-99591054Y-141881095D01*
X-52497892Y-90350758D02*
X-52497892Y-80338287D01*
X-52497892Y-112533773D02*
X-52497892Y-102521302D01*
X-90920000Y-156899802D02*
X-94640000Y-154752059D01*
X-90920000Y-179082816D02*
X-94640000Y-176935073D01*
X-94640000Y-176935073D02*
X-94640000Y-171218088D01*
X-84418945Y-92682644D02*
X-80698945Y-94830387D01*
X-56217892Y-104669045D02*
X-61168946Y-101810552D01*
X-52497892Y-112533773D02*
X-56217892Y-110386030D01*
X-98041054Y-72647373D02*
X-89370000Y-77653608D01*
X-94321054Y-70499630D02*
X-89370000Y-73358122D01*
X-61168946Y-123993566D02*
X-61168946Y-119698081D01*
X-56217892Y-171218088D02*
X-61168946Y-168359596D01*
X-52497892Y-124704316D02*
X-61168946Y-119698081D01*
X-52497892Y-169070345D02*
X-61168946Y-164064110D01*
X-61168946Y-168359596D02*
X-61168946Y-164064110D01*
X-56217892Y-82486030D02*
X-61168946Y-79627537D01*
X-52497892Y-156899802D02*
X-52497892Y-146887330D01*
X-52497892Y-134716787D02*
X-56217892Y-132569044D01*
X-52497892Y-102521302D02*
X-61168946Y-97515066D01*
X-61168946Y-101810552D02*
X-61168946Y-97515066D01*
X-52497892Y-90350758D02*
X-56217892Y-88203015D01*
X-56217892Y-60303015D02*
X-61168946Y-57444522D01*
X-94640000Y-149035073D02*
X-99591054Y-146176581D01*
X-80380000Y-90719045D02*
X-80380000Y-86423559D01*
X-94640000Y-154752059D02*
X-94640000Y-149035073D01*
X-90920000Y-134716787D02*
X-94640000Y-132569044D01*
X-90920000Y-124704316D02*
X-99591054Y-119698081D01*
X-90920000Y-102521302D02*
X-99591054Y-97515066D01*
X-90920000Y-134716787D02*
X-90920000Y-124704316D01*
X-71708946Y-123625279D02*
X-75428946Y-121477536D01*
X-90920000Y-90350758D02*
X-94640000Y-88203015D01*
X-94640000Y-132569044D02*
X-94640000Y-126852059D01*
X-94640000Y-104669045D02*
X-99591054Y-101810552D01*
X-75428946Y-115760552D02*
X-80380000Y-112902060D01*
X-99591054Y-123993566D02*
X-99591054Y-119698081D01*
X-94640000Y-126852059D02*
X-99591054Y-123993566D01*
X-71708946Y-145808294D02*
X-71708946Y-135795823D01*
X-75428946Y-165843566D02*
X-75428946Y-160126581D01*
X-75428946Y-99294522D02*
X-75428946Y-93577537D01*
X-71708946Y-69246779D02*
X-80380000Y-64240544D01*
X-75428946Y-121477536D02*
X-75428946Y-115760552D01*
X-94640000Y-110386030D02*
X-94640000Y-104669045D01*
X-90920000Y-112533773D02*
X-90920000Y-102521302D01*
X-94640000Y-82486030D02*
X-99591054Y-79627537D01*
X-71708946Y-157978838D02*
X-80380000Y-152972602D01*
X-71708946Y-101442265D02*
X-71708946Y-91429794D01*
X-71708946Y-167991309D02*
X-71708946Y-157978838D01*
X-75428946Y-143660551D02*
X-75428946Y-137943566D01*
X-71708946Y-79259251D02*
X-75428946Y-77111508D01*
X-99591054Y-101810552D02*
X-99591054Y-97515066D01*
X-71708946Y-101442265D02*
X-75428946Y-99294522D01*
X-90920000Y-80338287D02*
X-99591054Y-75332051D01*
X-80380000Y-112902060D02*
X-80380000Y-108606574D01*
X-90920000Y-112533773D02*
X-94640000Y-110386030D01*
X-90920000Y-90350758D02*
X-90920000Y-80338287D01*
X-99591054Y-79627537D02*
X-99591054Y-75332051D01*
X-94640000Y-88203015D02*
X-94640000Y-82486030D01*
X-80380000Y-157268088D02*
X-80380000Y-152972602D01*
X-75428946Y-160126581D02*
X-80380000Y-157268088D01*
X-71708946Y-145808294D02*
X-75428946Y-143660551D01*
X-71708946Y-123625279D02*
X-71708946Y-113612809D01*
X-71708946Y-113612809D02*
X-80380000Y-108606574D01*
X-71708946Y-135795823D02*
X-80380000Y-130789587D01*
X-75428946Y-137943566D02*
X-80380000Y-135085073D01*
X-71708946Y-91429794D02*
X-80380000Y-86423559D01*
X-75428946Y-93577537D02*
X-80380000Y-90719045D01*
X-71708946Y-79259251D02*
X-71708946Y-69246779D01*
X-71708946Y-167991309D02*
X-75428946Y-165843566D01*
X-80380000Y-135085073D02*
X-80380000Y-130789587D01*
X-113851054Y-121477536D02*
X-113851054Y-115760552D01*
X-110131054Y-79259251D02*
X-113851054Y-77111508D01*
X-118802108Y-90719045D02*
X-118802108Y-86423559D01*
X-110131054Y-79259251D02*
X-110131054Y-69246779D01*
X-113851054Y-71394522D02*
X-118802108Y-68536030D01*
X-64888946Y-165843566D02*
X-68608946Y-167991309D01*
X-110131054Y-91429794D02*
X-118802108Y-86423559D01*
X-118802108Y-68536030D02*
X-118802108Y-64240544D01*
X-80380000Y-68536030D02*
X-80380000Y-64240544D01*
X-75428946Y-71394522D02*
X-80380000Y-68536030D01*
X-75428946Y-77111508D02*
X-75428946Y-71394522D01*
X-71708946Y-57076236D02*
X-75428946Y-54928493D01*
X-75428946Y-49211508D02*
X-80380000Y-46353015D01*
X-118802108Y-157268088D02*
X-118802108Y-152972602D01*
X-68608946Y-157978838D02*
X-68608946Y-167991309D01*
X-113851054Y-99294522D02*
X-113851054Y-93577537D01*
X-75428946Y-54928493D02*
X-75428946Y-49211508D01*
X-110131054Y-167991309D02*
X-113851054Y-165843566D01*
X-110131054Y-157978838D02*
X-118802108Y-152972602D01*
X-59937892Y-152972602D02*
X-68608946Y-157978838D01*
X-113851054Y-143660551D02*
X-113851054Y-137943566D01*
X-64888946Y-160126581D02*
X-64888946Y-165843566D01*
X-113851054Y-160126581D02*
X-118802108Y-157268088D01*
X-113851054Y-165843566D02*
X-113851054Y-160126581D01*
X-110131054Y-145808294D02*
X-110131054Y-135795823D01*
X-113851054Y-137943566D02*
X-118802108Y-135085073D01*
X-110131054Y-123625279D02*
X-113851054Y-121477536D01*
X-110131054Y-123625279D02*
X-110131054Y-113612809D01*
X-110131054Y-101442265D02*
X-110131054Y-91429794D01*
X-113851054Y-115760552D02*
X-118802108Y-112902060D01*
X-59937892Y-152972602D02*
X-59937892Y-157268088D01*
X-59937892Y-130789587D02*
X-59937892Y-135085073D01*
X-59937892Y-157268088D02*
X-64888946Y-160126581D01*
X-71708946Y-57076236D02*
X-71708946Y-47063765D01*
X-80380000Y-46353015D02*
X-80380000Y-42057529D01*
X-118802108Y-135085073D02*
X-118802108Y-130789587D01*
X-110131054Y-135795823D02*
X-118802108Y-130789587D01*
X-71708946Y-47063765D02*
X-80380000Y-42057529D01*
X-113851054Y-93577537D02*
X-118802108Y-90719045D01*
X-110131054Y-145808294D02*
X-113851054Y-143660551D01*
X-110131054Y-113612809D02*
X-118802108Y-108606574D01*
X-118802108Y-112902060D02*
X-118802108Y-108606574D01*
X-110131054Y-101442265D02*
X-113851054Y-99294522D01*
X-110131054Y-167991309D02*
X-110131054Y-157978838D01*
X-110131054Y-69246779D02*
X-118802108Y-64240544D01*
X-113851054Y-77111508D02*
X-113851054Y-71394522D01*
X-59937892Y-42057529D02*
X-59937892Y-46353015D01*
X-107031054Y-135795823D02*
X-107031054Y-145808294D01*
X-59937892Y-108606574D02*
X-68608946Y-113612809D01*
X-98360000Y-157268088D02*
X-103311054Y-160126581D01*
X-103311054Y-143660551D02*
X-107031054Y-145808294D01*
X-107031054Y-113612809D02*
X-107031054Y-123625279D01*
X-103311054Y-115760552D02*
X-103311054Y-121477536D01*
X-64888946Y-121477536D02*
X-68608946Y-123625279D01*
X-98360000Y-108606574D02*
X-107031054Y-113612809D01*
X-103311054Y-121477536D02*
X-107031054Y-123625279D01*
X-59937892Y-64240544D02*
X-59937892Y-68536030D01*
X-68608946Y-69246779D02*
X-68608946Y-79259251D01*
X-64888946Y-71394522D02*
X-64888946Y-77111508D01*
X-64888946Y-137943566D02*
X-64888946Y-143660551D01*
X-59937892Y-108606574D02*
X-59937892Y-112902060D01*
X-59937892Y-46353015D02*
X-64888946Y-49211508D01*
X-64888946Y-115760552D02*
X-64888946Y-121477536D01*
X-68608946Y-91429794D02*
X-68608946Y-101442265D01*
X-103311054Y-165843566D02*
X-107031054Y-167991309D01*
X-59937892Y-68536030D02*
X-64888946Y-71394522D01*
X-64888946Y-93577537D02*
X-64888946Y-99294522D01*
X-98360000Y-152972602D02*
X-98360000Y-157268088D01*
X-68608946Y-47063765D02*
X-68608946Y-57076236D01*
X-59937892Y-42057529D02*
X-68608946Y-47063765D01*
X-103311054Y-160126581D02*
X-103311054Y-165843566D01*
X-98360000Y-130789587D02*
X-98360000Y-135085073D01*
X-98360000Y-130789587D02*
X-107031054Y-135795823D01*
X-59937892Y-130789587D02*
X-68608946Y-135795823D01*
X-68608946Y-135795823D02*
X-68608946Y-145808294D01*
X-59937892Y-135085073D02*
X-64888946Y-137943566D01*
X-68608946Y-113612809D02*
X-68608946Y-123625279D01*
X-59937892Y-112902060D02*
X-64888946Y-115760552D01*
X-59937892Y-90719045D02*
X-64888946Y-93577537D01*
X-98360000Y-152972602D02*
X-107031054Y-157978838D01*
X-64888946Y-77111508D02*
X-68608946Y-79259251D01*
X-64888946Y-54928493D02*
X-68608946Y-57076236D01*
X-103311054Y-137943566D02*
X-103311054Y-143660551D01*
X-98360000Y-108606574D02*
X-98360000Y-112902060D01*
X-64888946Y-143660551D02*
X-68608946Y-145808294D01*
X-98360000Y-135085073D02*
X-103311054Y-137943566D01*
X-59937892Y-86423559D02*
X-68608946Y-91429794D01*
X-64888946Y-99294522D02*
X-68608946Y-101442265D01*
X-107031054Y-157978838D02*
X-107031054Y-167991309D01*
X-59937892Y-64240544D02*
X-68608946Y-69246779D01*
X-64888946Y-49211508D02*
X-64888946Y-54928493D01*
X-59937892Y-86423559D02*
X-59937892Y-90719045D01*
X-78830001Y-83738880D02*
X-75110001Y-81591137D01*
X-70158946Y-155294159D02*
X-61487892Y-150287923D01*
X-75110001Y-148140180D02*
X-70158946Y-150998673D01*
X-98360000Y-86423559D02*
X-98360000Y-90719045D01*
X-65207892Y-59408122D02*
X-61487892Y-61555865D01*
X-78830001Y-150287923D02*
X-70158946Y-155294159D01*
X-65207892Y-148140180D02*
X-61487892Y-150287923D01*
X-78830001Y-128104909D02*
X-70158946Y-133111144D01*
X-65207892Y-125957166D02*
X-61487892Y-128104909D01*
X-98360000Y-86423559D02*
X-107031054Y-91429794D01*
X-98360000Y-68536030D02*
X-103311054Y-71394522D01*
X-75110001Y-81591137D02*
X-70158946Y-84449630D01*
X-107031054Y-91429794D02*
X-107031054Y-101442265D01*
X-103311054Y-99294522D02*
X-107031054Y-101442265D01*
X-103311054Y-93577537D02*
X-103311054Y-99294522D01*
X-107031054Y-69246779D02*
X-107031054Y-79259251D01*
X-103311054Y-77111508D02*
X-107031054Y-79259251D01*
X-78830001Y-150287923D02*
X-75110001Y-148140180D01*
X-75110001Y-125957166D02*
X-70158946Y-128815658D01*
X-70158946Y-150998673D02*
X-65207892Y-148140180D01*
X-70158946Y-133111144D02*
X-61487892Y-128104909D01*
X-70158946Y-110928130D02*
X-61487892Y-105921895D01*
X-70158946Y-88745116D02*
X-61487892Y-83738880D01*
X-65207892Y-81591137D02*
X-61487892Y-83738880D01*
X-75110001Y-59408122D02*
X-70158946Y-62266615D01*
X-78830001Y-61555865D02*
X-70158946Y-66562101D01*
X-70158946Y-62266615D02*
X-65207892Y-59408122D01*
X-70158946Y-66562101D02*
X-61487892Y-61555865D01*
X-78830001Y-39372850D02*
X-75110001Y-37225107D01*
X-103311054Y-71394522D02*
X-103311054Y-77111508D01*
X-78830001Y-105921895D02*
X-75110001Y-103774152D01*
X-70158946Y-44379086D02*
X-61487892Y-39372850D01*
X-75110001Y-103774152D02*
X-70158946Y-106632644D01*
X-70158946Y-84449630D02*
X-65207892Y-81591137D01*
X-78830001Y-39372850D02*
X-70158946Y-44379086D01*
X-98360000Y-64240544D02*
X-107031054Y-69246779D01*
X-70158946Y-106632644D02*
X-65207892Y-103774152D01*
X-98360000Y-64240544D02*
X-98360000Y-68536030D01*
X-70158946Y-128815658D02*
X-65207892Y-125957166D01*
X-78830001Y-128104909D02*
X-75110001Y-125957166D01*
X-65207892Y-103774152D02*
X-61487892Y-105921895D01*
X-78830001Y-105921895D02*
X-70158946Y-110928130D01*
X-78830001Y-83738880D02*
X-70158946Y-88745116D01*
X-78830001Y-61555865D02*
X-75110001Y-59408122D01*
X-98360000Y-112902060D02*
X-103311054Y-115760552D01*
X-98360000Y-90719045D02*
X-103311054Y-93577537D01*
X-108581054Y-150998673D02*
X-103630000Y-148140180D01*
X-117252108Y-128104909D02*
X-108581054Y-133111144D01*
X-108581054Y-128815658D02*
X-103630000Y-125957166D01*
X-113532108Y-103774152D02*
X-108581054Y-106632644D01*
X-117252108Y-150287923D02*
X-113532108Y-148140180D01*
X-117252108Y-128104909D02*
X-113532108Y-125957166D01*
X-108581054Y-133111144D02*
X-99910000Y-128104909D01*
X-113532108Y-125957166D02*
X-108581054Y-128815658D01*
X-117252108Y-105921895D02*
X-113532108Y-103774152D01*
X-65207892Y-37225107D02*
X-61487892Y-39372850D01*
X-108581054Y-155294159D02*
X-99910000Y-150287923D01*
X-108581054Y-106632644D02*
X-103630000Y-103774152D01*
X-70158946Y-40083600D02*
X-65207892Y-37225107D01*
X-117252108Y-150287923D02*
X-108581054Y-155294159D01*
X-103630000Y-148140180D02*
X-99910000Y-150287923D01*
X-103630000Y-125957166D02*
X-99910000Y-128104909D01*
X-117252108Y-105921895D02*
X-108581054Y-110928130D01*
X-117252108Y-83738880D02*
X-113532108Y-81591137D01*
X-113532108Y-148140180D02*
X-108581054Y-150998673D01*
X-108581054Y-110928130D02*
X-99910000Y-105921895D01*
X-103630000Y-103774152D02*
X-99910000Y-105921895D01*
X-117252108Y-83738880D02*
X-108581054Y-88745116D01*
X-75110001Y-37225107D02*
X-70158946Y-40083600D01*
X-103630000Y-81591137D02*
X-99910000Y-83738880D01*
X-40726838Y-141881095D02*
X-40726838Y-146176581D01*
X-45677892Y-149035073D02*
X-45677892Y-154752059D01*
X-108581054Y-84449630D02*
X-103630000Y-81591137D01*
X-45677892Y-154752059D02*
X-49397892Y-156899802D01*
X-113532108Y-81591137D02*
X-108581054Y-84449630D01*
X-117252108Y-61555865D02*
X-108581054Y-66562101D01*
X-108581054Y-66562101D02*
X-99910000Y-61555865D01*
X-40726838Y-119698081D02*
X-40726838Y-123993566D01*
X-103630000Y-59408122D02*
X-99910000Y-61555865D01*
X-40726838Y-164064110D02*
X-40726838Y-168359596D01*
X-108581054Y-62266615D02*
X-103630000Y-59408122D01*
X-117252108Y-61555865D02*
X-113532108Y-59408122D01*
X-40726838Y-164064110D02*
X-49397892Y-169070345D01*
X-49397892Y-169070345D02*
X-49397892Y-179082816D01*
X-49397892Y-146887330D02*
X-49397892Y-156899802D01*
X-40726838Y-168359596D02*
X-45677892Y-171218088D01*
X-113532108Y-59408122D02*
X-108581054Y-62266615D01*
X-45677892Y-176935073D02*
X-49397892Y-179082816D01*
X-45677892Y-171218088D02*
X-45677892Y-176935073D01*
X-40726838Y-146176581D02*
X-45677892Y-149035073D01*
X-108581054Y-88745116D02*
X-99910000Y-83738880D01*
X-40726838Y-141881095D02*
X-49397892Y-146887330D01*
X-40726838Y-97515066D02*
X-49397892Y-102521302D01*
X-45677892Y-132569044D02*
X-49397892Y-134716787D01*
X-40726838Y-123993566D02*
X-45677892Y-126852059D01*
X-49397892Y-102521302D02*
X-49397892Y-112533773D01*
X-40726838Y-101810552D02*
X-45677892Y-104669045D01*
X-49397892Y-58155272D02*
X-49397892Y-68167743D01*
X-40726838Y-97515066D02*
X-40726838Y-101810552D01*
X-45677892Y-60303015D02*
X-45677892Y-66020000D01*
X-45677892Y-110386030D02*
X-49397892Y-112533773D01*
X-49397892Y-80338287D02*
X-49397892Y-90350758D01*
X-45677892Y-126852059D02*
X-45677892Y-132569044D01*
X-40726838Y-53149036D02*
X-49397892Y-58155272D01*
X-45677892Y-82486030D02*
X-45677892Y-88203015D01*
X-40726838Y-57444522D02*
X-45677892Y-60303015D01*
X-45677892Y-104669045D02*
X-45677892Y-110386030D01*
X-40726838Y-79627537D02*
X-45677892Y-82486030D01*
X-40726838Y-75332051D02*
X-40726838Y-79627537D01*
X-40726838Y-53149036D02*
X-40726838Y-57444522D01*
X-40726838Y-119698081D02*
X-49397892Y-124704316D01*
X-45677892Y-88203015D02*
X-49397892Y-90350758D01*
X-49397892Y-124704316D02*
X-49397892Y-134716787D01*
X-40726838Y-75332051D02*
X-49397892Y-80338287D01*
X-45677892Y-66020000D02*
X-49397892Y-68167743D01*
X-84100000Y-171218088D02*
X-84100000Y-176935073D01*
X-84100000Y-154752059D02*
X-87820000Y-156899802D01*
X-87820000Y-102521302D02*
X-87820000Y-112533773D01*
X-79148946Y-119698081D02*
X-79148946Y-123993566D01*
X-79148946Y-97515066D02*
X-87820000Y-102521302D01*
X-84100000Y-126852059D02*
X-84100000Y-132569044D01*
X-79148946Y-168359596D02*
X-84100000Y-171218088D01*
X-84100000Y-104669045D02*
X-84100000Y-110386030D01*
X-87820000Y-124704316D02*
X-87820000Y-134716787D01*
X-79148946Y-164064110D02*
X-79148946Y-168359596D01*
X-87820000Y-169070345D02*
X-87820000Y-179082816D01*
X-79148946Y-141881095D02*
X-87820000Y-146887330D01*
X-79148946Y-119698081D02*
X-87820000Y-124704316D01*
X-79148946Y-146176581D02*
X-84100000Y-149035073D01*
X-84100000Y-132569044D02*
X-87820000Y-134716787D01*
X-79148946Y-164064110D02*
X-87820000Y-169070345D01*
X-84100000Y-176935073D02*
X-87820000Y-179082816D01*
X-79148946Y-97515066D02*
X-79148946Y-101810552D01*
X-84100000Y-110386030D02*
X-87820000Y-112533773D01*
X-79148946Y-141881095D02*
X-79148946Y-146176581D01*
X-79148946Y-123993566D02*
X-84100000Y-126852059D01*
X-84100000Y-149035073D02*
X-84100000Y-154752059D01*
X-87820000Y-146887330D02*
X-87820000Y-156899802D01*
X-94640000Y-60303015D02*
X-99591054Y-57444522D01*
X-79148946Y-53149036D02*
X-87820000Y-58155272D01*
X-84100000Y-60303015D02*
X-84100000Y-66020000D01*
X-94321054Y-48316615D02*
X-89370000Y-51175107D01*
X-79148946Y-75332051D02*
X-79148946Y-79627537D01*
X-87820000Y-58155272D02*
X-87820000Y-68167743D01*
X-79148946Y-57444522D02*
X-84100000Y-60303015D01*
X-79148946Y-53149036D02*
X-79148946Y-57444522D01*
X-90920000Y-58155272D02*
X-99591054Y-53149036D01*
X-90920000Y-68167743D02*
X-90920000Y-58155272D01*
X-79148946Y-101810552D02*
X-84100000Y-104669045D01*
X-89370000Y-51175107D02*
X-84418945Y-48316615D01*
X-79148946Y-75332051D02*
X-87820000Y-80338287D01*
X-84100000Y-88203015D02*
X-87820000Y-90350758D01*
X-84100000Y-66020000D02*
X-87820000Y-68167743D01*
X-99591054Y-57444522D02*
X-99591054Y-53149036D01*
X-98041054Y-50464358D02*
X-89370000Y-55470593D01*
X-98041054Y-50464358D02*
X-94321054Y-48316615D01*
X-87820000Y-80338287D02*
X-87820000Y-90350758D01*
X-79148946Y-79627537D02*
X-84100000Y-82486030D01*
X-89370000Y-55470593D02*
X-80698945Y-50464358D01*
X-84418945Y-48316615D02*
X-80698945Y-50464358D01*
X-84100000Y-82486030D02*
X-84100000Y-88203015D01*
X-98360000Y-42057529D02*
X-98360000Y-46353015D01*
X-113532108Y-37225107D02*
X-108581054Y-40083600D01*
X-110131054Y-57076236D02*
X-110131054Y-47063765D01*
X-110131054Y-47063765D02*
X-118802108Y-42057529D01*
X-108581054Y-40083600D02*
X-103630000Y-37225107D01*
X-117252108Y-39372850D02*
X-113532108Y-37225107D01*
X-113851054Y-54928493D02*
X-113851054Y-49211508D01*
X-110131054Y-57076236D02*
X-113851054Y-54928493D01*
X-98360000Y-42057529D02*
X-107031054Y-47063765D01*
X-103630000Y-37225107D02*
X-99910000Y-39372850D01*
X-107031054Y-47063765D02*
X-107031054Y-57076236D01*
X-98360000Y-46353015D02*
X-103311054Y-49211508D01*
X-108581054Y-44379086D02*
X-99910000Y-39372850D01*
X-113851054Y-49211508D02*
X-118802108Y-46353015D01*
X-118802108Y-46353015D02*
X-118802108Y-42057529D01*
X-103311054Y-54928493D02*
X-107031054Y-57076236D01*
X-103311054Y-49211508D02*
X-103311054Y-54928493D01*
X-90920000Y-68167743D02*
X-94640000Y-66020000D01*
X-117252108Y-39372850D02*
X-108581054Y-44379086D01*
X-94640000Y-66020000D02*
X-94640000Y-60303015D01*
M02*
