%TF.GenerationSoftware,KiCad,Pcbnew,(5.1.6)-1*%
%TF.CreationDate,2020-10-10T00:21:08+01:00*%
%TF.ProjectId,Side 2,53696465-2032-42e6-9b69-6361645f7063,rev?*%
%TF.SameCoordinates,Original*%
%TF.FileFunction,Profile,NP*%
%FSLAX46Y46*%
G04 Gerber Fmt 4.6, Leading zero omitted, Abs format (unit mm)*
G04 Created by KiCad (PCBNEW (5.1.6)-1) date 2020-10-10 00:21:08*
%MOMM*%
%LPD*%
G01*
G04 APERTURE LIST*
%TA.AperFunction,Profile*%
%ADD10C,0.254000*%
%TD*%
G04 APERTURE END LIST*
D10*
X-49130697Y-107772223D02*
X-44231045Y-104943408D01*
X-56230348Y-162783056D02*
X-54030348Y-161512886D01*
X-44231045Y-104943408D02*
X-42031045Y-106213578D01*
X-49130697Y-150199331D02*
X-44231045Y-147370516D01*
X-56230348Y-148640687D02*
X-49130697Y-152739672D01*
X-56230348Y-120355947D02*
X-54030348Y-119085777D01*
X-56230348Y-120355947D02*
X-49130697Y-124454933D01*
X-54030348Y-119085777D02*
X-49130697Y-121914592D01*
X-49130697Y-124454933D02*
X-42031045Y-120355947D01*
X-49130697Y-121914592D02*
X-44231045Y-119085777D01*
X-56230348Y-134498317D02*
X-49130697Y-138597302D01*
X-56230348Y-106213578D02*
X-49130697Y-110312564D01*
X-54030348Y-161512886D02*
X-49130697Y-164341701D01*
X-54030348Y-147370516D02*
X-49130697Y-150199331D01*
X-49130697Y-110312564D02*
X-42031045Y-106213578D01*
X-49130697Y-166882042D02*
X-42031045Y-162783056D01*
X-44231045Y-133228146D02*
X-42031045Y-134498317D01*
X-44231045Y-147370516D02*
X-42031045Y-148640687D01*
X-56230348Y-106213578D02*
X-54030348Y-104943408D01*
X-54030348Y-133228146D02*
X-49130697Y-136056961D01*
X-56230348Y-162783056D02*
X-49130697Y-166882042D01*
X-49130697Y-152739672D02*
X-42031045Y-148640687D01*
X-56230348Y-134498317D02*
X-54030348Y-133228146D01*
X-44231045Y-161512886D02*
X-42031045Y-162783056D01*
X-56230348Y-148640687D02*
X-54030348Y-147370516D01*
X-49130697Y-138597302D02*
X-42031045Y-134498317D01*
X-49130697Y-164341701D02*
X-44231045Y-161512886D01*
X-49130697Y-136056961D02*
X-44231045Y-133228146D01*
X-44231045Y-119085777D02*
X-42031045Y-120355947D01*
X-73626000Y-110312564D02*
X-66526348Y-106213578D01*
X-80725650Y-92071208D02*
X-73626000Y-96170194D01*
X-73626000Y-96170194D02*
X-66526348Y-92071208D01*
X-73626000Y-82027824D02*
X-66526348Y-77928839D01*
X-68726348Y-161512886D02*
X-66526348Y-162783056D01*
X-80725650Y-120355947D02*
X-78525651Y-119085777D01*
X-49130697Y-79487483D02*
X-44231045Y-76658668D01*
X-56230348Y-49644099D02*
X-54030348Y-48373929D01*
X-73626000Y-152739672D02*
X-66526348Y-148640687D01*
X-54030348Y-48373929D02*
X-49130697Y-51202744D01*
X-80725650Y-106213578D02*
X-78525651Y-104943408D01*
X-68726348Y-104943408D02*
X-66526348Y-106213578D01*
X-56230348Y-49644099D02*
X-49130697Y-53743085D01*
X-49130697Y-51202744D02*
X-44231045Y-48373929D01*
X-56230348Y-63786469D02*
X-49130697Y-67885455D01*
X-49130697Y-53743085D02*
X-42031045Y-49644099D01*
X-73626000Y-93629853D02*
X-68726348Y-90801038D01*
X-80725650Y-92071208D02*
X-78525651Y-90801038D01*
X-73626000Y-107772223D02*
X-68726348Y-104943408D01*
X-54030348Y-104943408D02*
X-49130697Y-107772223D01*
X-80725650Y-162783056D02*
X-73626000Y-166882042D01*
X-73626000Y-121914592D02*
X-68726348Y-119085777D01*
X-80725650Y-77928839D02*
X-73626000Y-82027824D01*
X-49130697Y-82027824D02*
X-42031045Y-77928839D01*
X-73626000Y-138597302D02*
X-66526348Y-134498317D01*
X-54030348Y-76658668D02*
X-49130697Y-79487483D01*
X-56230348Y-92071208D02*
X-54030348Y-90801038D01*
X-73626000Y-166882042D02*
X-66526348Y-162783056D01*
X-44231045Y-62516298D02*
X-42031045Y-63786469D01*
X-80725650Y-120355947D02*
X-73626000Y-124454933D01*
X-68726348Y-119085777D02*
X-66526348Y-120355947D01*
X-73626000Y-136056961D02*
X-68726348Y-133228146D01*
X-56230348Y-92071208D02*
X-49130697Y-96170194D01*
X-80725650Y-162783056D02*
X-78525651Y-161512886D01*
X-80725650Y-148640687D02*
X-78525651Y-147370516D01*
X-49130697Y-96170194D02*
X-42031045Y-92071208D01*
X-44231045Y-90801038D02*
X-42031045Y-92071208D01*
X-49130697Y-93629853D02*
X-44231045Y-90801038D01*
X-54030348Y-90801038D02*
X-49130697Y-93629853D01*
X-54030348Y-62516298D02*
X-49130697Y-65345113D01*
X-56230348Y-77928839D02*
X-54030348Y-76658668D01*
X-78525651Y-133228146D02*
X-73626000Y-136056961D01*
X-56230348Y-77928839D02*
X-49130697Y-82027824D01*
X-44231045Y-76658668D02*
X-42031045Y-77928839D01*
X-56230348Y-63786469D02*
X-54030348Y-62516298D01*
X-78525651Y-147370516D02*
X-73626000Y-150199331D01*
X-80725650Y-77928839D02*
X-78525651Y-76658668D01*
X-78525651Y-119085777D02*
X-73626000Y-121914592D01*
X-80725650Y-106213578D02*
X-73626000Y-110312564D01*
X-80725650Y-134498317D02*
X-73626000Y-138597302D01*
X-73626000Y-124454933D02*
X-66526348Y-120355947D01*
X-78525651Y-161512886D02*
X-73626000Y-164341701D01*
X-73626000Y-150199331D02*
X-68726348Y-147370516D01*
X-49130697Y-67885455D02*
X-42031045Y-63786469D01*
X-78525651Y-104943408D02*
X-73626000Y-107772223D01*
X-49130697Y-65345113D02*
X-44231045Y-62516298D01*
X-44231045Y-48373929D02*
X-42031045Y-49644099D01*
X-68726348Y-90801038D02*
X-66526348Y-92071208D01*
X-73626000Y-164341701D02*
X-68726348Y-161512886D01*
X-80725650Y-148640687D02*
X-73626000Y-152739672D01*
X-68726348Y-147370516D02*
X-66526348Y-148640687D01*
X-80725650Y-134498317D02*
X-78525651Y-133228146D01*
X-68726348Y-133228146D02*
X-66526348Y-134498317D01*
X-78525651Y-90801038D02*
X-73626000Y-93629853D01*
X-98121302Y-124454933D02*
X-91021650Y-120355947D01*
X-98121302Y-67885455D02*
X-91021650Y-63786469D01*
X-105220953Y-120355947D02*
X-103020953Y-119085777D01*
X-103020953Y-104943408D02*
X-98121302Y-107772223D01*
X-98121302Y-110312564D02*
X-91021650Y-106213578D01*
X-105220953Y-77928839D02*
X-103020953Y-76658668D01*
X-105220953Y-92071208D02*
X-103020953Y-90801038D01*
X-105220953Y-63786469D02*
X-103020953Y-62516298D01*
X-68726348Y-48373929D02*
X-66526348Y-49644099D01*
X-68726348Y-76658668D02*
X-66526348Y-77928839D01*
X-98121302Y-82027824D02*
X-91021650Y-77928839D01*
X-103020953Y-119085777D02*
X-98121302Y-121914592D01*
X-73626000Y-79487483D02*
X-68726348Y-76658668D01*
X-78525651Y-76658668D02*
X-73626000Y-79487483D01*
X-80725650Y-63786469D02*
X-78525651Y-62516298D01*
X-105220953Y-148640687D02*
X-98121302Y-152739672D01*
X-98121302Y-138597302D02*
X-91021650Y-134498317D01*
X-78525651Y-62516298D02*
X-73626000Y-65345113D01*
X-78525651Y-48373929D02*
X-73626000Y-51202744D01*
X-98121302Y-121914592D02*
X-93221650Y-119085777D01*
X-93221650Y-76658668D02*
X-91021650Y-77928839D01*
X-98121302Y-65345113D02*
X-93221650Y-62516298D01*
X-93221650Y-90801038D02*
X-91021650Y-92071208D01*
X-98121302Y-164341701D02*
X-93221650Y-161512886D01*
X-93221650Y-62516298D02*
X-91021650Y-63786469D01*
X-80725650Y-63786469D02*
X-73626000Y-67885455D01*
X-73626000Y-67885455D02*
X-66526348Y-63786469D01*
X-93221650Y-147370516D02*
X-91021650Y-148640687D01*
X-73626000Y-65345113D02*
X-68726348Y-62516298D01*
X-105220953Y-148640687D02*
X-103020953Y-147370516D01*
X-105220953Y-63786469D02*
X-98121302Y-67885455D01*
X-80725650Y-49644099D02*
X-78525651Y-48373929D01*
X-80725650Y-49644099D02*
X-73626000Y-53743085D01*
X-103020953Y-76658668D02*
X-98121302Y-79487483D01*
X-98121302Y-150199331D02*
X-93221650Y-147370516D01*
X-105220953Y-106213578D02*
X-103020953Y-104943408D01*
X-93221650Y-119085777D02*
X-91021650Y-120355947D01*
X-105220953Y-92071208D02*
X-98121302Y-96170194D01*
X-73626000Y-51202744D02*
X-68726348Y-48373929D01*
X-105220953Y-162783056D02*
X-103020953Y-161512886D01*
X-105220953Y-162783056D02*
X-98121302Y-166882042D01*
X-98121302Y-166882042D02*
X-91021650Y-162783056D01*
X-103020953Y-161512886D02*
X-98121302Y-164341701D01*
X-105220953Y-120355947D02*
X-98121302Y-124454933D01*
X-103020953Y-62516298D02*
X-98121302Y-65345113D01*
X-98121302Y-79487483D02*
X-93221650Y-76658668D01*
X-98121302Y-93629853D02*
X-93221650Y-90801038D01*
X-105220953Y-134498317D02*
X-98121302Y-138597302D01*
X-98121302Y-152739672D02*
X-91021650Y-148640687D01*
X-105220953Y-134498317D02*
X-103020953Y-133228146D01*
X-105220953Y-77928839D02*
X-98121302Y-82027824D01*
X-93221650Y-133228146D02*
X-91021650Y-134498317D01*
X-103020953Y-133228146D02*
X-98121302Y-136056961D01*
X-93221650Y-104943408D02*
X-91021650Y-106213578D01*
X-98121302Y-96170194D02*
X-91021650Y-92071208D01*
X-105220953Y-106213578D02*
X-98121302Y-110312564D01*
X-98121302Y-107772223D02*
X-93221650Y-104943408D01*
X-103020953Y-90801038D02*
X-98121302Y-93629853D01*
X-49504697Y-175727800D02*
X-51704697Y-174457630D01*
X-68726348Y-62516298D02*
X-66526348Y-63786469D01*
X-73626000Y-53743085D02*
X-66526348Y-49644099D01*
X-93221650Y-161512886D02*
X-91021650Y-162783056D01*
X-103020953Y-147370516D02*
X-98121302Y-150199331D01*
X-98121302Y-136056961D02*
X-93221650Y-133228146D01*
X-74000000Y-90873583D02*
X-74000000Y-82675611D01*
X-98495302Y-161585431D02*
X-98495302Y-153387459D01*
X-105594953Y-165971185D02*
X-105594953Y-163430843D01*
X-76200000Y-83945782D02*
X-81099650Y-81116967D01*
X-74000000Y-62588843D02*
X-76200000Y-61318673D01*
X-98495302Y-153387459D02*
X-105594953Y-149288474D01*
X-74000000Y-62588843D02*
X-74000000Y-54390872D01*
X-76200000Y-61318673D02*
X-76200000Y-55661042D01*
X-74000000Y-54390872D02*
X-81099650Y-50291886D01*
X-76200000Y-55661042D02*
X-81099650Y-52832227D01*
X-74000000Y-133300691D02*
X-74000000Y-125102720D01*
X-74000000Y-139245090D02*
X-81099650Y-135146104D01*
X-74000000Y-76731213D02*
X-74000000Y-68533242D01*
X-74000000Y-119158322D02*
X-74000000Y-110960351D01*
X-81099650Y-137686445D02*
X-81099650Y-135146104D01*
X-74000000Y-119158322D02*
X-76200000Y-117888152D01*
X-98495302Y-175727800D02*
X-98495302Y-167529829D01*
X-76200000Y-126372890D02*
X-81099650Y-123544075D01*
X-76200000Y-103745782D02*
X-76200000Y-98088152D01*
X-76200000Y-89603412D02*
X-76200000Y-83945782D01*
X-81099650Y-123544075D02*
X-81099650Y-121003734D01*
X-98495302Y-167529829D02*
X-105594953Y-163430843D01*
X-74000000Y-96817981D02*
X-81099650Y-92718995D01*
X-81099650Y-66974597D02*
X-81099650Y-64434256D01*
X-81099650Y-81116967D02*
X-81099650Y-78576626D01*
X-76200000Y-146172890D02*
X-76200000Y-140515260D01*
X-76200000Y-112230522D02*
X-81099650Y-109401706D01*
X-98495302Y-175727800D02*
X-100695302Y-174457630D01*
X-98495302Y-161585431D02*
X-100695302Y-160315260D01*
X-74000000Y-125102720D02*
X-81099650Y-121003734D01*
X-76200000Y-117888152D02*
X-76200000Y-112230522D01*
X-76200000Y-75461042D02*
X-76200000Y-69803412D01*
X-74000000Y-105015953D02*
X-74000000Y-96817981D01*
X-74000000Y-110960351D02*
X-81099650Y-106861365D01*
X-74000000Y-82675611D02*
X-81099650Y-78576626D01*
X-76200000Y-160315260D02*
X-76200000Y-154657630D01*
X-74000000Y-147443061D02*
X-76200000Y-146172890D01*
X-74000000Y-147443061D02*
X-74000000Y-139245090D01*
X-74000000Y-76731213D02*
X-76200000Y-75461042D01*
X-100695302Y-160315260D02*
X-100695302Y-154657630D01*
X-81099650Y-95259337D02*
X-81099650Y-92718995D01*
X-74000000Y-90873583D02*
X-76200000Y-89603412D01*
X-74000000Y-68533242D02*
X-81099650Y-64434256D01*
X-100695302Y-174457630D02*
X-100695302Y-168800000D01*
X-98495302Y-147443061D02*
X-98495302Y-139245090D01*
X-100695302Y-154657630D02*
X-105594953Y-151828815D01*
X-76200000Y-140515260D02*
X-81099650Y-137686445D01*
X-76200000Y-98088152D02*
X-81099650Y-95259337D01*
X-74000000Y-133300691D02*
X-76200000Y-132030521D01*
X-76200000Y-69803412D02*
X-81099650Y-66974597D01*
X-76200000Y-132030521D02*
X-76200000Y-126372890D01*
X-81099650Y-109401706D02*
X-81099650Y-106861365D01*
X-74000000Y-105015953D02*
X-76200000Y-103745782D01*
X-81099650Y-52832227D02*
X-81099650Y-50291886D01*
X-100695302Y-168800000D02*
X-105594953Y-165971185D01*
X-105594953Y-151828815D02*
X-105594953Y-149288474D01*
X-98495302Y-147443061D02*
X-100695302Y-146172890D01*
X-63952348Y-133444075D02*
X-68852000Y-130615260D01*
X-98495302Y-110960351D02*
X-105594953Y-106861365D01*
X-61752348Y-126229506D02*
X-61752348Y-118031536D01*
X-68852000Y-102330522D02*
X-68852000Y-99790180D01*
X-105594953Y-109401706D02*
X-105594953Y-106861365D01*
X-68852000Y-130615260D02*
X-68852000Y-128074919D01*
X-98495302Y-90873583D02*
X-100695302Y-89603412D01*
X-100695302Y-75461042D02*
X-100695302Y-69803412D01*
X-61752348Y-118031536D02*
X-68852000Y-113932550D01*
X-98495302Y-68533242D02*
X-105594953Y-64434256D01*
X-61752348Y-154514246D02*
X-63952348Y-153244075D01*
X-63952348Y-153244075D02*
X-63952348Y-147586445D01*
X-61752348Y-154514246D02*
X-61752348Y-146316274D01*
X-63952348Y-147586445D02*
X-68852000Y-144757630D01*
X-98495302Y-139245090D02*
X-105594953Y-135146104D01*
X-61752348Y-146316274D02*
X-68852000Y-142217289D01*
X-98495302Y-105015953D02*
X-100695302Y-103745782D01*
X-61752348Y-168656616D02*
X-61752348Y-160458644D01*
X-100695302Y-112230522D02*
X-105594953Y-109401706D01*
X-100695302Y-140515260D02*
X-105594953Y-137686445D01*
X-98495302Y-105015953D02*
X-98495302Y-96817981D01*
X-61752348Y-140371876D02*
X-61752348Y-132173905D01*
X-100695302Y-126372890D02*
X-105594953Y-123544075D01*
X-100695302Y-89603412D02*
X-100695302Y-83945782D01*
X-61752348Y-103889166D02*
X-68852000Y-99790180D01*
X-98495302Y-76731213D02*
X-100695302Y-75461042D01*
X-98495302Y-133300691D02*
X-98495302Y-125102720D01*
X-61752348Y-132173905D02*
X-68852000Y-128074919D01*
X-105594953Y-123544075D02*
X-105594953Y-121003734D01*
X-98495302Y-82675611D02*
X-105594953Y-78576626D01*
X-68852000Y-158900000D02*
X-68852000Y-156359658D01*
X-63952348Y-105159337D02*
X-68852000Y-102330522D01*
X-100695302Y-69803412D02*
X-105594953Y-66974597D01*
X-61752348Y-140371876D02*
X-63952348Y-139101705D01*
X-61752348Y-126229506D02*
X-63952348Y-124959336D01*
X-105594953Y-137686445D02*
X-105594953Y-135146104D01*
X-100695302Y-98088152D02*
X-105594953Y-95259337D01*
X-100695302Y-146172890D02*
X-100695302Y-140515260D01*
X-100695302Y-103745782D02*
X-100695302Y-98088152D01*
X-63952348Y-167386445D02*
X-63952348Y-161728815D01*
X-98495302Y-90873583D02*
X-98495302Y-82675611D01*
X-63952348Y-110816967D02*
X-63952348Y-105159337D01*
X-105594953Y-66974597D02*
X-105594953Y-64434256D01*
X-98495302Y-125102720D02*
X-105594953Y-121003734D01*
X-98495302Y-96817981D02*
X-105594953Y-92718995D01*
X-63952348Y-124959336D02*
X-63952348Y-119301706D01*
X-100695302Y-132030521D02*
X-100695302Y-126372890D01*
X-61752348Y-168656616D02*
X-63952348Y-167386445D01*
X-98495302Y-119158322D02*
X-98495302Y-110960351D01*
X-61752348Y-112087137D02*
X-61752348Y-103889166D01*
X-105594953Y-81116967D02*
X-105594953Y-78576626D01*
X-63952348Y-139101705D02*
X-63952348Y-133444075D01*
X-63952348Y-119301706D02*
X-68852000Y-116472891D01*
X-100695302Y-117888152D02*
X-100695302Y-112230522D01*
X-98495302Y-76731213D02*
X-98495302Y-68533242D01*
X-61752348Y-160458644D02*
X-68852000Y-156359658D01*
X-98495302Y-133300691D02*
X-100695302Y-132030521D01*
X-100695302Y-83945782D02*
X-105594953Y-81116967D01*
X-98495302Y-119158322D02*
X-100695302Y-117888152D01*
X-105594953Y-95259337D02*
X-105594953Y-92718995D01*
X-63952348Y-161728815D02*
X-68852000Y-158900000D01*
X-68852000Y-144757630D02*
X-68852000Y-142217289D01*
X-61752348Y-112087137D02*
X-63952348Y-110816967D01*
X-68852000Y-116472891D02*
X-68852000Y-113932550D01*
X-74000000Y-175727800D02*
X-76200000Y-174457630D01*
X-56604348Y-66974597D02*
X-56604348Y-64434256D01*
X-49504697Y-54390872D02*
X-56604348Y-50291886D01*
X-81099650Y-151828815D02*
X-81099650Y-149288474D01*
X-74000000Y-161585431D02*
X-76200000Y-160315260D01*
X-51704697Y-55661042D02*
X-56604348Y-52832227D01*
X-76200000Y-154657630D02*
X-81099650Y-151828815D01*
X-49504697Y-175727800D02*
X-49504697Y-167529829D01*
X-49504697Y-105015953D02*
X-49504697Y-96817981D01*
X-49504697Y-167529829D02*
X-56604348Y-163430843D01*
X-51704697Y-140515260D02*
X-56604348Y-137686445D01*
X-81099650Y-165971185D02*
X-81099650Y-163430843D01*
X-51704697Y-154657630D02*
X-56604348Y-151828815D01*
X-51704697Y-132030521D02*
X-51704697Y-126372890D01*
X-56604348Y-165971185D02*
X-56604348Y-163430843D01*
X-51704697Y-89603412D02*
X-51704697Y-83945782D01*
X-49504697Y-62588843D02*
X-51704697Y-61318673D01*
X-51704697Y-168800000D02*
X-56604348Y-165971185D01*
X-51704697Y-174457630D02*
X-51704697Y-168800000D01*
X-49504697Y-161585431D02*
X-51704697Y-160315260D01*
X-74000000Y-167529829D02*
X-81099650Y-163430843D01*
X-56604348Y-95259337D02*
X-56604348Y-92718995D01*
X-56604348Y-109401706D02*
X-56604348Y-106861365D01*
X-49504697Y-161585431D02*
X-49504697Y-153387459D01*
X-49504697Y-82675611D02*
X-56604348Y-78576626D01*
X-49504697Y-133300691D02*
X-49504697Y-125102720D01*
X-49504697Y-153387459D02*
X-56604348Y-149288474D01*
X-49504697Y-76731213D02*
X-49504697Y-68533242D01*
X-56604348Y-151828815D02*
X-56604348Y-149288474D01*
X-51704697Y-160315260D02*
X-51704697Y-154657630D01*
X-51704697Y-83945782D02*
X-56604348Y-81116967D01*
X-49504697Y-147443061D02*
X-51704697Y-146172890D01*
X-49504697Y-147443061D02*
X-49504697Y-139245090D01*
X-49504697Y-139245090D02*
X-56604348Y-135146104D01*
X-49504697Y-110960351D02*
X-56604348Y-106861365D01*
X-76200000Y-168800000D02*
X-81099650Y-165971185D01*
X-74000000Y-175727800D02*
X-74000000Y-167529829D01*
X-49504697Y-68533242D02*
X-56604348Y-64434256D01*
X-51704697Y-112230522D02*
X-56604348Y-109401706D01*
X-51704697Y-98088152D02*
X-56604348Y-95259337D01*
X-49504697Y-96817981D02*
X-56604348Y-92718995D01*
X-51704697Y-146172890D02*
X-51704697Y-140515260D01*
X-49504697Y-125102720D02*
X-56604348Y-121003734D01*
X-49504697Y-133300691D02*
X-51704697Y-132030521D01*
X-56604348Y-123544075D02*
X-56604348Y-121003734D01*
X-51704697Y-61318673D02*
X-51704697Y-55661042D01*
X-51704697Y-126372890D02*
X-56604348Y-123544075D01*
X-51704697Y-75461042D02*
X-51704697Y-69803412D01*
X-51704697Y-103745782D02*
X-51704697Y-98088152D01*
X-56604348Y-81116967D02*
X-56604348Y-78576626D01*
X-49504697Y-76731213D02*
X-51704697Y-75461042D01*
X-51704697Y-69803412D02*
X-56604348Y-66974597D01*
X-49504697Y-62588843D02*
X-49504697Y-54390872D01*
X-56604348Y-52832227D02*
X-56604348Y-50291886D01*
X-74000000Y-161585431D02*
X-74000000Y-153387459D01*
X-76200000Y-174457630D02*
X-76200000Y-168800000D01*
X-51704697Y-117888152D02*
X-51704697Y-112230522D01*
X-49504697Y-90873583D02*
X-51704697Y-89603412D01*
X-74000000Y-153387459D02*
X-81099650Y-149288474D01*
X-56604348Y-137686445D02*
X-56604348Y-135146104D01*
X-49504697Y-119158322D02*
X-51704697Y-117888152D01*
X-49504697Y-119158322D02*
X-49504697Y-110960351D01*
X-49504697Y-105015953D02*
X-51704697Y-103745782D01*
X-49504697Y-90873583D02*
X-49504697Y-82675611D01*
X-112942953Y-124959336D02*
X-112942953Y-119301706D01*
X-110742953Y-126229506D02*
X-110742953Y-118031536D01*
X-112942953Y-110816967D02*
X-112942953Y-105159337D01*
X-110742953Y-89746796D02*
X-117842605Y-85647811D01*
X-117842605Y-74045782D02*
X-117842605Y-71505441D01*
X-117842605Y-88188152D02*
X-117842605Y-85647811D01*
X-117842605Y-116472891D02*
X-117842605Y-113932550D01*
X-110742953Y-146316274D02*
X-117842605Y-142217289D01*
X-88447650Y-76874597D02*
X-93347302Y-74045782D01*
X-112942953Y-82532227D02*
X-112942953Y-76874597D01*
X-110742953Y-103889166D02*
X-117842605Y-99790180D01*
X-110742953Y-160458644D02*
X-117842605Y-156359658D01*
X-112942953Y-147586445D02*
X-117842605Y-144757630D01*
X-88447650Y-82532227D02*
X-88447650Y-76874597D01*
X-112942953Y-139101705D02*
X-112942953Y-133444075D01*
X-86247650Y-69660028D02*
X-88447650Y-68389858D01*
X-86247650Y-69660028D02*
X-86247650Y-61462057D01*
X-110742953Y-112087137D02*
X-110742953Y-103889166D01*
X-110742953Y-69660028D02*
X-110742953Y-61462057D01*
X-86247650Y-61462057D02*
X-93347302Y-57363071D01*
X-110742953Y-83802398D02*
X-112942953Y-82532227D01*
X-93347302Y-59903412D02*
X-93347302Y-57363071D01*
X-88447650Y-62732227D02*
X-93347302Y-59903412D01*
X-110742953Y-140371876D02*
X-112942953Y-139101705D01*
X-86247650Y-55517658D02*
X-86247650Y-47319687D01*
X-93347302Y-45761042D02*
X-93347302Y-43220701D01*
X-117842605Y-144757630D02*
X-117842605Y-142217289D01*
X-86247650Y-47319687D02*
X-93347302Y-43220701D01*
X-112942953Y-161728815D02*
X-117842605Y-158900000D01*
X-110742953Y-154514246D02*
X-112942953Y-153244075D01*
X-110742953Y-140371876D02*
X-110742953Y-132173905D01*
X-117842605Y-102330522D02*
X-117842605Y-99790180D01*
X-110742953Y-112087137D02*
X-112942953Y-110816967D01*
X-112942953Y-91016967D02*
X-117842605Y-88188152D01*
X-86247650Y-55517658D02*
X-88447650Y-54247488D01*
X-88447650Y-68389858D02*
X-88447650Y-62732227D01*
X-88447650Y-54247488D02*
X-88447650Y-48589858D01*
X-110742953Y-168656616D02*
X-110742953Y-160458644D01*
X-117842605Y-158900000D02*
X-117842605Y-156359658D01*
X-112942953Y-153244075D02*
X-112942953Y-147586445D01*
X-112942953Y-119301706D02*
X-117842605Y-116472891D01*
X-110742953Y-83802398D02*
X-110742953Y-75604427D01*
X-112942953Y-133444075D02*
X-117842605Y-130615260D01*
X-117842605Y-130615260D02*
X-117842605Y-128074919D01*
X-112942953Y-76874597D02*
X-117842605Y-74045782D01*
X-110742953Y-126229506D02*
X-112942953Y-124959336D01*
X-110742953Y-118031536D02*
X-117842605Y-113932550D01*
X-110742953Y-97944768D02*
X-112942953Y-96674597D01*
X-112942953Y-96674597D02*
X-112942953Y-91016967D01*
X-112942953Y-105159337D02*
X-117842605Y-102330522D01*
X-88447650Y-48589858D02*
X-93347302Y-45761042D01*
X-110742953Y-75604427D02*
X-117842605Y-71505441D01*
X-110742953Y-97944768D02*
X-110742953Y-89746796D01*
X-110742953Y-168656616D02*
X-112942953Y-167386445D01*
X-112942953Y-167386445D02*
X-112942953Y-161728815D01*
X-110742953Y-154514246D02*
X-110742953Y-146316274D01*
X-110742953Y-132173905D02*
X-117842605Y-128074919D01*
X-58804348Y-96674597D02*
X-61004348Y-97944768D01*
X-78400000Y-156359658D02*
X-85499650Y-160458644D01*
X-53904697Y-71505441D02*
X-53904697Y-74045782D01*
X-61004348Y-61462057D02*
X-61004348Y-69660028D01*
X-53904697Y-43220701D02*
X-53904697Y-45761042D01*
X-61004348Y-89746796D02*
X-61004348Y-97944768D01*
X-53904697Y-116472891D02*
X-58804348Y-119301706D01*
X-58804348Y-105159337D02*
X-58804348Y-110816967D01*
X-53904697Y-71505441D02*
X-61004348Y-75604427D01*
X-53904697Y-59903412D02*
X-58804348Y-62732227D01*
X-53904697Y-45761042D02*
X-58804348Y-48589858D01*
X-85499650Y-160458644D02*
X-85499650Y-168656616D01*
X-53904697Y-99790180D02*
X-53904697Y-102330522D01*
X-58804348Y-110816967D02*
X-61004348Y-112087137D01*
X-110742953Y-61462057D02*
X-117842605Y-57363071D01*
X-53904697Y-99790180D02*
X-61004348Y-103889166D01*
X-110742953Y-69660028D02*
X-112942953Y-68389858D01*
X-53904697Y-113932550D02*
X-53904697Y-116472891D01*
X-83299650Y-167386445D02*
X-85499650Y-168656616D01*
X-53904697Y-156359658D02*
X-53904697Y-158900000D01*
X-53904697Y-85647811D02*
X-53904697Y-88188152D01*
X-58804348Y-68389858D02*
X-61004348Y-69660028D01*
X-58804348Y-54247488D02*
X-61004348Y-55517658D01*
X-58804348Y-147586445D02*
X-58804348Y-153244075D01*
X-53904697Y-57363071D02*
X-61004348Y-61462057D01*
X-58804348Y-133444075D02*
X-58804348Y-139101705D01*
X-117842605Y-59903412D02*
X-117842605Y-57363071D01*
X-53904697Y-85647811D02*
X-61004348Y-89746796D01*
X-112942953Y-62732227D02*
X-117842605Y-59903412D01*
X-61004348Y-118031536D02*
X-61004348Y-126229506D01*
X-61004348Y-47319687D02*
X-61004348Y-55517658D01*
X-53904697Y-142217289D02*
X-61004348Y-146316274D01*
X-61004348Y-132173905D02*
X-61004348Y-140371876D01*
X-53904697Y-102330522D02*
X-58804348Y-105159337D01*
X-53904697Y-88188152D02*
X-58804348Y-91016967D01*
X-112942953Y-68389858D02*
X-112942953Y-62732227D01*
X-58804348Y-167386445D02*
X-61004348Y-168656616D01*
X-53904697Y-156359658D02*
X-61004348Y-160458644D01*
X-61004348Y-160458644D02*
X-61004348Y-168656616D01*
X-58804348Y-119301706D02*
X-58804348Y-124959336D01*
X-58804348Y-161728815D02*
X-58804348Y-167386445D01*
X-53904697Y-142217289D02*
X-53904697Y-144757630D01*
X-53904697Y-128074919D02*
X-61004348Y-132173905D01*
X-53904697Y-158900000D02*
X-58804348Y-161728815D01*
X-61004348Y-146316274D02*
X-61004348Y-154514246D01*
X-58804348Y-76874597D02*
X-58804348Y-82532227D01*
X-53904697Y-130615260D02*
X-58804348Y-133444075D01*
X-58804348Y-48589858D02*
X-58804348Y-54247488D01*
X-78400000Y-156359658D02*
X-78400000Y-158900000D01*
X-53904697Y-57363071D02*
X-53904697Y-59903412D01*
X-53904697Y-43220701D02*
X-61004348Y-47319687D01*
X-58804348Y-91016967D02*
X-58804348Y-96674597D01*
X-58804348Y-82532227D02*
X-61004348Y-83802398D01*
X-53904697Y-144757630D02*
X-58804348Y-147586445D01*
X-83299650Y-161728815D02*
X-83299650Y-167386445D01*
X-53904697Y-113932550D02*
X-61004348Y-118031536D01*
X-58804348Y-153244075D02*
X-61004348Y-154514246D01*
X-53904697Y-128074919D02*
X-53904697Y-130615260D01*
X-58804348Y-139101705D02*
X-61004348Y-140371876D01*
X-58804348Y-124959336D02*
X-61004348Y-126229506D01*
X-58804348Y-62732227D02*
X-58804348Y-68389858D01*
X-61004348Y-103889166D02*
X-61004348Y-112087137D01*
X-53904697Y-74045782D02*
X-58804348Y-76874597D01*
X-61004348Y-75604427D02*
X-61004348Y-83802398D01*
X-61752348Y-83802398D02*
X-61752348Y-75604427D01*
X-88447650Y-96674597D02*
X-88447650Y-91016967D01*
X-86247650Y-140371876D02*
X-86247650Y-132173905D01*
X-86247650Y-97944768D02*
X-88447650Y-96674597D01*
X-63952348Y-62732227D02*
X-68852000Y-59903412D01*
X-63952348Y-76874597D02*
X-68852000Y-74045782D01*
X-63952348Y-68389858D02*
X-63952348Y-62732227D01*
X-88447650Y-124959336D02*
X-88447650Y-119301706D01*
X-88447650Y-110816967D02*
X-88447650Y-105159337D01*
X-88447650Y-133444075D02*
X-93347302Y-130615260D01*
X-86247650Y-168656616D02*
X-86247650Y-160458644D01*
X-68852000Y-74045782D02*
X-68852000Y-71505441D01*
X-68852000Y-88188152D02*
X-68852000Y-85647811D01*
X-93347302Y-158900000D02*
X-93347302Y-156359658D01*
X-63952348Y-82532227D02*
X-63952348Y-76874597D01*
X-63952348Y-48589858D02*
X-68852000Y-45761042D01*
X-86247650Y-89746796D02*
X-93347302Y-85647811D01*
X-86247650Y-160458644D02*
X-93347302Y-156359658D01*
X-86247650Y-154514246D02*
X-86247650Y-146316274D01*
X-86247650Y-146316274D02*
X-93347302Y-142217289D01*
X-86247650Y-112087137D02*
X-86247650Y-103889166D01*
X-93347302Y-102330522D02*
X-93347302Y-99790180D01*
X-63952348Y-91016967D02*
X-68852000Y-88188152D01*
X-86247650Y-103889166D02*
X-93347302Y-99790180D01*
X-61752348Y-47319687D02*
X-68852000Y-43220701D01*
X-86247650Y-118031536D02*
X-93347302Y-113932550D01*
X-61752348Y-75604427D02*
X-68852000Y-71505441D01*
X-68852000Y-59903412D02*
X-68852000Y-57363071D01*
X-93347302Y-74045782D02*
X-93347302Y-71505441D01*
X-86247650Y-154514246D02*
X-88447650Y-153244075D01*
X-63952348Y-54247488D02*
X-63952348Y-48589858D01*
X-88447650Y-161728815D02*
X-93347302Y-158900000D01*
X-86247650Y-112087137D02*
X-88447650Y-110816967D01*
X-93347302Y-116472891D02*
X-93347302Y-113932550D01*
X-88447650Y-147586445D02*
X-93347302Y-144757630D01*
X-86247650Y-140371876D02*
X-88447650Y-139101705D01*
X-88447650Y-139101705D02*
X-88447650Y-133444075D01*
X-93347302Y-144757630D02*
X-93347302Y-142217289D01*
X-88447650Y-167386445D02*
X-88447650Y-161728815D01*
X-86247650Y-132173905D02*
X-93347302Y-128074919D01*
X-86247650Y-83802398D02*
X-88447650Y-82532227D01*
X-68852000Y-45761042D02*
X-68852000Y-43220701D01*
X-93347302Y-88188152D02*
X-93347302Y-85647811D01*
X-61752348Y-97944768D02*
X-63952348Y-96674597D01*
X-61752348Y-97944768D02*
X-61752348Y-89746796D01*
X-61752348Y-69660028D02*
X-63952348Y-68389858D01*
X-61752348Y-69660028D02*
X-61752348Y-61462057D01*
X-61752348Y-55517658D02*
X-63952348Y-54247488D01*
X-61752348Y-55517658D02*
X-61752348Y-47319687D01*
X-86247650Y-168656616D02*
X-88447650Y-167386445D01*
X-88447650Y-153244075D02*
X-88447650Y-147586445D01*
X-86247650Y-126229506D02*
X-88447650Y-124959336D01*
X-86247650Y-75604427D02*
X-93347302Y-71505441D01*
X-86247650Y-97944768D02*
X-86247650Y-89746796D01*
X-88447650Y-105159337D02*
X-93347302Y-102330522D01*
X-86247650Y-83802398D02*
X-86247650Y-75604427D01*
X-61752348Y-89746796D02*
X-68852000Y-85647811D01*
X-88447650Y-119301706D02*
X-93347302Y-116472891D01*
X-63952348Y-96674597D02*
X-63952348Y-91016967D01*
X-61752348Y-83802398D02*
X-63952348Y-82532227D01*
X-86247650Y-126229506D02*
X-86247650Y-118031536D01*
X-61752348Y-61462057D02*
X-68852000Y-57363071D01*
X-93347302Y-130615260D02*
X-93347302Y-128074919D01*
X-88447650Y-91016967D02*
X-93347302Y-88188152D01*
X-110742953Y-55517658D02*
X-112942953Y-54247488D01*
X-117468605Y-42572914D02*
X-115268605Y-41302744D01*
X-102895302Y-43220701D02*
X-109994953Y-47319687D01*
X-109994953Y-47319687D02*
X-109994953Y-55517658D01*
X-107794953Y-54247488D02*
X-109994953Y-55517658D01*
X-107794953Y-48589858D02*
X-107794953Y-54247488D01*
X-102895302Y-45761042D02*
X-107794953Y-48589858D01*
X-102895302Y-43220701D02*
X-102895302Y-45761042D01*
X-117468605Y-42572914D02*
X-110368953Y-46671900D01*
X-110368953Y-46671900D02*
X-103269302Y-42572914D01*
X-105469302Y-41302744D02*
X-103269302Y-42572914D01*
X-110368953Y-44131559D02*
X-105469302Y-41302744D01*
X-115268605Y-41302744D02*
X-110368953Y-44131559D01*
X-78400000Y-128074919D02*
X-85499650Y-132173905D01*
X-78400000Y-142217289D02*
X-78400000Y-144757630D01*
X-78400000Y-142217289D02*
X-85499650Y-146316274D01*
X-85499650Y-146316274D02*
X-85499650Y-154514246D01*
X-78400000Y-144757630D02*
X-83299650Y-147586445D01*
X-78400000Y-128074919D02*
X-78400000Y-130615260D01*
X-83299650Y-153244075D02*
X-85499650Y-154514246D01*
X-83299650Y-147586445D02*
X-83299650Y-153244075D01*
X-71052000Y-117888152D02*
X-73252000Y-119158322D01*
X-66152348Y-121003734D02*
X-66152348Y-123544075D01*
X-66152348Y-123544075D02*
X-71052000Y-126372890D01*
X-66152348Y-78576626D02*
X-66152348Y-81116967D01*
X-71052000Y-103745782D02*
X-73252000Y-105015953D01*
X-66152348Y-78576626D02*
X-73252000Y-82675611D01*
X-66152348Y-106861365D02*
X-73252000Y-110960351D01*
X-46556697Y-89603412D02*
X-48756697Y-90873583D01*
X-46556697Y-83945782D02*
X-46556697Y-89603412D01*
X-41657045Y-81116967D02*
X-46556697Y-83945782D01*
X-66152348Y-92718995D02*
X-66152348Y-95259337D01*
X-71052000Y-160315260D02*
X-73252000Y-161585431D01*
X-71052000Y-154657630D02*
X-71052000Y-160315260D01*
X-73252000Y-139245090D02*
X-73252000Y-147443061D01*
X-71052000Y-132030521D02*
X-73252000Y-133300691D01*
X-41657045Y-64434256D02*
X-41657045Y-66974597D01*
X-66152348Y-163430843D02*
X-66152348Y-165971185D01*
X-66152348Y-149288474D02*
X-66152348Y-151828815D01*
X-66152348Y-109401706D02*
X-71052000Y-112230522D01*
X-41657045Y-64434256D02*
X-48756697Y-68533242D01*
X-71052000Y-83945782D02*
X-71052000Y-89603412D01*
X-48756697Y-68533242D02*
X-48756697Y-76731213D01*
X-46556697Y-75461042D02*
X-48756697Y-76731213D01*
X-66152348Y-135146104D02*
X-66152348Y-137686445D01*
X-71052000Y-140515260D02*
X-71052000Y-146172890D01*
X-41657045Y-50291886D02*
X-41657045Y-52832227D01*
X-41657045Y-50291886D02*
X-48756697Y-54390872D01*
X-66152348Y-135146104D02*
X-73252000Y-139245090D01*
X-41657045Y-52832227D02*
X-46556697Y-55661042D01*
X-66152348Y-163430843D02*
X-73252000Y-167529829D01*
X-66152348Y-137686445D02*
X-71052000Y-140515260D01*
X-66152348Y-92718995D02*
X-73252000Y-96817981D01*
X-71052000Y-112230522D02*
X-71052000Y-117888152D01*
X-73252000Y-82675611D02*
X-73252000Y-90873583D01*
X-66152348Y-149288474D02*
X-73252000Y-153387459D01*
X-66152348Y-165971185D02*
X-71052000Y-168800000D01*
X-46556697Y-69803412D02*
X-46556697Y-75461042D01*
X-41657045Y-66974597D02*
X-46556697Y-69803412D01*
X-73252000Y-167529829D02*
X-73252000Y-175727800D01*
X-73252000Y-153387459D02*
X-73252000Y-161585431D01*
X-73252000Y-110960351D02*
X-73252000Y-119158322D01*
X-66152348Y-81116967D02*
X-71052000Y-83945782D01*
X-73252000Y-125102720D02*
X-73252000Y-133300691D01*
X-71052000Y-146172890D02*
X-73252000Y-147443061D01*
X-66152348Y-121003734D02*
X-73252000Y-125102720D01*
X-71052000Y-126372890D02*
X-71052000Y-132030521D01*
X-66152348Y-106861365D02*
X-66152348Y-109401706D01*
X-71052000Y-98088152D02*
X-71052000Y-103745782D01*
X-71052000Y-89603412D02*
X-73252000Y-90873583D01*
X-73252000Y-96817981D02*
X-73252000Y-105015953D01*
X-48756697Y-54390872D02*
X-48756697Y-62588843D01*
X-46556697Y-61318673D02*
X-48756697Y-62588843D01*
X-66152348Y-95259337D02*
X-71052000Y-98088152D01*
X-46556697Y-55661042D02*
X-46556697Y-61318673D01*
X-71052000Y-174457630D02*
X-73252000Y-175727800D01*
X-71052000Y-168800000D02*
X-71052000Y-174457630D01*
X-66152348Y-151828815D02*
X-71052000Y-154657630D01*
X-90647650Y-92718995D02*
X-97747302Y-96817981D01*
X-73252000Y-54390872D02*
X-73252000Y-62588843D01*
X-95547302Y-98088152D02*
X-95547302Y-103745782D01*
X-90647650Y-64434256D02*
X-97747302Y-68533242D01*
X-71052000Y-75461042D02*
X-73252000Y-76731213D01*
X-90647650Y-92718995D02*
X-90647650Y-95259337D01*
X-95547302Y-174457630D02*
X-97747302Y-175727800D01*
X-90647650Y-135146104D02*
X-97747302Y-139245090D01*
X-90647650Y-95259337D02*
X-95547302Y-98088152D01*
X-95547302Y-154657630D02*
X-95547302Y-160315260D01*
X-95547302Y-132030521D02*
X-97747302Y-133300691D01*
X-97747302Y-110960351D02*
X-97747302Y-119158322D01*
X-95547302Y-126372890D02*
X-95547302Y-132030521D01*
X-90647650Y-106861365D02*
X-97747302Y-110960351D01*
X-71052000Y-69803412D02*
X-71052000Y-75461042D01*
X-90647650Y-123544075D02*
X-95547302Y-126372890D01*
X-71052000Y-61318673D02*
X-73252000Y-62588843D01*
X-95547302Y-140515260D02*
X-95547302Y-146172890D01*
X-71052000Y-55661042D02*
X-71052000Y-61318673D01*
X-95547302Y-112230522D02*
X-95547302Y-117888152D01*
X-97747302Y-68533242D02*
X-97747302Y-76731213D01*
X-90647650Y-50291886D02*
X-97747302Y-54390872D01*
X-90647650Y-64434256D02*
X-90647650Y-66974597D01*
X-97747302Y-153387459D02*
X-97747302Y-161585431D01*
X-90647650Y-81116967D02*
X-95547302Y-83945782D01*
X-97747302Y-139245090D02*
X-97747302Y-147443061D01*
X-66152348Y-50291886D02*
X-66152348Y-52832227D01*
X-90647650Y-109401706D02*
X-95547302Y-112230522D01*
X-66152348Y-50291886D02*
X-73252000Y-54390872D01*
X-95547302Y-69803412D02*
X-95547302Y-75461042D01*
X-90647650Y-121003734D02*
X-90647650Y-123544075D01*
X-90647650Y-165971185D02*
X-95547302Y-168800000D01*
X-90647650Y-135146104D02*
X-90647650Y-137686445D01*
X-95547302Y-117888152D02*
X-97747302Y-119158322D01*
X-95547302Y-103745782D02*
X-97747302Y-105015953D01*
X-66152348Y-64434256D02*
X-66152348Y-66974597D01*
X-90647650Y-163430843D02*
X-97747302Y-167529829D01*
X-66152348Y-64434256D02*
X-73252000Y-68533242D01*
X-97747302Y-125102720D02*
X-97747302Y-133300691D01*
X-97747302Y-54390872D02*
X-97747302Y-62588843D01*
X-97747302Y-167529829D02*
X-97747302Y-175727800D01*
X-95547302Y-168800000D02*
X-95547302Y-174457630D01*
X-90647650Y-151828815D02*
X-95547302Y-154657630D01*
X-66152348Y-66974597D02*
X-71052000Y-69803412D01*
X-66152348Y-52832227D02*
X-71052000Y-55661042D01*
X-97747302Y-82675611D02*
X-97747302Y-90873583D01*
X-73252000Y-68533242D02*
X-73252000Y-76731213D01*
X-95547302Y-146172890D02*
X-97747302Y-147443061D01*
X-90647650Y-149288474D02*
X-90647650Y-151828815D01*
X-95547302Y-83945782D02*
X-95547302Y-89603412D01*
X-95547302Y-61318673D02*
X-97747302Y-62588843D01*
X-97747302Y-96817981D02*
X-97747302Y-105015953D01*
X-90647650Y-78576626D02*
X-97747302Y-82675611D01*
X-95547302Y-160315260D02*
X-97747302Y-161585431D01*
X-90647650Y-137686445D02*
X-95547302Y-140515260D01*
X-95547302Y-55661042D02*
X-95547302Y-61318673D01*
X-90647650Y-163430843D02*
X-90647650Y-165971185D01*
X-90647650Y-149288474D02*
X-97747302Y-153387459D01*
X-90647650Y-121003734D02*
X-97747302Y-125102720D01*
X-90647650Y-106861365D02*
X-90647650Y-109401706D01*
X-95547302Y-75461042D02*
X-97747302Y-76731213D01*
X-95547302Y-89603412D02*
X-97747302Y-90873583D01*
X-90647650Y-66974597D02*
X-95547302Y-69803412D01*
X-90647650Y-78576626D02*
X-90647650Y-81116967D01*
X-110742953Y-47319687D02*
X-117842605Y-43220701D01*
X-117842605Y-45761042D02*
X-117842605Y-43220701D01*
X-98495302Y-62588843D02*
X-100695302Y-61318673D01*
X-90647650Y-52832227D02*
X-95547302Y-55661042D01*
X-90647650Y-50291886D02*
X-90647650Y-52832227D01*
X-103020953Y-48373929D02*
X-98121302Y-51202744D01*
X-105220953Y-49644099D02*
X-98121302Y-53743085D01*
X-93221650Y-48373929D02*
X-91021650Y-49644099D01*
X-98121302Y-51202744D02*
X-93221650Y-48373929D01*
X-98495302Y-62588843D02*
X-98495302Y-54390872D01*
X-105594953Y-52832227D02*
X-105594953Y-50291886D01*
X-100695302Y-55661042D02*
X-105594953Y-52832227D01*
X-100695302Y-61318673D02*
X-100695302Y-55661042D01*
X-112942953Y-54247488D02*
X-112942953Y-48589858D01*
X-112942953Y-48589858D02*
X-117842605Y-45761042D01*
X-98495302Y-54390872D02*
X-105594953Y-50291886D01*
X-98121302Y-53743085D02*
X-91021650Y-49644099D01*
X-105220953Y-49644099D02*
X-103020953Y-48373929D01*
X-110742953Y-55517658D02*
X-110742953Y-47319687D01*
X-80973999Y-55445113D02*
X-78774000Y-56715284D01*
X-85873650Y-60814270D02*
X-78774000Y-56715284D01*
X-110368953Y-157270516D02*
X-105469302Y-154441701D01*
X-80973999Y-97872223D02*
X-78774000Y-99142393D01*
X-80973999Y-69587483D02*
X-78774000Y-70857654D01*
X-117468605Y-113284763D02*
X-115268605Y-112014593D01*
X-117468605Y-141569502D02*
X-115268605Y-140299331D01*
X-92973302Y-56715284D02*
X-90773302Y-55445113D01*
X-85873650Y-100701038D02*
X-80973999Y-97872223D01*
X-90773302Y-97872223D02*
X-85873650Y-100701038D01*
X-117468605Y-141569502D02*
X-110368953Y-145668487D01*
X-110368953Y-117383749D02*
X-103269302Y-113284763D01*
X-105469302Y-97872223D02*
X-103269302Y-99142393D01*
X-92973302Y-85000024D02*
X-90773302Y-83729853D01*
X-92973302Y-85000024D02*
X-85873650Y-89099009D01*
X-85873650Y-89099009D02*
X-78774000Y-85000024D01*
X-80973999Y-83729853D02*
X-78774000Y-85000024D01*
X-85873650Y-86558668D02*
X-80973999Y-83729853D01*
X-92973302Y-70857654D02*
X-90773302Y-69587483D01*
X-92973302Y-70857654D02*
X-85873650Y-74956639D01*
X-80973999Y-41302744D02*
X-78774000Y-42572914D01*
X-105469302Y-154441701D02*
X-103269302Y-155711871D01*
X-110368953Y-145668487D02*
X-103269302Y-141569502D01*
X-105469302Y-140299331D02*
X-103269302Y-141569502D01*
X-115268605Y-140299331D02*
X-110368953Y-143128146D01*
X-90773302Y-83729853D02*
X-85873650Y-86558668D01*
X-115268605Y-154441701D02*
X-110368953Y-157270516D01*
X-85873650Y-72416298D02*
X-80973999Y-69587483D01*
X-117468605Y-99142393D02*
X-110368953Y-103241379D01*
X-85873650Y-58273929D02*
X-80973999Y-55445113D01*
X-110368953Y-100701038D02*
X-105469302Y-97872223D01*
X-92973302Y-42572914D02*
X-85873650Y-46671900D01*
X-117468605Y-155711871D02*
X-115268605Y-154441701D01*
X-115268605Y-97872223D02*
X-110368953Y-100701038D01*
X-85873650Y-74956639D02*
X-78774000Y-70857654D01*
X-90773302Y-69587483D02*
X-85873650Y-72416298D01*
X-110368953Y-143128146D02*
X-105469302Y-140299331D01*
X-92973302Y-56715284D02*
X-85873650Y-60814270D01*
X-90773302Y-55445113D02*
X-85873650Y-58273929D01*
X-92973302Y-42572914D02*
X-90773302Y-41302744D01*
X-85873650Y-46671900D02*
X-78774000Y-42572914D01*
X-110368953Y-159810857D02*
X-103269302Y-155711871D01*
X-105469302Y-126156961D02*
X-103269302Y-127427132D01*
X-117468605Y-155711871D02*
X-110368953Y-159810857D01*
X-110368953Y-131526118D02*
X-103269302Y-127427132D01*
X-115268605Y-126156961D02*
X-110368953Y-128985776D01*
X-85873650Y-44131559D02*
X-80973999Y-41302744D01*
X-117468605Y-127427132D02*
X-115268605Y-126156961D01*
X-117468605Y-127427132D02*
X-110368953Y-131526118D01*
X-117468605Y-113284763D02*
X-110368953Y-117383749D01*
X-110368953Y-114843408D02*
X-105469302Y-112014593D01*
X-110368953Y-103241379D02*
X-103269302Y-99142393D01*
X-90773302Y-41302744D02*
X-85873650Y-44131559D01*
X-110368953Y-128985776D02*
X-105469302Y-126156961D01*
X-105469302Y-112014593D02*
X-103269302Y-113284763D01*
X-115268605Y-112014593D02*
X-110368953Y-114843408D01*
X-117468605Y-99142393D02*
X-115268605Y-97872223D01*
X-41657045Y-135146104D02*
X-41657045Y-137686445D01*
X-41657045Y-135146104D02*
X-48756697Y-139245090D01*
X-46556697Y-132030521D02*
X-48756697Y-133300691D01*
X-46556697Y-126372890D02*
X-46556697Y-132030521D01*
X-48756697Y-110960351D02*
X-48756697Y-119158322D01*
X-117468605Y-85000024D02*
X-115268605Y-83729853D01*
X-117468605Y-85000024D02*
X-110368953Y-89099009D01*
X-110368953Y-89099009D02*
X-103269302Y-85000024D01*
X-41657045Y-78576626D02*
X-41657045Y-81116967D01*
X-105469302Y-83729853D02*
X-103269302Y-85000024D01*
X-41657045Y-106861365D02*
X-48756697Y-110960351D01*
X-110368953Y-86558668D02*
X-105469302Y-83729853D01*
X-46556697Y-174457630D02*
X-48756697Y-175727800D01*
X-41657045Y-123544075D02*
X-46556697Y-126372890D01*
X-115268605Y-83729853D02*
X-110368953Y-86558668D01*
X-117468605Y-70857654D02*
X-115268605Y-69587483D01*
X-117468605Y-70857654D02*
X-110368953Y-74956639D01*
X-110368953Y-74956639D02*
X-103269302Y-70857654D01*
X-41657045Y-92718995D02*
X-48756697Y-96817981D01*
X-41657045Y-121003734D02*
X-48756697Y-125102720D01*
X-110368953Y-72416298D02*
X-105469302Y-69587483D01*
X-115268605Y-69587483D02*
X-110368953Y-72416298D01*
X-41657045Y-109401706D02*
X-46556697Y-112230522D01*
X-48756697Y-125102720D02*
X-48756697Y-133300691D01*
X-41657045Y-163430843D02*
X-48756697Y-167529829D01*
X-41657045Y-106861365D02*
X-41657045Y-109401706D01*
X-105469302Y-69587483D02*
X-103269302Y-70857654D01*
X-48756697Y-96817981D02*
X-48756697Y-105015953D01*
X-41657045Y-95259337D02*
X-46556697Y-98088152D01*
X-117468605Y-56715284D02*
X-110368953Y-60814270D01*
X-46556697Y-112230522D02*
X-46556697Y-117888152D01*
X-110368953Y-60814270D02*
X-103269302Y-56715284D01*
X-41657045Y-149288474D02*
X-48756697Y-153387459D01*
X-46556697Y-146172890D02*
X-48756697Y-147443061D01*
X-48756697Y-153387459D02*
X-48756697Y-161585431D01*
X-105469302Y-55445113D02*
X-103269302Y-56715284D01*
X-41657045Y-165971185D02*
X-46556697Y-168800000D01*
X-46556697Y-98088152D02*
X-46556697Y-103745782D01*
X-41657045Y-78576626D02*
X-48756697Y-82675611D01*
X-48756697Y-139245090D02*
X-48756697Y-147443061D01*
X-46556697Y-140515260D02*
X-46556697Y-146172890D01*
X-41657045Y-137686445D02*
X-46556697Y-140515260D01*
X-110368953Y-58273929D02*
X-105469302Y-55445113D01*
X-48756697Y-167529829D02*
X-48756697Y-175727800D01*
X-41657045Y-92718995D02*
X-41657045Y-95259337D01*
X-46556697Y-117888152D02*
X-48756697Y-119158322D01*
X-115268605Y-55445113D02*
X-110368953Y-58273929D01*
X-48756697Y-82675611D02*
X-48756697Y-90873583D01*
X-117468605Y-56715284D02*
X-115268605Y-55445113D01*
X-46556697Y-160315260D02*
X-48756697Y-161585431D01*
X-41657045Y-163430843D02*
X-41657045Y-165971185D01*
X-41657045Y-149288474D02*
X-41657045Y-151828815D01*
X-46556697Y-168800000D02*
X-46556697Y-174457630D01*
X-41657045Y-121003734D02*
X-41657045Y-123544075D01*
X-46556697Y-154657630D02*
X-46556697Y-160315260D01*
X-41657045Y-151828815D02*
X-46556697Y-154657630D01*
X-46556697Y-103745782D02*
X-48756697Y-105015953D01*
X-83299650Y-105159337D02*
X-83299650Y-110816967D01*
X-78400000Y-85647811D02*
X-85499650Y-89746796D01*
X-78400000Y-71505441D02*
X-78400000Y-74045782D01*
X-78400000Y-71505441D02*
X-85499650Y-75604427D01*
X-85499650Y-75604427D02*
X-85499650Y-83802398D01*
X-78400000Y-74045782D02*
X-83299650Y-76874597D01*
X-83299650Y-76874597D02*
X-83299650Y-82532227D01*
X-78400000Y-99790180D02*
X-78400000Y-102330522D01*
X-78400000Y-99790180D02*
X-85499650Y-103889166D01*
X-83299650Y-124959336D02*
X-85499650Y-126229506D01*
X-78400000Y-102330522D02*
X-83299650Y-105159337D01*
X-78400000Y-116472891D02*
X-83299650Y-119301706D01*
X-83299650Y-96674597D02*
X-85499650Y-97944768D01*
X-83299650Y-119301706D02*
X-83299650Y-124959336D01*
X-85499650Y-103889166D02*
X-85499650Y-112087137D01*
X-83299650Y-110816967D02*
X-85499650Y-112087137D01*
X-78400000Y-88188152D02*
X-83299650Y-91016967D01*
X-85499650Y-132173905D02*
X-85499650Y-140371876D01*
X-78400000Y-130615260D02*
X-83299650Y-133444075D01*
X-78400000Y-85647811D02*
X-78400000Y-88188152D01*
X-83299650Y-139101705D02*
X-85499650Y-140371876D01*
X-83299650Y-133444075D02*
X-83299650Y-139101705D01*
X-78400000Y-113932550D02*
X-78400000Y-116472891D01*
X-85499650Y-89746796D02*
X-85499650Y-97944768D01*
X-78400000Y-113932550D02*
X-85499650Y-118031536D01*
X-83299650Y-91016967D02*
X-83299650Y-96674597D01*
X-85499650Y-118031536D02*
X-85499650Y-126229506D01*
X-83299650Y-82532227D02*
X-85499650Y-83802398D01*
X-109994953Y-132173905D02*
X-109994953Y-140371876D01*
X-109994953Y-118031536D02*
X-109994953Y-126229506D01*
X-109994953Y-103889166D02*
X-109994953Y-112087137D01*
X-107794953Y-105159337D02*
X-107794953Y-110816967D01*
X-102895302Y-142217289D02*
X-109994953Y-146316274D01*
X-109994953Y-89746796D02*
X-109994953Y-97944768D01*
X-107794953Y-110816967D02*
X-109994953Y-112087137D01*
X-109994953Y-160458644D02*
X-109994953Y-168656616D01*
X-102895302Y-130615260D02*
X-107794953Y-133444075D01*
X-102895302Y-142217289D02*
X-102895302Y-144757630D01*
X-102895302Y-128074919D02*
X-102895302Y-130615260D01*
X-107794953Y-139101705D02*
X-109994953Y-140371876D01*
X-107794953Y-161728815D02*
X-107794953Y-167386445D01*
X-102895302Y-85647811D02*
X-109994953Y-89746796D01*
X-107794953Y-119301706D02*
X-107794953Y-124959336D01*
X-107794953Y-147586445D02*
X-107794953Y-153244075D01*
X-107794953Y-133444075D02*
X-107794953Y-139101705D01*
X-102895302Y-99790180D02*
X-109994953Y-103889166D01*
X-102895302Y-88188152D02*
X-107794953Y-91016967D01*
X-107794953Y-153244075D02*
X-109994953Y-154514246D01*
X-78400000Y-57363071D02*
X-78400000Y-59903412D01*
X-78400000Y-57363071D02*
X-85499650Y-61462057D01*
X-85499650Y-61462057D02*
X-85499650Y-69660028D01*
X-78400000Y-43220701D02*
X-78400000Y-45761042D01*
X-83299650Y-68389858D02*
X-85499650Y-69660028D01*
X-83299650Y-62732227D02*
X-83299650Y-68389858D01*
X-107794953Y-91016967D02*
X-107794953Y-96674597D01*
X-78400000Y-59903412D02*
X-83299650Y-62732227D01*
X-102895302Y-71505441D02*
X-102895302Y-74045782D01*
X-102895302Y-113932550D02*
X-102895302Y-116472891D01*
X-78400000Y-43220701D02*
X-85499650Y-47319687D01*
X-85499650Y-47319687D02*
X-85499650Y-55517658D01*
X-83299650Y-54247488D02*
X-85499650Y-55517658D01*
X-83299650Y-48589858D02*
X-83299650Y-54247488D01*
X-78400000Y-45761042D02*
X-83299650Y-48589858D01*
X-102895302Y-99790180D02*
X-102895302Y-102330522D01*
X-102895302Y-144757630D02*
X-107794953Y-147586445D01*
X-102895302Y-128074919D02*
X-109994953Y-132173905D01*
X-102895302Y-156359658D02*
X-109994953Y-160458644D01*
X-109994953Y-146316274D02*
X-109994953Y-154514246D01*
X-102895302Y-85647811D02*
X-102895302Y-88188152D01*
X-102895302Y-113932550D02*
X-109994953Y-118031536D01*
X-102895302Y-156359658D02*
X-102895302Y-158900000D01*
X-102895302Y-102330522D02*
X-107794953Y-105159337D01*
X-107794953Y-167386445D02*
X-109994953Y-168656616D01*
X-107794953Y-124959336D02*
X-109994953Y-126229506D01*
X-102895302Y-71505441D02*
X-109994953Y-75604427D01*
X-102895302Y-158900000D02*
X-107794953Y-161728815D01*
X-102895302Y-116472891D02*
X-107794953Y-119301706D01*
X-107794953Y-96674597D02*
X-109994953Y-97944768D01*
X-61378348Y-131526118D02*
X-54278697Y-127427132D01*
X-66278000Y-154441701D02*
X-61378348Y-157270516D01*
X-61378348Y-143128146D02*
X-56478697Y-140299331D01*
X-68478000Y-127427132D02*
X-66278000Y-126156961D01*
X-107794953Y-68389858D02*
X-109994953Y-69660028D01*
X-107794953Y-62732227D02*
X-107794953Y-68389858D01*
X-68478000Y-155711871D02*
X-61378348Y-159810857D01*
X-61378348Y-145668487D02*
X-54278697Y-141569502D01*
X-61378348Y-128985776D02*
X-56478697Y-126156961D01*
X-107794953Y-76874597D02*
X-107794953Y-82532227D01*
X-102895302Y-57363071D02*
X-102895302Y-59903412D01*
X-68478000Y-155711871D02*
X-66278000Y-154441701D01*
X-56478697Y-154441701D02*
X-54278697Y-155711871D01*
X-102895302Y-57363071D02*
X-109994953Y-61462057D01*
X-56478697Y-126156961D02*
X-54278697Y-127427132D01*
X-61378348Y-157270516D02*
X-56478697Y-154441701D01*
X-109994953Y-75604427D02*
X-109994953Y-83802398D01*
X-109994953Y-61462057D02*
X-109994953Y-69660028D01*
X-68478000Y-127427132D02*
X-61378348Y-131526118D01*
X-68478000Y-141569502D02*
X-61378348Y-145668487D01*
X-61378348Y-159810857D02*
X-54278697Y-155711871D01*
X-56478697Y-140299331D02*
X-54278697Y-141569502D01*
X-68478000Y-141569502D02*
X-66278000Y-140299331D01*
X-66278000Y-140299331D02*
X-61378348Y-143128146D01*
X-107794953Y-82532227D02*
X-109994953Y-83802398D01*
X-102895302Y-74045782D02*
X-107794953Y-76874597D01*
X-102895302Y-59903412D02*
X-107794953Y-62732227D01*
X-85873650Y-159810857D02*
X-78774000Y-155711871D01*
X-90773302Y-154441701D02*
X-85873650Y-157270516D01*
X-68478000Y-99142393D02*
X-66278000Y-97872223D01*
X-85873650Y-157270516D02*
X-80973999Y-154441701D01*
X-85873650Y-143128146D02*
X-80973999Y-140299331D01*
X-68478000Y-85000024D02*
X-66278000Y-83729853D01*
X-61378348Y-89099009D02*
X-54278697Y-85000024D01*
X-61378348Y-60814270D02*
X-54278697Y-56715284D01*
X-80973999Y-154441701D02*
X-78774000Y-155711871D01*
X-90773302Y-140299331D02*
X-85873650Y-143128146D01*
X-92973302Y-113284763D02*
X-85873650Y-117383749D01*
X-92973302Y-155711871D02*
X-90773302Y-154441701D01*
X-56478697Y-41302744D02*
X-54278697Y-42572914D01*
X-80973999Y-112014593D02*
X-78774000Y-113284763D01*
X-66278000Y-126156961D02*
X-61378348Y-128985776D01*
X-85873650Y-128985776D02*
X-80973999Y-126156961D01*
X-68478000Y-113284763D02*
X-66278000Y-112014593D01*
X-56478697Y-83729853D02*
X-54278697Y-85000024D01*
X-56478697Y-69587483D02*
X-54278697Y-70857654D01*
X-92973302Y-99142393D02*
X-85873650Y-103241379D01*
X-85873650Y-103241379D02*
X-78774000Y-99142393D01*
X-85873650Y-117383749D02*
X-78774000Y-113284763D01*
X-56478697Y-97872223D02*
X-54278697Y-99142393D01*
X-61378348Y-74956639D02*
X-54278697Y-70857654D01*
X-68478000Y-42572914D02*
X-61378348Y-46671900D01*
X-85873650Y-131526118D02*
X-78774000Y-127427132D01*
X-68478000Y-113284763D02*
X-61378348Y-117383749D01*
X-56478697Y-112014593D02*
X-54278697Y-113284763D01*
X-68478000Y-99142393D02*
X-61378348Y-103241379D01*
X-92973302Y-99142393D02*
X-90773302Y-97872223D01*
X-68478000Y-70857654D02*
X-66278000Y-69587483D01*
X-61378348Y-58273929D02*
X-56478697Y-55445113D01*
X-66278000Y-41302744D02*
X-61378348Y-44131559D01*
X-66278000Y-83729853D02*
X-61378348Y-86558668D01*
X-80973999Y-140299331D02*
X-78774000Y-141569502D01*
X-68478000Y-56715284D02*
X-66278000Y-55445113D01*
X-85873650Y-114843408D02*
X-80973999Y-112014593D01*
X-68478000Y-56715284D02*
X-61378348Y-60814270D01*
X-56478697Y-55445113D02*
X-54278697Y-56715284D01*
X-90773302Y-112014593D02*
X-85873650Y-114843408D01*
X-90773302Y-126156961D02*
X-85873650Y-128985776D01*
X-61378348Y-44131559D02*
X-56478697Y-41302744D01*
X-80973999Y-126156961D02*
X-78774000Y-127427132D01*
X-61378348Y-86558668D02*
X-56478697Y-83729853D01*
X-92973302Y-141569502D02*
X-85873650Y-145668487D01*
X-61378348Y-72416298D02*
X-56478697Y-69587483D01*
X-61378348Y-100701038D02*
X-56478697Y-97872223D01*
X-68478000Y-85000024D02*
X-61378348Y-89099009D01*
X-92973302Y-155711871D02*
X-85873650Y-159810857D01*
X-92973302Y-127427132D02*
X-90773302Y-126156961D01*
X-66278000Y-55445113D02*
X-61378348Y-58273929D01*
X-92973302Y-127427132D02*
X-85873650Y-131526118D01*
X-61378348Y-103241379D02*
X-54278697Y-99142393D01*
X-66278000Y-97872223D02*
X-61378348Y-100701038D01*
X-61378348Y-46671900D02*
X-54278697Y-42572914D01*
X-92973302Y-113284763D02*
X-90773302Y-112014593D01*
X-68478000Y-42572914D02*
X-66278000Y-41302744D01*
X-92973302Y-141569502D02*
X-90773302Y-140299331D01*
X-61378348Y-114843408D02*
X-56478697Y-112014593D01*
X-61378348Y-117383749D02*
X-54278697Y-113284763D01*
X-66278000Y-112014593D02*
X-61378348Y-114843408D01*
X-85873650Y-145668487D02*
X-78774000Y-141569502D01*
X-68478000Y-70857654D02*
X-61378348Y-74956639D01*
X-66278000Y-69587483D02*
X-61378348Y-72416298D01*
X-78400000Y-158900000D02*
X-83299650Y-161728815D01*
X-128652175Y-32767334D02*
X-128652175Y-28829834D01*
X-32502175Y-36704834D02*
X-32502175Y-207592334D01*
X-142752175Y-36704834D02*
X-142752175Y-28829834D01*
X-142752175Y-28829834D02*
X-128652175Y-28829834D01*
X-30852175Y-32767334D02*
X-30852175Y-28829834D01*
X-16752175Y-36704834D02*
X-16752175Y-28829834D01*
X-16752175Y-203654834D02*
X-30852175Y-203654834D01*
X-127002175Y-13079834D02*
X-119127175Y-13079834D01*
X-32502175Y-13079834D02*
X-32502175Y-32767334D01*
X-16752175Y-36704834D02*
X-32502175Y-36704834D01*
X-142752175Y-36704834D02*
X-127002175Y-36704834D01*
X-32502175Y-32767334D02*
X-30852175Y-32767334D01*
X-30852175Y-207592334D02*
X-30852175Y-203654834D01*
X-32502175Y-207592334D02*
X-30852175Y-207592334D01*
X-16752175Y-211529834D02*
X-16752175Y-203654834D01*
X-16752175Y-211529834D02*
X-32502175Y-211529834D01*
X-127002175Y-32767334D02*
X-127002175Y-13079834D01*
X-32502175Y-13079834D02*
X-40377175Y-13079834D01*
X-40377175Y-28829834D02*
X-119127175Y-28829834D01*
X-40377175Y-13079834D02*
X-40377175Y-28829834D01*
X-127002175Y-32767334D02*
X-128652175Y-32767334D01*
X-119127175Y-13079834D02*
X-119127175Y-28829834D01*
X-16752175Y-28829834D02*
X-30852175Y-28829834D01*
X-127002175Y-207592334D02*
X-128652175Y-207592334D01*
X-127002175Y-207592334D02*
X-127002175Y-36704834D01*
X-32502175Y-211529834D02*
X-32502175Y-227279834D01*
X-40377175Y-227279834D02*
X-32502175Y-227279834D01*
X-40377175Y-211529834D02*
X-40377175Y-227279834D01*
X-119127175Y-227279834D02*
X-127002175Y-227279834D01*
X-142752175Y-203654834D02*
X-128652175Y-203654834D01*
X-40377175Y-211529834D02*
X-119127175Y-211529834D01*
X-119127175Y-211529834D02*
X-119127175Y-227279834D01*
X-127002175Y-227279834D02*
X-127002175Y-211529834D01*
X-142752175Y-211529834D02*
X-127002175Y-211529834D01*
X-142752175Y-211529834D02*
X-142752175Y-203654834D01*
X-128652175Y-207592334D02*
X-128652175Y-203654834D01*
M02*
