%TF.GenerationSoftware,KiCad,Pcbnew,(5.1.6)-1*%
%TF.CreationDate,2020-10-14T22:44:59+01:00*%
%TF.ProjectId,Side 2,53696465-2032-42e6-9b69-6361645f7063,rev?*%
%TF.SameCoordinates,Original*%
%TF.FileFunction,Copper,L2,Bot*%
%TF.FilePolarity,Positive*%
%FSLAX46Y46*%
G04 Gerber Fmt 4.6, Leading zero omitted, Abs format (unit mm)*
G04 Created by KiCad (PCBNEW (5.1.6)-1) date 2020-10-14 22:44:59*
%MOMM*%
%LPD*%
G01*
G04 APERTURE LIST*
%TA.AperFunction,EtchedComponent*%
%ADD10C,0.010000*%
%TD*%
G04 APERTURE END LIST*
D10*
%TO.C,G\u002A\u002A\u002A*%
G36*
X-32547750Y-30296917D02*
G01*
X-34394541Y-30302324D01*
X-36241333Y-30307732D01*
X-36241333Y-26603333D01*
X-32536934Y-26603333D01*
X-32547750Y-30296917D01*
G37*
X-32547750Y-30296917D02*
X-34394541Y-30302324D01*
X-36241333Y-30307732D01*
X-36241333Y-26603333D01*
X-32536934Y-26603333D01*
X-32547750Y-30296917D01*
G36*
X-123321000Y-30307500D02*
G01*
X-125158972Y-30307500D01*
X-125434250Y-30307341D01*
X-125697358Y-30306880D01*
X-125945223Y-30306140D01*
X-126174773Y-30305145D01*
X-126382937Y-30303918D01*
X-126566641Y-30302482D01*
X-126722813Y-30300861D01*
X-126848382Y-30299079D01*
X-126940274Y-30297158D01*
X-126995418Y-30295123D01*
X-127011055Y-30293389D01*
X-127013168Y-30270582D01*
X-127015184Y-30208514D01*
X-127017081Y-30110257D01*
X-127018836Y-29978884D01*
X-127020425Y-29817467D01*
X-127021824Y-29629078D01*
X-127023011Y-29416789D01*
X-127023961Y-29183673D01*
X-127024652Y-28932803D01*
X-127025060Y-28667249D01*
X-127025166Y-28441305D01*
X-127025166Y-26603333D01*
X-123321000Y-26603333D01*
X-123321000Y-30307500D01*
G37*
X-123321000Y-30307500D02*
X-125158972Y-30307500D01*
X-125434250Y-30307341D01*
X-125697358Y-30306880D01*
X-125945223Y-30306140D01*
X-126174773Y-30305145D01*
X-126382937Y-30303918D01*
X-126566641Y-30302482D01*
X-126722813Y-30300861D01*
X-126848382Y-30299079D01*
X-126940274Y-30297158D01*
X-126995418Y-30295123D01*
X-127011055Y-30293389D01*
X-127013168Y-30270582D01*
X-127015184Y-30208514D01*
X-127017081Y-30110257D01*
X-127018836Y-29978884D01*
X-127020425Y-29817467D01*
X-127021824Y-29629078D01*
X-127023011Y-29416789D01*
X-127023961Y-29183673D01*
X-127024652Y-28932803D01*
X-127025060Y-28667249D01*
X-127025166Y-28441305D01*
X-127025166Y-26603333D01*
X-123321000Y-26603333D01*
X-123321000Y-30307500D01*
G36*
X-32537166Y-36001333D02*
G01*
X-36241333Y-36001333D01*
X-36241333Y-32297167D01*
X-32537166Y-32297167D01*
X-32537166Y-36001333D01*
G37*
X-32537166Y-36001333D02*
X-36241333Y-36001333D01*
X-36241333Y-32297167D01*
X-32537166Y-32297167D01*
X-32537166Y-36001333D01*
G36*
X-123321000Y-36001333D02*
G01*
X-127025166Y-36001333D01*
X-127025166Y-32297167D01*
X-123321000Y-32297167D01*
X-123321000Y-36001333D01*
G37*
X-123321000Y-36001333D02*
X-127025166Y-36001333D01*
X-127025166Y-32297167D01*
X-123321000Y-32297167D01*
X-123321000Y-36001333D01*
G36*
X-32505416Y-177701583D02*
G01*
X-32500009Y-179548375D01*
X-32494601Y-181395167D01*
X-36199000Y-181395167D01*
X-36199000Y-177690767D01*
X-32505416Y-177701583D01*
G37*
X-32505416Y-177701583D02*
X-32500009Y-179548375D01*
X-32494601Y-181395167D01*
X-36199000Y-181395167D01*
X-36199000Y-177690767D01*
X-32505416Y-177701583D01*
G36*
X-123363333Y-181395167D02*
G01*
X-127067732Y-181395167D01*
X-127056916Y-177701583D01*
X-125210125Y-177696175D01*
X-123363333Y-177690767D01*
X-123363333Y-181395167D01*
G37*
X-123363333Y-181395167D02*
X-127067732Y-181395167D01*
X-127056916Y-177701583D01*
X-125210125Y-177696175D01*
X-123363333Y-177690767D01*
X-123363333Y-181395167D01*
G36*
X-32500009Y-185252792D02*
G01*
X-32505416Y-187099583D01*
X-36199000Y-187110399D01*
X-36199000Y-183406000D01*
X-32494601Y-183406000D01*
X-32500009Y-185252792D01*
G37*
X-32500009Y-185252792D02*
X-32505416Y-187099583D01*
X-36199000Y-187110399D01*
X-36199000Y-183406000D01*
X-32494601Y-183406000D01*
X-32500009Y-185252792D01*
G36*
X-123363333Y-187110167D02*
G01*
X-125201305Y-187110167D01*
X-125476583Y-187110008D01*
X-125739691Y-187109547D01*
X-125987556Y-187108807D01*
X-126217106Y-187107812D01*
X-126425270Y-187106585D01*
X-126608974Y-187105149D01*
X-126765147Y-187103528D01*
X-126890715Y-187101746D01*
X-126982608Y-187099825D01*
X-127037752Y-187097789D01*
X-127053389Y-187096055D01*
X-127055501Y-187073248D01*
X-127057517Y-187011181D01*
X-127059415Y-186912924D01*
X-127061169Y-186781551D01*
X-127062758Y-186620134D01*
X-127064158Y-186431745D01*
X-127065344Y-186219456D01*
X-127066295Y-185986340D01*
X-127066985Y-185735469D01*
X-127067393Y-185469915D01*
X-127067500Y-185243972D01*
X-127067500Y-183406000D01*
X-123363333Y-183406000D01*
X-123363333Y-187110167D01*
G37*
X-123363333Y-187110167D02*
X-125201305Y-187110167D01*
X-125476583Y-187110008D01*
X-125739691Y-187109547D01*
X-125987556Y-187108807D01*
X-126217106Y-187107812D01*
X-126425270Y-187106585D01*
X-126608974Y-187105149D01*
X-126765147Y-187103528D01*
X-126890715Y-187101746D01*
X-126982608Y-187099825D01*
X-127037752Y-187097789D01*
X-127053389Y-187096055D01*
X-127055501Y-187073248D01*
X-127057517Y-187011181D01*
X-127059415Y-186912924D01*
X-127061169Y-186781551D01*
X-127062758Y-186620134D01*
X-127064158Y-186431745D01*
X-127065344Y-186219456D01*
X-127066295Y-185986340D01*
X-127066985Y-185735469D01*
X-127067393Y-185469915D01*
X-127067500Y-185243972D01*
X-127067500Y-183406000D01*
X-123363333Y-183406000D01*
X-123363333Y-187110167D01*
G36*
X-32727666Y-208044000D02*
G01*
X-36432066Y-208044000D01*
X-36426658Y-206197208D01*
X-36421250Y-204350417D01*
X-32727666Y-204339601D01*
X-32727666Y-208044000D01*
G37*
X-32727666Y-208044000D02*
X-36432066Y-208044000D01*
X-36426658Y-206197208D01*
X-36421250Y-204350417D01*
X-32727666Y-204339601D01*
X-32727666Y-208044000D01*
G36*
X-124987875Y-204345009D02*
G01*
X-123141083Y-204350417D01*
X-123135675Y-206197208D01*
X-123130267Y-208044000D01*
X-126834666Y-208044000D01*
X-126834666Y-204339601D01*
X-124987875Y-204345009D01*
G37*
X-124987875Y-204345009D02*
X-123141083Y-204350417D01*
X-123135675Y-206197208D01*
X-123130267Y-208044000D01*
X-126834666Y-208044000D01*
X-126834666Y-204339601D01*
X-124987875Y-204345009D01*
G36*
X-32500009Y-211901625D02*
G01*
X-32505416Y-213748417D01*
X-34352208Y-213753824D01*
X-36199000Y-213759232D01*
X-36199000Y-210054833D01*
X-32494601Y-210054833D01*
X-32500009Y-211901625D01*
G37*
X-32500009Y-211901625D02*
X-32505416Y-213748417D01*
X-34352208Y-213753824D01*
X-36199000Y-213759232D01*
X-36199000Y-210054833D01*
X-32494601Y-210054833D01*
X-32500009Y-211901625D01*
G36*
X-123289250Y-213748417D02*
G01*
X-125136041Y-213753824D01*
X-126982833Y-213759232D01*
X-126982833Y-210054833D01*
X-123278434Y-210054833D01*
X-123289250Y-213748417D01*
G37*
X-123289250Y-213748417D02*
X-125136041Y-213753824D01*
X-126982833Y-213759232D01*
X-126982833Y-210054833D01*
X-123278434Y-210054833D01*
X-123289250Y-213748417D01*
G36*
X-119130000Y-28825845D02*
G01*
X-79765291Y-28820547D01*
X-40400583Y-28815250D01*
X-40395263Y-20946542D01*
X-40389943Y-13077833D01*
X-32516000Y-13077833D01*
X-32516000Y-26243500D01*
X-36601166Y-26243500D01*
X-36601166Y-30646167D01*
X-32516000Y-30646167D01*
X-32516000Y-31958500D01*
X-36601363Y-31958500D01*
X-36595973Y-34154542D01*
X-36590583Y-36350583D01*
X-34394541Y-36355973D01*
X-32198500Y-36361363D01*
X-32198500Y-32763436D01*
X-31537041Y-32757843D01*
X-30875583Y-32752250D01*
X-30870182Y-30789042D01*
X-30864781Y-28825833D01*
X-16768000Y-28825833D01*
X-16768000Y-36699833D01*
X-32516000Y-36699833D01*
X-32516000Y-177352333D01*
X-36558833Y-177352333D01*
X-36558833Y-181755000D01*
X-32516000Y-181755000D01*
X-32516000Y-183046167D01*
X-36558833Y-183046167D01*
X-36558833Y-187448833D01*
X-32516000Y-187448833D01*
X-32516000Y-204001167D01*
X-36770500Y-204001167D01*
X-36770500Y-208403833D01*
X-32367833Y-208403833D01*
X-32367833Y-207578333D01*
X-30865000Y-207578333D01*
X-30865000Y-203641333D01*
X-16768000Y-203641333D01*
X-16768000Y-211536500D01*
X-32156166Y-211536500D01*
X-32156166Y-209695000D01*
X-36558833Y-209695000D01*
X-36558833Y-214097667D01*
X-32516000Y-214097667D01*
X-32516000Y-227284500D01*
X-40390000Y-227284500D01*
X-40390000Y-211536500D01*
X-119130000Y-211536500D01*
X-119130000Y-227284500D01*
X-127025166Y-227284500D01*
X-127025166Y-214097667D01*
X-122940000Y-214097667D01*
X-122940000Y-209695000D01*
X-127342666Y-209695000D01*
X-127342666Y-211536557D01*
X-135052625Y-211531237D01*
X-142762583Y-211525917D01*
X-142767931Y-207583625D01*
X-142773277Y-203641333D01*
X-128655000Y-203641333D01*
X-128655000Y-207578333D01*
X-127194500Y-207578333D01*
X-127194500Y-208403833D01*
X-122791833Y-208403833D01*
X-122791833Y-204001167D01*
X-127025166Y-204001167D01*
X-127025166Y-187448833D01*
X-123003500Y-187448833D01*
X-123003500Y-183046167D01*
X-127025166Y-183046167D01*
X-127025166Y-181755000D01*
X-123003500Y-181755000D01*
X-123003500Y-177352548D01*
X-125009041Y-177347149D01*
X-127014583Y-177341750D01*
X-127019878Y-107020792D01*
X-127025173Y-36699833D01*
X-142773166Y-36699833D01*
X-142773166Y-28825833D01*
X-128655000Y-28825833D01*
X-128655000Y-32762833D01*
X-127363833Y-32762833D01*
X-127363833Y-36361363D01*
X-125167791Y-36355973D01*
X-122971750Y-36350583D01*
X-122960970Y-31958713D01*
X-124987776Y-31953315D01*
X-127014583Y-31947917D01*
X-127020181Y-31297041D01*
X-127025778Y-30646166D01*
X-124993472Y-30646166D01*
X-122961166Y-30646167D01*
X-122961166Y-26243500D01*
X-127025166Y-26243500D01*
X-127025166Y-13077833D01*
X-119130000Y-13077833D01*
X-119130000Y-28825845D01*
G37*
X-119130000Y-28825845D02*
X-79765291Y-28820547D01*
X-40400583Y-28815250D01*
X-40395263Y-20946542D01*
X-40389943Y-13077833D01*
X-32516000Y-13077833D01*
X-32516000Y-26243500D01*
X-36601166Y-26243500D01*
X-36601166Y-30646167D01*
X-32516000Y-30646167D01*
X-32516000Y-31958500D01*
X-36601363Y-31958500D01*
X-36595973Y-34154542D01*
X-36590583Y-36350583D01*
X-34394541Y-36355973D01*
X-32198500Y-36361363D01*
X-32198500Y-32763436D01*
X-31537041Y-32757843D01*
X-30875583Y-32752250D01*
X-30870182Y-30789042D01*
X-30864781Y-28825833D01*
X-16768000Y-28825833D01*
X-16768000Y-36699833D01*
X-32516000Y-36699833D01*
X-32516000Y-177352333D01*
X-36558833Y-177352333D01*
X-36558833Y-181755000D01*
X-32516000Y-181755000D01*
X-32516000Y-183046167D01*
X-36558833Y-183046167D01*
X-36558833Y-187448833D01*
X-32516000Y-187448833D01*
X-32516000Y-204001167D01*
X-36770500Y-204001167D01*
X-36770500Y-208403833D01*
X-32367833Y-208403833D01*
X-32367833Y-207578333D01*
X-30865000Y-207578333D01*
X-30865000Y-203641333D01*
X-16768000Y-203641333D01*
X-16768000Y-211536500D01*
X-32156166Y-211536500D01*
X-32156166Y-209695000D01*
X-36558833Y-209695000D01*
X-36558833Y-214097667D01*
X-32516000Y-214097667D01*
X-32516000Y-227284500D01*
X-40390000Y-227284500D01*
X-40390000Y-211536500D01*
X-119130000Y-211536500D01*
X-119130000Y-227284500D01*
X-127025166Y-227284500D01*
X-127025166Y-214097667D01*
X-122940000Y-214097667D01*
X-122940000Y-209695000D01*
X-127342666Y-209695000D01*
X-127342666Y-211536557D01*
X-135052625Y-211531237D01*
X-142762583Y-211525917D01*
X-142767931Y-207583625D01*
X-142773277Y-203641333D01*
X-128655000Y-203641333D01*
X-128655000Y-207578333D01*
X-127194500Y-207578333D01*
X-127194500Y-208403833D01*
X-122791833Y-208403833D01*
X-122791833Y-204001167D01*
X-127025166Y-204001167D01*
X-127025166Y-187448833D01*
X-123003500Y-187448833D01*
X-123003500Y-183046167D01*
X-127025166Y-183046167D01*
X-127025166Y-181755000D01*
X-123003500Y-181755000D01*
X-123003500Y-177352548D01*
X-125009041Y-177347149D01*
X-127014583Y-177341750D01*
X-127019878Y-107020792D01*
X-127025173Y-36699833D01*
X-142773166Y-36699833D01*
X-142773166Y-28825833D01*
X-128655000Y-28825833D01*
X-128655000Y-32762833D01*
X-127363833Y-32762833D01*
X-127363833Y-36361363D01*
X-125167791Y-36355973D01*
X-122971750Y-36350583D01*
X-122960970Y-31958713D01*
X-124987776Y-31953315D01*
X-127014583Y-31947917D01*
X-127020181Y-31297041D01*
X-127025778Y-30646166D01*
X-124993472Y-30646166D01*
X-122961166Y-30646167D01*
X-122961166Y-26243500D01*
X-127025166Y-26243500D01*
X-127025166Y-13077833D01*
X-119130000Y-13077833D01*
X-119130000Y-28825845D01*
%TD*%
M02*
