%TF.GenerationSoftware,KiCad,Pcbnew,(5.1.6)-1*%
%TF.CreationDate,2020-10-22T21:59:58+01:00*%
%TF.ProjectId,Side 1,53696465-2031-42e6-9b69-6361645f7063,rev?*%
%TF.SameCoordinates,Original*%
%TF.FileFunction,Soldermask,Top*%
%TF.FilePolarity,Negative*%
%FSLAX46Y46*%
G04 Gerber Fmt 4.6, Leading zero omitted, Abs format (unit mm)*
G04 Created by KiCad (PCBNEW (5.1.6)-1) date 2020-10-22 21:59:58*
%MOMM*%
%LPD*%
G01*
G04 APERTURE LIST*
%ADD10C,0.010000*%
G04 APERTURE END LIST*
D10*
%TO.C,G\u002A\u002A\u002A*%
G36*
X95810666Y-221235500D02*
G01*
X94159666Y-221235500D01*
X94159666Y-219563333D01*
X95810666Y-219563333D01*
X95810666Y-221235500D01*
G37*
X95810666Y-221235500D02*
X94159666Y-221235500D01*
X94159666Y-219563333D01*
X95810666Y-219563333D01*
X95810666Y-221235500D01*
G36*
X125761500Y-221235500D02*
G01*
X124110500Y-221235500D01*
X124110500Y-219563333D01*
X125761500Y-219563333D01*
X125761500Y-221235500D01*
G37*
X125761500Y-221235500D02*
X124110500Y-221235500D01*
X124110500Y-219563333D01*
X125761500Y-219563333D01*
X125761500Y-221235500D01*
G36*
X95810666Y-194586667D02*
G01*
X94159666Y-194586667D01*
X94159666Y-192914500D01*
X95810666Y-192914500D01*
X95810666Y-194586667D01*
G37*
X95810666Y-194586667D02*
X94159666Y-194586667D01*
X94159666Y-192914500D01*
X95810666Y-192914500D01*
X95810666Y-194586667D01*
G36*
X125761500Y-194586667D02*
G01*
X124110500Y-194586667D01*
X124110500Y-192914500D01*
X125761500Y-192914500D01*
X125761500Y-194586667D01*
G37*
X125761500Y-194586667D02*
X124110500Y-194586667D01*
X124110500Y-192914500D01*
X125761500Y-192914500D01*
X125761500Y-194586667D01*
G36*
X95810666Y-43477833D02*
G01*
X94159666Y-43477833D01*
X94159666Y-41805667D01*
X95810666Y-41805667D01*
X95810666Y-43477833D01*
G37*
X95810666Y-43477833D02*
X94159666Y-43477833D01*
X94159666Y-41805667D01*
X95810666Y-41805667D01*
X95810666Y-43477833D01*
G36*
X125761500Y-43477833D02*
G01*
X124110500Y-43477833D01*
X124110500Y-41805667D01*
X125761500Y-41805667D01*
X125761500Y-43477833D01*
G37*
X125761500Y-43477833D02*
X124110500Y-43477833D01*
X124110500Y-41805667D01*
X125761500Y-41805667D01*
X125761500Y-43477833D01*
%TD*%
M02*
