%TF.GenerationSoftware,KiCad,Pcbnew,(5.1.6)-1*%
%TF.CreationDate,2020-10-10T00:14:24+01:00*%
%TF.ProjectId,Side 1,53696465-2031-42e6-9b69-6361645f7063,rev?*%
%TF.SameCoordinates,Original*%
%TF.FileFunction,Profile,NP*%
%FSLAX46Y46*%
G04 Gerber Fmt 4.6, Leading zero omitted, Abs format (unit mm)*
G04 Created by KiCad (PCBNEW (5.1.6)-1) date 2020-10-10 00:14:24*
%MOMM*%
%LPD*%
G01*
G04 APERTURE LIST*
%TA.AperFunction,Profile*%
%ADD10C,0.254000*%
%TD*%
G04 APERTURE END LIST*
D10*
X120968605Y-73842393D02*
X123168605Y-75112564D01*
X120968605Y-59700024D02*
X123168605Y-60970194D01*
X116068953Y-76671208D02*
X120968605Y-73842393D01*
X108969303Y-131682042D02*
X111169302Y-130411872D01*
X86674000Y-158696611D02*
X91573651Y-161525426D01*
X84474000Y-145824412D02*
X86674000Y-144554241D01*
X116068953Y-133240687D02*
X120968605Y-130411872D01*
X116068953Y-79211550D02*
X123168605Y-75112564D01*
X96473303Y-172838981D02*
X98673303Y-174109151D01*
X108969303Y-60970194D02*
X116068953Y-65069180D01*
X91573651Y-178208137D02*
X98673303Y-174109151D01*
X116068953Y-161525426D02*
X120968605Y-158696611D01*
X111169302Y-158696611D02*
X116068953Y-161525426D01*
X120968605Y-102127133D02*
X123168605Y-103397303D01*
X108969303Y-145824412D02*
X111169302Y-144554241D01*
X91573651Y-175667796D02*
X96473303Y-172838981D01*
X108969303Y-60970194D02*
X111169302Y-59700024D01*
X116068953Y-121638659D02*
X123168605Y-117539673D01*
X116068953Y-90813578D02*
X120968605Y-87984763D01*
X116068953Y-93353919D02*
X123168605Y-89254934D01*
X111169302Y-59700024D02*
X116068953Y-62528839D01*
X84474000Y-159966782D02*
X91573651Y-164065767D01*
X108969303Y-145824412D02*
X116068953Y-149923397D01*
X116068953Y-149923397D02*
X123168605Y-145824412D01*
X86674000Y-172838981D02*
X91573651Y-175667796D01*
X108969303Y-117539673D02*
X116068953Y-121638659D01*
X116068953Y-62528839D02*
X120968605Y-59700024D01*
X116068953Y-104955948D02*
X120968605Y-102127133D01*
X120968605Y-87984763D02*
X123168605Y-89254934D01*
X111169302Y-87984763D02*
X116068953Y-90813578D01*
X108969303Y-75112564D02*
X116068953Y-79211550D01*
X120968605Y-144554241D02*
X123168605Y-145824412D01*
X116068953Y-147383056D02*
X120968605Y-144554241D01*
X111169302Y-144554241D02*
X116068953Y-147383056D01*
X108969303Y-131682042D02*
X116068953Y-135781028D01*
X116068953Y-135781028D02*
X123168605Y-131682042D01*
X111169302Y-130411872D02*
X116068953Y-133240687D01*
X120968605Y-130411872D02*
X123168605Y-131682042D01*
X116068953Y-107496289D02*
X123168605Y-103397303D01*
X111169302Y-102127133D02*
X116068953Y-104955948D01*
X108969303Y-117539673D02*
X111169302Y-116269503D01*
X111169302Y-116269503D02*
X116068953Y-119098318D01*
X96473303Y-158696611D02*
X98673303Y-159966782D01*
X108969303Y-103397303D02*
X116068953Y-107496289D01*
X116068953Y-65069180D02*
X123168605Y-60970194D01*
X84474000Y-174109151D02*
X86674000Y-172838981D01*
X84474000Y-174109151D02*
X91573651Y-178208137D01*
X116068953Y-119098318D02*
X120968605Y-116269503D01*
X84474000Y-159966782D02*
X86674000Y-158696611D01*
X108969303Y-89254934D02*
X111169302Y-87984763D01*
X108969303Y-89254934D02*
X116068953Y-93353919D01*
X111169302Y-73842393D02*
X116068953Y-76671208D01*
X108969303Y-75112564D02*
X111169302Y-73842393D01*
X91573651Y-164065767D02*
X98673303Y-159966782D01*
X91573651Y-161525426D02*
X96473303Y-158696611D01*
X108969303Y-103397303D02*
X111169302Y-102127133D01*
X120968605Y-116269503D02*
X123168605Y-117539673D01*
X140190256Y-172911526D02*
X137990256Y-171641355D01*
X84474000Y-103397303D02*
X86674000Y-102127133D01*
X140190256Y-158769156D02*
X140190256Y-150571185D01*
X84474000Y-103397303D02*
X91573651Y-107496289D01*
X91573651Y-104955948D02*
X96473303Y-102127133D01*
X86674000Y-102127133D02*
X91573651Y-104955948D01*
X84474000Y-89254934D02*
X86674000Y-87984763D01*
X84474000Y-75112564D02*
X91573651Y-79211550D01*
X137990256Y-143356616D02*
X137990256Y-137698985D01*
X140190256Y-122286446D02*
X133090605Y-118187460D01*
X84474000Y-75112564D02*
X86674000Y-73842393D01*
X86674000Y-87984763D02*
X91573651Y-90813578D01*
X140190256Y-172911526D02*
X140190256Y-164713554D01*
X91573651Y-79211550D02*
X98673303Y-75112564D01*
X140190256Y-187053895D02*
X140190256Y-178855924D01*
X140190256Y-158769156D02*
X137990256Y-157498985D01*
X137990256Y-137698985D02*
X133090605Y-134870170D01*
X91573651Y-149923397D02*
X98673303Y-145824412D01*
X96473303Y-144554241D02*
X98673303Y-145824412D01*
X91573651Y-90813578D02*
X96473303Y-87984763D01*
X137990256Y-180126095D02*
X133090605Y-177297280D01*
X86674000Y-130411872D02*
X91573651Y-133240687D01*
X137990256Y-171641355D02*
X137990256Y-165983725D01*
X140190256Y-150571185D02*
X133090605Y-146472199D01*
X140190256Y-130484417D02*
X137990256Y-129214247D01*
X137990256Y-123556617D02*
X133090605Y-120727801D01*
X140190256Y-130484417D02*
X140190256Y-122286446D01*
X91573651Y-147383056D02*
X96473303Y-144554241D01*
X91573651Y-135781028D02*
X98673303Y-131682042D01*
X91573651Y-107496289D02*
X98673303Y-103397303D01*
X91573651Y-121638659D02*
X98673303Y-117539673D01*
X96473303Y-116269503D02*
X98673303Y-117539673D01*
X96473303Y-102127133D02*
X98673303Y-103397303D01*
X91573651Y-93353919D02*
X98673303Y-89254934D01*
X133090605Y-163154910D02*
X133090605Y-160614569D01*
X140190256Y-144626786D02*
X140190256Y-136428815D01*
X140190256Y-136428815D02*
X133090605Y-132329829D01*
X96473303Y-73842393D02*
X98673303Y-75112564D01*
X137990256Y-185783725D02*
X137990256Y-180126095D01*
X140190256Y-178855924D02*
X133090605Y-174756938D01*
X133090605Y-149012540D02*
X133090605Y-146472199D01*
X91573651Y-76671208D02*
X96473303Y-73842393D01*
X140190256Y-164713554D02*
X133090605Y-160614569D01*
X137990256Y-165983725D02*
X133090605Y-163154910D01*
X91573651Y-133240687D02*
X96473303Y-130411872D01*
X133090605Y-120727801D02*
X133090605Y-118187460D01*
X140190256Y-144626786D02*
X137990256Y-143356616D01*
X84474000Y-145824412D02*
X91573651Y-149923397D01*
X86674000Y-144554241D02*
X91573651Y-147383056D01*
X84474000Y-117539673D02*
X86674000Y-116269503D01*
X137990256Y-151841355D02*
X133090605Y-149012540D01*
X96473303Y-87984763D02*
X98673303Y-89254934D01*
X86674000Y-73842393D02*
X91573651Y-76671208D01*
X96473303Y-130411872D02*
X98673303Y-131682042D01*
X84474000Y-131682042D02*
X86674000Y-130411872D01*
X84474000Y-131682042D02*
X91573651Y-135781028D01*
X86674000Y-116269503D02*
X91573651Y-119098318D01*
X133090605Y-134870170D02*
X133090605Y-132329829D01*
X84474000Y-117539673D02*
X91573651Y-121638659D01*
X84474000Y-89254934D02*
X91573651Y-93353919D01*
X133090605Y-177297280D02*
X133090605Y-174756938D01*
X140190256Y-187053895D02*
X137990256Y-185783725D01*
X91573651Y-119098318D02*
X96473303Y-116269503D01*
X137990256Y-157498985D02*
X137990256Y-151841355D01*
X135664605Y-102127133D02*
X140564256Y-104955948D01*
X135664605Y-73842393D02*
X140564256Y-76671208D01*
X140564256Y-147383056D02*
X145463908Y-144554241D01*
X133464605Y-174109151D02*
X135664605Y-172838981D01*
X133464605Y-159966782D02*
X140564256Y-164065767D01*
X108969303Y-159966782D02*
X116068953Y-164065767D01*
X145463908Y-172838981D02*
X147663908Y-174109151D01*
X145463908Y-59700024D02*
X147663908Y-60970194D01*
X133464605Y-159966782D02*
X135664605Y-158696611D01*
X116068953Y-175667796D02*
X120968605Y-172838981D01*
X135664605Y-158696611D02*
X140564256Y-161525426D01*
X133464605Y-145824412D02*
X140564256Y-149923397D01*
X140564256Y-178208137D02*
X147663908Y-174109151D01*
X108969303Y-159966782D02*
X111169302Y-158696611D01*
X133464605Y-117539673D02*
X140564256Y-121638659D01*
X135664605Y-172838981D02*
X140564256Y-175667796D01*
X145463908Y-158696611D02*
X147663908Y-159966782D01*
X140564256Y-104955948D02*
X145463908Y-102127133D01*
X140564256Y-107496289D02*
X147663908Y-103397303D01*
X140564256Y-79211550D02*
X147663908Y-75112564D01*
X108969303Y-174109151D02*
X111169302Y-172838981D01*
X133464605Y-103397303D02*
X135664605Y-102127133D01*
X140564256Y-65069180D02*
X147663908Y-60970194D01*
X133464605Y-145824412D02*
X135664605Y-144554241D01*
X133464605Y-174109151D02*
X140564256Y-178208137D01*
X140564256Y-175667796D02*
X145463908Y-172838981D01*
X140564256Y-161525426D02*
X145463908Y-158696611D01*
X140564256Y-149923397D02*
X147663908Y-145824412D01*
X145463908Y-87984763D02*
X147663908Y-89254934D01*
X145463908Y-73842393D02*
X147663908Y-75112564D01*
X135664605Y-59700024D02*
X140564256Y-62528839D01*
X140564256Y-121638659D02*
X147663908Y-117539673D01*
X133464605Y-103397303D02*
X140564256Y-107496289D01*
X145463908Y-102127133D02*
X147663908Y-103397303D01*
X133464605Y-75112564D02*
X140564256Y-79211550D01*
X140564256Y-164065767D02*
X147663908Y-159966782D01*
X133464605Y-131682042D02*
X135664605Y-130411872D01*
X133464605Y-60970194D02*
X140564256Y-65069180D01*
X133464605Y-117539673D02*
X135664605Y-116269503D01*
X145463908Y-116269503D02*
X147663908Y-117539673D01*
X140564256Y-90813578D02*
X145463908Y-87984763D01*
X120968605Y-158696611D02*
X123168605Y-159966782D01*
X111169302Y-172838981D02*
X116068953Y-175667796D01*
X133464605Y-75112564D02*
X135664605Y-73842393D01*
X140564256Y-62528839D02*
X145463908Y-59700024D01*
X116068953Y-178208137D02*
X123168605Y-174109151D01*
X135664605Y-144554241D02*
X140564256Y-147383056D01*
X145463908Y-130411872D02*
X147663908Y-131682042D01*
X135664605Y-130411872D02*
X140564256Y-133240687D01*
X108969303Y-174109151D02*
X116068953Y-178208137D01*
X133464605Y-89254934D02*
X135664605Y-87984763D01*
X140564256Y-93353919D02*
X147663908Y-89254934D01*
X140564256Y-76671208D02*
X145463908Y-73842393D01*
X140564256Y-135781028D02*
X147663908Y-131682042D01*
X133464605Y-89254934D02*
X140564256Y-93353919D01*
X140564256Y-119098318D02*
X145463908Y-116269503D01*
X135664605Y-116269503D02*
X140564256Y-119098318D01*
X133464605Y-60970194D02*
X135664605Y-59700024D01*
X145463908Y-144554241D02*
X147663908Y-145824412D01*
X116068953Y-164065767D02*
X123168605Y-159966782D01*
X133464605Y-131682042D02*
X140564256Y-135781028D01*
X140564256Y-133240687D02*
X145463908Y-130411872D01*
X135664605Y-87984763D02*
X140564256Y-90813578D01*
X120968605Y-172838981D02*
X123168605Y-174109151D01*
X113494953Y-151841355D02*
X108595303Y-149012540D01*
X113494953Y-123556617D02*
X108595303Y-120727801D01*
X137990256Y-95271877D02*
X133090605Y-92443062D01*
X140190256Y-88057308D02*
X140190256Y-79859337D01*
X137990256Y-81129507D02*
X133090605Y-78300692D01*
X140190256Y-73914938D02*
X140190256Y-65716967D01*
X140190256Y-65716967D02*
X133090605Y-61617981D01*
X108595303Y-177297280D02*
X108595303Y-174756938D01*
X133090605Y-64158322D02*
X133090605Y-61617981D01*
X115694953Y-164713554D02*
X108595303Y-160614569D01*
X133090605Y-78300692D02*
X133090605Y-75760351D01*
X140190256Y-108144076D02*
X133090605Y-104045090D01*
X115694953Y-187053895D02*
X115694953Y-178855924D01*
X113494953Y-180126095D02*
X108595303Y-177297280D01*
X113494953Y-165983725D02*
X108595303Y-163154910D01*
X115694953Y-178855924D02*
X108595303Y-174756938D01*
X108595303Y-149012540D02*
X108595303Y-146472199D01*
X115694953Y-130484417D02*
X115694953Y-122286446D01*
X115694953Y-158769156D02*
X115694953Y-150571185D01*
X140190256Y-94001706D02*
X133090605Y-89902721D01*
X115694953Y-116342048D02*
X115694953Y-108144076D01*
X137990256Y-129214247D02*
X137990256Y-123556617D01*
X140190256Y-116342048D02*
X137990256Y-115071877D01*
X140190256Y-116342048D02*
X140190256Y-108144076D01*
X137990256Y-115071877D02*
X137990256Y-109414247D01*
X137990256Y-86787137D02*
X137990256Y-81129507D01*
X115694953Y-136428815D02*
X108595303Y-132329829D01*
X115694953Y-122286446D02*
X108595303Y-118187460D01*
X137990256Y-100929507D02*
X137990256Y-95271877D01*
X140190256Y-88057308D02*
X137990256Y-86787137D01*
X115694953Y-130484417D02*
X113494953Y-129214247D01*
X140190256Y-73914938D02*
X137990256Y-72644768D01*
X137990256Y-72644768D02*
X137990256Y-66987137D01*
X115694953Y-116342048D02*
X113494953Y-115071877D01*
X115694953Y-150571185D02*
X108595303Y-146472199D01*
X113494953Y-171641355D02*
X113494953Y-165983725D01*
X113494953Y-185783725D02*
X113494953Y-180126095D01*
X115694953Y-172911526D02*
X113494953Y-171641355D01*
X140190256Y-102199678D02*
X140190256Y-94001706D01*
X108595303Y-134870170D02*
X108595303Y-132329829D01*
X113494953Y-143356616D02*
X113494953Y-137698985D01*
X140190256Y-102199678D02*
X137990256Y-100929507D01*
X133090605Y-92443062D02*
X133090605Y-89902721D01*
X115694953Y-187053895D02*
X113494953Y-185783725D01*
X113494953Y-157498985D02*
X113494953Y-151841355D01*
X115694953Y-144626786D02*
X115694953Y-136428815D01*
X115694953Y-172911526D02*
X115694953Y-164713554D01*
X108595303Y-120727801D02*
X108595303Y-118187460D01*
X115694953Y-144626786D02*
X113494953Y-143356616D01*
X137990256Y-109414247D02*
X133090605Y-106585432D01*
X140190256Y-79859337D02*
X133090605Y-75760351D01*
X113494953Y-129214247D02*
X113494953Y-123556617D01*
X137990256Y-66987137D02*
X133090605Y-64158322D01*
X115694953Y-158769156D02*
X113494953Y-157498985D01*
X108595303Y-163154910D02*
X108595303Y-160614569D01*
X113494953Y-137698985D02*
X108595303Y-134870170D01*
X133090605Y-106585432D02*
X133090605Y-104045090D01*
X108595303Y-64158322D02*
X108595303Y-61617981D01*
X88999651Y-185783725D02*
X88999651Y-180126095D01*
X88999651Y-123556617D02*
X84100000Y-120727801D01*
X115694953Y-108144076D02*
X108595303Y-104045090D01*
X115694953Y-88057308D02*
X113494953Y-86787137D01*
X115694953Y-65716967D02*
X108595303Y-61617981D01*
X108595303Y-92443062D02*
X108595303Y-89902721D01*
X113494953Y-81129507D02*
X108595303Y-78300692D01*
X115694953Y-73914938D02*
X115694953Y-65716967D01*
X91199651Y-187053895D02*
X88999651Y-185783725D01*
X91199651Y-178855924D02*
X84100000Y-174756938D01*
X91199651Y-130484417D02*
X91199651Y-122286446D01*
X113494953Y-100929507D02*
X113494953Y-95271877D01*
X91199651Y-150571185D02*
X84100000Y-146472199D01*
X91199651Y-102199678D02*
X91199651Y-94001706D01*
X108595303Y-106585432D02*
X108595303Y-104045090D01*
X115694953Y-73914938D02*
X113494953Y-72644768D01*
X113494953Y-109414247D02*
X108595303Y-106585432D01*
X113494953Y-115071877D02*
X113494953Y-109414247D01*
X108595303Y-78300692D02*
X108595303Y-75760351D01*
X84100000Y-134870170D02*
X84100000Y-132329829D01*
X113494953Y-66987137D02*
X108595303Y-64158322D01*
X91199651Y-144626786D02*
X91199651Y-136428815D01*
X91199651Y-187053895D02*
X91199651Y-178855924D01*
X115694953Y-102199678D02*
X113494953Y-100929507D01*
X115694953Y-102199678D02*
X115694953Y-94001706D01*
X115694953Y-94001706D02*
X108595303Y-89902721D01*
X113494953Y-72644768D02*
X113494953Y-66987137D01*
X84100000Y-177297280D02*
X84100000Y-174756938D01*
X84100000Y-149012540D02*
X84100000Y-146472199D01*
X91199651Y-136428815D02*
X84100000Y-132329829D01*
X91199651Y-130484417D02*
X88999651Y-129214247D01*
X91199651Y-122286446D02*
X84100000Y-118187460D01*
X91199651Y-94001706D02*
X84100000Y-89902721D01*
X88999651Y-137698985D02*
X84100000Y-134870170D01*
X113494953Y-95271877D02*
X108595303Y-92443062D01*
X115694953Y-88057308D02*
X115694953Y-79859337D01*
X115694953Y-79859337D02*
X108595303Y-75760351D01*
X91199651Y-172911526D02*
X91199651Y-164713554D01*
X91199651Y-158769156D02*
X91199651Y-150571185D01*
X91199651Y-116342048D02*
X88999651Y-115071877D01*
X88999651Y-151841355D02*
X84100000Y-149012540D01*
X91199651Y-102199678D02*
X88999651Y-100929507D01*
X84100000Y-92443062D02*
X84100000Y-89902721D01*
X113494953Y-86787137D02*
X113494953Y-81129507D01*
X91199651Y-172911526D02*
X88999651Y-171641355D01*
X88999651Y-165983725D02*
X84100000Y-163154910D01*
X91199651Y-158769156D02*
X88999651Y-157498985D01*
X88999651Y-115071877D02*
X88999651Y-109414247D01*
X88999651Y-129214247D02*
X88999651Y-123556617D01*
X84100000Y-106585432D02*
X84100000Y-104045090D01*
X84100000Y-163154910D02*
X84100000Y-160614569D01*
X88999651Y-157498985D02*
X88999651Y-151841355D01*
X91199651Y-108144076D02*
X84100000Y-104045090D01*
X91199651Y-144626786D02*
X88999651Y-143356616D01*
X88999651Y-95271877D02*
X84100000Y-92443062D01*
X88999651Y-100929507D02*
X88999651Y-95271877D01*
X88999651Y-180126095D02*
X84100000Y-177297280D01*
X88999651Y-143356616D02*
X88999651Y-137698985D01*
X91199651Y-164713554D02*
X84100000Y-160614569D01*
X88999651Y-171641355D02*
X88999651Y-165983725D01*
X84100000Y-120727801D02*
X84100000Y-118187460D01*
X88999651Y-109414247D02*
X84100000Y-106585432D01*
X91199651Y-116342048D02*
X91199651Y-108144076D01*
X127942605Y-123413232D02*
X125742605Y-122143062D01*
X125742605Y-116485432D02*
X120842953Y-113656617D01*
X125742605Y-108000692D02*
X125742605Y-102343062D01*
X127942605Y-86930522D02*
X120842953Y-82831536D01*
X125742605Y-93858322D02*
X125742605Y-88200692D01*
X127942605Y-72788152D02*
X120842953Y-68689166D01*
X120842953Y-71229507D02*
X120842953Y-68689166D01*
X125742605Y-74058322D02*
X120842953Y-71229507D01*
X125742605Y-59915953D02*
X120842953Y-57087137D01*
X127942605Y-151697971D02*
X127942605Y-143500000D01*
X96347651Y-170226095D02*
X96347651Y-167685753D01*
X125742605Y-88200692D02*
X120842953Y-85371877D01*
X91199651Y-88057308D02*
X91199651Y-79859337D01*
X91199651Y-79859337D02*
X84100000Y-75760351D01*
X84100000Y-78300692D02*
X84100000Y-75760351D01*
X120842953Y-57087137D02*
X120842953Y-54546796D01*
X125742605Y-65573583D02*
X125742605Y-59915953D01*
X127942605Y-143500000D02*
X120842953Y-139401014D01*
X125742605Y-173054910D02*
X120842953Y-170226095D01*
X88999651Y-81129507D02*
X84100000Y-78300692D01*
X127942605Y-58645782D02*
X120842953Y-54546796D01*
X120842953Y-156083725D02*
X120842953Y-153543384D01*
X125742605Y-150427800D02*
X125742605Y-144770170D01*
X120842953Y-99514247D02*
X120842953Y-96973906D01*
X88999651Y-86787137D02*
X88999651Y-81129507D01*
X91199651Y-88057308D02*
X88999651Y-86787137D01*
X127942605Y-179982711D02*
X125742605Y-178712540D01*
X120842953Y-141941355D02*
X120842953Y-139401014D01*
X127942605Y-157642369D02*
X120842953Y-153543384D01*
X127942605Y-80986123D02*
X125742605Y-79715953D01*
X127942605Y-179982711D02*
X127942605Y-171784739D01*
X127942605Y-171784739D02*
X120842953Y-167685753D01*
X127942605Y-95128493D02*
X125742605Y-93858322D01*
X120842953Y-170226095D02*
X120842953Y-167685753D01*
X127942605Y-95128493D02*
X127942605Y-86930522D01*
X127942605Y-80986123D02*
X127942605Y-72788152D01*
X125742605Y-178712540D02*
X125742605Y-173054910D01*
X127942605Y-66843753D02*
X125742605Y-65573583D01*
X127942605Y-123413232D02*
X127942605Y-115215261D01*
X127942605Y-109270863D02*
X125742605Y-108000692D01*
X103447303Y-179982711D02*
X101247303Y-178712540D01*
X103447303Y-179982711D02*
X103447303Y-171784739D01*
X127942605Y-165840341D02*
X125742605Y-164570170D01*
X125742605Y-130627801D02*
X120842953Y-127798986D01*
X127942605Y-115215261D02*
X120842953Y-111116275D01*
X127942605Y-101072891D02*
X120842953Y-96973906D01*
X127942605Y-165840341D02*
X127942605Y-157642369D01*
X127942605Y-137555601D02*
X127942605Y-129357631D01*
X125742605Y-158912540D02*
X120842953Y-156083725D01*
X125742605Y-164570170D02*
X125742605Y-158912540D01*
X125742605Y-102343062D02*
X120842953Y-99514247D01*
X127942605Y-66843753D02*
X127942605Y-58645782D01*
X103447303Y-171784739D02*
X96347651Y-167685753D01*
X127942605Y-109270863D02*
X127942605Y-101072891D01*
X125742605Y-144770170D02*
X120842953Y-141941355D01*
X125742605Y-122143062D02*
X125742605Y-116485432D01*
X120842953Y-85371877D02*
X120842953Y-82831536D01*
X127942605Y-129357631D02*
X120842953Y-125258645D01*
X120842953Y-127798986D02*
X120842953Y-125258645D01*
X120842953Y-113656617D02*
X120842953Y-111116275D01*
X125742605Y-79715953D02*
X125742605Y-74058322D01*
X127942605Y-137555601D02*
X125742605Y-136285431D01*
X127942605Y-151697971D02*
X125742605Y-150427800D01*
X125742605Y-136285431D02*
X125742605Y-130627801D01*
X76752000Y-150427800D02*
X76752000Y-144770170D01*
X78952000Y-137555601D02*
X76752000Y-136285431D01*
X78952000Y-143500000D02*
X71852348Y-139401014D01*
X71852348Y-141941355D02*
X71852348Y-139401014D01*
X76752000Y-144770170D02*
X71852348Y-141941355D01*
X135790256Y-125258645D02*
X128690605Y-129357631D01*
X71852348Y-71229507D02*
X71852348Y-68689166D01*
X130890605Y-122143062D02*
X128690605Y-123413232D01*
X71852348Y-113656617D02*
X71852348Y-111116275D01*
X130890605Y-158912540D02*
X130890605Y-164570170D01*
X135790256Y-125258645D02*
X135790256Y-127798986D01*
X135790256Y-167685753D02*
X135790256Y-170226095D01*
X135790256Y-153543384D02*
X128690605Y-157642369D01*
X128690605Y-143500000D02*
X128690605Y-151697971D01*
X135790256Y-141941355D02*
X130890605Y-144770170D01*
X130890605Y-130627801D02*
X130890605Y-136285431D01*
X135790256Y-111116275D02*
X135790256Y-113656617D01*
X78952000Y-123413232D02*
X78952000Y-115215261D01*
X130890605Y-164570170D02*
X128690605Y-165840341D01*
X78952000Y-115215261D02*
X71852348Y-111116275D01*
X76752000Y-122143062D02*
X76752000Y-116485432D01*
X130890605Y-144770170D02*
X130890605Y-150427800D01*
X78952000Y-109270863D02*
X78952000Y-101072891D01*
X76752000Y-93858322D02*
X76752000Y-88200692D01*
X78952000Y-80986123D02*
X76752000Y-79715953D01*
X130890605Y-178712540D02*
X128690605Y-179982711D01*
X135790256Y-139401014D02*
X128690605Y-143500000D01*
X128690605Y-129357631D02*
X128690605Y-137555601D01*
X135790256Y-127798986D02*
X130890605Y-130627801D01*
X78952000Y-137555601D02*
X78952000Y-129357631D01*
X78952000Y-129357631D02*
X71852348Y-125258645D01*
X71852348Y-127798986D02*
X71852348Y-125258645D01*
X78952000Y-123413232D02*
X76752000Y-122143062D01*
X78952000Y-95128493D02*
X76752000Y-93858322D01*
X78952000Y-80986123D02*
X78952000Y-72788152D01*
X128690605Y-171784739D02*
X128690605Y-179982711D01*
X76752000Y-130627801D02*
X71852348Y-127798986D01*
X135790256Y-111116275D02*
X128690605Y-115215261D01*
X76752000Y-88200692D02*
X71852348Y-85371877D01*
X130890605Y-136285431D02*
X128690605Y-137555601D01*
X76752000Y-136285431D02*
X76752000Y-130627801D01*
X78952000Y-109270863D02*
X76752000Y-108000692D01*
X76752000Y-79715953D02*
X76752000Y-74058322D01*
X71852348Y-99514247D02*
X71852348Y-96973906D01*
X78952000Y-95128493D02*
X78952000Y-86930522D01*
X135790256Y-113656617D02*
X130890605Y-116485432D01*
X135790256Y-139401014D02*
X135790256Y-141941355D01*
X128690605Y-157642369D02*
X128690605Y-165840341D01*
X71852348Y-85371877D02*
X71852348Y-82831536D01*
X135790256Y-167685753D02*
X128690605Y-171784739D01*
X135790256Y-170226095D02*
X130890605Y-173054910D01*
X130890605Y-173054910D02*
X130890605Y-178712540D01*
X130890605Y-150427800D02*
X128690605Y-151697971D01*
X130890605Y-102343062D02*
X130890605Y-108000692D01*
X130890605Y-116485432D02*
X130890605Y-122143062D01*
X128690605Y-101072891D02*
X128690605Y-109270863D01*
X76752000Y-108000692D02*
X76752000Y-102343062D01*
X78952000Y-72788152D02*
X71852348Y-68689166D01*
X135790256Y-96973906D02*
X128690605Y-101072891D01*
X76752000Y-102343062D02*
X71852348Y-99514247D01*
X76752000Y-116485432D02*
X71852348Y-113656617D01*
X78952000Y-101072891D02*
X71852348Y-96973906D01*
X76752000Y-74058322D02*
X71852348Y-71229507D01*
X78952000Y-86930522D02*
X71852348Y-82831536D01*
X135790256Y-156083725D02*
X130890605Y-158912540D01*
X135790256Y-153543384D02*
X135790256Y-156083725D01*
X128690605Y-115215261D02*
X128690605Y-123413232D01*
X130890605Y-108000692D02*
X128690605Y-109270863D01*
X135790256Y-96973906D02*
X135790256Y-99514247D01*
X111294953Y-153543384D02*
X111294953Y-156083725D01*
X111294953Y-96973906D02*
X104195303Y-101072891D01*
X106395303Y-93858322D02*
X104195303Y-95128493D01*
X106395303Y-136285431D02*
X104195303Y-137555601D01*
X106395303Y-144770170D02*
X106395303Y-150427800D01*
X104195303Y-72788152D02*
X104195303Y-80986123D01*
X111294953Y-141941355D02*
X106395303Y-144770170D01*
X106395303Y-108000692D02*
X104195303Y-109270863D01*
X111294953Y-113656617D02*
X106395303Y-116485432D01*
X111294953Y-68689166D02*
X104195303Y-72788152D01*
X130890605Y-59915953D02*
X130890605Y-65573583D01*
X111294953Y-170226095D02*
X106395303Y-173054910D01*
X135790256Y-99514247D02*
X130890605Y-102343062D01*
X135790256Y-82831536D02*
X135790256Y-85371877D01*
X130890605Y-65573583D02*
X128690605Y-66843753D01*
X111294953Y-153543384D02*
X104195303Y-157642369D01*
X106395303Y-88200692D02*
X106395303Y-93858322D01*
X111294953Y-85371877D02*
X106395303Y-88200692D01*
X111294953Y-127798986D02*
X106395303Y-130627801D01*
X135790256Y-82831536D02*
X128690605Y-86930522D01*
X135790256Y-68689166D02*
X128690605Y-72788152D01*
X135790256Y-85371877D02*
X130890605Y-88200692D01*
X104195303Y-171784739D02*
X104195303Y-179982711D01*
X106395303Y-158912540D02*
X106395303Y-164570170D01*
X128690605Y-86930522D02*
X128690605Y-95128493D01*
X130890605Y-93858322D02*
X128690605Y-95128493D01*
X104195303Y-157642369D02*
X104195303Y-165840341D01*
X111294953Y-82831536D02*
X111294953Y-85371877D01*
X130890605Y-88200692D02*
X130890605Y-93858322D01*
X111294953Y-167685753D02*
X104195303Y-171784739D01*
X135790256Y-68689166D02*
X135790256Y-71229507D01*
X128690605Y-72788152D02*
X128690605Y-80986123D01*
X111294953Y-111116275D02*
X104195303Y-115215261D01*
X130890605Y-74058322D02*
X130890605Y-79715953D01*
X130890605Y-79715953D02*
X128690605Y-80986123D01*
X106395303Y-116485432D02*
X106395303Y-122143062D01*
X135790256Y-71229507D02*
X130890605Y-74058322D01*
X135790256Y-54546796D02*
X135790256Y-57087137D01*
X111294953Y-125258645D02*
X111294953Y-127798986D01*
X135790256Y-54546796D02*
X128690605Y-58645782D01*
X106395303Y-150427800D02*
X104195303Y-151697971D01*
X111294953Y-125258645D02*
X104195303Y-129357631D01*
X111294953Y-82831536D02*
X104195303Y-86930522D01*
X111294953Y-68689166D02*
X111294953Y-71229507D01*
X111294953Y-111116275D02*
X111294953Y-113656617D01*
X104195303Y-86930522D02*
X104195303Y-95128493D01*
X128690605Y-58645782D02*
X128690605Y-66843753D01*
X111294953Y-139401014D02*
X111294953Y-141941355D01*
X135790256Y-57087137D02*
X130890605Y-59915953D01*
X104195303Y-101072891D02*
X104195303Y-109270863D01*
X106395303Y-178712540D02*
X104195303Y-179982711D01*
X106395303Y-173054910D02*
X106395303Y-178712540D01*
X106395303Y-164570170D02*
X104195303Y-165840341D01*
X106395303Y-122143062D02*
X104195303Y-123413232D01*
X104195303Y-143500000D02*
X104195303Y-151697971D01*
X111294953Y-96973906D02*
X111294953Y-99514247D01*
X106395303Y-130627801D02*
X106395303Y-136285431D01*
X104195303Y-115215261D02*
X104195303Y-123413232D01*
X106395303Y-102343062D02*
X106395303Y-108000692D01*
X104195303Y-129357631D02*
X104195303Y-137555601D01*
X111294953Y-139401014D02*
X104195303Y-143500000D01*
X111294953Y-156083725D02*
X106395303Y-158912540D01*
X111294953Y-99514247D02*
X106395303Y-102343062D01*
X111294953Y-167685753D02*
X111294953Y-170226095D01*
X96347651Y-85371877D02*
X96347651Y-82831536D01*
X96347651Y-71229507D02*
X96347651Y-68689166D01*
X103447303Y-58645782D02*
X96347651Y-54546796D01*
X78952000Y-171784739D02*
X71852348Y-167685753D01*
X76752000Y-178712540D02*
X76752000Y-173054910D01*
X78952000Y-157642369D02*
X71852348Y-153543384D01*
X78952000Y-151697971D02*
X76752000Y-150427800D01*
X76752000Y-164570170D02*
X76752000Y-158912540D01*
X78952000Y-151697971D02*
X78952000Y-143500000D01*
X103447303Y-66843753D02*
X103447303Y-58645782D01*
X103447303Y-123413232D02*
X103447303Y-115215261D01*
X78952000Y-165840341D02*
X78952000Y-157642369D01*
X101247303Y-173054910D02*
X96347651Y-170226095D01*
X101247303Y-178712540D02*
X101247303Y-173054910D01*
X103447303Y-165840341D02*
X101247303Y-164570170D01*
X101247303Y-136285431D02*
X101247303Y-130627801D01*
X101247303Y-74058322D02*
X96347651Y-71229507D01*
X101247303Y-79715953D02*
X101247303Y-74058322D01*
X101247303Y-122143062D02*
X101247303Y-116485432D01*
X103447303Y-165840341D02*
X103447303Y-157642369D01*
X101247303Y-116485432D02*
X96347651Y-113656617D01*
X103447303Y-151697971D02*
X101247303Y-150427800D01*
X103447303Y-157642369D02*
X96347651Y-153543384D01*
X78952000Y-179982711D02*
X76752000Y-178712540D01*
X96347651Y-156083725D02*
X96347651Y-153543384D01*
X101247303Y-164570170D02*
X101247303Y-158912540D01*
X96347651Y-127798986D02*
X96347651Y-125258645D01*
X103447303Y-80986123D02*
X101247303Y-79715953D01*
X103447303Y-115215261D02*
X96347651Y-111116275D01*
X71852348Y-156083725D02*
X71852348Y-153543384D01*
X96347651Y-113656617D02*
X96347651Y-111116275D01*
X103447303Y-109270863D02*
X103447303Y-101072891D01*
X71852348Y-170226095D02*
X71852348Y-167685753D01*
X101247303Y-102343062D02*
X96347651Y-99514247D01*
X76752000Y-173054910D02*
X71852348Y-170226095D01*
X76752000Y-158912540D02*
X71852348Y-156083725D01*
X103447303Y-137555601D02*
X103447303Y-129357631D01*
X103447303Y-143500000D02*
X96347651Y-139401014D01*
X103447303Y-137555601D02*
X101247303Y-136285431D01*
X96347651Y-57087137D02*
X96347651Y-54546796D01*
X96347651Y-141941355D02*
X96347651Y-139401014D01*
X103447303Y-109270863D02*
X101247303Y-108000692D01*
X103447303Y-80986123D02*
X103447303Y-72788152D01*
X103447303Y-66843753D02*
X101247303Y-65573583D01*
X103447303Y-72788152D02*
X96347651Y-68689166D01*
X101247303Y-65573583D02*
X101247303Y-59915953D01*
X101247303Y-158912540D02*
X96347651Y-156083725D01*
X103447303Y-129357631D02*
X96347651Y-125258645D01*
X103447303Y-151697971D02*
X103447303Y-143500000D01*
X103447303Y-86930522D02*
X96347651Y-82831536D01*
X101247303Y-144770170D02*
X96347651Y-141941355D01*
X78952000Y-179982711D02*
X78952000Y-171784739D01*
X96347651Y-99514247D02*
X96347651Y-96973906D01*
X101247303Y-59915953D02*
X96347651Y-57087137D01*
X101247303Y-150427800D02*
X101247303Y-144770170D01*
X103447303Y-95128493D02*
X101247303Y-93858322D01*
X78952000Y-165840341D02*
X76752000Y-164570170D01*
X103447303Y-101072891D02*
X96347651Y-96973906D01*
X101247303Y-88200692D02*
X96347651Y-85371877D01*
X101247303Y-130627801D02*
X96347651Y-127798986D01*
X103447303Y-123413232D02*
X101247303Y-122143062D01*
X101247303Y-108000692D02*
X101247303Y-102343062D01*
X101247303Y-93858322D02*
X101247303Y-88200692D01*
X103447303Y-95128493D02*
X103447303Y-86930522D01*
X106395303Y-74058322D02*
X106395303Y-79715953D01*
X108720954Y-151625426D02*
X110920953Y-152895597D01*
X103821303Y-154454241D02*
X108720954Y-151625426D01*
X98921651Y-151625426D02*
X103821303Y-154454241D01*
X96721651Y-138753227D02*
X98921651Y-137483056D01*
X128316605Y-55457654D02*
X133216256Y-52628839D01*
X121216953Y-68041379D02*
X123416953Y-66771208D01*
X98921651Y-165767796D02*
X103821303Y-168596611D01*
X133216256Y-151625426D02*
X135416256Y-152895597D01*
X128316605Y-154454241D02*
X133216256Y-151625426D01*
X123416953Y-151625426D02*
X128316605Y-154454241D01*
X123416953Y-137483056D02*
X128316605Y-140311871D01*
X128316605Y-69600024D02*
X133216256Y-66771208D01*
X121216953Y-53899009D02*
X128316605Y-57997995D01*
X123416953Y-165767796D02*
X128316605Y-168596611D01*
X128316605Y-140311871D02*
X133216256Y-137483056D01*
X121216953Y-110468488D02*
X128316605Y-114567474D01*
X123416953Y-52628839D02*
X128316605Y-55457654D01*
X121216953Y-124610858D02*
X123416953Y-123340688D01*
X123416953Y-123340688D02*
X128316605Y-126169503D01*
X103821303Y-168596611D02*
X108720954Y-165767796D01*
X121216953Y-110468488D02*
X123416953Y-109198318D01*
X123416953Y-109198318D02*
X128316605Y-112027133D01*
X133216256Y-137483056D02*
X135416256Y-138753227D01*
X133216256Y-80913578D02*
X135416256Y-82183749D01*
X133216256Y-109198318D02*
X135416256Y-110468488D01*
X121216953Y-167037966D02*
X128316605Y-171136952D01*
X133216256Y-66771208D02*
X135416256Y-68041379D01*
X121216953Y-152895597D02*
X128316605Y-156994582D01*
X108720954Y-165767796D02*
X110920953Y-167037966D01*
X128316605Y-126169503D02*
X133216256Y-123340688D01*
X96721651Y-152895597D02*
X98921651Y-151625426D01*
X128316605Y-57997995D02*
X135416256Y-53899009D01*
X128316605Y-97884763D02*
X133216256Y-95055948D01*
X133216256Y-52628839D02*
X135416256Y-53899009D01*
X128316605Y-83742393D02*
X133216256Y-80913578D01*
X128316605Y-171136952D02*
X135416256Y-167037966D01*
X128316605Y-156994582D02*
X135416256Y-152895597D01*
X121216953Y-138753227D02*
X128316605Y-142852213D01*
X128316605Y-86282734D02*
X135416256Y-82183749D01*
X96721651Y-167037966D02*
X103821303Y-171136952D01*
X121216953Y-124610858D02*
X128316605Y-128709844D01*
X128316605Y-72140365D02*
X135416256Y-68041379D01*
X128316605Y-112027133D02*
X133216256Y-109198318D01*
X128316605Y-128709844D02*
X135416256Y-124610858D01*
X96721651Y-152895597D02*
X103821303Y-156994582D01*
X123416953Y-95055948D02*
X128316605Y-97884763D01*
X96721651Y-167037966D02*
X98921651Y-165767796D01*
X103821303Y-171136952D02*
X110920953Y-167037966D01*
X123416953Y-66771208D02*
X128316605Y-69600024D01*
X121216953Y-82183749D02*
X128316605Y-86282734D01*
X128316605Y-142852213D02*
X135416256Y-138753227D01*
X133216256Y-123340688D02*
X135416256Y-124610858D01*
X121216953Y-96326119D02*
X128316605Y-100425104D01*
X133216256Y-95055948D02*
X135416256Y-96326119D01*
X103821303Y-156994582D02*
X110920953Y-152895597D01*
X123416953Y-80913578D02*
X128316605Y-83742393D01*
X121216953Y-53899009D02*
X123416953Y-52628839D01*
X86799651Y-68689166D02*
X86799651Y-71229507D01*
X128316605Y-100425104D02*
X135416256Y-96326119D01*
X121216953Y-167037966D02*
X123416953Y-165767796D01*
X128316605Y-168596611D02*
X133216256Y-165767796D01*
X121216953Y-68041379D02*
X128316605Y-72140365D01*
X133216256Y-165767796D02*
X135416256Y-167037966D01*
X121216953Y-138753227D02*
X123416953Y-137483056D01*
X128316605Y-114567474D02*
X135416256Y-110468488D01*
X121216953Y-152895597D02*
X123416953Y-151625426D01*
X121216953Y-82183749D02*
X123416953Y-80913578D01*
X121216953Y-96326119D02*
X123416953Y-95055948D01*
X106395303Y-79715953D02*
X104195303Y-80986123D01*
X96721651Y-110468488D02*
X103821303Y-114567474D01*
X108720954Y-95055948D02*
X110920953Y-96326119D01*
X103821303Y-114567474D02*
X110920953Y-110468488D01*
X96721651Y-138753227D02*
X103821303Y-142852213D01*
X96721651Y-124610858D02*
X103821303Y-128709844D01*
X96721651Y-110468488D02*
X98921651Y-109198318D01*
X103821303Y-100425104D02*
X110920953Y-96326119D01*
X103821303Y-142852213D02*
X110920953Y-138753227D01*
X108720954Y-137483056D02*
X110920953Y-138753227D01*
X103821303Y-140311871D02*
X108720954Y-137483056D01*
X108720954Y-123340688D02*
X110920953Y-124610858D01*
X103821303Y-97884763D02*
X108720954Y-95055948D01*
X108720954Y-80913578D02*
X110920953Y-82183749D01*
X96721651Y-82183749D02*
X103821303Y-86282734D01*
X103821303Y-126169503D02*
X108720954Y-123340688D01*
X98921651Y-137483056D02*
X103821303Y-140311871D01*
X96721651Y-124610858D02*
X98921651Y-123340688D01*
X103821303Y-128709844D02*
X110920953Y-124610858D01*
X98921651Y-123340688D02*
X103821303Y-126169503D01*
X103821303Y-112027133D02*
X108720954Y-109198318D01*
X98921651Y-95055948D02*
X103821303Y-97884763D01*
X96721651Y-82183749D02*
X98921651Y-80913578D01*
X98921651Y-109198318D02*
X103821303Y-112027133D01*
X108720954Y-109198318D02*
X110920953Y-110468488D01*
X96721651Y-96326119D02*
X98921651Y-95055948D01*
X103821303Y-86282734D02*
X110920953Y-82183749D01*
X96721651Y-96326119D02*
X103821303Y-100425104D01*
X103821303Y-83742393D02*
X108720954Y-80913578D01*
X98921651Y-52628839D02*
X103821303Y-55457654D01*
X74426348Y-165767796D02*
X79326000Y-168596611D01*
X74426348Y-95055948D02*
X79326000Y-97884763D01*
X79326000Y-142852213D02*
X86425651Y-138753227D01*
X79326000Y-128709844D02*
X86425651Y-124610858D01*
X72226348Y-152895597D02*
X79326000Y-156994582D01*
X74426348Y-151625426D02*
X79326000Y-154454241D01*
X84225651Y-95055948D02*
X86425651Y-96326119D01*
X96721651Y-53899009D02*
X98921651Y-52628839D01*
X74426348Y-123340688D02*
X79326000Y-126169503D01*
X96721651Y-53899009D02*
X103821303Y-57997995D01*
X79326000Y-171136952D02*
X86425651Y-167037966D01*
X84225651Y-123340688D02*
X86425651Y-124610858D01*
X84225651Y-109198318D02*
X86425651Y-110468488D01*
X79326000Y-114567474D02*
X86425651Y-110468488D01*
X79326000Y-154454241D02*
X84225651Y-151625426D01*
X103821303Y-57997995D02*
X110920953Y-53899009D01*
X108720954Y-52628839D02*
X110920953Y-53899009D01*
X72226348Y-167037966D02*
X74426348Y-165767796D01*
X84225651Y-165767796D02*
X86425651Y-167037966D01*
X79326000Y-168596611D02*
X84225651Y-165767796D01*
X84225651Y-151625426D02*
X86425651Y-152895597D01*
X72226348Y-124610858D02*
X79326000Y-128709844D01*
X72226348Y-110468488D02*
X74426348Y-109198318D01*
X74426348Y-109198318D02*
X79326000Y-112027133D01*
X72226348Y-110468488D02*
X79326000Y-114567474D01*
X79326000Y-100425104D02*
X86425651Y-96326119D01*
X74426348Y-137483056D02*
X79326000Y-140311871D01*
X72226348Y-138753227D02*
X74426348Y-137483056D01*
X72226348Y-138753227D02*
X79326000Y-142852213D01*
X79326000Y-140311871D02*
X84225651Y-137483056D01*
X108720954Y-66771208D02*
X110920953Y-68041379D01*
X103821303Y-55457654D02*
X108720954Y-52628839D01*
X79326000Y-112027133D02*
X84225651Y-109198318D01*
X98921651Y-80913578D02*
X103821303Y-83742393D01*
X96721651Y-68041379D02*
X98921651Y-66771208D01*
X72226348Y-124610858D02*
X74426348Y-123340688D01*
X79326000Y-156994582D02*
X86425651Y-152895597D01*
X72226348Y-82183749D02*
X74426348Y-80913578D01*
X96721651Y-68041379D02*
X103821303Y-72140365D01*
X72226348Y-152895597D02*
X74426348Y-151625426D01*
X72226348Y-96326119D02*
X79326000Y-100425104D01*
X84225651Y-137483056D02*
X86425651Y-138753227D01*
X79326000Y-97884763D02*
X84225651Y-95055948D01*
X72226348Y-96326119D02*
X74426348Y-95055948D01*
X103821303Y-72140365D02*
X110920953Y-68041379D01*
X98921651Y-66771208D02*
X103821303Y-69600024D01*
X72226348Y-167037966D02*
X79326000Y-171136952D01*
X79326000Y-126169503D02*
X84225651Y-123340688D01*
X103821303Y-69600024D02*
X108720954Y-66771208D01*
X143138256Y-171641355D02*
X140938256Y-172911526D01*
X140938256Y-150571185D02*
X140938256Y-158769156D01*
X79326000Y-69600024D02*
X84225651Y-66771208D01*
X143138256Y-185783725D02*
X140938256Y-187053895D01*
X143138256Y-157498985D02*
X140938256Y-158769156D01*
X143138256Y-180126095D02*
X143138256Y-185783725D01*
X143138256Y-165983725D02*
X143138256Y-171641355D01*
X79326000Y-86282734D02*
X86425651Y-82183749D01*
X148037908Y-146472199D02*
X148037908Y-149012540D01*
X74426348Y-80913578D02*
X79326000Y-83742393D01*
X72226348Y-82183749D02*
X79326000Y-86282734D01*
X72226348Y-68041379D02*
X79326000Y-72140365D01*
X148037908Y-146472199D02*
X140938256Y-150571185D01*
X74426348Y-66771208D02*
X79326000Y-69600024D01*
X148037908Y-174756938D02*
X140938256Y-178855924D01*
X148037908Y-160614569D02*
X148037908Y-163154910D01*
X84225651Y-80913578D02*
X86425651Y-82183749D01*
X148037908Y-160614569D02*
X140938256Y-164713554D01*
X79326000Y-83742393D02*
X84225651Y-80913578D01*
X79326000Y-72140365D02*
X86425651Y-68041379D01*
X140938256Y-164713554D02*
X140938256Y-172911526D01*
X84225651Y-66771208D02*
X86425651Y-68041379D01*
X72226348Y-68041379D02*
X74426348Y-66771208D01*
X148037908Y-174756938D02*
X148037908Y-177297280D01*
X140938256Y-178855924D02*
X140938256Y-187053895D01*
X148037908Y-177297280D02*
X143138256Y-180126095D01*
X148037908Y-163154910D02*
X143138256Y-165983725D01*
X123542605Y-146472199D02*
X123542605Y-149012540D01*
X123542605Y-118187460D02*
X123542605Y-120727801D01*
X148037908Y-89902721D02*
X148037908Y-92443062D01*
X143138256Y-100929507D02*
X140938256Y-102199678D01*
X148037908Y-75760351D02*
X148037908Y-78300692D01*
X143138256Y-86787137D02*
X140938256Y-88057308D01*
X143138256Y-81129507D02*
X143138256Y-86787137D01*
X148037908Y-78300692D02*
X143138256Y-81129507D01*
X148037908Y-64158322D02*
X143138256Y-66987137D01*
X143138256Y-151841355D02*
X143138256Y-157498985D01*
X148037908Y-92443062D02*
X143138256Y-95271877D01*
X123542605Y-160614569D02*
X116442953Y-164713554D01*
X148037908Y-149012540D02*
X143138256Y-151841355D01*
X143138256Y-66987137D02*
X143138256Y-72644768D01*
X123542605Y-174756938D02*
X123542605Y-177297280D01*
X123542605Y-177297280D02*
X118642953Y-180126095D01*
X123542605Y-160614569D02*
X123542605Y-163154910D01*
X123542605Y-163154910D02*
X118642953Y-165983725D01*
X143138256Y-72644768D02*
X140938256Y-73914938D01*
X118642953Y-143356616D02*
X116442953Y-144626786D01*
X118642953Y-171641355D02*
X116442953Y-172911526D01*
X148037908Y-132329829D02*
X148037908Y-134870170D01*
X148037908Y-132329829D02*
X140938256Y-136428815D01*
X143138256Y-109414247D02*
X143138256Y-115071877D01*
X140938256Y-136428815D02*
X140938256Y-144626786D01*
X143138256Y-143356616D02*
X140938256Y-144626786D01*
X143138256Y-137698985D02*
X143138256Y-143356616D01*
X148037908Y-75760351D02*
X140938256Y-79859337D01*
X118642953Y-180126095D02*
X118642953Y-185783725D01*
X118642953Y-151841355D02*
X118642953Y-157498985D01*
X118642953Y-137698985D02*
X118642953Y-143356616D01*
X148037908Y-134870170D02*
X143138256Y-137698985D01*
X148037908Y-89902721D02*
X140938256Y-94001706D01*
X140938256Y-94001706D02*
X140938256Y-102199678D01*
X116442953Y-136428815D02*
X116442953Y-144626786D01*
X140938256Y-79859337D02*
X140938256Y-88057308D01*
X140938256Y-122286446D02*
X140938256Y-130484417D01*
X148037908Y-61617981D02*
X140938256Y-65716967D01*
X118642953Y-165983725D02*
X118642953Y-171641355D01*
X148037908Y-104045090D02*
X140938256Y-108144076D01*
X123542605Y-174756938D02*
X116442953Y-178855924D01*
X116442953Y-178855924D02*
X116442953Y-187053895D01*
X143138256Y-129214247D02*
X140938256Y-130484417D01*
X143138256Y-115071877D02*
X140938256Y-116342048D01*
X123542605Y-149012540D02*
X118642953Y-151841355D01*
X123542605Y-132329829D02*
X116442953Y-136428815D01*
X148037908Y-118187460D02*
X148037908Y-120727801D01*
X148037908Y-106585432D02*
X143138256Y-109414247D01*
X140938256Y-65716967D02*
X140938256Y-73914938D01*
X118642953Y-185783725D02*
X116442953Y-187053895D01*
X123542605Y-146472199D02*
X116442953Y-150571185D01*
X118642953Y-157498985D02*
X116442953Y-158769156D01*
X123542605Y-134870170D02*
X118642953Y-137698985D01*
X140938256Y-108144076D02*
X140938256Y-116342048D01*
X116442953Y-150571185D02*
X116442953Y-158769156D01*
X148037908Y-104045090D02*
X148037908Y-106585432D01*
X143138256Y-95271877D02*
X143138256Y-100929507D01*
X123542605Y-118187460D02*
X116442953Y-122286446D01*
X143138256Y-123556617D02*
X143138256Y-129214247D01*
X148037908Y-61617981D02*
X148037908Y-64158322D01*
X116442953Y-164713554D02*
X116442953Y-172911526D01*
X148037908Y-118187460D02*
X140938256Y-122286446D01*
X123542605Y-132329829D02*
X123542605Y-134870170D01*
X148037908Y-120727801D02*
X143138256Y-123556617D01*
X94147651Y-137698985D02*
X94147651Y-143356616D01*
X94147651Y-123556617D02*
X94147651Y-129214247D01*
X99047303Y-134870170D02*
X94147651Y-137698985D01*
X116442953Y-122286446D02*
X116442953Y-130484417D01*
X118642953Y-129214247D02*
X116442953Y-130484417D01*
X99047303Y-174756938D02*
X99047303Y-177297280D01*
X118642953Y-115071877D02*
X116442953Y-116342048D01*
X116442953Y-65716967D02*
X116442953Y-73914938D01*
X94147651Y-143356616D02*
X91947651Y-144626786D01*
X91947651Y-122286446D02*
X91947651Y-130484417D01*
X116442953Y-108144076D02*
X116442953Y-116342048D01*
X118642953Y-123556617D02*
X118642953Y-129214247D01*
X123542605Y-89902721D02*
X123542605Y-92443062D01*
X94147651Y-165983725D02*
X94147651Y-171641355D01*
X123542605Y-120727801D02*
X118642953Y-123556617D01*
X118642953Y-95271877D02*
X118642953Y-100929507D01*
X99047303Y-118187460D02*
X91947651Y-122286446D01*
X123542605Y-61617981D02*
X123542605Y-64158322D01*
X99047303Y-149012540D02*
X94147651Y-151841355D01*
X118642953Y-72644768D02*
X116442953Y-73914938D01*
X94147651Y-157498985D02*
X91947651Y-158769156D01*
X123542605Y-104045090D02*
X123542605Y-106585432D01*
X123542605Y-104045090D02*
X116442953Y-108144076D01*
X118642953Y-109414247D02*
X118642953Y-115071877D01*
X123542605Y-75760351D02*
X116442953Y-79859337D01*
X123542605Y-61617981D02*
X116442953Y-65716967D01*
X118642953Y-66987137D02*
X118642953Y-72644768D01*
X99047303Y-163154910D02*
X94147651Y-165983725D01*
X94147651Y-151841355D02*
X94147651Y-157498985D01*
X99047303Y-132329829D02*
X99047303Y-134870170D01*
X91947651Y-136428815D02*
X91947651Y-144626786D01*
X123542605Y-106585432D02*
X118642953Y-109414247D01*
X118642953Y-100929507D02*
X116442953Y-102199678D01*
X99047303Y-174756938D02*
X91947651Y-178855924D01*
X94147651Y-185783725D02*
X91947651Y-187053895D01*
X123542605Y-89902721D02*
X116442953Y-94001706D01*
X116442953Y-94001706D02*
X116442953Y-102199678D01*
X123542605Y-92443062D02*
X118642953Y-95271877D01*
X94147651Y-171641355D02*
X91947651Y-172911526D01*
X99047303Y-146472199D02*
X99047303Y-149012540D01*
X123542605Y-75760351D02*
X123542605Y-78300692D01*
X116442953Y-79859337D02*
X116442953Y-88057308D01*
X91947651Y-178855924D02*
X91947651Y-187053895D01*
X91947651Y-164713554D02*
X91947651Y-172911526D01*
X94147651Y-129214247D02*
X91947651Y-130484417D01*
X99047303Y-160614569D02*
X99047303Y-163154910D01*
X123542605Y-64158322D02*
X118642953Y-66987137D01*
X99047303Y-177297280D02*
X94147651Y-180126095D01*
X118642953Y-86787137D02*
X116442953Y-88057308D01*
X99047303Y-146472199D02*
X91947651Y-150571185D01*
X91947651Y-150571185D02*
X91947651Y-158769156D01*
X99047303Y-118187460D02*
X99047303Y-120727801D01*
X99047303Y-132329829D02*
X91947651Y-136428815D01*
X118642953Y-81129507D02*
X118642953Y-86787137D01*
X123542605Y-78300692D02*
X118642953Y-81129507D01*
X99047303Y-160614569D02*
X91947651Y-164713554D01*
X94147651Y-180126095D02*
X94147651Y-185783725D01*
X86674000Y-59700024D02*
X91573651Y-62528839D01*
X99047303Y-120727801D02*
X94147651Y-123556617D01*
X94147651Y-109414247D02*
X94147651Y-115071877D01*
X91199651Y-65716967D02*
X84100000Y-61617981D01*
X88999651Y-72644768D02*
X88999651Y-66987137D01*
X86799651Y-54546796D02*
X86799651Y-57087137D01*
X84474000Y-60970194D02*
X91573651Y-65069180D01*
X99047303Y-78300692D02*
X94147651Y-81129507D01*
X99047303Y-104045090D02*
X99047303Y-106585432D01*
X94147651Y-115071877D02*
X91947651Y-116342048D01*
X99047303Y-104045090D02*
X91947651Y-108144076D01*
X99047303Y-106585432D02*
X94147651Y-109414247D01*
X99047303Y-89902721D02*
X99047303Y-92443062D01*
X91947651Y-94001706D02*
X91947651Y-102199678D01*
X94147651Y-81129507D02*
X94147651Y-86787137D01*
X88999651Y-66987137D02*
X84100000Y-64158322D01*
X99047303Y-75760351D02*
X91947651Y-79859337D01*
X99047303Y-75760351D02*
X99047303Y-78300692D01*
X99047303Y-61617981D02*
X91947651Y-65716967D01*
X84225651Y-52628839D02*
X86425651Y-53899009D01*
X91947651Y-65716967D02*
X91947651Y-73914938D01*
X96473303Y-59700024D02*
X98673303Y-60970194D01*
X91573651Y-62528839D02*
X96473303Y-59700024D01*
X91199651Y-73914938D02*
X88999651Y-72644768D01*
X91573651Y-65069180D02*
X98673303Y-60970194D01*
X71852348Y-57087137D02*
X71852348Y-54546796D01*
X76752000Y-65573583D02*
X76752000Y-59915953D01*
X81900000Y-59915953D02*
X81900000Y-65573583D01*
X79326000Y-57997995D02*
X86425651Y-53899009D01*
X79326000Y-55457654D02*
X84225651Y-52628839D01*
X91947651Y-79859337D02*
X91947651Y-88057308D01*
X94147651Y-72644768D02*
X91947651Y-73914938D01*
X79700000Y-58645782D02*
X79700000Y-66843753D01*
X81900000Y-65573583D02*
X79700000Y-66843753D01*
X74426348Y-52628839D02*
X79326000Y-55457654D01*
X86799651Y-57087137D02*
X81900000Y-59915953D01*
X91947651Y-108144076D02*
X91947651Y-116342048D01*
X72226348Y-53899009D02*
X74426348Y-52628839D01*
X99047303Y-89902721D02*
X91947651Y-94001706D01*
X99047303Y-92443062D02*
X94147651Y-95271877D01*
X94147651Y-100929507D02*
X91947651Y-102199678D01*
X78952000Y-66843753D02*
X78952000Y-58645782D01*
X94147651Y-95271877D02*
X94147651Y-100929507D01*
X94147651Y-86787137D02*
X91947651Y-88057308D01*
X78952000Y-58645782D02*
X71852348Y-54546796D01*
X94147651Y-66987137D02*
X94147651Y-72644768D01*
X99047303Y-64158322D02*
X94147651Y-66987137D01*
X99047303Y-61617981D02*
X99047303Y-64158322D01*
X84474000Y-60970194D02*
X86674000Y-59700024D01*
X91199651Y-73914938D02*
X91199651Y-65716967D01*
X86799651Y-54546796D02*
X79700000Y-58645782D01*
X84100000Y-64158322D02*
X84100000Y-61617981D01*
X76752000Y-59915953D02*
X71852348Y-57087137D01*
X72226348Y-53899009D02*
X79326000Y-57997995D01*
X78952000Y-66843753D02*
X76752000Y-65573583D01*
X111294953Y-54546796D02*
X111294953Y-57087137D01*
X111294953Y-54546796D02*
X104195303Y-58645782D01*
X106395303Y-59915953D02*
X106395303Y-65573583D01*
X86799651Y-167685753D02*
X79700000Y-171784739D01*
X79700000Y-171784739D02*
X79700000Y-179982711D01*
X86799651Y-153543384D02*
X79700000Y-157642369D01*
X81900000Y-164570170D02*
X79700000Y-165840341D01*
X81900000Y-178712540D02*
X79700000Y-179982711D01*
X79700000Y-157642369D02*
X79700000Y-165840341D01*
X81900000Y-173054910D02*
X81900000Y-178712540D01*
X86799651Y-167685753D02*
X86799651Y-170226095D01*
X106395303Y-65573583D02*
X104195303Y-66843753D01*
X86799651Y-170226095D02*
X81900000Y-173054910D01*
X86799651Y-153543384D02*
X86799651Y-156083725D01*
X111294953Y-71229507D02*
X106395303Y-74058322D01*
X104195303Y-58645782D02*
X104195303Y-66843753D01*
X111294953Y-57087137D02*
X106395303Y-59915953D01*
X79700000Y-129357631D02*
X79700000Y-137555601D01*
X81900000Y-150427800D02*
X79700000Y-151697971D01*
X86799651Y-85371877D02*
X81900000Y-88200692D01*
X86799651Y-82831536D02*
X86799651Y-85371877D01*
X86799651Y-139401014D02*
X79700000Y-143500000D01*
X86799651Y-82831536D02*
X79700000Y-86930522D01*
X79700000Y-115215261D02*
X79700000Y-123413232D01*
X86799651Y-125258645D02*
X86799651Y-127798986D01*
X86799651Y-111116275D02*
X79700000Y-115215261D01*
X86799651Y-156083725D02*
X81900000Y-158912540D01*
X86799651Y-141941355D02*
X81900000Y-144770170D01*
X81900000Y-122143062D02*
X79700000Y-123413232D01*
X86799651Y-139401014D02*
X86799651Y-141941355D01*
X81900000Y-130627801D02*
X81900000Y-136285431D01*
X86799651Y-96973906D02*
X86799651Y-99514247D01*
X86799651Y-71229507D02*
X81900000Y-74058322D01*
X81900000Y-116485432D02*
X81900000Y-122143062D01*
X81900000Y-136285431D02*
X79700000Y-137555601D01*
X81900000Y-144770170D02*
X81900000Y-150427800D01*
X86799651Y-125258645D02*
X79700000Y-129357631D01*
X79700000Y-86930522D02*
X79700000Y-95128493D01*
X79700000Y-72788152D02*
X79700000Y-80986123D01*
X86799651Y-99514247D02*
X81900000Y-102343062D01*
X81900000Y-93858322D02*
X79700000Y-95128493D01*
X81900000Y-74058322D02*
X81900000Y-79715953D01*
X86799651Y-127798986D02*
X81900000Y-130627801D01*
X79700000Y-101072891D02*
X79700000Y-109270863D01*
X86799651Y-111116275D02*
X86799651Y-113656617D01*
X86799651Y-113656617D02*
X81900000Y-116485432D01*
X81900000Y-79715953D02*
X79700000Y-80986123D01*
X86799651Y-68689166D02*
X79700000Y-72788152D01*
X81900000Y-108000692D02*
X79700000Y-109270863D01*
X81900000Y-102343062D02*
X81900000Y-108000692D01*
X81900000Y-88200692D02*
X81900000Y-93858322D01*
X86799651Y-96973906D02*
X79700000Y-101072891D01*
X81900000Y-158912540D02*
X81900000Y-164570170D01*
X79700000Y-143500000D02*
X79700000Y-151697971D01*
X95827477Y-192915939D02*
X94177477Y-192915939D01*
X125777477Y-192915939D02*
X124127477Y-192915939D01*
X94177477Y-221215939D02*
X94177477Y-219565939D01*
X125777477Y-194565939D02*
X124127477Y-194565939D01*
X95827477Y-194565939D02*
X94177477Y-194565939D01*
X125777477Y-41815939D02*
X125777477Y-43465939D01*
X125777477Y-41815939D02*
X124127477Y-41815939D01*
X95827477Y-194565939D02*
X95827477Y-192915939D01*
X94177477Y-194565939D02*
X94177477Y-192915939D01*
X124127477Y-194565939D02*
X124127477Y-192915939D01*
X95827477Y-219565939D02*
X95827477Y-221215939D01*
X125777477Y-194565939D02*
X125777477Y-192915939D01*
X125777477Y-43465939D02*
X124127477Y-43465939D01*
X95827477Y-221215939D02*
X94177477Y-221215939D01*
X124127477Y-43465939D02*
X124127477Y-41815939D01*
X157227477Y-44103439D02*
X157227477Y-214990939D01*
X149352477Y-24415939D02*
X149352477Y-40165939D01*
X157227477Y-218928439D02*
X158877477Y-218928439D01*
X172977477Y-48040939D02*
X158877477Y-48040939D01*
X157227477Y-44103439D02*
X158877477Y-44103439D01*
X46977477Y-48040939D02*
X61077477Y-48040939D01*
X46977477Y-222865939D02*
X61077477Y-222865939D01*
X149352477Y-222865939D02*
X149352477Y-238615939D01*
X46977477Y-214990939D02*
X62727477Y-214990939D01*
X95827477Y-219565939D02*
X94177477Y-219565939D01*
X46977477Y-40165939D02*
X62727477Y-40165939D01*
X62727477Y-40165939D02*
X62727477Y-24415939D01*
X149352477Y-222865939D02*
X70602477Y-222865939D01*
X62727477Y-24415939D02*
X70602477Y-24415939D01*
X70602477Y-238615939D02*
X62727477Y-238615939D01*
X172977477Y-40165939D02*
X157227477Y-40165939D01*
X61077477Y-48040939D02*
X61077477Y-44103439D01*
X157227477Y-24415939D02*
X149352477Y-24415939D01*
X172977477Y-48040939D02*
X172977477Y-40165939D01*
X172977477Y-214990939D02*
X157227477Y-214990939D01*
X158877477Y-218928439D02*
X158877477Y-222865939D01*
X149352477Y-238615939D02*
X157227477Y-238615939D01*
X46977477Y-222865939D02*
X46977477Y-214990939D01*
X157227477Y-218928439D02*
X157227477Y-238615939D01*
X62727477Y-214990939D02*
X62727477Y-44103439D01*
X62727477Y-44103439D02*
X61077477Y-44103439D01*
X46977477Y-48040939D02*
X46977477Y-40165939D01*
X70602477Y-24415939D02*
X70602477Y-40165939D01*
X157227477Y-24415939D02*
X157227477Y-40165939D01*
X70602477Y-222865939D02*
X70602477Y-238615939D01*
X62727477Y-218928439D02*
X61077477Y-218928439D01*
X62727477Y-238615939D02*
X62727477Y-218928439D01*
X158877477Y-48040939D02*
X158877477Y-44103439D01*
X172977477Y-222865939D02*
X172977477Y-214990939D01*
X172977477Y-222865939D02*
X158877477Y-222865939D01*
X61077477Y-218928439D02*
X61077477Y-222865939D01*
X149352477Y-40165939D02*
X70602477Y-40165939D01*
X125777477Y-219565939D02*
X124127477Y-219565939D01*
X95827477Y-43465939D02*
X94177477Y-43465939D01*
X124127477Y-219565939D02*
X124127477Y-221215939D01*
X94177477Y-41815939D02*
X94177477Y-43465939D01*
X95827477Y-41815939D02*
X94177477Y-41815939D01*
X125777477Y-221215939D02*
X124127477Y-221215939D01*
X125777477Y-221215939D02*
X125777477Y-219565939D01*
X95827477Y-43465939D02*
X95827477Y-41815939D01*
M02*
