%TF.GenerationSoftware,KiCad,Pcbnew,(5.1.6)-1*%
%TF.CreationDate,2020-10-22T21:59:58+01:00*%
%TF.ProjectId,Side 1,53696465-2031-42e6-9b69-6361645f7063,rev?*%
%TF.SameCoordinates,Original*%
%TF.FileFunction,Copper,L1,Top*%
%TF.FilePolarity,Positive*%
%FSLAX46Y46*%
G04 Gerber Fmt 4.6, Leading zero omitted, Abs format (unit mm)*
G04 Created by KiCad (PCBNEW (5.1.6)-1) date 2020-10-22 21:59:58*
%MOMM*%
%LPD*%
G01*
G04 APERTURE LIST*
%TA.AperFunction,EtchedComponent*%
%ADD10C,0.010000*%
%TD*%
G04 APERTURE END LIST*
D10*
%TO.C,G\u002A\u002A\u002A*%
G36*
X70580000Y-238634500D02*
G01*
X62706000Y-238634500D01*
X62706000Y-223204000D01*
X70580000Y-223204000D01*
X70580000Y-238634500D01*
G37*
X70580000Y-238634500D02*
X62706000Y-238634500D01*
X62706000Y-223204000D01*
X70580000Y-223204000D01*
X70580000Y-238634500D01*
G36*
X157204584Y-238623917D02*
G01*
X153262263Y-238629264D01*
X149319943Y-238634611D01*
X149325263Y-230924597D01*
X149330584Y-223214583D01*
X157204584Y-223214583D01*
X157204584Y-238623917D01*
G37*
X157204584Y-238623917D02*
X153262263Y-238629264D01*
X149319943Y-238634611D01*
X149325263Y-230924597D01*
X149330584Y-223214583D01*
X157204584Y-223214583D01*
X157204584Y-238623917D01*
G36*
X111810180Y-214970586D02*
G01*
X113268558Y-214970610D01*
X114724790Y-214970648D01*
X116177928Y-214970700D01*
X117627026Y-214970765D01*
X119071138Y-214970844D01*
X120509317Y-214970937D01*
X121940618Y-214971044D01*
X123364092Y-214971164D01*
X124778795Y-214971298D01*
X126183779Y-214971445D01*
X127578099Y-214971607D01*
X128960808Y-214971782D01*
X130330959Y-214971971D01*
X131687607Y-214972173D01*
X133029804Y-214972389D01*
X134356605Y-214972619D01*
X135667062Y-214972862D01*
X136960231Y-214973120D01*
X138235163Y-214973390D01*
X139490913Y-214973675D01*
X140726535Y-214973973D01*
X141941082Y-214974285D01*
X143133607Y-214974611D01*
X144303165Y-214974950D01*
X145448808Y-214975303D01*
X146569591Y-214975670D01*
X147664567Y-214976051D01*
X148732789Y-214976445D01*
X149773312Y-214976853D01*
X150785189Y-214977274D01*
X151767473Y-214977709D01*
X152719218Y-214978158D01*
X153639478Y-214978621D01*
X154527307Y-214979097D01*
X155381757Y-214979587D01*
X156201883Y-214980091D01*
X156986738Y-214980609D01*
X157735375Y-214981140D01*
X158446849Y-214981684D01*
X159120213Y-214982243D01*
X159754521Y-214982815D01*
X160348826Y-214983401D01*
X160902181Y-214984001D01*
X161136347Y-214984273D01*
X172963278Y-214998376D01*
X172957931Y-218937146D01*
X172952584Y-222875917D01*
X166031084Y-222882168D01*
X165490956Y-222882616D01*
X164961071Y-222882975D01*
X164443036Y-222883248D01*
X163938457Y-222883435D01*
X163448942Y-222883539D01*
X162976099Y-222883562D01*
X162521534Y-222883504D01*
X162086855Y-222883367D01*
X161673670Y-222883153D01*
X161283585Y-222882864D01*
X160918207Y-222882501D01*
X160579145Y-222882066D01*
X160268005Y-222881560D01*
X159986395Y-222880985D01*
X159735921Y-222880342D01*
X159518192Y-222879633D01*
X159334814Y-222878860D01*
X159187395Y-222878025D01*
X159077542Y-222877128D01*
X159006862Y-222876171D01*
X158977292Y-222875192D01*
X158845000Y-222861964D01*
X158845000Y-218949500D01*
X157215167Y-218949500D01*
X157215167Y-222858297D01*
X149623396Y-222872399D01*
X149247773Y-222873049D01*
X148830828Y-222873684D01*
X148373574Y-222874303D01*
X147877020Y-222874907D01*
X147342180Y-222875494D01*
X146770064Y-222876066D01*
X146161684Y-222876622D01*
X145518051Y-222877162D01*
X144840178Y-222877686D01*
X144129075Y-222878195D01*
X143385755Y-222878687D01*
X142611228Y-222879164D01*
X141806507Y-222879625D01*
X140972602Y-222880070D01*
X140110526Y-222880499D01*
X139221290Y-222880913D01*
X138305905Y-222881311D01*
X137365384Y-222881693D01*
X136400737Y-222882059D01*
X135412977Y-222882409D01*
X134403114Y-222882743D01*
X133372160Y-222883062D01*
X132321128Y-222883365D01*
X131251028Y-222883652D01*
X130162871Y-222883923D01*
X129057671Y-222884178D01*
X127936437Y-222884418D01*
X126800182Y-222884642D01*
X125649918Y-222884849D01*
X124486655Y-222885042D01*
X123311405Y-222885218D01*
X122125180Y-222885378D01*
X120928992Y-222885523D01*
X119723852Y-222885652D01*
X118510771Y-222885765D01*
X117290761Y-222885862D01*
X116064834Y-222885943D01*
X114834001Y-222886009D01*
X113599274Y-222886059D01*
X112361665Y-222886092D01*
X111122184Y-222886111D01*
X109881843Y-222886113D01*
X108641655Y-222886099D01*
X107402630Y-222886070D01*
X106165780Y-222886025D01*
X104932116Y-222885964D01*
X103702651Y-222885887D01*
X102478396Y-222885794D01*
X101260362Y-222885686D01*
X100049561Y-222885562D01*
X98847004Y-222885422D01*
X97653703Y-222885266D01*
X96470670Y-222885094D01*
X95298916Y-222884907D01*
X94139453Y-222884703D01*
X92993291Y-222884484D01*
X91861444Y-222884249D01*
X90744921Y-222883999D01*
X89644736Y-222883732D01*
X88561899Y-222883450D01*
X87497422Y-222883151D01*
X86452316Y-222882837D01*
X85427594Y-222882507D01*
X84424266Y-222882162D01*
X83443344Y-222881800D01*
X82485840Y-222881423D01*
X81552766Y-222881030D01*
X80645132Y-222880621D01*
X79763951Y-222880196D01*
X78910233Y-222879756D01*
X78084991Y-222879299D01*
X77289236Y-222878827D01*
X76523980Y-222878339D01*
X75790234Y-222877835D01*
X75089010Y-222877316D01*
X74421319Y-222876780D01*
X73788173Y-222876229D01*
X73190583Y-222875662D01*
X72629561Y-222875079D01*
X72106119Y-222874481D01*
X71621268Y-222873866D01*
X71176019Y-222873236D01*
X70771385Y-222872590D01*
X70659375Y-222872395D01*
X62706000Y-222858296D01*
X62706000Y-219584500D01*
X94159667Y-219584500D01*
X94159667Y-221214333D01*
X95789500Y-221214333D01*
X95789500Y-219584500D01*
X124110500Y-219584500D01*
X124110500Y-221214333D01*
X125740334Y-221214333D01*
X125740334Y-219584500D01*
X124110500Y-219584500D01*
X95789500Y-219584500D01*
X94159667Y-219584500D01*
X62706000Y-219584500D01*
X62706000Y-218949500D01*
X61055000Y-218949500D01*
X61055000Y-222886500D01*
X46958000Y-222886500D01*
X46958000Y-214998376D01*
X58772524Y-214984271D01*
X59306620Y-214983666D01*
X59882103Y-214983074D01*
X60498026Y-214982495D01*
X61153444Y-214981931D01*
X61847409Y-214981380D01*
X62578976Y-214980843D01*
X63347198Y-214980319D01*
X64151128Y-214979809D01*
X64989820Y-214979313D01*
X65862329Y-214978831D01*
X66767706Y-214978362D01*
X67705007Y-214977907D01*
X68673284Y-214977466D01*
X69671592Y-214977038D01*
X70698983Y-214976624D01*
X71754512Y-214976224D01*
X72837232Y-214975837D01*
X73946197Y-214975464D01*
X75080459Y-214975105D01*
X76239074Y-214974760D01*
X77421094Y-214974428D01*
X78625573Y-214974110D01*
X79851565Y-214973806D01*
X81098124Y-214973515D01*
X82364302Y-214973238D01*
X83649153Y-214972975D01*
X84951732Y-214972725D01*
X86271092Y-214972489D01*
X87606285Y-214972267D01*
X88956367Y-214972059D01*
X90320391Y-214971864D01*
X91697409Y-214971683D01*
X93086476Y-214971515D01*
X94486646Y-214971362D01*
X95896972Y-214971222D01*
X97316507Y-214971095D01*
X98744305Y-214970983D01*
X100179420Y-214970884D01*
X101620906Y-214970799D01*
X103067816Y-214970727D01*
X104519203Y-214970669D01*
X105974121Y-214970625D01*
X107431625Y-214970595D01*
X108890766Y-214970578D01*
X110350600Y-214970575D01*
X111810180Y-214970586D01*
G37*
X111810180Y-214970586D02*
X113268558Y-214970610D01*
X114724790Y-214970648D01*
X116177928Y-214970700D01*
X117627026Y-214970765D01*
X119071138Y-214970844D01*
X120509317Y-214970937D01*
X121940618Y-214971044D01*
X123364092Y-214971164D01*
X124778795Y-214971298D01*
X126183779Y-214971445D01*
X127578099Y-214971607D01*
X128960808Y-214971782D01*
X130330959Y-214971971D01*
X131687607Y-214972173D01*
X133029804Y-214972389D01*
X134356605Y-214972619D01*
X135667062Y-214972862D01*
X136960231Y-214973120D01*
X138235163Y-214973390D01*
X139490913Y-214973675D01*
X140726535Y-214973973D01*
X141941082Y-214974285D01*
X143133607Y-214974611D01*
X144303165Y-214974950D01*
X145448808Y-214975303D01*
X146569591Y-214975670D01*
X147664567Y-214976051D01*
X148732789Y-214976445D01*
X149773312Y-214976853D01*
X150785189Y-214977274D01*
X151767473Y-214977709D01*
X152719218Y-214978158D01*
X153639478Y-214978621D01*
X154527307Y-214979097D01*
X155381757Y-214979587D01*
X156201883Y-214980091D01*
X156986738Y-214980609D01*
X157735375Y-214981140D01*
X158446849Y-214981684D01*
X159120213Y-214982243D01*
X159754521Y-214982815D01*
X160348826Y-214983401D01*
X160902181Y-214984001D01*
X161136347Y-214984273D01*
X172963278Y-214998376D01*
X172957931Y-218937146D01*
X172952584Y-222875917D01*
X166031084Y-222882168D01*
X165490956Y-222882616D01*
X164961071Y-222882975D01*
X164443036Y-222883248D01*
X163938457Y-222883435D01*
X163448942Y-222883539D01*
X162976099Y-222883562D01*
X162521534Y-222883504D01*
X162086855Y-222883367D01*
X161673670Y-222883153D01*
X161283585Y-222882864D01*
X160918207Y-222882501D01*
X160579145Y-222882066D01*
X160268005Y-222881560D01*
X159986395Y-222880985D01*
X159735921Y-222880342D01*
X159518192Y-222879633D01*
X159334814Y-222878860D01*
X159187395Y-222878025D01*
X159077542Y-222877128D01*
X159006862Y-222876171D01*
X158977292Y-222875192D01*
X158845000Y-222861964D01*
X158845000Y-218949500D01*
X157215167Y-218949500D01*
X157215167Y-222858297D01*
X149623396Y-222872399D01*
X149247773Y-222873049D01*
X148830828Y-222873684D01*
X148373574Y-222874303D01*
X147877020Y-222874907D01*
X147342180Y-222875494D01*
X146770064Y-222876066D01*
X146161684Y-222876622D01*
X145518051Y-222877162D01*
X144840178Y-222877686D01*
X144129075Y-222878195D01*
X143385755Y-222878687D01*
X142611228Y-222879164D01*
X141806507Y-222879625D01*
X140972602Y-222880070D01*
X140110526Y-222880499D01*
X139221290Y-222880913D01*
X138305905Y-222881311D01*
X137365384Y-222881693D01*
X136400737Y-222882059D01*
X135412977Y-222882409D01*
X134403114Y-222882743D01*
X133372160Y-222883062D01*
X132321128Y-222883365D01*
X131251028Y-222883652D01*
X130162871Y-222883923D01*
X129057671Y-222884178D01*
X127936437Y-222884418D01*
X126800182Y-222884642D01*
X125649918Y-222884849D01*
X124486655Y-222885042D01*
X123311405Y-222885218D01*
X122125180Y-222885378D01*
X120928992Y-222885523D01*
X119723852Y-222885652D01*
X118510771Y-222885765D01*
X117290761Y-222885862D01*
X116064834Y-222885943D01*
X114834001Y-222886009D01*
X113599274Y-222886059D01*
X112361665Y-222886092D01*
X111122184Y-222886111D01*
X109881843Y-222886113D01*
X108641655Y-222886099D01*
X107402630Y-222886070D01*
X106165780Y-222886025D01*
X104932116Y-222885964D01*
X103702651Y-222885887D01*
X102478396Y-222885794D01*
X101260362Y-222885686D01*
X100049561Y-222885562D01*
X98847004Y-222885422D01*
X97653703Y-222885266D01*
X96470670Y-222885094D01*
X95298916Y-222884907D01*
X94139453Y-222884703D01*
X92993291Y-222884484D01*
X91861444Y-222884249D01*
X90744921Y-222883999D01*
X89644736Y-222883732D01*
X88561899Y-222883450D01*
X87497422Y-222883151D01*
X86452316Y-222882837D01*
X85427594Y-222882507D01*
X84424266Y-222882162D01*
X83443344Y-222881800D01*
X82485840Y-222881423D01*
X81552766Y-222881030D01*
X80645132Y-222880621D01*
X79763951Y-222880196D01*
X78910233Y-222879756D01*
X78084991Y-222879299D01*
X77289236Y-222878827D01*
X76523980Y-222878339D01*
X75790234Y-222877835D01*
X75089010Y-222877316D01*
X74421319Y-222876780D01*
X73788173Y-222876229D01*
X73190583Y-222875662D01*
X72629561Y-222875079D01*
X72106119Y-222874481D01*
X71621268Y-222873866D01*
X71176019Y-222873236D01*
X70771385Y-222872590D01*
X70659375Y-222872395D01*
X62706000Y-222858296D01*
X62706000Y-219584500D01*
X94159667Y-219584500D01*
X94159667Y-221214333D01*
X95789500Y-221214333D01*
X95789500Y-219584500D01*
X124110500Y-219584500D01*
X124110500Y-221214333D01*
X125740334Y-221214333D01*
X125740334Y-219584500D01*
X124110500Y-219584500D01*
X95789500Y-219584500D01*
X94159667Y-219584500D01*
X62706000Y-219584500D01*
X62706000Y-218949500D01*
X61055000Y-218949500D01*
X61055000Y-222886500D01*
X46958000Y-222886500D01*
X46958000Y-214998376D01*
X58772524Y-214984271D01*
X59306620Y-214983666D01*
X59882103Y-214983074D01*
X60498026Y-214982495D01*
X61153444Y-214981931D01*
X61847409Y-214981380D01*
X62578976Y-214980843D01*
X63347198Y-214980319D01*
X64151128Y-214979809D01*
X64989820Y-214979313D01*
X65862329Y-214978831D01*
X66767706Y-214978362D01*
X67705007Y-214977907D01*
X68673284Y-214977466D01*
X69671592Y-214977038D01*
X70698983Y-214976624D01*
X71754512Y-214976224D01*
X72837232Y-214975837D01*
X73946197Y-214975464D01*
X75080459Y-214975105D01*
X76239074Y-214974760D01*
X77421094Y-214974428D01*
X78625573Y-214974110D01*
X79851565Y-214973806D01*
X81098124Y-214973515D01*
X82364302Y-214973238D01*
X83649153Y-214972975D01*
X84951732Y-214972725D01*
X86271092Y-214972489D01*
X87606285Y-214972267D01*
X88956367Y-214972059D01*
X90320391Y-214971864D01*
X91697409Y-214971683D01*
X93086476Y-214971515D01*
X94486646Y-214971362D01*
X95896972Y-214971222D01*
X97316507Y-214971095D01*
X98744305Y-214970983D01*
X100179420Y-214970884D01*
X101620906Y-214970799D01*
X103067816Y-214970727D01*
X104519203Y-214970669D01*
X105974121Y-214970625D01*
X107431625Y-214970595D01*
X108890766Y-214970578D01*
X110350600Y-214970575D01*
X111810180Y-214970586D01*
G36*
X157215167Y-214631500D02*
G01*
X62706000Y-214631500D01*
X62706000Y-48790667D01*
X70580000Y-48790667D01*
X70580000Y-214335167D01*
X70918667Y-214335167D01*
X70918667Y-192935667D01*
X94159667Y-192935667D01*
X94159667Y-194565500D01*
X95789500Y-194565500D01*
X95789500Y-192935667D01*
X124110500Y-192935667D01*
X124110500Y-194565500D01*
X125740334Y-194565500D01*
X125740334Y-192935667D01*
X124110500Y-192935667D01*
X95789500Y-192935667D01*
X94159667Y-192935667D01*
X70918667Y-192935667D01*
X70918667Y-48790667D01*
X70580000Y-48790667D01*
X62706000Y-48790667D01*
X62706000Y-48748333D01*
X148960167Y-48748333D01*
X148960167Y-214292833D01*
X149320000Y-214292833D01*
X149320000Y-48748333D01*
X148960167Y-48748333D01*
X62706000Y-48748333D01*
X62706000Y-48388500D01*
X157215167Y-48388500D01*
X157215167Y-214631500D01*
G37*
X157215167Y-214631500D02*
X62706000Y-214631500D01*
X62706000Y-48790667D01*
X70580000Y-48790667D01*
X70580000Y-214335167D01*
X70918667Y-214335167D01*
X70918667Y-192935667D01*
X94159667Y-192935667D01*
X94159667Y-194565500D01*
X95789500Y-194565500D01*
X95789500Y-192935667D01*
X124110500Y-192935667D01*
X124110500Y-194565500D01*
X125740334Y-194565500D01*
X125740334Y-192935667D01*
X124110500Y-192935667D01*
X95789500Y-192935667D01*
X94159667Y-192935667D01*
X70918667Y-192935667D01*
X70918667Y-48790667D01*
X70580000Y-48790667D01*
X62706000Y-48790667D01*
X62706000Y-48748333D01*
X148960167Y-48748333D01*
X148960167Y-214292833D01*
X149320000Y-214292833D01*
X149320000Y-48748333D01*
X148960167Y-48748333D01*
X62706000Y-48748333D01*
X62706000Y-48388500D01*
X157215167Y-48388500D01*
X157215167Y-214631500D01*
G36*
X112839034Y-40174064D02*
G01*
X114278032Y-40174066D01*
X115712363Y-40174069D01*
X117141287Y-40174073D01*
X118564065Y-40174077D01*
X119979954Y-40174082D01*
X121388216Y-40174088D01*
X122788110Y-40174094D01*
X124178896Y-40174102D01*
X125559832Y-40174110D01*
X126930180Y-40174118D01*
X128289198Y-40174128D01*
X129636147Y-40174138D01*
X130970285Y-40174149D01*
X132290873Y-40174160D01*
X133597170Y-40174172D01*
X134888437Y-40174184D01*
X136163932Y-40174198D01*
X137422915Y-40174211D01*
X138664647Y-40174226D01*
X139888386Y-40174241D01*
X141093392Y-40174256D01*
X142278926Y-40174272D01*
X143444246Y-40174289D01*
X144588613Y-40174306D01*
X145711286Y-40174324D01*
X146811524Y-40174342D01*
X147888589Y-40174360D01*
X148941738Y-40174380D01*
X149970232Y-40174399D01*
X150973330Y-40174419D01*
X151950293Y-40174440D01*
X152900380Y-40174461D01*
X153822850Y-40174482D01*
X154716963Y-40174504D01*
X155581979Y-40174526D01*
X156417158Y-40174548D01*
X157221759Y-40174571D01*
X157995042Y-40174595D01*
X158736267Y-40174618D01*
X159444693Y-40174642D01*
X160119580Y-40174666D01*
X160760187Y-40174691D01*
X161365775Y-40174716D01*
X161935603Y-40174741D01*
X162468930Y-40174766D01*
X162965017Y-40174792D01*
X163423123Y-40174818D01*
X163842508Y-40174844D01*
X164222431Y-40174871D01*
X164562152Y-40174897D01*
X164860930Y-40174924D01*
X165089167Y-40174948D01*
X172963167Y-40175833D01*
X172963167Y-48049833D01*
X158845000Y-48049833D01*
X158845000Y-44938333D01*
X157215167Y-44938333D01*
X157215167Y-48028667D01*
X62706000Y-48028667D01*
X62706000Y-44938333D01*
X61055000Y-44938333D01*
X61055000Y-48049833D01*
X46958000Y-48049833D01*
X46958000Y-41826833D01*
X94159667Y-41826833D01*
X94159667Y-43477833D01*
X95789500Y-43477833D01*
X95789500Y-41826833D01*
X124110500Y-41826833D01*
X124110500Y-43477833D01*
X125740334Y-43477833D01*
X125740334Y-41826833D01*
X124110500Y-41826833D01*
X95789500Y-41826833D01*
X94159667Y-41826833D01*
X46958000Y-41826833D01*
X46958000Y-40175833D01*
X54821417Y-40174948D01*
X55083264Y-40174921D01*
X55386705Y-40174894D01*
X55730999Y-40174867D01*
X56115406Y-40174841D01*
X56539186Y-40174815D01*
X57001598Y-40174789D01*
X57501903Y-40174763D01*
X58039361Y-40174738D01*
X58613231Y-40174713D01*
X59222773Y-40174688D01*
X59867247Y-40174663D01*
X60545913Y-40174639D01*
X61258031Y-40174615D01*
X62002861Y-40174592D01*
X62779663Y-40174568D01*
X63587696Y-40174546D01*
X64426220Y-40174523D01*
X65294496Y-40174501D01*
X66191783Y-40174479D01*
X67117341Y-40174458D01*
X68070429Y-40174437D01*
X69050309Y-40174417D01*
X70056239Y-40174397D01*
X71087480Y-40174377D01*
X72143291Y-40174358D01*
X73222932Y-40174340D01*
X74325664Y-40174322D01*
X75450745Y-40174304D01*
X76597437Y-40174287D01*
X77764998Y-40174270D01*
X78952689Y-40174254D01*
X80159770Y-40174239D01*
X81385500Y-40174224D01*
X82629139Y-40174210D01*
X83889948Y-40174196D01*
X85167185Y-40174183D01*
X86460112Y-40174170D01*
X87767987Y-40174158D01*
X89090071Y-40174147D01*
X90425624Y-40174137D01*
X91773905Y-40174127D01*
X93134175Y-40174117D01*
X94505692Y-40174109D01*
X95887718Y-40174101D01*
X97279512Y-40174094D01*
X98680334Y-40174087D01*
X100089443Y-40174081D01*
X101506100Y-40174076D01*
X102929565Y-40174072D01*
X104359096Y-40174069D01*
X105793956Y-40174066D01*
X107233402Y-40174064D01*
X108676695Y-40174063D01*
X111396110Y-40174063D01*
X112839034Y-40174064D01*
G37*
X112839034Y-40174064D02*
X114278032Y-40174066D01*
X115712363Y-40174069D01*
X117141287Y-40174073D01*
X118564065Y-40174077D01*
X119979954Y-40174082D01*
X121388216Y-40174088D01*
X122788110Y-40174094D01*
X124178896Y-40174102D01*
X125559832Y-40174110D01*
X126930180Y-40174118D01*
X128289198Y-40174128D01*
X129636147Y-40174138D01*
X130970285Y-40174149D01*
X132290873Y-40174160D01*
X133597170Y-40174172D01*
X134888437Y-40174184D01*
X136163932Y-40174198D01*
X137422915Y-40174211D01*
X138664647Y-40174226D01*
X139888386Y-40174241D01*
X141093392Y-40174256D01*
X142278926Y-40174272D01*
X143444246Y-40174289D01*
X144588613Y-40174306D01*
X145711286Y-40174324D01*
X146811524Y-40174342D01*
X147888589Y-40174360D01*
X148941738Y-40174380D01*
X149970232Y-40174399D01*
X150973330Y-40174419D01*
X151950293Y-40174440D01*
X152900380Y-40174461D01*
X153822850Y-40174482D01*
X154716963Y-40174504D01*
X155581979Y-40174526D01*
X156417158Y-40174548D01*
X157221759Y-40174571D01*
X157995042Y-40174595D01*
X158736267Y-40174618D01*
X159444693Y-40174642D01*
X160119580Y-40174666D01*
X160760187Y-40174691D01*
X161365775Y-40174716D01*
X161935603Y-40174741D01*
X162468930Y-40174766D01*
X162965017Y-40174792D01*
X163423123Y-40174818D01*
X163842508Y-40174844D01*
X164222431Y-40174871D01*
X164562152Y-40174897D01*
X164860930Y-40174924D01*
X165089167Y-40174948D01*
X172963167Y-40175833D01*
X172963167Y-48049833D01*
X158845000Y-48049833D01*
X158845000Y-44938333D01*
X157215167Y-44938333D01*
X157215167Y-48028667D01*
X62706000Y-48028667D01*
X62706000Y-44938333D01*
X61055000Y-44938333D01*
X61055000Y-48049833D01*
X46958000Y-48049833D01*
X46958000Y-41826833D01*
X94159667Y-41826833D01*
X94159667Y-43477833D01*
X95789500Y-43477833D01*
X95789500Y-41826833D01*
X124110500Y-41826833D01*
X124110500Y-43477833D01*
X125740334Y-43477833D01*
X125740334Y-41826833D01*
X124110500Y-41826833D01*
X95789500Y-41826833D01*
X94159667Y-41826833D01*
X46958000Y-41826833D01*
X46958000Y-40175833D01*
X54821417Y-40174948D01*
X55083264Y-40174921D01*
X55386705Y-40174894D01*
X55730999Y-40174867D01*
X56115406Y-40174841D01*
X56539186Y-40174815D01*
X57001598Y-40174789D01*
X57501903Y-40174763D01*
X58039361Y-40174738D01*
X58613231Y-40174713D01*
X59222773Y-40174688D01*
X59867247Y-40174663D01*
X60545913Y-40174639D01*
X61258031Y-40174615D01*
X62002861Y-40174592D01*
X62779663Y-40174568D01*
X63587696Y-40174546D01*
X64426220Y-40174523D01*
X65294496Y-40174501D01*
X66191783Y-40174479D01*
X67117341Y-40174458D01*
X68070429Y-40174437D01*
X69050309Y-40174417D01*
X70056239Y-40174397D01*
X71087480Y-40174377D01*
X72143291Y-40174358D01*
X73222932Y-40174340D01*
X74325664Y-40174322D01*
X75450745Y-40174304D01*
X76597437Y-40174287D01*
X77764998Y-40174270D01*
X78952689Y-40174254D01*
X80159770Y-40174239D01*
X81385500Y-40174224D01*
X82629139Y-40174210D01*
X83889948Y-40174196D01*
X85167185Y-40174183D01*
X86460112Y-40174170D01*
X87767987Y-40174158D01*
X89090071Y-40174147D01*
X90425624Y-40174137D01*
X91773905Y-40174127D01*
X93134175Y-40174117D01*
X94505692Y-40174109D01*
X95887718Y-40174101D01*
X97279512Y-40174094D01*
X98680334Y-40174087D01*
X100089443Y-40174081D01*
X101506100Y-40174076D01*
X102929565Y-40174072D01*
X104359096Y-40174069D01*
X105793956Y-40174066D01*
X107233402Y-40174064D01*
X108676695Y-40174063D01*
X111396110Y-40174063D01*
X112839034Y-40174064D01*
G36*
X70580000Y-39794833D02*
G01*
X62706000Y-39794833D01*
X62706000Y-24427833D01*
X70580000Y-24427833D01*
X70580000Y-39794833D01*
G37*
X70580000Y-39794833D02*
X62706000Y-39794833D01*
X62706000Y-24427833D01*
X70580000Y-24427833D01*
X70580000Y-39794833D01*
G36*
X157215167Y-39794833D02*
G01*
X149320000Y-39794833D01*
X149320000Y-24427833D01*
X157215167Y-24427833D01*
X157215167Y-39794833D01*
G37*
X157215167Y-39794833D02*
X149320000Y-39794833D01*
X149320000Y-24427833D01*
X157215167Y-24427833D01*
X157215167Y-39794833D01*
%TD*%
M02*
