%TF.GenerationSoftware,KiCad,Pcbnew,(5.1.6)-1*%
%TF.CreationDate,2020-10-22T21:59:58+01:00*%
%TF.ProjectId,Side 1,53696465-2031-42e6-9b69-6361645f7063,rev?*%
%TF.SameCoordinates,Original*%
%TF.FileFunction,Copper,L2,Bot*%
%TF.FilePolarity,Positive*%
%FSLAX46Y46*%
G04 Gerber Fmt 4.6, Leading zero omitted, Abs format (unit mm)*
G04 Created by KiCad (PCBNEW (5.1.6)-1) date 2020-10-22 21:59:58*
%MOMM*%
%LPD*%
G01*
G04 APERTURE LIST*
%TA.AperFunction,EtchedComponent*%
%ADD10C,0.010000*%
%TD*%
G04 APERTURE END LIST*
D10*
%TO.C,G\u002A\u002A\u002A*%
G36*
X70580000Y-40175833D02*
G01*
X149320000Y-40175833D01*
X149320000Y-24427833D01*
X157215167Y-24427833D01*
X157215167Y-37572333D01*
X153108834Y-37572333D01*
X153108834Y-41975000D01*
X157025098Y-41975000D01*
X157019591Y-41017208D01*
X157014084Y-40059417D01*
X156839459Y-40053269D01*
X156664833Y-40047121D01*
X156664834Y-40841727D01*
X156664834Y-41636333D01*
X153468667Y-41636333D01*
X153468667Y-37932167D01*
X157172834Y-37932167D01*
X157172834Y-39040057D01*
X157172833Y-40147947D01*
X157601459Y-40161835D01*
X157654971Y-40162882D01*
X157749191Y-40163910D01*
X157882492Y-40164914D01*
X158053246Y-40165892D01*
X158259827Y-40166841D01*
X158500610Y-40167759D01*
X158773967Y-40168642D01*
X159078273Y-40169487D01*
X159411900Y-40170292D01*
X159773222Y-40171054D01*
X160160613Y-40171769D01*
X160572446Y-40172436D01*
X161007096Y-40173051D01*
X161462934Y-40173611D01*
X161938335Y-40174113D01*
X162431673Y-40174555D01*
X162941321Y-40174933D01*
X163465652Y-40175246D01*
X164003041Y-40175489D01*
X164551859Y-40175660D01*
X165110483Y-40175756D01*
X165496625Y-40175778D01*
X172963167Y-40175833D01*
X172963167Y-48049833D01*
X158845000Y-48049833D01*
X158845000Y-44938333D01*
X158278792Y-44938247D01*
X158109950Y-44937674D01*
X157938632Y-44936110D01*
X157774407Y-44933714D01*
X157626847Y-44930644D01*
X157505520Y-44927058D01*
X157442709Y-44924398D01*
X157172834Y-44910634D01*
X157172834Y-47330167D01*
X153468667Y-47330167D01*
X153468667Y-43626000D01*
X156664834Y-43626000D01*
X156664834Y-44896000D01*
X157024667Y-44896000D01*
X157024667Y-43287333D01*
X153108637Y-43287333D01*
X153119417Y-47679417D01*
X155167295Y-47684813D01*
X157215173Y-47690210D01*
X157209878Y-118180397D01*
X157204584Y-188670583D01*
X155177875Y-188675981D01*
X153151167Y-188681379D01*
X153151167Y-193083833D01*
X157215167Y-193083833D01*
X157215167Y-194375000D01*
X153151167Y-194375000D01*
X153151167Y-198777667D01*
X157215167Y-198777667D01*
X157215167Y-214991333D01*
X172963278Y-214991333D01*
X172952584Y-222875917D01*
X158855584Y-222875917D01*
X158850182Y-220912708D01*
X158844781Y-218949500D01*
X158138912Y-218949500D01*
X157963531Y-218949091D01*
X157796010Y-218947933D01*
X157642538Y-218946126D01*
X157509304Y-218943770D01*
X157402493Y-218940967D01*
X157328295Y-218937817D01*
X157302938Y-218935901D01*
X157172834Y-218922303D01*
X157172834Y-215330000D01*
X152939500Y-215330000D01*
X152939500Y-219732667D01*
X157215167Y-219732667D01*
X157215167Y-221023833D01*
X153151167Y-221023833D01*
X153151167Y-225426500D01*
X157215234Y-225426500D01*
X157209909Y-232025208D01*
X157204584Y-238623917D01*
X149320000Y-238634611D01*
X149320000Y-222886500D01*
X70580000Y-222886500D01*
X70580000Y-238634500D01*
X62706000Y-238634500D01*
X62706000Y-225426500D01*
X66770000Y-225426500D01*
X66770000Y-221023833D01*
X62706000Y-221023833D01*
X62706000Y-219732667D01*
X66918167Y-219732667D01*
X66918167Y-219584500D01*
X94159667Y-219584500D01*
X94159667Y-221214333D01*
X95789500Y-221214333D01*
X95789500Y-219584500D01*
X124110500Y-219584500D01*
X124110500Y-221214333D01*
X125740334Y-221214333D01*
X125740334Y-219584500D01*
X124110500Y-219584500D01*
X95789500Y-219584500D01*
X94159667Y-219584500D01*
X66918167Y-219584500D01*
X66918167Y-215330000D01*
X62727167Y-215330000D01*
X62727167Y-217117334D01*
X62727045Y-217447115D01*
X62726656Y-217736804D01*
X62725969Y-217988643D01*
X62724949Y-218204872D01*
X62723565Y-218387731D01*
X62721783Y-218539463D01*
X62719571Y-218662308D01*
X62716895Y-218758506D01*
X62713723Y-218830299D01*
X62710021Y-218879928D01*
X62705758Y-218909634D01*
X62700900Y-218921657D01*
X62700709Y-218921792D01*
X62674242Y-218925805D01*
X62610226Y-218929858D01*
X62513445Y-218933812D01*
X62388681Y-218937527D01*
X62240720Y-218940865D01*
X62074344Y-218943685D01*
X61894337Y-218945850D01*
X61864625Y-218946126D01*
X61055000Y-218953336D01*
X61055000Y-222886500D01*
X46958000Y-222886500D01*
X46958000Y-214991333D01*
X62706000Y-214991333D01*
X62706000Y-198777667D01*
X66706500Y-198777667D01*
X66706500Y-194375000D01*
X62706000Y-194375000D01*
X62706000Y-193083833D01*
X66706500Y-193083833D01*
X66706500Y-192935667D01*
X94159667Y-192935667D01*
X94159667Y-194565500D01*
X95789500Y-194565500D01*
X95789500Y-192935667D01*
X124110500Y-192935667D01*
X124110500Y-194565500D01*
X125740334Y-194565500D01*
X125740334Y-192935667D01*
X124110500Y-192935667D01*
X95789500Y-192935667D01*
X94159667Y-192935667D01*
X66706500Y-192935667D01*
X66706500Y-188681167D01*
X62706000Y-188681167D01*
X62706000Y-47690214D01*
X64722125Y-47684815D01*
X66738250Y-47679417D01*
X66749030Y-43287333D01*
X62833000Y-43287333D01*
X62833000Y-44896000D01*
X63192834Y-44896000D01*
X63192834Y-43626000D01*
X66389000Y-43626000D01*
X66389000Y-47330167D01*
X62684834Y-47330167D01*
X62684834Y-44910634D01*
X62414959Y-44924398D01*
X62315393Y-44928323D01*
X62183439Y-44931819D01*
X62029042Y-44934719D01*
X61862147Y-44936851D01*
X61692698Y-44938048D01*
X61600042Y-44938247D01*
X61055000Y-44938333D01*
X61055000Y-48049833D01*
X46958000Y-48049833D01*
X46958000Y-40175833D01*
X54392792Y-40175778D01*
X54955984Y-40175734D01*
X55510489Y-40175613D01*
X56054676Y-40175418D01*
X56586914Y-40175151D01*
X57105573Y-40174816D01*
X57609023Y-40174416D01*
X58095633Y-40173952D01*
X58563772Y-40173429D01*
X59011811Y-40172850D01*
X59438118Y-40172216D01*
X59841064Y-40171531D01*
X60219017Y-40170797D01*
X60570348Y-40170019D01*
X60893427Y-40169198D01*
X61186621Y-40168337D01*
X61448302Y-40167440D01*
X61676838Y-40166509D01*
X61870600Y-40165547D01*
X62027957Y-40164557D01*
X62147278Y-40163542D01*
X62226933Y-40162504D01*
X62256209Y-40161835D01*
X62684834Y-40147947D01*
X62684834Y-37932167D01*
X66389000Y-37932167D01*
X66389000Y-41636333D01*
X63192834Y-41636333D01*
X63192834Y-40047121D01*
X62843584Y-40059417D01*
X62838076Y-41017208D01*
X62832569Y-41975000D01*
X66748834Y-41975000D01*
X66748834Y-41826833D01*
X94159667Y-41826833D01*
X94159667Y-43477833D01*
X95789500Y-43477833D01*
X95789500Y-41826833D01*
X124110500Y-41826833D01*
X124110500Y-43477833D01*
X125740334Y-43477833D01*
X125740334Y-41826833D01*
X124110500Y-41826833D01*
X95789500Y-41826833D01*
X94159667Y-41826833D01*
X66748834Y-41826833D01*
X66748834Y-37572333D01*
X62706000Y-37572333D01*
X62706000Y-24427833D01*
X70580000Y-24427833D01*
X70580000Y-40175833D01*
G37*
X70580000Y-40175833D02*
X149320000Y-40175833D01*
X149320000Y-24427833D01*
X157215167Y-24427833D01*
X157215167Y-37572333D01*
X153108834Y-37572333D01*
X153108834Y-41975000D01*
X157025098Y-41975000D01*
X157019591Y-41017208D01*
X157014084Y-40059417D01*
X156839459Y-40053269D01*
X156664833Y-40047121D01*
X156664834Y-40841727D01*
X156664834Y-41636333D01*
X153468667Y-41636333D01*
X153468667Y-37932167D01*
X157172834Y-37932167D01*
X157172834Y-39040057D01*
X157172833Y-40147947D01*
X157601459Y-40161835D01*
X157654971Y-40162882D01*
X157749191Y-40163910D01*
X157882492Y-40164914D01*
X158053246Y-40165892D01*
X158259827Y-40166841D01*
X158500610Y-40167759D01*
X158773967Y-40168642D01*
X159078273Y-40169487D01*
X159411900Y-40170292D01*
X159773222Y-40171054D01*
X160160613Y-40171769D01*
X160572446Y-40172436D01*
X161007096Y-40173051D01*
X161462934Y-40173611D01*
X161938335Y-40174113D01*
X162431673Y-40174555D01*
X162941321Y-40174933D01*
X163465652Y-40175246D01*
X164003041Y-40175489D01*
X164551859Y-40175660D01*
X165110483Y-40175756D01*
X165496625Y-40175778D01*
X172963167Y-40175833D01*
X172963167Y-48049833D01*
X158845000Y-48049833D01*
X158845000Y-44938333D01*
X158278792Y-44938247D01*
X158109950Y-44937674D01*
X157938632Y-44936110D01*
X157774407Y-44933714D01*
X157626847Y-44930644D01*
X157505520Y-44927058D01*
X157442709Y-44924398D01*
X157172834Y-44910634D01*
X157172834Y-47330167D01*
X153468667Y-47330167D01*
X153468667Y-43626000D01*
X156664834Y-43626000D01*
X156664834Y-44896000D01*
X157024667Y-44896000D01*
X157024667Y-43287333D01*
X153108637Y-43287333D01*
X153119417Y-47679417D01*
X155167295Y-47684813D01*
X157215173Y-47690210D01*
X157209878Y-118180397D01*
X157204584Y-188670583D01*
X155177875Y-188675981D01*
X153151167Y-188681379D01*
X153151167Y-193083833D01*
X157215167Y-193083833D01*
X157215167Y-194375000D01*
X153151167Y-194375000D01*
X153151167Y-198777667D01*
X157215167Y-198777667D01*
X157215167Y-214991333D01*
X172963278Y-214991333D01*
X172952584Y-222875917D01*
X158855584Y-222875917D01*
X158850182Y-220912708D01*
X158844781Y-218949500D01*
X158138912Y-218949500D01*
X157963531Y-218949091D01*
X157796010Y-218947933D01*
X157642538Y-218946126D01*
X157509304Y-218943770D01*
X157402493Y-218940967D01*
X157328295Y-218937817D01*
X157302938Y-218935901D01*
X157172834Y-218922303D01*
X157172834Y-215330000D01*
X152939500Y-215330000D01*
X152939500Y-219732667D01*
X157215167Y-219732667D01*
X157215167Y-221023833D01*
X153151167Y-221023833D01*
X153151167Y-225426500D01*
X157215234Y-225426500D01*
X157209909Y-232025208D01*
X157204584Y-238623917D01*
X149320000Y-238634611D01*
X149320000Y-222886500D01*
X70580000Y-222886500D01*
X70580000Y-238634500D01*
X62706000Y-238634500D01*
X62706000Y-225426500D01*
X66770000Y-225426500D01*
X66770000Y-221023833D01*
X62706000Y-221023833D01*
X62706000Y-219732667D01*
X66918167Y-219732667D01*
X66918167Y-219584500D01*
X94159667Y-219584500D01*
X94159667Y-221214333D01*
X95789500Y-221214333D01*
X95789500Y-219584500D01*
X124110500Y-219584500D01*
X124110500Y-221214333D01*
X125740334Y-221214333D01*
X125740334Y-219584500D01*
X124110500Y-219584500D01*
X95789500Y-219584500D01*
X94159667Y-219584500D01*
X66918167Y-219584500D01*
X66918167Y-215330000D01*
X62727167Y-215330000D01*
X62727167Y-217117334D01*
X62727045Y-217447115D01*
X62726656Y-217736804D01*
X62725969Y-217988643D01*
X62724949Y-218204872D01*
X62723565Y-218387731D01*
X62721783Y-218539463D01*
X62719571Y-218662308D01*
X62716895Y-218758506D01*
X62713723Y-218830299D01*
X62710021Y-218879928D01*
X62705758Y-218909634D01*
X62700900Y-218921657D01*
X62700709Y-218921792D01*
X62674242Y-218925805D01*
X62610226Y-218929858D01*
X62513445Y-218933812D01*
X62388681Y-218937527D01*
X62240720Y-218940865D01*
X62074344Y-218943685D01*
X61894337Y-218945850D01*
X61864625Y-218946126D01*
X61055000Y-218953336D01*
X61055000Y-222886500D01*
X46958000Y-222886500D01*
X46958000Y-214991333D01*
X62706000Y-214991333D01*
X62706000Y-198777667D01*
X66706500Y-198777667D01*
X66706500Y-194375000D01*
X62706000Y-194375000D01*
X62706000Y-193083833D01*
X66706500Y-193083833D01*
X66706500Y-192935667D01*
X94159667Y-192935667D01*
X94159667Y-194565500D01*
X95789500Y-194565500D01*
X95789500Y-192935667D01*
X124110500Y-192935667D01*
X124110500Y-194565500D01*
X125740334Y-194565500D01*
X125740334Y-192935667D01*
X124110500Y-192935667D01*
X95789500Y-192935667D01*
X94159667Y-192935667D01*
X66706500Y-192935667D01*
X66706500Y-188681167D01*
X62706000Y-188681167D01*
X62706000Y-47690214D01*
X64722125Y-47684815D01*
X66738250Y-47679417D01*
X66749030Y-43287333D01*
X62833000Y-43287333D01*
X62833000Y-44896000D01*
X63192834Y-44896000D01*
X63192834Y-43626000D01*
X66389000Y-43626000D01*
X66389000Y-47330167D01*
X62684834Y-47330167D01*
X62684834Y-44910634D01*
X62414959Y-44924398D01*
X62315393Y-44928323D01*
X62183439Y-44931819D01*
X62029042Y-44934719D01*
X61862147Y-44936851D01*
X61692698Y-44938048D01*
X61600042Y-44938247D01*
X61055000Y-44938333D01*
X61055000Y-48049833D01*
X46958000Y-48049833D01*
X46958000Y-40175833D01*
X54392792Y-40175778D01*
X54955984Y-40175734D01*
X55510489Y-40175613D01*
X56054676Y-40175418D01*
X56586914Y-40175151D01*
X57105573Y-40174816D01*
X57609023Y-40174416D01*
X58095633Y-40173952D01*
X58563772Y-40173429D01*
X59011811Y-40172850D01*
X59438118Y-40172216D01*
X59841064Y-40171531D01*
X60219017Y-40170797D01*
X60570348Y-40170019D01*
X60893427Y-40169198D01*
X61186621Y-40168337D01*
X61448302Y-40167440D01*
X61676838Y-40166509D01*
X61870600Y-40165547D01*
X62027957Y-40164557D01*
X62147278Y-40163542D01*
X62226933Y-40162504D01*
X62256209Y-40161835D01*
X62684834Y-40147947D01*
X62684834Y-37932167D01*
X66389000Y-37932167D01*
X66389000Y-41636333D01*
X63192834Y-41636333D01*
X63192834Y-40047121D01*
X62843584Y-40059417D01*
X62838076Y-41017208D01*
X62832569Y-41975000D01*
X66748834Y-41975000D01*
X66748834Y-41826833D01*
X94159667Y-41826833D01*
X94159667Y-43477833D01*
X95789500Y-43477833D01*
X95789500Y-41826833D01*
X124110500Y-41826833D01*
X124110500Y-43477833D01*
X125740334Y-43477833D01*
X125740334Y-41826833D01*
X124110500Y-41826833D01*
X95789500Y-41826833D01*
X94159667Y-41826833D01*
X66748834Y-41826833D01*
X66748834Y-37572333D01*
X62706000Y-37572333D01*
X62706000Y-24427833D01*
X70580000Y-24427833D01*
X70580000Y-40175833D01*
G36*
X66426158Y-223230458D02*
G01*
X66420750Y-225077250D01*
X64573959Y-225082658D01*
X62727167Y-225088066D01*
X62727167Y-221383667D01*
X66431566Y-221383667D01*
X66426158Y-223230458D01*
G37*
X66426158Y-223230458D02*
X66420750Y-225077250D01*
X64573959Y-225082658D01*
X62727167Y-225088066D01*
X62727167Y-221383667D01*
X66431566Y-221383667D01*
X66426158Y-223230458D01*
G36*
X157209991Y-223230458D02*
G01*
X157204584Y-225077250D01*
X153511000Y-225088066D01*
X153511000Y-221383667D01*
X157215399Y-221383667D01*
X157209991Y-223230458D01*
G37*
X157209991Y-223230458D02*
X157204584Y-225077250D01*
X153511000Y-225088066D01*
X153511000Y-221383667D01*
X157215399Y-221383667D01*
X157209991Y-223230458D01*
G36*
X64722125Y-215673842D02*
G01*
X66568917Y-215679250D01*
X66574325Y-217526042D01*
X66579733Y-219372833D01*
X62875334Y-219372833D01*
X62875334Y-215668434D01*
X64722125Y-215673842D01*
G37*
X64722125Y-215673842D02*
X66568917Y-215679250D01*
X66574325Y-217526042D01*
X66579733Y-219372833D01*
X62875334Y-219372833D01*
X62875334Y-215668434D01*
X64722125Y-215673842D01*
G36*
X156982334Y-219372833D02*
G01*
X153277934Y-219372833D01*
X153283342Y-217526042D01*
X153288750Y-215679250D01*
X156982334Y-215668434D01*
X156982334Y-219372833D01*
G37*
X156982334Y-219372833D02*
X153277934Y-219372833D01*
X153283342Y-217526042D01*
X153288750Y-215679250D01*
X156982334Y-215668434D01*
X156982334Y-219372833D01*
G36*
X66346667Y-198439000D02*
G01*
X64508695Y-198439000D01*
X64233417Y-198438841D01*
X63970309Y-198438380D01*
X63722444Y-198437640D01*
X63492894Y-198436645D01*
X63284730Y-198435418D01*
X63101026Y-198433982D01*
X62944853Y-198432361D01*
X62819285Y-198430579D01*
X62727392Y-198428658D01*
X62672248Y-198426623D01*
X62656611Y-198424889D01*
X62654499Y-198402082D01*
X62652483Y-198340014D01*
X62650585Y-198241757D01*
X62648831Y-198110384D01*
X62647242Y-197948967D01*
X62645842Y-197760578D01*
X62644656Y-197548289D01*
X62643705Y-197315173D01*
X62643015Y-197064303D01*
X62642607Y-196798749D01*
X62642500Y-196572805D01*
X62642500Y-194734833D01*
X66346667Y-194734833D01*
X66346667Y-198439000D01*
G37*
X66346667Y-198439000D02*
X64508695Y-198439000D01*
X64233417Y-198438841D01*
X63970309Y-198438380D01*
X63722444Y-198437640D01*
X63492894Y-198436645D01*
X63284730Y-198435418D01*
X63101026Y-198433982D01*
X62944853Y-198432361D01*
X62819285Y-198430579D01*
X62727392Y-198428658D01*
X62672248Y-198426623D01*
X62656611Y-198424889D01*
X62654499Y-198402082D01*
X62652483Y-198340014D01*
X62650585Y-198241757D01*
X62648831Y-198110384D01*
X62647242Y-197948967D01*
X62645842Y-197760578D01*
X62644656Y-197548289D01*
X62643705Y-197315173D01*
X62643015Y-197064303D01*
X62642607Y-196798749D01*
X62642500Y-196572805D01*
X62642500Y-194734833D01*
X66346667Y-194734833D01*
X66346667Y-198439000D01*
G36*
X157209991Y-196581625D02*
G01*
X157204584Y-198428417D01*
X155357792Y-198433824D01*
X153511000Y-198439232D01*
X153511000Y-194734833D01*
X157215399Y-194734833D01*
X157209991Y-196581625D01*
G37*
X157209991Y-196581625D02*
X157204584Y-198428417D01*
X155357792Y-198433824D01*
X153511000Y-198439232D01*
X153511000Y-194734833D01*
X157215399Y-194734833D01*
X157209991Y-196581625D01*
G36*
X66346667Y-192724000D02*
G01*
X62642268Y-192724000D01*
X62647676Y-190877208D01*
X62653084Y-189030417D01*
X64499875Y-189025009D01*
X66346667Y-189019601D01*
X66346667Y-192724000D01*
G37*
X66346667Y-192724000D02*
X62642268Y-192724000D01*
X62647676Y-190877208D01*
X62653084Y-189030417D01*
X64499875Y-189025009D01*
X66346667Y-189019601D01*
X66346667Y-192724000D01*
G36*
X157204584Y-189030417D02*
G01*
X157209991Y-190877208D01*
X157215399Y-192724000D01*
X153511000Y-192724000D01*
X153511000Y-189019601D01*
X157204584Y-189030417D01*
G37*
X157204584Y-189030417D02*
X157209991Y-190877208D01*
X157215399Y-192724000D01*
X153511000Y-192724000D01*
X153511000Y-189019601D01*
X157204584Y-189030417D01*
%TD*%
M02*
