%TF.GenerationSoftware,KiCad,Pcbnew,(5.1.6)-1*%
%TF.CreationDate,2020-10-22T21:59:58+01:00*%
%TF.ProjectId,Side 1,53696465-2031-42e6-9b69-6361645f7063,rev?*%
%TF.SameCoordinates,Original*%
%TF.FileFunction,Soldermask,Bot*%
%TF.FilePolarity,Negative*%
%FSLAX46Y46*%
G04 Gerber Fmt 4.6, Leading zero omitted, Abs format (unit mm)*
G04 Created by KiCad (PCBNEW (5.1.6)-1) date 2020-10-22 21:59:58*
%MOMM*%
%LPD*%
G01*
G04 APERTURE LIST*
%ADD10C,0.010000*%
G04 APERTURE END LIST*
D10*
%TO.C,G\u002A\u002A\u002A*%
G36*
X95820666Y-221235500D02*
G01*
X94169666Y-221235500D01*
X94169666Y-219563333D01*
X95820666Y-219563333D01*
X95820666Y-221235500D01*
G37*
X95820666Y-221235500D02*
X94169666Y-221235500D01*
X94169666Y-219563333D01*
X95820666Y-219563333D01*
X95820666Y-221235500D01*
G36*
X125771500Y-221235500D02*
G01*
X124120500Y-221235500D01*
X124120500Y-219563333D01*
X125771500Y-219563333D01*
X125771500Y-221235500D01*
G37*
X125771500Y-221235500D02*
X124120500Y-221235500D01*
X124120500Y-219563333D01*
X125771500Y-219563333D01*
X125771500Y-221235500D01*
G36*
X95820666Y-43456667D02*
G01*
X124120500Y-43456667D01*
X124120500Y-41805667D01*
X125771500Y-41805667D01*
X125771500Y-43456667D01*
X157225166Y-43456667D01*
X157225166Y-192935667D01*
X125771500Y-192935667D01*
X125771500Y-194586667D01*
X124120500Y-194586667D01*
X124120500Y-192935667D01*
X95820666Y-192935667D01*
X95820666Y-194586667D01*
X94169666Y-194586667D01*
X94169666Y-192935667D01*
X62715994Y-192935667D01*
X62721288Y-118201458D01*
X62726583Y-43467250D01*
X78448125Y-43461944D01*
X94169666Y-43456638D01*
X94169666Y-41805667D01*
X95820666Y-41805667D01*
X95820666Y-43456667D01*
G37*
X95820666Y-43456667D02*
X124120500Y-43456667D01*
X124120500Y-41805667D01*
X125771500Y-41805667D01*
X125771500Y-43456667D01*
X157225166Y-43456667D01*
X157225166Y-192935667D01*
X125771500Y-192935667D01*
X125771500Y-194586667D01*
X124120500Y-194586667D01*
X124120500Y-192935667D01*
X95820666Y-192935667D01*
X95820666Y-194586667D01*
X94169666Y-194586667D01*
X94169666Y-192935667D01*
X62715994Y-192935667D01*
X62721288Y-118201458D01*
X62726583Y-43467250D01*
X78448125Y-43461944D01*
X94169666Y-43456638D01*
X94169666Y-41805667D01*
X95820666Y-41805667D01*
X95820666Y-43456667D01*
%TD*%
M02*
