%TF.GenerationSoftware,KiCad,Pcbnew,(5.1.6)-1*%
%TF.CreationDate,2020-10-21T23:40:19+01:00*%
%TF.ProjectId,nyantern,6e79616e-7465-4726-9e2e-6b696361645f,rev?*%
%TF.SameCoordinates,Original*%
%TF.FileFunction,Legend,Bot*%
%TF.FilePolarity,Positive*%
%FSLAX46Y46*%
G04 Gerber Fmt 4.6, Leading zero omitted, Abs format (unit mm)*
G04 Created by KiCad (PCBNEW (5.1.6)-1) date 2020-10-21 23:40:19*
%MOMM*%
%LPD*%
G01*
G04 APERTURE LIST*
%ADD10C,0.150000*%
%ADD11C,0.120000*%
%ADD12C,0.400000*%
G04 APERTURE END LIST*
D10*
%TO.C,U3*%
X143650000Y-126610000D02*
X143650000Y-112640000D01*
X143650000Y-112640000D02*
X156350000Y-112640000D01*
X156350000Y-112640000D02*
X156350000Y-126610000D01*
X156350000Y-126610000D02*
X143650000Y-126610000D01*
X141110000Y-127880000D02*
X158890000Y-127880000D01*
X158890000Y-127880000D02*
X158890000Y-105020000D01*
X158890000Y-105020000D02*
X141110000Y-105020000D01*
X141110000Y-105020000D02*
X141110000Y-127880000D01*
D11*
%TO.C,BT2*%
X124121320Y-57000000D02*
G75*
G03*
X124121320Y-57000000I-2121320J0D01*
G01*
X124121320Y-143000000D02*
G75*
G03*
X124121320Y-143000000I-2121320J0D01*
G01*
D12*
X120500000Y-57000000D02*
X123500000Y-57000000D01*
X122000000Y-141500000D02*
X122000000Y-144500000D01*
X120500000Y-143000000D02*
X123500000Y-143000000D01*
D10*
X111500000Y-139000000D02*
X132500000Y-139000000D01*
X132500000Y-61000000D02*
X132500000Y-139000000D01*
X111500000Y-61000000D02*
X111500000Y-139000000D01*
X111500000Y-61000000D02*
X132500000Y-61000000D01*
D11*
%TO.C,BT1*%
X180121320Y-57000000D02*
G75*
G03*
X180121320Y-57000000I-2121320J0D01*
G01*
X180121320Y-143000000D02*
G75*
G03*
X180121320Y-143000000I-2121320J0D01*
G01*
D12*
X176500000Y-57000000D02*
X179500000Y-57000000D01*
X178000000Y-141500000D02*
X178000000Y-144500000D01*
X176500000Y-143000000D02*
X179500000Y-143000000D01*
D10*
X167500000Y-139000000D02*
X188500000Y-139000000D01*
X188500000Y-61000000D02*
X188500000Y-139000000D01*
X167500000Y-61000000D02*
X167500000Y-139000000D01*
X167500000Y-61000000D02*
X188500000Y-61000000D01*
%TO.C,BT2*%
X122785714Y-98928571D02*
X122642857Y-98976190D01*
X122595238Y-99023809D01*
X122547619Y-99119047D01*
X122547619Y-99261904D01*
X122595238Y-99357142D01*
X122642857Y-99404761D01*
X122738095Y-99452380D01*
X123119047Y-99452380D01*
X123119047Y-98452380D01*
X122785714Y-98452380D01*
X122690476Y-98500000D01*
X122642857Y-98547619D01*
X122595238Y-98642857D01*
X122595238Y-98738095D01*
X122642857Y-98833333D01*
X122690476Y-98880952D01*
X122785714Y-98928571D01*
X123119047Y-98928571D01*
X122261904Y-98452380D02*
X121690476Y-98452380D01*
X121976190Y-99452380D02*
X121976190Y-98452380D01*
X121404761Y-98547619D02*
X121357142Y-98500000D01*
X121261904Y-98452380D01*
X121023809Y-98452380D01*
X120928571Y-98500000D01*
X120880952Y-98547619D01*
X120833333Y-98642857D01*
X120833333Y-98738095D01*
X120880952Y-98880952D01*
X121452380Y-99452380D01*
X120833333Y-99452380D01*
%TO.C,BT1*%
X178785714Y-98928571D02*
X178642857Y-98976190D01*
X178595238Y-99023809D01*
X178547619Y-99119047D01*
X178547619Y-99261904D01*
X178595238Y-99357142D01*
X178642857Y-99404761D01*
X178738095Y-99452380D01*
X179119047Y-99452380D01*
X179119047Y-98452380D01*
X178785714Y-98452380D01*
X178690476Y-98500000D01*
X178642857Y-98547619D01*
X178595238Y-98642857D01*
X178595238Y-98738095D01*
X178642857Y-98833333D01*
X178690476Y-98880952D01*
X178785714Y-98928571D01*
X179119047Y-98928571D01*
X178261904Y-98452380D02*
X177690476Y-98452380D01*
X177976190Y-99452380D02*
X177976190Y-98452380D01*
X176833333Y-99452380D02*
X177404761Y-99452380D01*
X177119047Y-99452380D02*
X177119047Y-98452380D01*
X177214285Y-98595238D01*
X177309523Y-98690476D01*
X177404761Y-98738095D01*
%TD*%
M02*
