%TF.GenerationSoftware,KiCad,Pcbnew,(5.1.6)-1*%
%TF.CreationDate,2020-10-21T23:40:19+01:00*%
%TF.ProjectId,nyantern,6e79616e-7465-4726-9e2e-6b696361645f,rev?*%
%TF.SameCoordinates,Original*%
%TF.FileFunction,Copper,L2,Bot*%
%TF.FilePolarity,Positive*%
%FSLAX46Y46*%
G04 Gerber Fmt 4.6, Leading zero omitted, Abs format (unit mm)*
G04 Created by KiCad (PCBNEW (5.1.6)-1) date 2020-10-21 23:40:19*
%MOMM*%
%LPD*%
G01*
G04 APERTURE LIST*
%TA.AperFunction,SMDPad,CuDef*%
%ADD10R,1.500000X2.000000*%
%TD*%
%TA.AperFunction,SMDPad,CuDef*%
%ADD11R,2.000000X1.500000*%
%TD*%
%TA.AperFunction,ComponentPad*%
%ADD12C,3.200000*%
%TD*%
%TA.AperFunction,ComponentPad*%
%ADD13O,1.700000X1.700000*%
%TD*%
%TA.AperFunction,ComponentPad*%
%ADD14R,1.700000X1.700000*%
%TD*%
%TA.AperFunction,ComponentPad*%
%ADD15C,1.800000*%
%TD*%
%TA.AperFunction,ComponentPad*%
%ADD16C,1.524000*%
%TD*%
%TA.AperFunction,ComponentPad*%
%ADD17C,2.500000*%
%TD*%
%TA.AperFunction,ComponentPad*%
%ADD18O,2.500000X6.000000*%
%TD*%
%TA.AperFunction,ViaPad*%
%ADD19C,0.800000*%
%TD*%
%TA.AperFunction,Conductor*%
%ADD20C,0.250000*%
%TD*%
%TA.AperFunction,Conductor*%
%ADD21C,0.254000*%
%TD*%
G04 APERTURE END LIST*
D10*
%TO.P,REF\u002A\u002A,1*%
%TO.N,N/C*%
X196100000Y-55900000D03*
%TD*%
D11*
%TO.P,REF\u002A\u002A,1*%
%TO.N,N/C*%
X194100000Y-53900000D03*
%TD*%
%TO.P,REF\u002A\u002A,1*%
%TO.N,N/C*%
X194000000Y-146100000D03*
%TD*%
D10*
%TO.P,REF\u002A\u002A,1*%
%TO.N,N/C*%
X196000000Y-144100000D03*
%TD*%
%TO.P,REF\u002A\u002A,1*%
%TO.N,N/C*%
X103900000Y-144100000D03*
%TD*%
D11*
%TO.P,REF\u002A\u002A,1*%
%TO.N,N/C*%
X105900000Y-146100000D03*
%TD*%
%TO.P,REF\u002A\u002A,1*%
%TO.N,N/C*%
X105900000Y-53900000D03*
%TD*%
D10*
%TO.P,REF\u002A\u002A,1*%
%TO.N,N/C*%
X103900000Y-55900000D03*
%TD*%
D12*
%TO.P,REF\u002A\u002A,1*%
%TO.N,GND*%
X192000000Y-142000000D03*
%TD*%
%TO.P,REF\u002A\u002A,1*%
%TO.N,GND*%
X108000000Y-142000000D03*
%TD*%
%TO.P,REF\u002A\u002A,1*%
%TO.N,GND*%
X108000000Y-58000000D03*
%TD*%
%TO.P,REF\u002A\u002A,1*%
%TO.N,GND*%
X192000000Y-58000000D03*
%TD*%
D13*
%TO.P,U4,8*%
%TO.N,Net-(U4-Pad8)*%
X158780000Y-100000000D03*
%TO.P,U4,7*%
%TO.N,Net-(U4-Pad7)*%
X156240000Y-100000000D03*
%TO.P,U4,6*%
%TO.N,Net-(U4-Pad6)*%
X153700000Y-100000000D03*
%TO.P,U4,5*%
%TO.N,Net-(U4-Pad5)*%
X151160000Y-100000000D03*
%TO.P,U4,4*%
%TO.N,SDA*%
X148620000Y-100000000D03*
%TO.P,U4,3*%
%TO.N,SCL*%
X146080000Y-100000000D03*
%TO.P,U4,2*%
%TO.N,GND*%
X143540000Y-100000000D03*
D14*
%TO.P,U4,1*%
%TO.N,+BATT*%
X141000000Y-100000000D03*
%TD*%
D15*
%TO.P,U3,9*%
%TO.N,Net-(U3-Pad9)*%
X161430000Y-112640000D03*
%TO.P,U3,10*%
%TO.N,Net-(U3-Pad10)*%
X161430000Y-115180000D03*
%TO.P,U3,11*%
%TO.N,Net-(U3-Pad11)*%
X161430000Y-117720000D03*
%TO.P,U3,12*%
%TO.N,Net-(U3-Pad12)*%
X161430000Y-120260000D03*
%TO.P,U3,13*%
%TO.N,Net-(U3-Pad13)*%
X161430000Y-122800000D03*
%TO.P,U3,14*%
%TO.N,Net-(U3-Pad14)*%
X161430000Y-125340000D03*
%TO.P,U3,15*%
%TO.N,Net-(U3-Pad15)*%
X161430000Y-127880000D03*
%TO.P,U3,16*%
%TO.N,+BATT*%
X161430000Y-130420000D03*
%TO.P,U3,1*%
%TO.N,+5V*%
X138570000Y-130420000D03*
%TO.P,U3,2*%
%TO.N,GND*%
X138570000Y-127880000D03*
%TO.P,U3,3*%
%TO.N,Net-(U3-Pad3)*%
X138570000Y-125340000D03*
%TO.P,U3,4*%
%TO.N,SK2812*%
X138570000Y-122800000D03*
%TO.P,U3,5*%
%TO.N,SDA*%
X138570000Y-120260000D03*
%TO.P,U3,6*%
%TO.N,SCL*%
X138570000Y-117720000D03*
%TO.P,U3,7*%
%TO.N,Net-(U3-Pad7)*%
X138570000Y-115180000D03*
%TO.P,U3,8*%
%TO.N,Net-(U3-Pad8)*%
X138570000Y-112640000D03*
%TD*%
D16*
%TO.P,U2,1*%
%TO.N,+BATT*%
X133480000Y-92580000D03*
%TO.P,U2,2*%
%TO.N,GND*%
X133480000Y-82420000D03*
%TO.P,U2,4*%
%TO.N,Net-(JP1-Pad1)*%
X166510000Y-92580000D03*
%TO.P,U2,3*%
%TO.N,GND*%
X166510000Y-82420000D03*
%TD*%
%TO.P,U1,5*%
%TO.N,Net-(BT1-Pad1)*%
X161500000Y-62040000D03*
%TO.P,U1,4*%
%TO.N,Net-(BT1-Pad2)*%
X161500000Y-70960000D03*
%TO.P,U1,3*%
%TO.N,GND*%
X161500000Y-73500000D03*
%TO.P,U1,6*%
%TO.N,+BATT*%
X161500000Y-59500000D03*
%TO.P,U1,2*%
%TO.N,GND*%
X138500000Y-59500000D03*
%TO.P,U1,1*%
%TO.N,+5V*%
X138500000Y-73500000D03*
%TD*%
D17*
%TO.P,BT2,2*%
%TO.N,Net-(BT1-Pad2)*%
X122000000Y-62000000D03*
D18*
%TO.P,BT2,1*%
%TO.N,Net-(BT1-Pad1)*%
X122000000Y-135500000D03*
%TD*%
D17*
%TO.P,BT1,2*%
%TO.N,Net-(BT1-Pad2)*%
X178000000Y-62000000D03*
D18*
%TO.P,BT1,1*%
%TO.N,Net-(BT1-Pad1)*%
X178000000Y-135500000D03*
%TD*%
D14*
%TO.P,J1,1*%
%TO.N,Vdrive*%
X153820000Y-76620000D03*
D13*
%TO.P,J1,2*%
%TO.N,GND*%
X151280000Y-76620000D03*
%TO.P,J1,3*%
%TO.N,Net-(D8-Pad4)*%
X148740000Y-76620000D03*
%TO.P,J1,4*%
%TO.N,Net-(J1-Pad4)*%
X146200000Y-76620000D03*
%TD*%
D19*
%TO.N,Net-(D8-Pad4)*%
X121270000Y-70700000D03*
X125590000Y-70720000D03*
%TO.N,Vdrive*%
X170220000Y-85480000D03*
%TO.N,GND*%
X114200000Y-77200000D03*
X113800000Y-127000000D03*
X185400000Y-123000000D03*
X185200000Y-72800000D03*
X182000000Y-65500000D03*
X170000000Y-88000000D03*
%TD*%
D20*
%TO.N,Net-(BT1-Pad1)*%
X122000000Y-122900000D02*
X122225000Y-122675000D01*
X122000000Y-129450000D02*
X122000000Y-122900000D01*
X122000000Y-129000000D02*
X122000000Y-129450000D01*
X122000000Y-129450000D02*
X122000000Y-135500000D01*
X122050000Y-122850000D02*
X122225000Y-122675000D01*
X122225000Y-122675000D02*
X128600000Y-116300000D01*
X128600000Y-116300000D02*
X128600000Y-83300000D01*
X148351238Y-62040000D02*
X161500000Y-62040000D01*
X137050000Y-74500000D02*
X137050000Y-73341238D01*
X128600000Y-83300000D02*
X128600000Y-82950000D01*
X137050000Y-73341238D02*
X148351238Y-62040000D01*
X128600000Y-82950000D02*
X137050000Y-74500000D01*
%TO.N,Net-(D8-Pad4)*%
X121270000Y-70700000D02*
X125570000Y-70700000D01*
X125570000Y-70700000D02*
X125590000Y-70720000D01*
%TO.N,Vdrive*%
X170220000Y-84521238D02*
X162318762Y-76620000D01*
X162318762Y-76620000D02*
X153820000Y-76620000D01*
X170220000Y-85480000D02*
X170220000Y-84521238D01*
%TO.N,+5V*%
X138420000Y-130420000D02*
X138570000Y-130420000D01*
X129400000Y-83500000D02*
X138500000Y-74400000D01*
X137420000Y-130420000D02*
X135800000Y-128800000D01*
X135800000Y-128800000D02*
X135800000Y-122700000D01*
X138570000Y-130420000D02*
X137420000Y-130420000D01*
X135800000Y-122700000D02*
X129400000Y-116300000D01*
X129400000Y-116300000D02*
X129400000Y-83500000D01*
X138500000Y-74400000D02*
X138500000Y-73500000D01*
%TD*%
D21*
%TO.N,GND*%
G36*
X135140000Y-52967580D02*
G01*
X135136807Y-53000000D01*
X135149550Y-53129383D01*
X135187290Y-53253793D01*
X135248575Y-53368450D01*
X135316855Y-53451649D01*
X135331052Y-53468948D01*
X135431550Y-53551425D01*
X135546207Y-53612710D01*
X135670617Y-53650450D01*
X135800000Y-53663193D01*
X135832419Y-53660000D01*
X164167581Y-53660000D01*
X164200000Y-53663193D01*
X164232419Y-53660000D01*
X164329383Y-53650450D01*
X164453793Y-53612710D01*
X164568450Y-53551425D01*
X164668948Y-53468948D01*
X164751425Y-53368450D01*
X164812710Y-53253793D01*
X164850450Y-53129383D01*
X164863193Y-53000000D01*
X164860000Y-52967581D01*
X164860000Y-52060000D01*
X165140000Y-52060000D01*
X165140001Y-52967571D01*
X165136807Y-53000000D01*
X165149550Y-53129383D01*
X165187290Y-53253793D01*
X165248575Y-53368450D01*
X165331052Y-53468948D01*
X165431550Y-53551425D01*
X165546207Y-53612710D01*
X165670617Y-53650450D01*
X165767581Y-53660000D01*
X165800000Y-53663193D01*
X165832419Y-53660000D01*
X194967721Y-53660000D01*
X195259659Y-53688625D01*
X195509429Y-53764035D01*
X195739792Y-53886522D01*
X195941980Y-54051422D01*
X196108286Y-54252450D01*
X196232378Y-54481954D01*
X196309531Y-54731195D01*
X196340000Y-55021088D01*
X196340001Y-144967711D01*
X196311375Y-145259660D01*
X196235965Y-145509429D01*
X196113477Y-145739794D01*
X195948579Y-145941979D01*
X195747546Y-146108288D01*
X195518046Y-146232378D01*
X195268805Y-146309531D01*
X194978911Y-146340000D01*
X165832419Y-146340000D01*
X165800000Y-146336807D01*
X165684080Y-146348224D01*
X165670617Y-146349550D01*
X165546207Y-146387290D01*
X165431550Y-146448575D01*
X165331052Y-146531052D01*
X165248575Y-146631550D01*
X165187290Y-146746207D01*
X165149550Y-146870617D01*
X165136807Y-147000000D01*
X165140000Y-147032420D01*
X165140001Y-147940000D01*
X164860000Y-147940000D01*
X164860000Y-147032419D01*
X164863193Y-147000000D01*
X164850450Y-146870617D01*
X164812710Y-146746207D01*
X164751425Y-146631550D01*
X164668948Y-146531052D01*
X164568450Y-146448575D01*
X164453793Y-146387290D01*
X164329383Y-146349550D01*
X164315920Y-146348224D01*
X164200000Y-146336807D01*
X164167581Y-146340000D01*
X135832419Y-146340000D01*
X135800000Y-146336807D01*
X135767581Y-146340000D01*
X135670617Y-146349550D01*
X135546207Y-146387290D01*
X135431550Y-146448575D01*
X135331052Y-146531052D01*
X135248575Y-146631550D01*
X135187290Y-146746207D01*
X135149550Y-146870617D01*
X135136807Y-147000000D01*
X135140001Y-147032429D01*
X135140000Y-147940000D01*
X134860000Y-147940000D01*
X134860000Y-147032419D01*
X134863193Y-147000000D01*
X134850450Y-146870617D01*
X134812710Y-146746207D01*
X134751425Y-146631550D01*
X134668948Y-146531052D01*
X134568450Y-146448575D01*
X134453793Y-146387290D01*
X134329383Y-146349550D01*
X134232419Y-146340000D01*
X134200000Y-146336807D01*
X134167581Y-146340000D01*
X105032279Y-146340000D01*
X104740340Y-146311375D01*
X104490571Y-146235965D01*
X104260206Y-146113477D01*
X104058021Y-145948579D01*
X103891712Y-145747546D01*
X103767622Y-145518046D01*
X103690469Y-145268805D01*
X103660000Y-144978911D01*
X103660000Y-143562845D01*
X106616761Y-143562845D01*
X106784802Y-143888643D01*
X107176607Y-144089426D01*
X107600055Y-144209914D01*
X108038873Y-144245476D01*
X108476197Y-144194746D01*
X108895221Y-144059674D01*
X109215198Y-143888643D01*
X109383239Y-143562845D01*
X190616761Y-143562845D01*
X190784802Y-143888643D01*
X191176607Y-144089426D01*
X191600055Y-144209914D01*
X192038873Y-144245476D01*
X192476197Y-144194746D01*
X192895221Y-144059674D01*
X193215198Y-143888643D01*
X193383239Y-143562845D01*
X192000000Y-142179605D01*
X190616761Y-143562845D01*
X109383239Y-143562845D01*
X108000000Y-142179605D01*
X106616761Y-143562845D01*
X103660000Y-143562845D01*
X103660000Y-142038873D01*
X105754524Y-142038873D01*
X105805254Y-142476197D01*
X105940326Y-142895221D01*
X106111357Y-143215198D01*
X106437155Y-143383239D01*
X107820395Y-142000000D01*
X108179605Y-142000000D01*
X109562845Y-143383239D01*
X109888643Y-143215198D01*
X110089426Y-142823393D01*
X110209914Y-142399945D01*
X110239175Y-142038873D01*
X189754524Y-142038873D01*
X189805254Y-142476197D01*
X189940326Y-142895221D01*
X190111357Y-143215198D01*
X190437155Y-143383239D01*
X191820395Y-142000000D01*
X192179605Y-142000000D01*
X193562845Y-143383239D01*
X193888643Y-143215198D01*
X194089426Y-142823393D01*
X194209914Y-142399945D01*
X194245476Y-141961127D01*
X194194746Y-141523803D01*
X194059674Y-141104779D01*
X193888643Y-140784802D01*
X193562845Y-140616761D01*
X192179605Y-142000000D01*
X191820395Y-142000000D01*
X190437155Y-140616761D01*
X190111357Y-140784802D01*
X189910574Y-141176607D01*
X189790086Y-141600055D01*
X189754524Y-142038873D01*
X110239175Y-142038873D01*
X110245476Y-141961127D01*
X110194746Y-141523803D01*
X110059674Y-141104779D01*
X109888643Y-140784802D01*
X109562845Y-140616761D01*
X108179605Y-142000000D01*
X107820395Y-142000000D01*
X106437155Y-140616761D01*
X106111357Y-140784802D01*
X105910574Y-141176607D01*
X105790086Y-141600055D01*
X105754524Y-142038873D01*
X103660000Y-142038873D01*
X103660000Y-140437155D01*
X106616761Y-140437155D01*
X108000000Y-141820395D01*
X109383239Y-140437155D01*
X190616761Y-140437155D01*
X192000000Y-141820395D01*
X193383239Y-140437155D01*
X193215198Y-140111357D01*
X192823393Y-139910574D01*
X192399945Y-139790086D01*
X191961127Y-139754524D01*
X191523803Y-139805254D01*
X191104779Y-139940326D01*
X190784802Y-140111357D01*
X190616761Y-140437155D01*
X109383239Y-140437155D01*
X109215198Y-140111357D01*
X108823393Y-139910574D01*
X108399945Y-139790086D01*
X107961127Y-139754524D01*
X107523803Y-139805254D01*
X107104779Y-139940326D01*
X106784802Y-140111357D01*
X106616761Y-140437155D01*
X103660000Y-140437155D01*
X103660000Y-133657404D01*
X120115000Y-133657404D01*
X120115001Y-137342597D01*
X120142276Y-137619524D01*
X120250062Y-137974848D01*
X120425098Y-138302317D01*
X120660656Y-138589345D01*
X120947684Y-138824903D01*
X121275153Y-138999939D01*
X121630477Y-139107725D01*
X122000000Y-139144120D01*
X122369524Y-139107725D01*
X122724848Y-138999939D01*
X123052317Y-138824903D01*
X123339345Y-138589345D01*
X123574903Y-138302317D01*
X123749939Y-137974848D01*
X123857725Y-137619524D01*
X123885000Y-137342597D01*
X123885000Y-133657404D01*
X176115000Y-133657404D01*
X176115001Y-137342597D01*
X176142276Y-137619524D01*
X176250062Y-137974848D01*
X176425098Y-138302317D01*
X176660656Y-138589345D01*
X176947684Y-138824903D01*
X177275153Y-138999939D01*
X177630477Y-139107725D01*
X178000000Y-139144120D01*
X178369524Y-139107725D01*
X178724848Y-138999939D01*
X179052317Y-138824903D01*
X179339345Y-138589345D01*
X179574903Y-138302317D01*
X179749939Y-137974848D01*
X179857725Y-137619524D01*
X179885000Y-137342597D01*
X179885000Y-133657403D01*
X179857725Y-133380476D01*
X179749939Y-133025152D01*
X179574903Y-132697683D01*
X179339345Y-132410655D01*
X179052317Y-132175097D01*
X178724847Y-132000061D01*
X178369523Y-131892275D01*
X178000000Y-131855880D01*
X177630476Y-131892275D01*
X177275152Y-132000061D01*
X176947683Y-132175097D01*
X176660655Y-132410655D01*
X176425097Y-132697683D01*
X176250061Y-133025153D01*
X176142275Y-133380477D01*
X176115000Y-133657404D01*
X123885000Y-133657404D01*
X123885000Y-133657403D01*
X123857725Y-133380476D01*
X123749939Y-133025152D01*
X123574903Y-132697683D01*
X123339345Y-132410655D01*
X123052317Y-132175097D01*
X122760000Y-132018851D01*
X122760000Y-123214802D01*
X126540000Y-119434802D01*
X126540001Y-120767571D01*
X126536807Y-120800000D01*
X126549550Y-120929383D01*
X126587290Y-121053793D01*
X126648575Y-121168450D01*
X126731052Y-121268948D01*
X126831550Y-121351425D01*
X126946207Y-121412710D01*
X127070617Y-121450450D01*
X127167581Y-121460000D01*
X127200000Y-121463193D01*
X127232419Y-121460000D01*
X128540000Y-121460000D01*
X128540001Y-122767571D01*
X128536807Y-122800000D01*
X128549550Y-122929383D01*
X128587290Y-123053793D01*
X128648575Y-123168450D01*
X128731052Y-123268948D01*
X128831550Y-123351425D01*
X128946207Y-123412710D01*
X129070617Y-123450450D01*
X129167581Y-123460000D01*
X129200000Y-123463193D01*
X129232419Y-123460000D01*
X130767581Y-123460000D01*
X130800000Y-123463193D01*
X130832419Y-123460000D01*
X130929383Y-123450450D01*
X131053793Y-123412710D01*
X131168450Y-123351425D01*
X131268948Y-123268948D01*
X131351425Y-123168450D01*
X131412710Y-123053793D01*
X131450450Y-122929383D01*
X131463193Y-122800000D01*
X131460000Y-122767581D01*
X131460000Y-121232419D01*
X131463193Y-121200000D01*
X131450450Y-121070617D01*
X131412710Y-120946207D01*
X131351425Y-120831550D01*
X131268948Y-120731052D01*
X131168450Y-120648575D01*
X131053793Y-120587290D01*
X130929383Y-120549550D01*
X130832419Y-120540000D01*
X130800000Y-120536807D01*
X130767581Y-120540000D01*
X129460000Y-120540000D01*
X129460000Y-119232419D01*
X129463193Y-119200000D01*
X129450450Y-119070617D01*
X129412710Y-118946207D01*
X129351425Y-118831550D01*
X129268948Y-118731052D01*
X129168450Y-118648575D01*
X129053793Y-118587290D01*
X128929383Y-118549550D01*
X128832419Y-118540000D01*
X128800000Y-118536807D01*
X128767581Y-118540000D01*
X127434802Y-118540000D01*
X129000001Y-116974802D01*
X135040001Y-123014803D01*
X135040000Y-128762677D01*
X135036324Y-128800000D01*
X135040000Y-128837322D01*
X135040000Y-128837332D01*
X135050997Y-128948985D01*
X135084582Y-129059701D01*
X135094454Y-129092246D01*
X135165026Y-129224276D01*
X135178176Y-129240299D01*
X135259999Y-129340001D01*
X135289003Y-129363804D01*
X136856201Y-130931003D01*
X136879999Y-130960001D01*
X136908997Y-130983799D01*
X136995723Y-131054974D01*
X137127753Y-131125546D01*
X137212474Y-131151245D01*
X137377688Y-131398505D01*
X137591495Y-131612312D01*
X137842905Y-131780299D01*
X138122257Y-131896011D01*
X138418816Y-131955000D01*
X138721184Y-131955000D01*
X139017743Y-131896011D01*
X139297095Y-131780299D01*
X139548505Y-131612312D01*
X139762312Y-131398505D01*
X139930299Y-131147095D01*
X140046011Y-130867743D01*
X140105000Y-130571184D01*
X140105000Y-130268816D01*
X140046011Y-129972257D01*
X139930299Y-129692905D01*
X139762312Y-129441495D01*
X139548505Y-129227688D01*
X139394895Y-129125049D01*
X139454475Y-128944080D01*
X138570000Y-128059605D01*
X137685525Y-128944080D01*
X137745105Y-129125049D01*
X137591495Y-129227688D01*
X137446992Y-129372191D01*
X136560000Y-128485199D01*
X136560000Y-127946553D01*
X137029009Y-127946553D01*
X137071603Y-128245907D01*
X137171778Y-128531199D01*
X137251739Y-128680792D01*
X137505920Y-128764475D01*
X138390395Y-127880000D01*
X138749605Y-127880000D01*
X139634080Y-128764475D01*
X139888261Y-128680792D01*
X140019158Y-128408225D01*
X140094365Y-128115358D01*
X140110991Y-127813447D01*
X140068397Y-127514093D01*
X139968222Y-127228801D01*
X139888261Y-127079208D01*
X139634080Y-126995525D01*
X138749605Y-127880000D01*
X138390395Y-127880000D01*
X137505920Y-126995525D01*
X137251739Y-127079208D01*
X137120842Y-127351775D01*
X137045635Y-127644642D01*
X137029009Y-127946553D01*
X136560000Y-127946553D01*
X136560000Y-122737323D01*
X136563676Y-122700000D01*
X136560000Y-122662677D01*
X136560000Y-122662667D01*
X136549003Y-122551014D01*
X136505546Y-122407753D01*
X136434974Y-122275724D01*
X136340001Y-122159999D01*
X136311003Y-122136201D01*
X130160000Y-115985199D01*
X130160000Y-112488816D01*
X137035000Y-112488816D01*
X137035000Y-112791184D01*
X137093989Y-113087743D01*
X137209701Y-113367095D01*
X137377688Y-113618505D01*
X137591495Y-113832312D01*
X137707763Y-113910000D01*
X137591495Y-113987688D01*
X137377688Y-114201495D01*
X137209701Y-114452905D01*
X137093989Y-114732257D01*
X137035000Y-115028816D01*
X137035000Y-115331184D01*
X137093989Y-115627743D01*
X137209701Y-115907095D01*
X137377688Y-116158505D01*
X137591495Y-116372312D01*
X137707763Y-116450000D01*
X137591495Y-116527688D01*
X137377688Y-116741495D01*
X137209701Y-116992905D01*
X137093989Y-117272257D01*
X137035000Y-117568816D01*
X137035000Y-117871184D01*
X137093989Y-118167743D01*
X137209701Y-118447095D01*
X137377688Y-118698505D01*
X137591495Y-118912312D01*
X137707763Y-118990000D01*
X137591495Y-119067688D01*
X137377688Y-119281495D01*
X137209701Y-119532905D01*
X137093989Y-119812257D01*
X137035000Y-120108816D01*
X137035000Y-120411184D01*
X137093989Y-120707743D01*
X137209701Y-120987095D01*
X137377688Y-121238505D01*
X137591495Y-121452312D01*
X137707763Y-121530000D01*
X137591495Y-121607688D01*
X137377688Y-121821495D01*
X137209701Y-122072905D01*
X137093989Y-122352257D01*
X137035000Y-122648816D01*
X137035000Y-122951184D01*
X137093989Y-123247743D01*
X137209701Y-123527095D01*
X137377688Y-123778505D01*
X137591495Y-123992312D01*
X137707763Y-124070000D01*
X137591495Y-124147688D01*
X137377688Y-124361495D01*
X137209701Y-124612905D01*
X137093989Y-124892257D01*
X137035000Y-125188816D01*
X137035000Y-125491184D01*
X137093989Y-125787743D01*
X137209701Y-126067095D01*
X137377688Y-126318505D01*
X137591495Y-126532312D01*
X137745105Y-126634951D01*
X137685525Y-126815920D01*
X138570000Y-127700395D01*
X139454475Y-126815920D01*
X139394895Y-126634951D01*
X139548505Y-126532312D01*
X139762312Y-126318505D01*
X139930299Y-126067095D01*
X140046011Y-125787743D01*
X140105000Y-125491184D01*
X140105000Y-125188816D01*
X140046011Y-124892257D01*
X139930299Y-124612905D01*
X139762312Y-124361495D01*
X139548505Y-124147688D01*
X139432237Y-124070000D01*
X139548505Y-123992312D01*
X139762312Y-123778505D01*
X139930299Y-123527095D01*
X140046011Y-123247743D01*
X140105000Y-122951184D01*
X140105000Y-122648816D01*
X140046011Y-122352257D01*
X139930299Y-122072905D01*
X139762312Y-121821495D01*
X139548505Y-121607688D01*
X139432237Y-121530000D01*
X139548505Y-121452312D01*
X139762312Y-121238505D01*
X139930299Y-120987095D01*
X140046011Y-120707743D01*
X140105000Y-120411184D01*
X140105000Y-120108816D01*
X140046011Y-119812257D01*
X139930299Y-119532905D01*
X139762312Y-119281495D01*
X139548505Y-119067688D01*
X139432237Y-118990000D01*
X139548505Y-118912312D01*
X139762312Y-118698505D01*
X139930299Y-118447095D01*
X140046011Y-118167743D01*
X140105000Y-117871184D01*
X140105000Y-117568816D01*
X140046011Y-117272257D01*
X139930299Y-116992905D01*
X139762312Y-116741495D01*
X139548505Y-116527688D01*
X139432237Y-116450000D01*
X139548505Y-116372312D01*
X139762312Y-116158505D01*
X139930299Y-115907095D01*
X140046011Y-115627743D01*
X140105000Y-115331184D01*
X140105000Y-115028816D01*
X140046011Y-114732257D01*
X139930299Y-114452905D01*
X139762312Y-114201495D01*
X139548505Y-113987688D01*
X139432237Y-113910000D01*
X139548505Y-113832312D01*
X139762312Y-113618505D01*
X139930299Y-113367095D01*
X140046011Y-113087743D01*
X140105000Y-112791184D01*
X140105000Y-112488816D01*
X159895000Y-112488816D01*
X159895000Y-112791184D01*
X159953989Y-113087743D01*
X160069701Y-113367095D01*
X160237688Y-113618505D01*
X160451495Y-113832312D01*
X160567763Y-113910000D01*
X160451495Y-113987688D01*
X160237688Y-114201495D01*
X160069701Y-114452905D01*
X159953989Y-114732257D01*
X159895000Y-115028816D01*
X159895000Y-115331184D01*
X159953989Y-115627743D01*
X160069701Y-115907095D01*
X160237688Y-116158505D01*
X160451495Y-116372312D01*
X160567763Y-116450000D01*
X160451495Y-116527688D01*
X160237688Y-116741495D01*
X160069701Y-116992905D01*
X159953989Y-117272257D01*
X159895000Y-117568816D01*
X159895000Y-117871184D01*
X159953989Y-118167743D01*
X160069701Y-118447095D01*
X160237688Y-118698505D01*
X160451495Y-118912312D01*
X160567763Y-118990000D01*
X160451495Y-119067688D01*
X160237688Y-119281495D01*
X160069701Y-119532905D01*
X159953989Y-119812257D01*
X159895000Y-120108816D01*
X159895000Y-120411184D01*
X159953989Y-120707743D01*
X160069701Y-120987095D01*
X160237688Y-121238505D01*
X160451495Y-121452312D01*
X160567763Y-121530000D01*
X160451495Y-121607688D01*
X160237688Y-121821495D01*
X160069701Y-122072905D01*
X159953989Y-122352257D01*
X159895000Y-122648816D01*
X159895000Y-122951184D01*
X159953989Y-123247743D01*
X160069701Y-123527095D01*
X160237688Y-123778505D01*
X160451495Y-123992312D01*
X160567763Y-124070000D01*
X160451495Y-124147688D01*
X160237688Y-124361495D01*
X160069701Y-124612905D01*
X159953989Y-124892257D01*
X159895000Y-125188816D01*
X159895000Y-125491184D01*
X159953989Y-125787743D01*
X160069701Y-126067095D01*
X160237688Y-126318505D01*
X160451495Y-126532312D01*
X160567763Y-126610000D01*
X160451495Y-126687688D01*
X160237688Y-126901495D01*
X160069701Y-127152905D01*
X159953989Y-127432257D01*
X159895000Y-127728816D01*
X159895000Y-128031184D01*
X159953989Y-128327743D01*
X160069701Y-128607095D01*
X160237688Y-128858505D01*
X160451495Y-129072312D01*
X160567763Y-129150000D01*
X160451495Y-129227688D01*
X160237688Y-129441495D01*
X160069701Y-129692905D01*
X159953989Y-129972257D01*
X159895000Y-130268816D01*
X159895000Y-130571184D01*
X159953989Y-130867743D01*
X160069701Y-131147095D01*
X160237688Y-131398505D01*
X160451495Y-131612312D01*
X160702905Y-131780299D01*
X160982257Y-131896011D01*
X161278816Y-131955000D01*
X161581184Y-131955000D01*
X161877743Y-131896011D01*
X162157095Y-131780299D01*
X162408505Y-131612312D01*
X162622312Y-131398505D01*
X162790299Y-131147095D01*
X162906011Y-130867743D01*
X162965000Y-130571184D01*
X162965000Y-130268816D01*
X162906011Y-129972257D01*
X162790299Y-129692905D01*
X162622312Y-129441495D01*
X162408505Y-129227688D01*
X162292237Y-129150000D01*
X162408505Y-129072312D01*
X162622312Y-128858505D01*
X162790299Y-128607095D01*
X162906011Y-128327743D01*
X162965000Y-128031184D01*
X162965000Y-127728816D01*
X162906011Y-127432257D01*
X162790299Y-127152905D01*
X162622312Y-126901495D01*
X162408505Y-126687688D01*
X162292237Y-126610000D01*
X162408505Y-126532312D01*
X162622312Y-126318505D01*
X162790299Y-126067095D01*
X162906011Y-125787743D01*
X162965000Y-125491184D01*
X162965000Y-125188816D01*
X162906011Y-124892257D01*
X162790299Y-124612905D01*
X162622312Y-124361495D01*
X162408505Y-124147688D01*
X162292237Y-124070000D01*
X162408505Y-123992312D01*
X162622312Y-123778505D01*
X162790299Y-123527095D01*
X162906011Y-123247743D01*
X162965000Y-122951184D01*
X162965000Y-122648816D01*
X162906011Y-122352257D01*
X162790299Y-122072905D01*
X162622312Y-121821495D01*
X162408505Y-121607688D01*
X162292237Y-121530000D01*
X162408505Y-121452312D01*
X162622312Y-121238505D01*
X162648040Y-121200000D01*
X168536807Y-121200000D01*
X168540000Y-121232420D01*
X168540001Y-122767571D01*
X168536807Y-122800000D01*
X168549550Y-122929383D01*
X168587290Y-123053793D01*
X168648575Y-123168450D01*
X168731052Y-123268948D01*
X168831550Y-123351425D01*
X168946207Y-123412710D01*
X169070617Y-123450450D01*
X169167581Y-123460000D01*
X169200000Y-123463193D01*
X169232419Y-123460000D01*
X170767581Y-123460000D01*
X170800000Y-123463193D01*
X170832419Y-123460000D01*
X170929383Y-123450450D01*
X171053793Y-123412710D01*
X171168450Y-123351425D01*
X171268948Y-123268948D01*
X171351425Y-123168450D01*
X171412710Y-123053793D01*
X171450450Y-122929383D01*
X171463193Y-122800000D01*
X171460000Y-122767581D01*
X171460000Y-121460000D01*
X172767581Y-121460000D01*
X172800000Y-121463193D01*
X172832419Y-121460000D01*
X172929383Y-121450450D01*
X173053793Y-121412710D01*
X173168450Y-121351425D01*
X173268948Y-121268948D01*
X173351425Y-121168450D01*
X173412710Y-121053793D01*
X173450450Y-120929383D01*
X173463193Y-120800000D01*
X173460000Y-120767581D01*
X173460000Y-119232419D01*
X173463193Y-119200000D01*
X173450450Y-119070617D01*
X173412710Y-118946207D01*
X173351425Y-118831550D01*
X173268948Y-118731052D01*
X173168450Y-118648575D01*
X173053793Y-118587290D01*
X172929383Y-118549550D01*
X172832419Y-118540000D01*
X172800000Y-118536807D01*
X172767581Y-118540000D01*
X171232419Y-118540000D01*
X171200000Y-118536807D01*
X171167581Y-118540000D01*
X171070617Y-118549550D01*
X170946207Y-118587290D01*
X170831550Y-118648575D01*
X170731052Y-118731052D01*
X170648575Y-118831550D01*
X170587290Y-118946207D01*
X170549550Y-119070617D01*
X170536807Y-119200000D01*
X170540000Y-119232420D01*
X170540001Y-120540000D01*
X169232419Y-120540000D01*
X169200000Y-120536807D01*
X169167581Y-120540000D01*
X169070617Y-120549550D01*
X168946207Y-120587290D01*
X168831550Y-120648575D01*
X168731052Y-120731052D01*
X168648575Y-120831550D01*
X168587290Y-120946207D01*
X168549550Y-121070617D01*
X168536807Y-121200000D01*
X162648040Y-121200000D01*
X162790299Y-120987095D01*
X162906011Y-120707743D01*
X162965000Y-120411184D01*
X162965000Y-120108816D01*
X162906011Y-119812257D01*
X162790299Y-119532905D01*
X162622312Y-119281495D01*
X162408505Y-119067688D01*
X162292237Y-118990000D01*
X162408505Y-118912312D01*
X162622312Y-118698505D01*
X162790299Y-118447095D01*
X162906011Y-118167743D01*
X162965000Y-117871184D01*
X162965000Y-117568816D01*
X162906011Y-117272257D01*
X162790299Y-116992905D01*
X162622312Y-116741495D01*
X162408505Y-116527688D01*
X162292237Y-116450000D01*
X162408505Y-116372312D01*
X162622312Y-116158505D01*
X162790299Y-115907095D01*
X162906011Y-115627743D01*
X162965000Y-115331184D01*
X162965000Y-115028816D01*
X162906011Y-114732257D01*
X162790299Y-114452905D01*
X162622312Y-114201495D01*
X162408505Y-113987688D01*
X162292237Y-113910000D01*
X162408505Y-113832312D01*
X162622312Y-113618505D01*
X162790299Y-113367095D01*
X162906011Y-113087743D01*
X162965000Y-112791184D01*
X162965000Y-112488816D01*
X162906011Y-112192257D01*
X162790299Y-111912905D01*
X162622312Y-111661495D01*
X162408505Y-111447688D01*
X162157095Y-111279701D01*
X161877743Y-111163989D01*
X161581184Y-111105000D01*
X161278816Y-111105000D01*
X160982257Y-111163989D01*
X160702905Y-111279701D01*
X160451495Y-111447688D01*
X160237688Y-111661495D01*
X160069701Y-111912905D01*
X159953989Y-112192257D01*
X159895000Y-112488816D01*
X140105000Y-112488816D01*
X140046011Y-112192257D01*
X139930299Y-111912905D01*
X139762312Y-111661495D01*
X139548505Y-111447688D01*
X139297095Y-111279701D01*
X139017743Y-111163989D01*
X138721184Y-111105000D01*
X138418816Y-111105000D01*
X138122257Y-111163989D01*
X137842905Y-111279701D01*
X137591495Y-111447688D01*
X137377688Y-111661495D01*
X137209701Y-111912905D01*
X137093989Y-112192257D01*
X137035000Y-112488816D01*
X130160000Y-112488816D01*
X130160000Y-99150000D01*
X139511928Y-99150000D01*
X139511928Y-100850000D01*
X139524188Y-100974482D01*
X139560498Y-101094180D01*
X139619463Y-101204494D01*
X139698815Y-101301185D01*
X139795506Y-101380537D01*
X139905820Y-101439502D01*
X140025518Y-101475812D01*
X140150000Y-101488072D01*
X141850000Y-101488072D01*
X141974482Y-101475812D01*
X142094180Y-101439502D01*
X142204494Y-101380537D01*
X142301185Y-101301185D01*
X142380537Y-101204494D01*
X142439502Y-101094180D01*
X142463966Y-101013534D01*
X142539731Y-101097588D01*
X142773080Y-101271641D01*
X143035901Y-101396825D01*
X143183110Y-101441476D01*
X143413000Y-101320155D01*
X143413000Y-100127000D01*
X143393000Y-100127000D01*
X143393000Y-99873000D01*
X143413000Y-99873000D01*
X143413000Y-98679845D01*
X143667000Y-98679845D01*
X143667000Y-99873000D01*
X143687000Y-99873000D01*
X143687000Y-100127000D01*
X143667000Y-100127000D01*
X143667000Y-101320155D01*
X143896890Y-101441476D01*
X144044099Y-101396825D01*
X144306920Y-101271641D01*
X144540269Y-101097588D01*
X144735178Y-100881355D01*
X144804805Y-100764466D01*
X144926525Y-100946632D01*
X145133368Y-101153475D01*
X145376589Y-101315990D01*
X145646842Y-101427932D01*
X145933740Y-101485000D01*
X146226260Y-101485000D01*
X146513158Y-101427932D01*
X146783411Y-101315990D01*
X147026632Y-101153475D01*
X147233475Y-100946632D01*
X147350000Y-100772240D01*
X147466525Y-100946632D01*
X147673368Y-101153475D01*
X147916589Y-101315990D01*
X148186842Y-101427932D01*
X148473740Y-101485000D01*
X148766260Y-101485000D01*
X149053158Y-101427932D01*
X149323411Y-101315990D01*
X149566632Y-101153475D01*
X149773475Y-100946632D01*
X149890000Y-100772240D01*
X150006525Y-100946632D01*
X150213368Y-101153475D01*
X150456589Y-101315990D01*
X150726842Y-101427932D01*
X151013740Y-101485000D01*
X151306260Y-101485000D01*
X151593158Y-101427932D01*
X151863411Y-101315990D01*
X152106632Y-101153475D01*
X152313475Y-100946632D01*
X152430000Y-100772240D01*
X152546525Y-100946632D01*
X152753368Y-101153475D01*
X152996589Y-101315990D01*
X153266842Y-101427932D01*
X153553740Y-101485000D01*
X153846260Y-101485000D01*
X154133158Y-101427932D01*
X154403411Y-101315990D01*
X154646632Y-101153475D01*
X154853475Y-100946632D01*
X154970000Y-100772240D01*
X155086525Y-100946632D01*
X155293368Y-101153475D01*
X155536589Y-101315990D01*
X155806842Y-101427932D01*
X156093740Y-101485000D01*
X156386260Y-101485000D01*
X156673158Y-101427932D01*
X156943411Y-101315990D01*
X157186632Y-101153475D01*
X157393475Y-100946632D01*
X157510000Y-100772240D01*
X157626525Y-100946632D01*
X157833368Y-101153475D01*
X158076589Y-101315990D01*
X158346842Y-101427932D01*
X158633740Y-101485000D01*
X158926260Y-101485000D01*
X159213158Y-101427932D01*
X159483411Y-101315990D01*
X159726632Y-101153475D01*
X159933475Y-100946632D01*
X160095990Y-100703411D01*
X160207932Y-100433158D01*
X160265000Y-100146260D01*
X160265000Y-99853740D01*
X160207932Y-99566842D01*
X160095990Y-99296589D01*
X159933475Y-99053368D01*
X159726632Y-98846525D01*
X159483411Y-98684010D01*
X159213158Y-98572068D01*
X158926260Y-98515000D01*
X158633740Y-98515000D01*
X158346842Y-98572068D01*
X158076589Y-98684010D01*
X157833368Y-98846525D01*
X157626525Y-99053368D01*
X157510000Y-99227760D01*
X157393475Y-99053368D01*
X157186632Y-98846525D01*
X156943411Y-98684010D01*
X156673158Y-98572068D01*
X156386260Y-98515000D01*
X156093740Y-98515000D01*
X155806842Y-98572068D01*
X155536589Y-98684010D01*
X155293368Y-98846525D01*
X155086525Y-99053368D01*
X154970000Y-99227760D01*
X154853475Y-99053368D01*
X154646632Y-98846525D01*
X154403411Y-98684010D01*
X154133158Y-98572068D01*
X153846260Y-98515000D01*
X153553740Y-98515000D01*
X153266842Y-98572068D01*
X152996589Y-98684010D01*
X152753368Y-98846525D01*
X152546525Y-99053368D01*
X152430000Y-99227760D01*
X152313475Y-99053368D01*
X152106632Y-98846525D01*
X151863411Y-98684010D01*
X151593158Y-98572068D01*
X151306260Y-98515000D01*
X151013740Y-98515000D01*
X150726842Y-98572068D01*
X150456589Y-98684010D01*
X150213368Y-98846525D01*
X150006525Y-99053368D01*
X149890000Y-99227760D01*
X149773475Y-99053368D01*
X149566632Y-98846525D01*
X149323411Y-98684010D01*
X149053158Y-98572068D01*
X148766260Y-98515000D01*
X148473740Y-98515000D01*
X148186842Y-98572068D01*
X147916589Y-98684010D01*
X147673368Y-98846525D01*
X147466525Y-99053368D01*
X147350000Y-99227760D01*
X147233475Y-99053368D01*
X147026632Y-98846525D01*
X146783411Y-98684010D01*
X146513158Y-98572068D01*
X146226260Y-98515000D01*
X145933740Y-98515000D01*
X145646842Y-98572068D01*
X145376589Y-98684010D01*
X145133368Y-98846525D01*
X144926525Y-99053368D01*
X144804805Y-99235534D01*
X144735178Y-99118645D01*
X144540269Y-98902412D01*
X144306920Y-98728359D01*
X144044099Y-98603175D01*
X143896890Y-98558524D01*
X143667000Y-98679845D01*
X143413000Y-98679845D01*
X143183110Y-98558524D01*
X143035901Y-98603175D01*
X142773080Y-98728359D01*
X142539731Y-98902412D01*
X142463966Y-98986466D01*
X142439502Y-98905820D01*
X142380537Y-98795506D01*
X142301185Y-98698815D01*
X142204494Y-98619463D01*
X142094180Y-98560498D01*
X141974482Y-98524188D01*
X141850000Y-98511928D01*
X140150000Y-98511928D01*
X140025518Y-98524188D01*
X139905820Y-98560498D01*
X139795506Y-98619463D01*
X139698815Y-98698815D01*
X139619463Y-98795506D01*
X139560498Y-98905820D01*
X139524188Y-99025518D01*
X139511928Y-99150000D01*
X130160000Y-99150000D01*
X130160000Y-92442408D01*
X132083000Y-92442408D01*
X132083000Y-92717592D01*
X132136686Y-92987490D01*
X132241995Y-93241727D01*
X132394880Y-93470535D01*
X132589465Y-93665120D01*
X132818273Y-93818005D01*
X133072510Y-93923314D01*
X133342408Y-93977000D01*
X133617592Y-93977000D01*
X133887490Y-93923314D01*
X134141727Y-93818005D01*
X134370535Y-93665120D01*
X134565120Y-93470535D01*
X134718005Y-93241727D01*
X134823314Y-92987490D01*
X134877000Y-92717592D01*
X134877000Y-92442408D01*
X165113000Y-92442408D01*
X165113000Y-92717592D01*
X165166686Y-92987490D01*
X165271995Y-93241727D01*
X165424880Y-93470535D01*
X165619465Y-93665120D01*
X165848273Y-93818005D01*
X166102510Y-93923314D01*
X166372408Y-93977000D01*
X166647592Y-93977000D01*
X166917490Y-93923314D01*
X167171727Y-93818005D01*
X167400535Y-93665120D01*
X167595120Y-93470535D01*
X167748005Y-93241727D01*
X167853314Y-92987490D01*
X167907000Y-92717592D01*
X167907000Y-92442408D01*
X167853314Y-92172510D01*
X167748005Y-91918273D01*
X167595120Y-91689465D01*
X167400535Y-91494880D01*
X167171727Y-91341995D01*
X166917490Y-91236686D01*
X166647592Y-91183000D01*
X166372408Y-91183000D01*
X166102510Y-91236686D01*
X165848273Y-91341995D01*
X165619465Y-91494880D01*
X165424880Y-91689465D01*
X165271995Y-91918273D01*
X165166686Y-92172510D01*
X165113000Y-92442408D01*
X134877000Y-92442408D01*
X134823314Y-92172510D01*
X134718005Y-91918273D01*
X134565120Y-91689465D01*
X134370535Y-91494880D01*
X134141727Y-91341995D01*
X133887490Y-91236686D01*
X133617592Y-91183000D01*
X133342408Y-91183000D01*
X133072510Y-91236686D01*
X132818273Y-91341995D01*
X132589465Y-91494880D01*
X132394880Y-91689465D01*
X132241995Y-91918273D01*
X132136686Y-92172510D01*
X132083000Y-92442408D01*
X130160000Y-92442408D01*
X130160000Y-83814801D01*
X130589236Y-83385565D01*
X132694040Y-83385565D01*
X132761020Y-83625656D01*
X133010048Y-83742756D01*
X133277135Y-83809023D01*
X133552017Y-83821910D01*
X133824133Y-83780922D01*
X134083023Y-83687636D01*
X134198980Y-83625656D01*
X134265960Y-83385565D01*
X165724040Y-83385565D01*
X165791020Y-83625656D01*
X166040048Y-83742756D01*
X166307135Y-83809023D01*
X166582017Y-83821910D01*
X166854133Y-83780922D01*
X167113023Y-83687636D01*
X167228980Y-83625656D01*
X167295960Y-83385565D01*
X166510000Y-82599605D01*
X165724040Y-83385565D01*
X134265960Y-83385565D01*
X133480000Y-82599605D01*
X132694040Y-83385565D01*
X130589236Y-83385565D01*
X132427597Y-81547205D01*
X132514433Y-81634041D01*
X132274344Y-81701020D01*
X132157244Y-81950048D01*
X132090977Y-82217135D01*
X132078090Y-82492017D01*
X132119078Y-82764133D01*
X132212364Y-83023023D01*
X132274344Y-83138980D01*
X132514435Y-83205960D01*
X133300395Y-82420000D01*
X133659605Y-82420000D01*
X134445565Y-83205960D01*
X134685656Y-83138980D01*
X134802756Y-82889952D01*
X134869023Y-82622865D01*
X134875157Y-82492017D01*
X165108090Y-82492017D01*
X165149078Y-82764133D01*
X165242364Y-83023023D01*
X165304344Y-83138980D01*
X165544435Y-83205960D01*
X166330395Y-82420000D01*
X165544435Y-81634040D01*
X165304344Y-81701020D01*
X165187244Y-81950048D01*
X165120977Y-82217135D01*
X165108090Y-82492017D01*
X134875157Y-82492017D01*
X134881910Y-82347983D01*
X134840922Y-82075867D01*
X134747636Y-81816977D01*
X134685656Y-81701020D01*
X134445565Y-81634040D01*
X133659605Y-82420000D01*
X133300395Y-82420000D01*
X133286253Y-82405858D01*
X133465858Y-82226253D01*
X133480000Y-82240395D01*
X134265960Y-81454435D01*
X134198980Y-81214344D01*
X133949952Y-81097244D01*
X133682865Y-81030977D01*
X133407983Y-81018090D01*
X133135867Y-81059078D01*
X132876977Y-81152364D01*
X132761020Y-81214344D01*
X132694041Y-81454433D01*
X132607205Y-81367597D01*
X137501062Y-76473740D01*
X144715000Y-76473740D01*
X144715000Y-76766260D01*
X144772068Y-77053158D01*
X144884010Y-77323411D01*
X145046525Y-77566632D01*
X145253368Y-77773475D01*
X145496589Y-77935990D01*
X145766842Y-78047932D01*
X146053740Y-78105000D01*
X146346260Y-78105000D01*
X146633158Y-78047932D01*
X146903411Y-77935990D01*
X147146632Y-77773475D01*
X147353475Y-77566632D01*
X147470000Y-77392240D01*
X147586525Y-77566632D01*
X147793368Y-77773475D01*
X148036589Y-77935990D01*
X148306842Y-78047932D01*
X148593740Y-78105000D01*
X148886260Y-78105000D01*
X149173158Y-78047932D01*
X149443411Y-77935990D01*
X149686632Y-77773475D01*
X149893475Y-77566632D01*
X150015195Y-77384466D01*
X150084822Y-77501355D01*
X150279731Y-77717588D01*
X150513080Y-77891641D01*
X150775901Y-78016825D01*
X150923110Y-78061476D01*
X151153000Y-77940155D01*
X151153000Y-76747000D01*
X151133000Y-76747000D01*
X151133000Y-76493000D01*
X151153000Y-76493000D01*
X151153000Y-75299845D01*
X151407000Y-75299845D01*
X151407000Y-76493000D01*
X151427000Y-76493000D01*
X151427000Y-76747000D01*
X151407000Y-76747000D01*
X151407000Y-77940155D01*
X151636890Y-78061476D01*
X151784099Y-78016825D01*
X152046920Y-77891641D01*
X152280269Y-77717588D01*
X152356034Y-77633534D01*
X152380498Y-77714180D01*
X152439463Y-77824494D01*
X152518815Y-77921185D01*
X152615506Y-78000537D01*
X152725820Y-78059502D01*
X152845518Y-78095812D01*
X152970000Y-78108072D01*
X154670000Y-78108072D01*
X154794482Y-78095812D01*
X154914180Y-78059502D01*
X155024494Y-78000537D01*
X155121185Y-77921185D01*
X155200537Y-77824494D01*
X155259502Y-77714180D01*
X155295812Y-77594482D01*
X155308072Y-77470000D01*
X155308072Y-77380000D01*
X162003961Y-77380000D01*
X165821834Y-81197874D01*
X165791020Y-81214344D01*
X165724040Y-81454435D01*
X166510000Y-82240395D01*
X166524143Y-82226253D01*
X166703748Y-82405858D01*
X166689605Y-82420000D01*
X167475565Y-83205960D01*
X167715656Y-83138980D01*
X167730779Y-83106819D01*
X169430125Y-84806164D01*
X169416063Y-84820226D01*
X169302795Y-84989744D01*
X169224774Y-85178102D01*
X169185000Y-85378061D01*
X169185000Y-85581939D01*
X169224774Y-85781898D01*
X169302795Y-85970256D01*
X169416063Y-86139774D01*
X169560226Y-86283937D01*
X169729744Y-86397205D01*
X169918102Y-86475226D01*
X170118061Y-86515000D01*
X170321939Y-86515000D01*
X170521898Y-86475226D01*
X170710256Y-86397205D01*
X170879774Y-86283937D01*
X171023937Y-86139774D01*
X171137205Y-85970256D01*
X171215226Y-85781898D01*
X171255000Y-85581939D01*
X171255000Y-85378061D01*
X171215226Y-85178102D01*
X171137205Y-84989744D01*
X171023937Y-84820226D01*
X170980000Y-84776289D01*
X170980000Y-84558561D01*
X170983676Y-84521238D01*
X170980000Y-84483915D01*
X170980000Y-84483905D01*
X170969003Y-84372252D01*
X170925546Y-84228991D01*
X170913014Y-84205546D01*
X170854974Y-84096961D01*
X170783799Y-84010235D01*
X170760001Y-83981237D01*
X170731003Y-83957439D01*
X163973564Y-77200000D01*
X168536807Y-77200000D01*
X168540000Y-77232420D01*
X168540001Y-78767571D01*
X168536807Y-78800000D01*
X168549550Y-78929383D01*
X168587290Y-79053793D01*
X168648575Y-79168450D01*
X168731052Y-79268948D01*
X168831550Y-79351425D01*
X168946207Y-79412710D01*
X169070617Y-79450450D01*
X169167581Y-79460000D01*
X169200000Y-79463193D01*
X169232419Y-79460000D01*
X170540000Y-79460000D01*
X170540001Y-80767571D01*
X170536807Y-80800000D01*
X170549550Y-80929383D01*
X170587290Y-81053793D01*
X170648575Y-81168450D01*
X170731052Y-81268948D01*
X170831550Y-81351425D01*
X170946207Y-81412710D01*
X171070617Y-81450450D01*
X171167581Y-81460000D01*
X171200000Y-81463193D01*
X171232419Y-81460000D01*
X172767581Y-81460000D01*
X172800000Y-81463193D01*
X172832419Y-81460000D01*
X172929383Y-81450450D01*
X173053793Y-81412710D01*
X173168450Y-81351425D01*
X173268948Y-81268948D01*
X173351425Y-81168450D01*
X173412710Y-81053793D01*
X173450450Y-80929383D01*
X173463193Y-80800000D01*
X173460000Y-80767581D01*
X173460000Y-79232419D01*
X173463193Y-79200000D01*
X173450450Y-79070617D01*
X173412710Y-78946207D01*
X173351425Y-78831550D01*
X173268948Y-78731052D01*
X173168450Y-78648575D01*
X173053793Y-78587290D01*
X172929383Y-78549550D01*
X172832419Y-78540000D01*
X172800000Y-78536807D01*
X172767581Y-78540000D01*
X171460000Y-78540000D01*
X171460000Y-77232419D01*
X171463193Y-77200000D01*
X171450450Y-77070617D01*
X171412710Y-76946207D01*
X171351425Y-76831550D01*
X171268948Y-76731052D01*
X171168450Y-76648575D01*
X171053793Y-76587290D01*
X170929383Y-76549550D01*
X170832419Y-76540000D01*
X170800000Y-76536807D01*
X170767581Y-76540000D01*
X169232419Y-76540000D01*
X169200000Y-76536807D01*
X169167581Y-76540000D01*
X169070617Y-76549550D01*
X168946207Y-76587290D01*
X168831550Y-76648575D01*
X168731052Y-76731052D01*
X168648575Y-76831550D01*
X168587290Y-76946207D01*
X168549550Y-77070617D01*
X168536807Y-77200000D01*
X163973564Y-77200000D01*
X162882566Y-76109003D01*
X162858763Y-76079999D01*
X162743038Y-75985026D01*
X162611009Y-75914454D01*
X162467748Y-75870997D01*
X162356095Y-75860000D01*
X162356084Y-75860000D01*
X162318762Y-75856324D01*
X162281440Y-75860000D01*
X155308072Y-75860000D01*
X155308072Y-75770000D01*
X155295812Y-75645518D01*
X155259502Y-75525820D01*
X155200537Y-75415506D01*
X155121185Y-75318815D01*
X155024494Y-75239463D01*
X154914180Y-75180498D01*
X154794482Y-75144188D01*
X154670000Y-75131928D01*
X152970000Y-75131928D01*
X152845518Y-75144188D01*
X152725820Y-75180498D01*
X152615506Y-75239463D01*
X152518815Y-75318815D01*
X152439463Y-75415506D01*
X152380498Y-75525820D01*
X152356034Y-75606466D01*
X152280269Y-75522412D01*
X152046920Y-75348359D01*
X151784099Y-75223175D01*
X151636890Y-75178524D01*
X151407000Y-75299845D01*
X151153000Y-75299845D01*
X150923110Y-75178524D01*
X150775901Y-75223175D01*
X150513080Y-75348359D01*
X150279731Y-75522412D01*
X150084822Y-75738645D01*
X150015195Y-75855534D01*
X149893475Y-75673368D01*
X149686632Y-75466525D01*
X149443411Y-75304010D01*
X149173158Y-75192068D01*
X148886260Y-75135000D01*
X148593740Y-75135000D01*
X148306842Y-75192068D01*
X148036589Y-75304010D01*
X147793368Y-75466525D01*
X147586525Y-75673368D01*
X147470000Y-75847760D01*
X147353475Y-75673368D01*
X147146632Y-75466525D01*
X146903411Y-75304010D01*
X146633158Y-75192068D01*
X146346260Y-75135000D01*
X146053740Y-75135000D01*
X145766842Y-75192068D01*
X145496589Y-75304010D01*
X145253368Y-75466525D01*
X145046525Y-75673368D01*
X144884010Y-75916589D01*
X144772068Y-76186842D01*
X144715000Y-76473740D01*
X137501062Y-76473740D01*
X139011009Y-74963793D01*
X139040001Y-74940001D01*
X139063795Y-74911008D01*
X139063799Y-74911004D01*
X139134973Y-74824277D01*
X139134974Y-74824276D01*
X139191844Y-74717881D01*
X139390535Y-74585120D01*
X139510090Y-74465565D01*
X160714040Y-74465565D01*
X160781020Y-74705656D01*
X161030048Y-74822756D01*
X161297135Y-74889023D01*
X161572017Y-74901910D01*
X161844133Y-74860922D01*
X162103023Y-74767636D01*
X162218980Y-74705656D01*
X162285960Y-74465565D01*
X161500000Y-73679605D01*
X160714040Y-74465565D01*
X139510090Y-74465565D01*
X139585120Y-74390535D01*
X139738005Y-74161727D01*
X139843314Y-73907490D01*
X139897000Y-73637592D01*
X139897000Y-73572017D01*
X160098090Y-73572017D01*
X160139078Y-73844133D01*
X160232364Y-74103023D01*
X160294344Y-74218980D01*
X160534435Y-74285960D01*
X161320395Y-73500000D01*
X161679605Y-73500000D01*
X162465565Y-74285960D01*
X162705656Y-74218980D01*
X162822756Y-73969952D01*
X162889023Y-73702865D01*
X162901910Y-73427983D01*
X162860922Y-73155867D01*
X162767636Y-72896977D01*
X162705656Y-72781020D01*
X162465565Y-72714040D01*
X161679605Y-73500000D01*
X161320395Y-73500000D01*
X160534435Y-72714040D01*
X160294344Y-72781020D01*
X160177244Y-73030048D01*
X160110977Y-73297135D01*
X160098090Y-73572017D01*
X139897000Y-73572017D01*
X139897000Y-73362408D01*
X139843314Y-73092510D01*
X139738005Y-72838273D01*
X139585120Y-72609465D01*
X139390535Y-72414880D01*
X139187094Y-72278945D01*
X140643631Y-70822408D01*
X160103000Y-70822408D01*
X160103000Y-71097592D01*
X160156686Y-71367490D01*
X160261995Y-71621727D01*
X160414880Y-71850535D01*
X160609465Y-72045120D01*
X160838273Y-72198005D01*
X160909943Y-72227692D01*
X160896977Y-72232364D01*
X160781020Y-72294344D01*
X160714040Y-72534435D01*
X161500000Y-73320395D01*
X162285960Y-72534435D01*
X162218980Y-72294344D01*
X162083240Y-72230515D01*
X162161727Y-72198005D01*
X162390535Y-72045120D01*
X162585120Y-71850535D01*
X162738005Y-71621727D01*
X162843314Y-71367490D01*
X162897000Y-71097592D01*
X162897000Y-70822408D01*
X162843314Y-70552510D01*
X162738005Y-70298273D01*
X162585120Y-70069465D01*
X162390535Y-69874880D01*
X162161727Y-69721995D01*
X161907490Y-69616686D01*
X161637592Y-69563000D01*
X161362408Y-69563000D01*
X161092510Y-69616686D01*
X160838273Y-69721995D01*
X160609465Y-69874880D01*
X160414880Y-70069465D01*
X160261995Y-70298273D01*
X160156686Y-70552510D01*
X160103000Y-70822408D01*
X140643631Y-70822408D01*
X148666040Y-62800000D01*
X160327659Y-62800000D01*
X160414880Y-62930535D01*
X160609465Y-63125120D01*
X160838273Y-63278005D01*
X161092510Y-63383314D01*
X161362408Y-63437000D01*
X161637592Y-63437000D01*
X161907490Y-63383314D01*
X162161727Y-63278005D01*
X162390535Y-63125120D01*
X162585120Y-62930535D01*
X162738005Y-62701727D01*
X162843314Y-62447490D01*
X162897000Y-62177592D01*
X162897000Y-61902408D01*
X162879483Y-61814344D01*
X176115000Y-61814344D01*
X176115000Y-62185656D01*
X176187439Y-62549834D01*
X176329534Y-62892882D01*
X176535825Y-63201618D01*
X176798382Y-63464175D01*
X177107118Y-63670466D01*
X177450166Y-63812561D01*
X177814344Y-63885000D01*
X178185656Y-63885000D01*
X178549834Y-63812561D01*
X178892882Y-63670466D01*
X179201618Y-63464175D01*
X179464175Y-63201618D01*
X179670466Y-62892882D01*
X179812561Y-62549834D01*
X179885000Y-62185656D01*
X179885000Y-61814344D01*
X179812561Y-61450166D01*
X179670466Y-61107118D01*
X179464175Y-60798382D01*
X179201618Y-60535825D01*
X178892882Y-60329534D01*
X178549834Y-60187439D01*
X178185656Y-60115000D01*
X177814344Y-60115000D01*
X177450166Y-60187439D01*
X177107118Y-60329534D01*
X176798382Y-60535825D01*
X176535825Y-60798382D01*
X176329534Y-61107118D01*
X176187439Y-61450166D01*
X176115000Y-61814344D01*
X162879483Y-61814344D01*
X162843314Y-61632510D01*
X162738005Y-61378273D01*
X162585120Y-61149465D01*
X162390535Y-60954880D01*
X162161727Y-60801995D01*
X162084485Y-60770000D01*
X162161727Y-60738005D01*
X162390535Y-60585120D01*
X162585120Y-60390535D01*
X162738005Y-60161727D01*
X162843314Y-59907490D01*
X162897000Y-59637592D01*
X162897000Y-59562845D01*
X190616761Y-59562845D01*
X190784802Y-59888643D01*
X191176607Y-60089426D01*
X191600055Y-60209914D01*
X192038873Y-60245476D01*
X192476197Y-60194746D01*
X192895221Y-60059674D01*
X193215198Y-59888643D01*
X193383239Y-59562845D01*
X192000000Y-58179605D01*
X190616761Y-59562845D01*
X162897000Y-59562845D01*
X162897000Y-59362408D01*
X162843314Y-59092510D01*
X162738005Y-58838273D01*
X162585120Y-58609465D01*
X162390535Y-58414880D01*
X162161727Y-58261995D01*
X161907490Y-58156686D01*
X161637592Y-58103000D01*
X161362408Y-58103000D01*
X161092510Y-58156686D01*
X160838273Y-58261995D01*
X160609465Y-58414880D01*
X160414880Y-58609465D01*
X160261995Y-58838273D01*
X160156686Y-59092510D01*
X160103000Y-59362408D01*
X160103000Y-59637592D01*
X160156686Y-59907490D01*
X160261995Y-60161727D01*
X160414880Y-60390535D01*
X160609465Y-60585120D01*
X160838273Y-60738005D01*
X160915515Y-60770000D01*
X160838273Y-60801995D01*
X160609465Y-60954880D01*
X160414880Y-61149465D01*
X160327659Y-61280000D01*
X148388560Y-61280000D01*
X148351237Y-61276324D01*
X148313914Y-61280000D01*
X148313905Y-61280000D01*
X148202252Y-61290997D01*
X148058991Y-61334454D01*
X147926961Y-61405026D01*
X147843321Y-61473668D01*
X147811237Y-61499999D01*
X147787439Y-61528997D01*
X136538998Y-72777439D01*
X136510000Y-72801237D01*
X136486202Y-72830235D01*
X136486201Y-72830236D01*
X136415026Y-72916962D01*
X136344454Y-73048992D01*
X136300998Y-73192253D01*
X136286324Y-73341238D01*
X136290001Y-73378570D01*
X136290000Y-74185198D01*
X131402725Y-79072473D01*
X131412710Y-79053793D01*
X131450450Y-78929383D01*
X131463193Y-78800000D01*
X131460000Y-78767581D01*
X131460000Y-77232419D01*
X131463193Y-77200000D01*
X131450450Y-77070617D01*
X131412710Y-76946207D01*
X131351425Y-76831550D01*
X131268948Y-76731052D01*
X131168450Y-76648575D01*
X131053793Y-76587290D01*
X130929383Y-76549550D01*
X130832419Y-76540000D01*
X130800000Y-76536807D01*
X130767581Y-76540000D01*
X129232419Y-76540000D01*
X129200000Y-76536807D01*
X129167581Y-76540000D01*
X129070617Y-76549550D01*
X128946207Y-76587290D01*
X128831550Y-76648575D01*
X128731052Y-76731052D01*
X128648575Y-76831550D01*
X128587290Y-76946207D01*
X128549550Y-77070617D01*
X128536807Y-77200000D01*
X128540000Y-77232420D01*
X128540001Y-78540000D01*
X127232419Y-78540000D01*
X127200000Y-78536807D01*
X127167581Y-78540000D01*
X127070617Y-78549550D01*
X126946207Y-78587290D01*
X126831550Y-78648575D01*
X126731052Y-78731052D01*
X126648575Y-78831550D01*
X126587290Y-78946207D01*
X126549550Y-79070617D01*
X126536807Y-79200000D01*
X126540000Y-79232420D01*
X126540001Y-80767571D01*
X126536807Y-80800000D01*
X126549550Y-80929383D01*
X126587290Y-81053793D01*
X126648575Y-81168450D01*
X126731052Y-81268948D01*
X126831550Y-81351425D01*
X126946207Y-81412710D01*
X127070617Y-81450450D01*
X127167581Y-81460000D01*
X127200000Y-81463193D01*
X127232419Y-81460000D01*
X128767581Y-81460000D01*
X128800000Y-81463193D01*
X128832419Y-81460000D01*
X128929383Y-81450450D01*
X129053793Y-81412710D01*
X129072474Y-81402725D01*
X128089002Y-82386197D01*
X128059999Y-82409999D01*
X127965026Y-82525724D01*
X127894454Y-82657753D01*
X127850997Y-82801014D01*
X127840000Y-82912667D01*
X127840000Y-82912678D01*
X127836324Y-82950000D01*
X127840000Y-82987322D01*
X127840000Y-83337332D01*
X127840001Y-83337342D01*
X127840000Y-115985197D01*
X121714002Y-122111196D01*
X121713997Y-122111201D01*
X121576624Y-122248575D01*
X121488998Y-122336201D01*
X121460000Y-122359999D01*
X121436202Y-122388997D01*
X121436201Y-122388998D01*
X121365026Y-122475724D01*
X121294454Y-122607754D01*
X121274056Y-122675000D01*
X121250998Y-122751014D01*
X121241249Y-122850000D01*
X121236324Y-122900000D01*
X121240001Y-122937332D01*
X121240000Y-128962667D01*
X121240000Y-132018850D01*
X120947683Y-132175097D01*
X120660655Y-132410655D01*
X120425097Y-132697683D01*
X120250061Y-133025153D01*
X120142275Y-133380477D01*
X120115000Y-133657404D01*
X103660000Y-133657404D01*
X103660000Y-70598061D01*
X120235000Y-70598061D01*
X120235000Y-70801939D01*
X120274774Y-71001898D01*
X120352795Y-71190256D01*
X120466063Y-71359774D01*
X120610226Y-71503937D01*
X120779744Y-71617205D01*
X120968102Y-71695226D01*
X121168061Y-71735000D01*
X121371939Y-71735000D01*
X121571898Y-71695226D01*
X121760256Y-71617205D01*
X121929774Y-71503937D01*
X121973711Y-71460000D01*
X124866289Y-71460000D01*
X124930226Y-71523937D01*
X125099744Y-71637205D01*
X125288102Y-71715226D01*
X125488061Y-71755000D01*
X125691939Y-71755000D01*
X125891898Y-71715226D01*
X126080256Y-71637205D01*
X126249774Y-71523937D01*
X126393937Y-71379774D01*
X126507205Y-71210256D01*
X126585226Y-71021898D01*
X126625000Y-70821939D01*
X126625000Y-70618061D01*
X126585226Y-70418102D01*
X126507205Y-70229744D01*
X126393937Y-70060226D01*
X126249774Y-69916063D01*
X126080256Y-69802795D01*
X125891898Y-69724774D01*
X125691939Y-69685000D01*
X125488061Y-69685000D01*
X125288102Y-69724774D01*
X125099744Y-69802795D01*
X124930226Y-69916063D01*
X124906289Y-69940000D01*
X121973711Y-69940000D01*
X121929774Y-69896063D01*
X121760256Y-69782795D01*
X121571898Y-69704774D01*
X121371939Y-69665000D01*
X121168061Y-69665000D01*
X120968102Y-69704774D01*
X120779744Y-69782795D01*
X120610226Y-69896063D01*
X120466063Y-70040226D01*
X120352795Y-70209744D01*
X120274774Y-70398102D01*
X120235000Y-70598061D01*
X103660000Y-70598061D01*
X103660000Y-61814344D01*
X120115000Y-61814344D01*
X120115000Y-62185656D01*
X120187439Y-62549834D01*
X120329534Y-62892882D01*
X120535825Y-63201618D01*
X120798382Y-63464175D01*
X121107118Y-63670466D01*
X121450166Y-63812561D01*
X121814344Y-63885000D01*
X122185656Y-63885000D01*
X122549834Y-63812561D01*
X122892882Y-63670466D01*
X123201618Y-63464175D01*
X123464175Y-63201618D01*
X123670466Y-62892882D01*
X123812561Y-62549834D01*
X123885000Y-62185656D01*
X123885000Y-61814344D01*
X123812561Y-61450166D01*
X123670466Y-61107118D01*
X123464175Y-60798382D01*
X123201618Y-60535825D01*
X123096467Y-60465565D01*
X137714040Y-60465565D01*
X137781020Y-60705656D01*
X138030048Y-60822756D01*
X138297135Y-60889023D01*
X138572017Y-60901910D01*
X138844133Y-60860922D01*
X139103023Y-60767636D01*
X139218980Y-60705656D01*
X139285960Y-60465565D01*
X138500000Y-59679605D01*
X137714040Y-60465565D01*
X123096467Y-60465565D01*
X122892882Y-60329534D01*
X122549834Y-60187439D01*
X122185656Y-60115000D01*
X121814344Y-60115000D01*
X121450166Y-60187439D01*
X121107118Y-60329534D01*
X120798382Y-60535825D01*
X120535825Y-60798382D01*
X120329534Y-61107118D01*
X120187439Y-61450166D01*
X120115000Y-61814344D01*
X103660000Y-61814344D01*
X103660000Y-59562845D01*
X106616761Y-59562845D01*
X106784802Y-59888643D01*
X107176607Y-60089426D01*
X107600055Y-60209914D01*
X108038873Y-60245476D01*
X108476197Y-60194746D01*
X108895221Y-60059674D01*
X109215198Y-59888643D01*
X109378508Y-59572017D01*
X137098090Y-59572017D01*
X137139078Y-59844133D01*
X137232364Y-60103023D01*
X137294344Y-60218980D01*
X137534435Y-60285960D01*
X138320395Y-59500000D01*
X138679605Y-59500000D01*
X139465565Y-60285960D01*
X139705656Y-60218980D01*
X139822756Y-59969952D01*
X139889023Y-59702865D01*
X139901910Y-59427983D01*
X139860922Y-59155867D01*
X139767636Y-58896977D01*
X139705656Y-58781020D01*
X139465565Y-58714040D01*
X138679605Y-59500000D01*
X138320395Y-59500000D01*
X137534435Y-58714040D01*
X137294344Y-58781020D01*
X137177244Y-59030048D01*
X137110977Y-59297135D01*
X137098090Y-59572017D01*
X109378508Y-59572017D01*
X109383239Y-59562845D01*
X108000000Y-58179605D01*
X106616761Y-59562845D01*
X103660000Y-59562845D01*
X103660000Y-58038873D01*
X105754524Y-58038873D01*
X105805254Y-58476197D01*
X105940326Y-58895221D01*
X106111357Y-59215198D01*
X106437155Y-59383239D01*
X107820395Y-58000000D01*
X108179605Y-58000000D01*
X109562845Y-59383239D01*
X109888643Y-59215198D01*
X110089426Y-58823393D01*
X110171646Y-58534435D01*
X137714040Y-58534435D01*
X138500000Y-59320395D01*
X139285960Y-58534435D01*
X139218980Y-58294344D01*
X138969952Y-58177244D01*
X138702865Y-58110977D01*
X138427983Y-58098090D01*
X138155867Y-58139078D01*
X137896977Y-58232364D01*
X137781020Y-58294344D01*
X137714040Y-58534435D01*
X110171646Y-58534435D01*
X110209914Y-58399945D01*
X110239175Y-58038873D01*
X189754524Y-58038873D01*
X189805254Y-58476197D01*
X189940326Y-58895221D01*
X190111357Y-59215198D01*
X190437155Y-59383239D01*
X191820395Y-58000000D01*
X192179605Y-58000000D01*
X193562845Y-59383239D01*
X193888643Y-59215198D01*
X194089426Y-58823393D01*
X194209914Y-58399945D01*
X194245476Y-57961127D01*
X194194746Y-57523803D01*
X194059674Y-57104779D01*
X193888643Y-56784802D01*
X193562845Y-56616761D01*
X192179605Y-58000000D01*
X191820395Y-58000000D01*
X190437155Y-56616761D01*
X190111357Y-56784802D01*
X189910574Y-57176607D01*
X189790086Y-57600055D01*
X189754524Y-58038873D01*
X110239175Y-58038873D01*
X110245476Y-57961127D01*
X110194746Y-57523803D01*
X110059674Y-57104779D01*
X109888643Y-56784802D01*
X109562845Y-56616761D01*
X108179605Y-58000000D01*
X107820395Y-58000000D01*
X106437155Y-56616761D01*
X106111357Y-56784802D01*
X105910574Y-57176607D01*
X105790086Y-57600055D01*
X105754524Y-58038873D01*
X103660000Y-58038873D01*
X103660000Y-56437155D01*
X106616761Y-56437155D01*
X108000000Y-57820395D01*
X109383239Y-56437155D01*
X190616761Y-56437155D01*
X192000000Y-57820395D01*
X193383239Y-56437155D01*
X193215198Y-56111357D01*
X192823393Y-55910574D01*
X192399945Y-55790086D01*
X191961127Y-55754524D01*
X191523803Y-55805254D01*
X191104779Y-55940326D01*
X190784802Y-56111357D01*
X190616761Y-56437155D01*
X109383239Y-56437155D01*
X109215198Y-56111357D01*
X108823393Y-55910574D01*
X108399945Y-55790086D01*
X107961127Y-55754524D01*
X107523803Y-55805254D01*
X107104779Y-55940326D01*
X106784802Y-56111357D01*
X106616761Y-56437155D01*
X103660000Y-56437155D01*
X103660000Y-55032279D01*
X103688625Y-54740341D01*
X103764035Y-54490571D01*
X103886522Y-54260208D01*
X104051422Y-54058020D01*
X104252450Y-53891714D01*
X104481954Y-53767622D01*
X104731195Y-53690469D01*
X105021088Y-53660000D01*
X134167581Y-53660000D01*
X134200000Y-53663193D01*
X134232419Y-53660000D01*
X134259925Y-53657291D01*
X134329383Y-53650450D01*
X134453793Y-53612710D01*
X134568450Y-53551425D01*
X134668948Y-53468948D01*
X134751425Y-53368450D01*
X134812710Y-53253793D01*
X134850450Y-53129383D01*
X134860000Y-53032419D01*
X134860000Y-53032418D01*
X134863193Y-53000000D01*
X134860000Y-52967581D01*
X134860000Y-52060000D01*
X135140001Y-52060000D01*
X135140000Y-52967580D01*
G37*
X135140000Y-52967580D02*
X135136807Y-53000000D01*
X135149550Y-53129383D01*
X135187290Y-53253793D01*
X135248575Y-53368450D01*
X135316855Y-53451649D01*
X135331052Y-53468948D01*
X135431550Y-53551425D01*
X135546207Y-53612710D01*
X135670617Y-53650450D01*
X135800000Y-53663193D01*
X135832419Y-53660000D01*
X164167581Y-53660000D01*
X164200000Y-53663193D01*
X164232419Y-53660000D01*
X164329383Y-53650450D01*
X164453793Y-53612710D01*
X164568450Y-53551425D01*
X164668948Y-53468948D01*
X164751425Y-53368450D01*
X164812710Y-53253793D01*
X164850450Y-53129383D01*
X164863193Y-53000000D01*
X164860000Y-52967581D01*
X164860000Y-52060000D01*
X165140000Y-52060000D01*
X165140001Y-52967571D01*
X165136807Y-53000000D01*
X165149550Y-53129383D01*
X165187290Y-53253793D01*
X165248575Y-53368450D01*
X165331052Y-53468948D01*
X165431550Y-53551425D01*
X165546207Y-53612710D01*
X165670617Y-53650450D01*
X165767581Y-53660000D01*
X165800000Y-53663193D01*
X165832419Y-53660000D01*
X194967721Y-53660000D01*
X195259659Y-53688625D01*
X195509429Y-53764035D01*
X195739792Y-53886522D01*
X195941980Y-54051422D01*
X196108286Y-54252450D01*
X196232378Y-54481954D01*
X196309531Y-54731195D01*
X196340000Y-55021088D01*
X196340001Y-144967711D01*
X196311375Y-145259660D01*
X196235965Y-145509429D01*
X196113477Y-145739794D01*
X195948579Y-145941979D01*
X195747546Y-146108288D01*
X195518046Y-146232378D01*
X195268805Y-146309531D01*
X194978911Y-146340000D01*
X165832419Y-146340000D01*
X165800000Y-146336807D01*
X165684080Y-146348224D01*
X165670617Y-146349550D01*
X165546207Y-146387290D01*
X165431550Y-146448575D01*
X165331052Y-146531052D01*
X165248575Y-146631550D01*
X165187290Y-146746207D01*
X165149550Y-146870617D01*
X165136807Y-147000000D01*
X165140000Y-147032420D01*
X165140001Y-147940000D01*
X164860000Y-147940000D01*
X164860000Y-147032419D01*
X164863193Y-147000000D01*
X164850450Y-146870617D01*
X164812710Y-146746207D01*
X164751425Y-146631550D01*
X164668948Y-146531052D01*
X164568450Y-146448575D01*
X164453793Y-146387290D01*
X164329383Y-146349550D01*
X164315920Y-146348224D01*
X164200000Y-146336807D01*
X164167581Y-146340000D01*
X135832419Y-146340000D01*
X135800000Y-146336807D01*
X135767581Y-146340000D01*
X135670617Y-146349550D01*
X135546207Y-146387290D01*
X135431550Y-146448575D01*
X135331052Y-146531052D01*
X135248575Y-146631550D01*
X135187290Y-146746207D01*
X135149550Y-146870617D01*
X135136807Y-147000000D01*
X135140001Y-147032429D01*
X135140000Y-147940000D01*
X134860000Y-147940000D01*
X134860000Y-147032419D01*
X134863193Y-147000000D01*
X134850450Y-146870617D01*
X134812710Y-146746207D01*
X134751425Y-146631550D01*
X134668948Y-146531052D01*
X134568450Y-146448575D01*
X134453793Y-146387290D01*
X134329383Y-146349550D01*
X134232419Y-146340000D01*
X134200000Y-146336807D01*
X134167581Y-146340000D01*
X105032279Y-146340000D01*
X104740340Y-146311375D01*
X104490571Y-146235965D01*
X104260206Y-146113477D01*
X104058021Y-145948579D01*
X103891712Y-145747546D01*
X103767622Y-145518046D01*
X103690469Y-145268805D01*
X103660000Y-144978911D01*
X103660000Y-143562845D01*
X106616761Y-143562845D01*
X106784802Y-143888643D01*
X107176607Y-144089426D01*
X107600055Y-144209914D01*
X108038873Y-144245476D01*
X108476197Y-144194746D01*
X108895221Y-144059674D01*
X109215198Y-143888643D01*
X109383239Y-143562845D01*
X190616761Y-143562845D01*
X190784802Y-143888643D01*
X191176607Y-144089426D01*
X191600055Y-144209914D01*
X192038873Y-144245476D01*
X192476197Y-144194746D01*
X192895221Y-144059674D01*
X193215198Y-143888643D01*
X193383239Y-143562845D01*
X192000000Y-142179605D01*
X190616761Y-143562845D01*
X109383239Y-143562845D01*
X108000000Y-142179605D01*
X106616761Y-143562845D01*
X103660000Y-143562845D01*
X103660000Y-142038873D01*
X105754524Y-142038873D01*
X105805254Y-142476197D01*
X105940326Y-142895221D01*
X106111357Y-143215198D01*
X106437155Y-143383239D01*
X107820395Y-142000000D01*
X108179605Y-142000000D01*
X109562845Y-143383239D01*
X109888643Y-143215198D01*
X110089426Y-142823393D01*
X110209914Y-142399945D01*
X110239175Y-142038873D01*
X189754524Y-142038873D01*
X189805254Y-142476197D01*
X189940326Y-142895221D01*
X190111357Y-143215198D01*
X190437155Y-143383239D01*
X191820395Y-142000000D01*
X192179605Y-142000000D01*
X193562845Y-143383239D01*
X193888643Y-143215198D01*
X194089426Y-142823393D01*
X194209914Y-142399945D01*
X194245476Y-141961127D01*
X194194746Y-141523803D01*
X194059674Y-141104779D01*
X193888643Y-140784802D01*
X193562845Y-140616761D01*
X192179605Y-142000000D01*
X191820395Y-142000000D01*
X190437155Y-140616761D01*
X190111357Y-140784802D01*
X189910574Y-141176607D01*
X189790086Y-141600055D01*
X189754524Y-142038873D01*
X110239175Y-142038873D01*
X110245476Y-141961127D01*
X110194746Y-141523803D01*
X110059674Y-141104779D01*
X109888643Y-140784802D01*
X109562845Y-140616761D01*
X108179605Y-142000000D01*
X107820395Y-142000000D01*
X106437155Y-140616761D01*
X106111357Y-140784802D01*
X105910574Y-141176607D01*
X105790086Y-141600055D01*
X105754524Y-142038873D01*
X103660000Y-142038873D01*
X103660000Y-140437155D01*
X106616761Y-140437155D01*
X108000000Y-141820395D01*
X109383239Y-140437155D01*
X190616761Y-140437155D01*
X192000000Y-141820395D01*
X193383239Y-140437155D01*
X193215198Y-140111357D01*
X192823393Y-139910574D01*
X192399945Y-139790086D01*
X191961127Y-139754524D01*
X191523803Y-139805254D01*
X191104779Y-139940326D01*
X190784802Y-140111357D01*
X190616761Y-140437155D01*
X109383239Y-140437155D01*
X109215198Y-140111357D01*
X108823393Y-139910574D01*
X108399945Y-139790086D01*
X107961127Y-139754524D01*
X107523803Y-139805254D01*
X107104779Y-139940326D01*
X106784802Y-140111357D01*
X106616761Y-140437155D01*
X103660000Y-140437155D01*
X103660000Y-133657404D01*
X120115000Y-133657404D01*
X120115001Y-137342597D01*
X120142276Y-137619524D01*
X120250062Y-137974848D01*
X120425098Y-138302317D01*
X120660656Y-138589345D01*
X120947684Y-138824903D01*
X121275153Y-138999939D01*
X121630477Y-139107725D01*
X122000000Y-139144120D01*
X122369524Y-139107725D01*
X122724848Y-138999939D01*
X123052317Y-138824903D01*
X123339345Y-138589345D01*
X123574903Y-138302317D01*
X123749939Y-137974848D01*
X123857725Y-137619524D01*
X123885000Y-137342597D01*
X123885000Y-133657404D01*
X176115000Y-133657404D01*
X176115001Y-137342597D01*
X176142276Y-137619524D01*
X176250062Y-137974848D01*
X176425098Y-138302317D01*
X176660656Y-138589345D01*
X176947684Y-138824903D01*
X177275153Y-138999939D01*
X177630477Y-139107725D01*
X178000000Y-139144120D01*
X178369524Y-139107725D01*
X178724848Y-138999939D01*
X179052317Y-138824903D01*
X179339345Y-138589345D01*
X179574903Y-138302317D01*
X179749939Y-137974848D01*
X179857725Y-137619524D01*
X179885000Y-137342597D01*
X179885000Y-133657403D01*
X179857725Y-133380476D01*
X179749939Y-133025152D01*
X179574903Y-132697683D01*
X179339345Y-132410655D01*
X179052317Y-132175097D01*
X178724847Y-132000061D01*
X178369523Y-131892275D01*
X178000000Y-131855880D01*
X177630476Y-131892275D01*
X177275152Y-132000061D01*
X176947683Y-132175097D01*
X176660655Y-132410655D01*
X176425097Y-132697683D01*
X176250061Y-133025153D01*
X176142275Y-133380477D01*
X176115000Y-133657404D01*
X123885000Y-133657404D01*
X123885000Y-133657403D01*
X123857725Y-133380476D01*
X123749939Y-133025152D01*
X123574903Y-132697683D01*
X123339345Y-132410655D01*
X123052317Y-132175097D01*
X122760000Y-132018851D01*
X122760000Y-123214802D01*
X126540000Y-119434802D01*
X126540001Y-120767571D01*
X126536807Y-120800000D01*
X126549550Y-120929383D01*
X126587290Y-121053793D01*
X126648575Y-121168450D01*
X126731052Y-121268948D01*
X126831550Y-121351425D01*
X126946207Y-121412710D01*
X127070617Y-121450450D01*
X127167581Y-121460000D01*
X127200000Y-121463193D01*
X127232419Y-121460000D01*
X128540000Y-121460000D01*
X128540001Y-122767571D01*
X128536807Y-122800000D01*
X128549550Y-122929383D01*
X128587290Y-123053793D01*
X128648575Y-123168450D01*
X128731052Y-123268948D01*
X128831550Y-123351425D01*
X128946207Y-123412710D01*
X129070617Y-123450450D01*
X129167581Y-123460000D01*
X129200000Y-123463193D01*
X129232419Y-123460000D01*
X130767581Y-123460000D01*
X130800000Y-123463193D01*
X130832419Y-123460000D01*
X130929383Y-123450450D01*
X131053793Y-123412710D01*
X131168450Y-123351425D01*
X131268948Y-123268948D01*
X131351425Y-123168450D01*
X131412710Y-123053793D01*
X131450450Y-122929383D01*
X131463193Y-122800000D01*
X131460000Y-122767581D01*
X131460000Y-121232419D01*
X131463193Y-121200000D01*
X131450450Y-121070617D01*
X131412710Y-120946207D01*
X131351425Y-120831550D01*
X131268948Y-120731052D01*
X131168450Y-120648575D01*
X131053793Y-120587290D01*
X130929383Y-120549550D01*
X130832419Y-120540000D01*
X130800000Y-120536807D01*
X130767581Y-120540000D01*
X129460000Y-120540000D01*
X129460000Y-119232419D01*
X129463193Y-119200000D01*
X129450450Y-119070617D01*
X129412710Y-118946207D01*
X129351425Y-118831550D01*
X129268948Y-118731052D01*
X129168450Y-118648575D01*
X129053793Y-118587290D01*
X128929383Y-118549550D01*
X128832419Y-118540000D01*
X128800000Y-118536807D01*
X128767581Y-118540000D01*
X127434802Y-118540000D01*
X129000001Y-116974802D01*
X135040001Y-123014803D01*
X135040000Y-128762677D01*
X135036324Y-128800000D01*
X135040000Y-128837322D01*
X135040000Y-128837332D01*
X135050997Y-128948985D01*
X135084582Y-129059701D01*
X135094454Y-129092246D01*
X135165026Y-129224276D01*
X135178176Y-129240299D01*
X135259999Y-129340001D01*
X135289003Y-129363804D01*
X136856201Y-130931003D01*
X136879999Y-130960001D01*
X136908997Y-130983799D01*
X136995723Y-131054974D01*
X137127753Y-131125546D01*
X137212474Y-131151245D01*
X137377688Y-131398505D01*
X137591495Y-131612312D01*
X137842905Y-131780299D01*
X138122257Y-131896011D01*
X138418816Y-131955000D01*
X138721184Y-131955000D01*
X139017743Y-131896011D01*
X139297095Y-131780299D01*
X139548505Y-131612312D01*
X139762312Y-131398505D01*
X139930299Y-131147095D01*
X140046011Y-130867743D01*
X140105000Y-130571184D01*
X140105000Y-130268816D01*
X140046011Y-129972257D01*
X139930299Y-129692905D01*
X139762312Y-129441495D01*
X139548505Y-129227688D01*
X139394895Y-129125049D01*
X139454475Y-128944080D01*
X138570000Y-128059605D01*
X137685525Y-128944080D01*
X137745105Y-129125049D01*
X137591495Y-129227688D01*
X137446992Y-129372191D01*
X136560000Y-128485199D01*
X136560000Y-127946553D01*
X137029009Y-127946553D01*
X137071603Y-128245907D01*
X137171778Y-128531199D01*
X137251739Y-128680792D01*
X137505920Y-128764475D01*
X138390395Y-127880000D01*
X138749605Y-127880000D01*
X139634080Y-128764475D01*
X139888261Y-128680792D01*
X140019158Y-128408225D01*
X140094365Y-128115358D01*
X140110991Y-127813447D01*
X140068397Y-127514093D01*
X139968222Y-127228801D01*
X139888261Y-127079208D01*
X139634080Y-126995525D01*
X138749605Y-127880000D01*
X138390395Y-127880000D01*
X137505920Y-126995525D01*
X137251739Y-127079208D01*
X137120842Y-127351775D01*
X137045635Y-127644642D01*
X137029009Y-127946553D01*
X136560000Y-127946553D01*
X136560000Y-122737323D01*
X136563676Y-122700000D01*
X136560000Y-122662677D01*
X136560000Y-122662667D01*
X136549003Y-122551014D01*
X136505546Y-122407753D01*
X136434974Y-122275724D01*
X136340001Y-122159999D01*
X136311003Y-122136201D01*
X130160000Y-115985199D01*
X130160000Y-112488816D01*
X137035000Y-112488816D01*
X137035000Y-112791184D01*
X137093989Y-113087743D01*
X137209701Y-113367095D01*
X137377688Y-113618505D01*
X137591495Y-113832312D01*
X137707763Y-113910000D01*
X137591495Y-113987688D01*
X137377688Y-114201495D01*
X137209701Y-114452905D01*
X137093989Y-114732257D01*
X137035000Y-115028816D01*
X137035000Y-115331184D01*
X137093989Y-115627743D01*
X137209701Y-115907095D01*
X137377688Y-116158505D01*
X137591495Y-116372312D01*
X137707763Y-116450000D01*
X137591495Y-116527688D01*
X137377688Y-116741495D01*
X137209701Y-116992905D01*
X137093989Y-117272257D01*
X137035000Y-117568816D01*
X137035000Y-117871184D01*
X137093989Y-118167743D01*
X137209701Y-118447095D01*
X137377688Y-118698505D01*
X137591495Y-118912312D01*
X137707763Y-118990000D01*
X137591495Y-119067688D01*
X137377688Y-119281495D01*
X137209701Y-119532905D01*
X137093989Y-119812257D01*
X137035000Y-120108816D01*
X137035000Y-120411184D01*
X137093989Y-120707743D01*
X137209701Y-120987095D01*
X137377688Y-121238505D01*
X137591495Y-121452312D01*
X137707763Y-121530000D01*
X137591495Y-121607688D01*
X137377688Y-121821495D01*
X137209701Y-122072905D01*
X137093989Y-122352257D01*
X137035000Y-122648816D01*
X137035000Y-122951184D01*
X137093989Y-123247743D01*
X137209701Y-123527095D01*
X137377688Y-123778505D01*
X137591495Y-123992312D01*
X137707763Y-124070000D01*
X137591495Y-124147688D01*
X137377688Y-124361495D01*
X137209701Y-124612905D01*
X137093989Y-124892257D01*
X137035000Y-125188816D01*
X137035000Y-125491184D01*
X137093989Y-125787743D01*
X137209701Y-126067095D01*
X137377688Y-126318505D01*
X137591495Y-126532312D01*
X137745105Y-126634951D01*
X137685525Y-126815920D01*
X138570000Y-127700395D01*
X139454475Y-126815920D01*
X139394895Y-126634951D01*
X139548505Y-126532312D01*
X139762312Y-126318505D01*
X139930299Y-126067095D01*
X140046011Y-125787743D01*
X140105000Y-125491184D01*
X140105000Y-125188816D01*
X140046011Y-124892257D01*
X139930299Y-124612905D01*
X139762312Y-124361495D01*
X139548505Y-124147688D01*
X139432237Y-124070000D01*
X139548505Y-123992312D01*
X139762312Y-123778505D01*
X139930299Y-123527095D01*
X140046011Y-123247743D01*
X140105000Y-122951184D01*
X140105000Y-122648816D01*
X140046011Y-122352257D01*
X139930299Y-122072905D01*
X139762312Y-121821495D01*
X139548505Y-121607688D01*
X139432237Y-121530000D01*
X139548505Y-121452312D01*
X139762312Y-121238505D01*
X139930299Y-120987095D01*
X140046011Y-120707743D01*
X140105000Y-120411184D01*
X140105000Y-120108816D01*
X140046011Y-119812257D01*
X139930299Y-119532905D01*
X139762312Y-119281495D01*
X139548505Y-119067688D01*
X139432237Y-118990000D01*
X139548505Y-118912312D01*
X139762312Y-118698505D01*
X139930299Y-118447095D01*
X140046011Y-118167743D01*
X140105000Y-117871184D01*
X140105000Y-117568816D01*
X140046011Y-117272257D01*
X139930299Y-116992905D01*
X139762312Y-116741495D01*
X139548505Y-116527688D01*
X139432237Y-116450000D01*
X139548505Y-116372312D01*
X139762312Y-116158505D01*
X139930299Y-115907095D01*
X140046011Y-115627743D01*
X140105000Y-115331184D01*
X140105000Y-115028816D01*
X140046011Y-114732257D01*
X139930299Y-114452905D01*
X139762312Y-114201495D01*
X139548505Y-113987688D01*
X139432237Y-113910000D01*
X139548505Y-113832312D01*
X139762312Y-113618505D01*
X139930299Y-113367095D01*
X140046011Y-113087743D01*
X140105000Y-112791184D01*
X140105000Y-112488816D01*
X159895000Y-112488816D01*
X159895000Y-112791184D01*
X159953989Y-113087743D01*
X160069701Y-113367095D01*
X160237688Y-113618505D01*
X160451495Y-113832312D01*
X160567763Y-113910000D01*
X160451495Y-113987688D01*
X160237688Y-114201495D01*
X160069701Y-114452905D01*
X159953989Y-114732257D01*
X159895000Y-115028816D01*
X159895000Y-115331184D01*
X159953989Y-115627743D01*
X160069701Y-115907095D01*
X160237688Y-116158505D01*
X160451495Y-116372312D01*
X160567763Y-116450000D01*
X160451495Y-116527688D01*
X160237688Y-116741495D01*
X160069701Y-116992905D01*
X159953989Y-117272257D01*
X159895000Y-117568816D01*
X159895000Y-117871184D01*
X159953989Y-118167743D01*
X160069701Y-118447095D01*
X160237688Y-118698505D01*
X160451495Y-118912312D01*
X160567763Y-118990000D01*
X160451495Y-119067688D01*
X160237688Y-119281495D01*
X160069701Y-119532905D01*
X159953989Y-119812257D01*
X159895000Y-120108816D01*
X159895000Y-120411184D01*
X159953989Y-120707743D01*
X160069701Y-120987095D01*
X160237688Y-121238505D01*
X160451495Y-121452312D01*
X160567763Y-121530000D01*
X160451495Y-121607688D01*
X160237688Y-121821495D01*
X160069701Y-122072905D01*
X159953989Y-122352257D01*
X159895000Y-122648816D01*
X159895000Y-122951184D01*
X159953989Y-123247743D01*
X160069701Y-123527095D01*
X160237688Y-123778505D01*
X160451495Y-123992312D01*
X160567763Y-124070000D01*
X160451495Y-124147688D01*
X160237688Y-124361495D01*
X160069701Y-124612905D01*
X159953989Y-124892257D01*
X159895000Y-125188816D01*
X159895000Y-125491184D01*
X159953989Y-125787743D01*
X160069701Y-126067095D01*
X160237688Y-126318505D01*
X160451495Y-126532312D01*
X160567763Y-126610000D01*
X160451495Y-126687688D01*
X160237688Y-126901495D01*
X160069701Y-127152905D01*
X159953989Y-127432257D01*
X159895000Y-127728816D01*
X159895000Y-128031184D01*
X159953989Y-128327743D01*
X160069701Y-128607095D01*
X160237688Y-128858505D01*
X160451495Y-129072312D01*
X160567763Y-129150000D01*
X160451495Y-129227688D01*
X160237688Y-129441495D01*
X160069701Y-129692905D01*
X159953989Y-129972257D01*
X159895000Y-130268816D01*
X159895000Y-130571184D01*
X159953989Y-130867743D01*
X160069701Y-131147095D01*
X160237688Y-131398505D01*
X160451495Y-131612312D01*
X160702905Y-131780299D01*
X160982257Y-131896011D01*
X161278816Y-131955000D01*
X161581184Y-131955000D01*
X161877743Y-131896011D01*
X162157095Y-131780299D01*
X162408505Y-131612312D01*
X162622312Y-131398505D01*
X162790299Y-131147095D01*
X162906011Y-130867743D01*
X162965000Y-130571184D01*
X162965000Y-130268816D01*
X162906011Y-129972257D01*
X162790299Y-129692905D01*
X162622312Y-129441495D01*
X162408505Y-129227688D01*
X162292237Y-129150000D01*
X162408505Y-129072312D01*
X162622312Y-128858505D01*
X162790299Y-128607095D01*
X162906011Y-128327743D01*
X162965000Y-128031184D01*
X162965000Y-127728816D01*
X162906011Y-127432257D01*
X162790299Y-127152905D01*
X162622312Y-126901495D01*
X162408505Y-126687688D01*
X162292237Y-126610000D01*
X162408505Y-126532312D01*
X162622312Y-126318505D01*
X162790299Y-126067095D01*
X162906011Y-125787743D01*
X162965000Y-125491184D01*
X162965000Y-125188816D01*
X162906011Y-124892257D01*
X162790299Y-124612905D01*
X162622312Y-124361495D01*
X162408505Y-124147688D01*
X162292237Y-124070000D01*
X162408505Y-123992312D01*
X162622312Y-123778505D01*
X162790299Y-123527095D01*
X162906011Y-123247743D01*
X162965000Y-122951184D01*
X162965000Y-122648816D01*
X162906011Y-122352257D01*
X162790299Y-122072905D01*
X162622312Y-121821495D01*
X162408505Y-121607688D01*
X162292237Y-121530000D01*
X162408505Y-121452312D01*
X162622312Y-121238505D01*
X162648040Y-121200000D01*
X168536807Y-121200000D01*
X168540000Y-121232420D01*
X168540001Y-122767571D01*
X168536807Y-122800000D01*
X168549550Y-122929383D01*
X168587290Y-123053793D01*
X168648575Y-123168450D01*
X168731052Y-123268948D01*
X168831550Y-123351425D01*
X168946207Y-123412710D01*
X169070617Y-123450450D01*
X169167581Y-123460000D01*
X169200000Y-123463193D01*
X169232419Y-123460000D01*
X170767581Y-123460000D01*
X170800000Y-123463193D01*
X170832419Y-123460000D01*
X170929383Y-123450450D01*
X171053793Y-123412710D01*
X171168450Y-123351425D01*
X171268948Y-123268948D01*
X171351425Y-123168450D01*
X171412710Y-123053793D01*
X171450450Y-122929383D01*
X171463193Y-122800000D01*
X171460000Y-122767581D01*
X171460000Y-121460000D01*
X172767581Y-121460000D01*
X172800000Y-121463193D01*
X172832419Y-121460000D01*
X172929383Y-121450450D01*
X173053793Y-121412710D01*
X173168450Y-121351425D01*
X173268948Y-121268948D01*
X173351425Y-121168450D01*
X173412710Y-121053793D01*
X173450450Y-120929383D01*
X173463193Y-120800000D01*
X173460000Y-120767581D01*
X173460000Y-119232419D01*
X173463193Y-119200000D01*
X173450450Y-119070617D01*
X173412710Y-118946207D01*
X173351425Y-118831550D01*
X173268948Y-118731052D01*
X173168450Y-118648575D01*
X173053793Y-118587290D01*
X172929383Y-118549550D01*
X172832419Y-118540000D01*
X172800000Y-118536807D01*
X172767581Y-118540000D01*
X171232419Y-118540000D01*
X171200000Y-118536807D01*
X171167581Y-118540000D01*
X171070617Y-118549550D01*
X170946207Y-118587290D01*
X170831550Y-118648575D01*
X170731052Y-118731052D01*
X170648575Y-118831550D01*
X170587290Y-118946207D01*
X170549550Y-119070617D01*
X170536807Y-119200000D01*
X170540000Y-119232420D01*
X170540001Y-120540000D01*
X169232419Y-120540000D01*
X169200000Y-120536807D01*
X169167581Y-120540000D01*
X169070617Y-120549550D01*
X168946207Y-120587290D01*
X168831550Y-120648575D01*
X168731052Y-120731052D01*
X168648575Y-120831550D01*
X168587290Y-120946207D01*
X168549550Y-121070617D01*
X168536807Y-121200000D01*
X162648040Y-121200000D01*
X162790299Y-120987095D01*
X162906011Y-120707743D01*
X162965000Y-120411184D01*
X162965000Y-120108816D01*
X162906011Y-119812257D01*
X162790299Y-119532905D01*
X162622312Y-119281495D01*
X162408505Y-119067688D01*
X162292237Y-118990000D01*
X162408505Y-118912312D01*
X162622312Y-118698505D01*
X162790299Y-118447095D01*
X162906011Y-118167743D01*
X162965000Y-117871184D01*
X162965000Y-117568816D01*
X162906011Y-117272257D01*
X162790299Y-116992905D01*
X162622312Y-116741495D01*
X162408505Y-116527688D01*
X162292237Y-116450000D01*
X162408505Y-116372312D01*
X162622312Y-116158505D01*
X162790299Y-115907095D01*
X162906011Y-115627743D01*
X162965000Y-115331184D01*
X162965000Y-115028816D01*
X162906011Y-114732257D01*
X162790299Y-114452905D01*
X162622312Y-114201495D01*
X162408505Y-113987688D01*
X162292237Y-113910000D01*
X162408505Y-113832312D01*
X162622312Y-113618505D01*
X162790299Y-113367095D01*
X162906011Y-113087743D01*
X162965000Y-112791184D01*
X162965000Y-112488816D01*
X162906011Y-112192257D01*
X162790299Y-111912905D01*
X162622312Y-111661495D01*
X162408505Y-111447688D01*
X162157095Y-111279701D01*
X161877743Y-111163989D01*
X161581184Y-111105000D01*
X161278816Y-111105000D01*
X160982257Y-111163989D01*
X160702905Y-111279701D01*
X160451495Y-111447688D01*
X160237688Y-111661495D01*
X160069701Y-111912905D01*
X159953989Y-112192257D01*
X159895000Y-112488816D01*
X140105000Y-112488816D01*
X140046011Y-112192257D01*
X139930299Y-111912905D01*
X139762312Y-111661495D01*
X139548505Y-111447688D01*
X139297095Y-111279701D01*
X139017743Y-111163989D01*
X138721184Y-111105000D01*
X138418816Y-111105000D01*
X138122257Y-111163989D01*
X137842905Y-111279701D01*
X137591495Y-111447688D01*
X137377688Y-111661495D01*
X137209701Y-111912905D01*
X137093989Y-112192257D01*
X137035000Y-112488816D01*
X130160000Y-112488816D01*
X130160000Y-99150000D01*
X139511928Y-99150000D01*
X139511928Y-100850000D01*
X139524188Y-100974482D01*
X139560498Y-101094180D01*
X139619463Y-101204494D01*
X139698815Y-101301185D01*
X139795506Y-101380537D01*
X139905820Y-101439502D01*
X140025518Y-101475812D01*
X140150000Y-101488072D01*
X141850000Y-101488072D01*
X141974482Y-101475812D01*
X142094180Y-101439502D01*
X142204494Y-101380537D01*
X142301185Y-101301185D01*
X142380537Y-101204494D01*
X142439502Y-101094180D01*
X142463966Y-101013534D01*
X142539731Y-101097588D01*
X142773080Y-101271641D01*
X143035901Y-101396825D01*
X143183110Y-101441476D01*
X143413000Y-101320155D01*
X143413000Y-100127000D01*
X143393000Y-100127000D01*
X143393000Y-99873000D01*
X143413000Y-99873000D01*
X143413000Y-98679845D01*
X143667000Y-98679845D01*
X143667000Y-99873000D01*
X143687000Y-99873000D01*
X143687000Y-100127000D01*
X143667000Y-100127000D01*
X143667000Y-101320155D01*
X143896890Y-101441476D01*
X144044099Y-101396825D01*
X144306920Y-101271641D01*
X144540269Y-101097588D01*
X144735178Y-100881355D01*
X144804805Y-100764466D01*
X144926525Y-100946632D01*
X145133368Y-101153475D01*
X145376589Y-101315990D01*
X145646842Y-101427932D01*
X145933740Y-101485000D01*
X146226260Y-101485000D01*
X146513158Y-101427932D01*
X146783411Y-101315990D01*
X147026632Y-101153475D01*
X147233475Y-100946632D01*
X147350000Y-100772240D01*
X147466525Y-100946632D01*
X147673368Y-101153475D01*
X147916589Y-101315990D01*
X148186842Y-101427932D01*
X148473740Y-101485000D01*
X148766260Y-101485000D01*
X149053158Y-101427932D01*
X149323411Y-101315990D01*
X149566632Y-101153475D01*
X149773475Y-100946632D01*
X149890000Y-100772240D01*
X150006525Y-100946632D01*
X150213368Y-101153475D01*
X150456589Y-101315990D01*
X150726842Y-101427932D01*
X151013740Y-101485000D01*
X151306260Y-101485000D01*
X151593158Y-101427932D01*
X151863411Y-101315990D01*
X152106632Y-101153475D01*
X152313475Y-100946632D01*
X152430000Y-100772240D01*
X152546525Y-100946632D01*
X152753368Y-101153475D01*
X152996589Y-101315990D01*
X153266842Y-101427932D01*
X153553740Y-101485000D01*
X153846260Y-101485000D01*
X154133158Y-101427932D01*
X154403411Y-101315990D01*
X154646632Y-101153475D01*
X154853475Y-100946632D01*
X154970000Y-100772240D01*
X155086525Y-100946632D01*
X155293368Y-101153475D01*
X155536589Y-101315990D01*
X155806842Y-101427932D01*
X156093740Y-101485000D01*
X156386260Y-101485000D01*
X156673158Y-101427932D01*
X156943411Y-101315990D01*
X157186632Y-101153475D01*
X157393475Y-100946632D01*
X157510000Y-100772240D01*
X157626525Y-100946632D01*
X157833368Y-101153475D01*
X158076589Y-101315990D01*
X158346842Y-101427932D01*
X158633740Y-101485000D01*
X158926260Y-101485000D01*
X159213158Y-101427932D01*
X159483411Y-101315990D01*
X159726632Y-101153475D01*
X159933475Y-100946632D01*
X160095990Y-100703411D01*
X160207932Y-100433158D01*
X160265000Y-100146260D01*
X160265000Y-99853740D01*
X160207932Y-99566842D01*
X160095990Y-99296589D01*
X159933475Y-99053368D01*
X159726632Y-98846525D01*
X159483411Y-98684010D01*
X159213158Y-98572068D01*
X158926260Y-98515000D01*
X158633740Y-98515000D01*
X158346842Y-98572068D01*
X158076589Y-98684010D01*
X157833368Y-98846525D01*
X157626525Y-99053368D01*
X157510000Y-99227760D01*
X157393475Y-99053368D01*
X157186632Y-98846525D01*
X156943411Y-98684010D01*
X156673158Y-98572068D01*
X156386260Y-98515000D01*
X156093740Y-98515000D01*
X155806842Y-98572068D01*
X155536589Y-98684010D01*
X155293368Y-98846525D01*
X155086525Y-99053368D01*
X154970000Y-99227760D01*
X154853475Y-99053368D01*
X154646632Y-98846525D01*
X154403411Y-98684010D01*
X154133158Y-98572068D01*
X153846260Y-98515000D01*
X153553740Y-98515000D01*
X153266842Y-98572068D01*
X152996589Y-98684010D01*
X152753368Y-98846525D01*
X152546525Y-99053368D01*
X152430000Y-99227760D01*
X152313475Y-99053368D01*
X152106632Y-98846525D01*
X151863411Y-98684010D01*
X151593158Y-98572068D01*
X151306260Y-98515000D01*
X151013740Y-98515000D01*
X150726842Y-98572068D01*
X150456589Y-98684010D01*
X150213368Y-98846525D01*
X150006525Y-99053368D01*
X149890000Y-99227760D01*
X149773475Y-99053368D01*
X149566632Y-98846525D01*
X149323411Y-98684010D01*
X149053158Y-98572068D01*
X148766260Y-98515000D01*
X148473740Y-98515000D01*
X148186842Y-98572068D01*
X147916589Y-98684010D01*
X147673368Y-98846525D01*
X147466525Y-99053368D01*
X147350000Y-99227760D01*
X147233475Y-99053368D01*
X147026632Y-98846525D01*
X146783411Y-98684010D01*
X146513158Y-98572068D01*
X146226260Y-98515000D01*
X145933740Y-98515000D01*
X145646842Y-98572068D01*
X145376589Y-98684010D01*
X145133368Y-98846525D01*
X144926525Y-99053368D01*
X144804805Y-99235534D01*
X144735178Y-99118645D01*
X144540269Y-98902412D01*
X144306920Y-98728359D01*
X144044099Y-98603175D01*
X143896890Y-98558524D01*
X143667000Y-98679845D01*
X143413000Y-98679845D01*
X143183110Y-98558524D01*
X143035901Y-98603175D01*
X142773080Y-98728359D01*
X142539731Y-98902412D01*
X142463966Y-98986466D01*
X142439502Y-98905820D01*
X142380537Y-98795506D01*
X142301185Y-98698815D01*
X142204494Y-98619463D01*
X142094180Y-98560498D01*
X141974482Y-98524188D01*
X141850000Y-98511928D01*
X140150000Y-98511928D01*
X140025518Y-98524188D01*
X139905820Y-98560498D01*
X139795506Y-98619463D01*
X139698815Y-98698815D01*
X139619463Y-98795506D01*
X139560498Y-98905820D01*
X139524188Y-99025518D01*
X139511928Y-99150000D01*
X130160000Y-99150000D01*
X130160000Y-92442408D01*
X132083000Y-92442408D01*
X132083000Y-92717592D01*
X132136686Y-92987490D01*
X132241995Y-93241727D01*
X132394880Y-93470535D01*
X132589465Y-93665120D01*
X132818273Y-93818005D01*
X133072510Y-93923314D01*
X133342408Y-93977000D01*
X133617592Y-93977000D01*
X133887490Y-93923314D01*
X134141727Y-93818005D01*
X134370535Y-93665120D01*
X134565120Y-93470535D01*
X134718005Y-93241727D01*
X134823314Y-92987490D01*
X134877000Y-92717592D01*
X134877000Y-92442408D01*
X165113000Y-92442408D01*
X165113000Y-92717592D01*
X165166686Y-92987490D01*
X165271995Y-93241727D01*
X165424880Y-93470535D01*
X165619465Y-93665120D01*
X165848273Y-93818005D01*
X166102510Y-93923314D01*
X166372408Y-93977000D01*
X166647592Y-93977000D01*
X166917490Y-93923314D01*
X167171727Y-93818005D01*
X167400535Y-93665120D01*
X167595120Y-93470535D01*
X167748005Y-93241727D01*
X167853314Y-92987490D01*
X167907000Y-92717592D01*
X167907000Y-92442408D01*
X167853314Y-92172510D01*
X167748005Y-91918273D01*
X167595120Y-91689465D01*
X167400535Y-91494880D01*
X167171727Y-91341995D01*
X166917490Y-91236686D01*
X166647592Y-91183000D01*
X166372408Y-91183000D01*
X166102510Y-91236686D01*
X165848273Y-91341995D01*
X165619465Y-91494880D01*
X165424880Y-91689465D01*
X165271995Y-91918273D01*
X165166686Y-92172510D01*
X165113000Y-92442408D01*
X134877000Y-92442408D01*
X134823314Y-92172510D01*
X134718005Y-91918273D01*
X134565120Y-91689465D01*
X134370535Y-91494880D01*
X134141727Y-91341995D01*
X133887490Y-91236686D01*
X133617592Y-91183000D01*
X133342408Y-91183000D01*
X133072510Y-91236686D01*
X132818273Y-91341995D01*
X132589465Y-91494880D01*
X132394880Y-91689465D01*
X132241995Y-91918273D01*
X132136686Y-92172510D01*
X132083000Y-92442408D01*
X130160000Y-92442408D01*
X130160000Y-83814801D01*
X130589236Y-83385565D01*
X132694040Y-83385565D01*
X132761020Y-83625656D01*
X133010048Y-83742756D01*
X133277135Y-83809023D01*
X133552017Y-83821910D01*
X133824133Y-83780922D01*
X134083023Y-83687636D01*
X134198980Y-83625656D01*
X134265960Y-83385565D01*
X165724040Y-83385565D01*
X165791020Y-83625656D01*
X166040048Y-83742756D01*
X166307135Y-83809023D01*
X166582017Y-83821910D01*
X166854133Y-83780922D01*
X167113023Y-83687636D01*
X167228980Y-83625656D01*
X167295960Y-83385565D01*
X166510000Y-82599605D01*
X165724040Y-83385565D01*
X134265960Y-83385565D01*
X133480000Y-82599605D01*
X132694040Y-83385565D01*
X130589236Y-83385565D01*
X132427597Y-81547205D01*
X132514433Y-81634041D01*
X132274344Y-81701020D01*
X132157244Y-81950048D01*
X132090977Y-82217135D01*
X132078090Y-82492017D01*
X132119078Y-82764133D01*
X132212364Y-83023023D01*
X132274344Y-83138980D01*
X132514435Y-83205960D01*
X133300395Y-82420000D01*
X133659605Y-82420000D01*
X134445565Y-83205960D01*
X134685656Y-83138980D01*
X134802756Y-82889952D01*
X134869023Y-82622865D01*
X134875157Y-82492017D01*
X165108090Y-82492017D01*
X165149078Y-82764133D01*
X165242364Y-83023023D01*
X165304344Y-83138980D01*
X165544435Y-83205960D01*
X166330395Y-82420000D01*
X165544435Y-81634040D01*
X165304344Y-81701020D01*
X165187244Y-81950048D01*
X165120977Y-82217135D01*
X165108090Y-82492017D01*
X134875157Y-82492017D01*
X134881910Y-82347983D01*
X134840922Y-82075867D01*
X134747636Y-81816977D01*
X134685656Y-81701020D01*
X134445565Y-81634040D01*
X133659605Y-82420000D01*
X133300395Y-82420000D01*
X133286253Y-82405858D01*
X133465858Y-82226253D01*
X133480000Y-82240395D01*
X134265960Y-81454435D01*
X134198980Y-81214344D01*
X133949952Y-81097244D01*
X133682865Y-81030977D01*
X133407983Y-81018090D01*
X133135867Y-81059078D01*
X132876977Y-81152364D01*
X132761020Y-81214344D01*
X132694041Y-81454433D01*
X132607205Y-81367597D01*
X137501062Y-76473740D01*
X144715000Y-76473740D01*
X144715000Y-76766260D01*
X144772068Y-77053158D01*
X144884010Y-77323411D01*
X145046525Y-77566632D01*
X145253368Y-77773475D01*
X145496589Y-77935990D01*
X145766842Y-78047932D01*
X146053740Y-78105000D01*
X146346260Y-78105000D01*
X146633158Y-78047932D01*
X146903411Y-77935990D01*
X147146632Y-77773475D01*
X147353475Y-77566632D01*
X147470000Y-77392240D01*
X147586525Y-77566632D01*
X147793368Y-77773475D01*
X148036589Y-77935990D01*
X148306842Y-78047932D01*
X148593740Y-78105000D01*
X148886260Y-78105000D01*
X149173158Y-78047932D01*
X149443411Y-77935990D01*
X149686632Y-77773475D01*
X149893475Y-77566632D01*
X150015195Y-77384466D01*
X150084822Y-77501355D01*
X150279731Y-77717588D01*
X150513080Y-77891641D01*
X150775901Y-78016825D01*
X150923110Y-78061476D01*
X151153000Y-77940155D01*
X151153000Y-76747000D01*
X151133000Y-76747000D01*
X151133000Y-76493000D01*
X151153000Y-76493000D01*
X151153000Y-75299845D01*
X151407000Y-75299845D01*
X151407000Y-76493000D01*
X151427000Y-76493000D01*
X151427000Y-76747000D01*
X151407000Y-76747000D01*
X151407000Y-77940155D01*
X151636890Y-78061476D01*
X151784099Y-78016825D01*
X152046920Y-77891641D01*
X152280269Y-77717588D01*
X152356034Y-77633534D01*
X152380498Y-77714180D01*
X152439463Y-77824494D01*
X152518815Y-77921185D01*
X152615506Y-78000537D01*
X152725820Y-78059502D01*
X152845518Y-78095812D01*
X152970000Y-78108072D01*
X154670000Y-78108072D01*
X154794482Y-78095812D01*
X154914180Y-78059502D01*
X155024494Y-78000537D01*
X155121185Y-77921185D01*
X155200537Y-77824494D01*
X155259502Y-77714180D01*
X155295812Y-77594482D01*
X155308072Y-77470000D01*
X155308072Y-77380000D01*
X162003961Y-77380000D01*
X165821834Y-81197874D01*
X165791020Y-81214344D01*
X165724040Y-81454435D01*
X166510000Y-82240395D01*
X166524143Y-82226253D01*
X166703748Y-82405858D01*
X166689605Y-82420000D01*
X167475565Y-83205960D01*
X167715656Y-83138980D01*
X167730779Y-83106819D01*
X169430125Y-84806164D01*
X169416063Y-84820226D01*
X169302795Y-84989744D01*
X169224774Y-85178102D01*
X169185000Y-85378061D01*
X169185000Y-85581939D01*
X169224774Y-85781898D01*
X169302795Y-85970256D01*
X169416063Y-86139774D01*
X169560226Y-86283937D01*
X169729744Y-86397205D01*
X169918102Y-86475226D01*
X170118061Y-86515000D01*
X170321939Y-86515000D01*
X170521898Y-86475226D01*
X170710256Y-86397205D01*
X170879774Y-86283937D01*
X171023937Y-86139774D01*
X171137205Y-85970256D01*
X171215226Y-85781898D01*
X171255000Y-85581939D01*
X171255000Y-85378061D01*
X171215226Y-85178102D01*
X171137205Y-84989744D01*
X171023937Y-84820226D01*
X170980000Y-84776289D01*
X170980000Y-84558561D01*
X170983676Y-84521238D01*
X170980000Y-84483915D01*
X170980000Y-84483905D01*
X170969003Y-84372252D01*
X170925546Y-84228991D01*
X170913014Y-84205546D01*
X170854974Y-84096961D01*
X170783799Y-84010235D01*
X170760001Y-83981237D01*
X170731003Y-83957439D01*
X163973564Y-77200000D01*
X168536807Y-77200000D01*
X168540000Y-77232420D01*
X168540001Y-78767571D01*
X168536807Y-78800000D01*
X168549550Y-78929383D01*
X168587290Y-79053793D01*
X168648575Y-79168450D01*
X168731052Y-79268948D01*
X168831550Y-79351425D01*
X168946207Y-79412710D01*
X169070617Y-79450450D01*
X169167581Y-79460000D01*
X169200000Y-79463193D01*
X169232419Y-79460000D01*
X170540000Y-79460000D01*
X170540001Y-80767571D01*
X170536807Y-80800000D01*
X170549550Y-80929383D01*
X170587290Y-81053793D01*
X170648575Y-81168450D01*
X170731052Y-81268948D01*
X170831550Y-81351425D01*
X170946207Y-81412710D01*
X171070617Y-81450450D01*
X171167581Y-81460000D01*
X171200000Y-81463193D01*
X171232419Y-81460000D01*
X172767581Y-81460000D01*
X172800000Y-81463193D01*
X172832419Y-81460000D01*
X172929383Y-81450450D01*
X173053793Y-81412710D01*
X173168450Y-81351425D01*
X173268948Y-81268948D01*
X173351425Y-81168450D01*
X173412710Y-81053793D01*
X173450450Y-80929383D01*
X173463193Y-80800000D01*
X173460000Y-80767581D01*
X173460000Y-79232419D01*
X173463193Y-79200000D01*
X173450450Y-79070617D01*
X173412710Y-78946207D01*
X173351425Y-78831550D01*
X173268948Y-78731052D01*
X173168450Y-78648575D01*
X173053793Y-78587290D01*
X172929383Y-78549550D01*
X172832419Y-78540000D01*
X172800000Y-78536807D01*
X172767581Y-78540000D01*
X171460000Y-78540000D01*
X171460000Y-77232419D01*
X171463193Y-77200000D01*
X171450450Y-77070617D01*
X171412710Y-76946207D01*
X171351425Y-76831550D01*
X171268948Y-76731052D01*
X171168450Y-76648575D01*
X171053793Y-76587290D01*
X170929383Y-76549550D01*
X170832419Y-76540000D01*
X170800000Y-76536807D01*
X170767581Y-76540000D01*
X169232419Y-76540000D01*
X169200000Y-76536807D01*
X169167581Y-76540000D01*
X169070617Y-76549550D01*
X168946207Y-76587290D01*
X168831550Y-76648575D01*
X168731052Y-76731052D01*
X168648575Y-76831550D01*
X168587290Y-76946207D01*
X168549550Y-77070617D01*
X168536807Y-77200000D01*
X163973564Y-77200000D01*
X162882566Y-76109003D01*
X162858763Y-76079999D01*
X162743038Y-75985026D01*
X162611009Y-75914454D01*
X162467748Y-75870997D01*
X162356095Y-75860000D01*
X162356084Y-75860000D01*
X162318762Y-75856324D01*
X162281440Y-75860000D01*
X155308072Y-75860000D01*
X155308072Y-75770000D01*
X155295812Y-75645518D01*
X155259502Y-75525820D01*
X155200537Y-75415506D01*
X155121185Y-75318815D01*
X155024494Y-75239463D01*
X154914180Y-75180498D01*
X154794482Y-75144188D01*
X154670000Y-75131928D01*
X152970000Y-75131928D01*
X152845518Y-75144188D01*
X152725820Y-75180498D01*
X152615506Y-75239463D01*
X152518815Y-75318815D01*
X152439463Y-75415506D01*
X152380498Y-75525820D01*
X152356034Y-75606466D01*
X152280269Y-75522412D01*
X152046920Y-75348359D01*
X151784099Y-75223175D01*
X151636890Y-75178524D01*
X151407000Y-75299845D01*
X151153000Y-75299845D01*
X150923110Y-75178524D01*
X150775901Y-75223175D01*
X150513080Y-75348359D01*
X150279731Y-75522412D01*
X150084822Y-75738645D01*
X150015195Y-75855534D01*
X149893475Y-75673368D01*
X149686632Y-75466525D01*
X149443411Y-75304010D01*
X149173158Y-75192068D01*
X148886260Y-75135000D01*
X148593740Y-75135000D01*
X148306842Y-75192068D01*
X148036589Y-75304010D01*
X147793368Y-75466525D01*
X147586525Y-75673368D01*
X147470000Y-75847760D01*
X147353475Y-75673368D01*
X147146632Y-75466525D01*
X146903411Y-75304010D01*
X146633158Y-75192068D01*
X146346260Y-75135000D01*
X146053740Y-75135000D01*
X145766842Y-75192068D01*
X145496589Y-75304010D01*
X145253368Y-75466525D01*
X145046525Y-75673368D01*
X144884010Y-75916589D01*
X144772068Y-76186842D01*
X144715000Y-76473740D01*
X137501062Y-76473740D01*
X139011009Y-74963793D01*
X139040001Y-74940001D01*
X139063795Y-74911008D01*
X139063799Y-74911004D01*
X139134973Y-74824277D01*
X139134974Y-74824276D01*
X139191844Y-74717881D01*
X139390535Y-74585120D01*
X139510090Y-74465565D01*
X160714040Y-74465565D01*
X160781020Y-74705656D01*
X161030048Y-74822756D01*
X161297135Y-74889023D01*
X161572017Y-74901910D01*
X161844133Y-74860922D01*
X162103023Y-74767636D01*
X162218980Y-74705656D01*
X162285960Y-74465565D01*
X161500000Y-73679605D01*
X160714040Y-74465565D01*
X139510090Y-74465565D01*
X139585120Y-74390535D01*
X139738005Y-74161727D01*
X139843314Y-73907490D01*
X139897000Y-73637592D01*
X139897000Y-73572017D01*
X160098090Y-73572017D01*
X160139078Y-73844133D01*
X160232364Y-74103023D01*
X160294344Y-74218980D01*
X160534435Y-74285960D01*
X161320395Y-73500000D01*
X161679605Y-73500000D01*
X162465565Y-74285960D01*
X162705656Y-74218980D01*
X162822756Y-73969952D01*
X162889023Y-73702865D01*
X162901910Y-73427983D01*
X162860922Y-73155867D01*
X162767636Y-72896977D01*
X162705656Y-72781020D01*
X162465565Y-72714040D01*
X161679605Y-73500000D01*
X161320395Y-73500000D01*
X160534435Y-72714040D01*
X160294344Y-72781020D01*
X160177244Y-73030048D01*
X160110977Y-73297135D01*
X160098090Y-73572017D01*
X139897000Y-73572017D01*
X139897000Y-73362408D01*
X139843314Y-73092510D01*
X139738005Y-72838273D01*
X139585120Y-72609465D01*
X139390535Y-72414880D01*
X139187094Y-72278945D01*
X140643631Y-70822408D01*
X160103000Y-70822408D01*
X160103000Y-71097592D01*
X160156686Y-71367490D01*
X160261995Y-71621727D01*
X160414880Y-71850535D01*
X160609465Y-72045120D01*
X160838273Y-72198005D01*
X160909943Y-72227692D01*
X160896977Y-72232364D01*
X160781020Y-72294344D01*
X160714040Y-72534435D01*
X161500000Y-73320395D01*
X162285960Y-72534435D01*
X162218980Y-72294344D01*
X162083240Y-72230515D01*
X162161727Y-72198005D01*
X162390535Y-72045120D01*
X162585120Y-71850535D01*
X162738005Y-71621727D01*
X162843314Y-71367490D01*
X162897000Y-71097592D01*
X162897000Y-70822408D01*
X162843314Y-70552510D01*
X162738005Y-70298273D01*
X162585120Y-70069465D01*
X162390535Y-69874880D01*
X162161727Y-69721995D01*
X161907490Y-69616686D01*
X161637592Y-69563000D01*
X161362408Y-69563000D01*
X161092510Y-69616686D01*
X160838273Y-69721995D01*
X160609465Y-69874880D01*
X160414880Y-70069465D01*
X160261995Y-70298273D01*
X160156686Y-70552510D01*
X160103000Y-70822408D01*
X140643631Y-70822408D01*
X148666040Y-62800000D01*
X160327659Y-62800000D01*
X160414880Y-62930535D01*
X160609465Y-63125120D01*
X160838273Y-63278005D01*
X161092510Y-63383314D01*
X161362408Y-63437000D01*
X161637592Y-63437000D01*
X161907490Y-63383314D01*
X162161727Y-63278005D01*
X162390535Y-63125120D01*
X162585120Y-62930535D01*
X162738005Y-62701727D01*
X162843314Y-62447490D01*
X162897000Y-62177592D01*
X162897000Y-61902408D01*
X162879483Y-61814344D01*
X176115000Y-61814344D01*
X176115000Y-62185656D01*
X176187439Y-62549834D01*
X176329534Y-62892882D01*
X176535825Y-63201618D01*
X176798382Y-63464175D01*
X177107118Y-63670466D01*
X177450166Y-63812561D01*
X177814344Y-63885000D01*
X178185656Y-63885000D01*
X178549834Y-63812561D01*
X178892882Y-63670466D01*
X179201618Y-63464175D01*
X179464175Y-63201618D01*
X179670466Y-62892882D01*
X179812561Y-62549834D01*
X179885000Y-62185656D01*
X179885000Y-61814344D01*
X179812561Y-61450166D01*
X179670466Y-61107118D01*
X179464175Y-60798382D01*
X179201618Y-60535825D01*
X178892882Y-60329534D01*
X178549834Y-60187439D01*
X178185656Y-60115000D01*
X177814344Y-60115000D01*
X177450166Y-60187439D01*
X177107118Y-60329534D01*
X176798382Y-60535825D01*
X176535825Y-60798382D01*
X176329534Y-61107118D01*
X176187439Y-61450166D01*
X176115000Y-61814344D01*
X162879483Y-61814344D01*
X162843314Y-61632510D01*
X162738005Y-61378273D01*
X162585120Y-61149465D01*
X162390535Y-60954880D01*
X162161727Y-60801995D01*
X162084485Y-60770000D01*
X162161727Y-60738005D01*
X162390535Y-60585120D01*
X162585120Y-60390535D01*
X162738005Y-60161727D01*
X162843314Y-59907490D01*
X162897000Y-59637592D01*
X162897000Y-59562845D01*
X190616761Y-59562845D01*
X190784802Y-59888643D01*
X191176607Y-60089426D01*
X191600055Y-60209914D01*
X192038873Y-60245476D01*
X192476197Y-60194746D01*
X192895221Y-60059674D01*
X193215198Y-59888643D01*
X193383239Y-59562845D01*
X192000000Y-58179605D01*
X190616761Y-59562845D01*
X162897000Y-59562845D01*
X162897000Y-59362408D01*
X162843314Y-59092510D01*
X162738005Y-58838273D01*
X162585120Y-58609465D01*
X162390535Y-58414880D01*
X162161727Y-58261995D01*
X161907490Y-58156686D01*
X161637592Y-58103000D01*
X161362408Y-58103000D01*
X161092510Y-58156686D01*
X160838273Y-58261995D01*
X160609465Y-58414880D01*
X160414880Y-58609465D01*
X160261995Y-58838273D01*
X160156686Y-59092510D01*
X160103000Y-59362408D01*
X160103000Y-59637592D01*
X160156686Y-59907490D01*
X160261995Y-60161727D01*
X160414880Y-60390535D01*
X160609465Y-60585120D01*
X160838273Y-60738005D01*
X160915515Y-60770000D01*
X160838273Y-60801995D01*
X160609465Y-60954880D01*
X160414880Y-61149465D01*
X160327659Y-61280000D01*
X148388560Y-61280000D01*
X148351237Y-61276324D01*
X148313914Y-61280000D01*
X148313905Y-61280000D01*
X148202252Y-61290997D01*
X148058991Y-61334454D01*
X147926961Y-61405026D01*
X147843321Y-61473668D01*
X147811237Y-61499999D01*
X147787439Y-61528997D01*
X136538998Y-72777439D01*
X136510000Y-72801237D01*
X136486202Y-72830235D01*
X136486201Y-72830236D01*
X136415026Y-72916962D01*
X136344454Y-73048992D01*
X136300998Y-73192253D01*
X136286324Y-73341238D01*
X136290001Y-73378570D01*
X136290000Y-74185198D01*
X131402725Y-79072473D01*
X131412710Y-79053793D01*
X131450450Y-78929383D01*
X131463193Y-78800000D01*
X131460000Y-78767581D01*
X131460000Y-77232419D01*
X131463193Y-77200000D01*
X131450450Y-77070617D01*
X131412710Y-76946207D01*
X131351425Y-76831550D01*
X131268948Y-76731052D01*
X131168450Y-76648575D01*
X131053793Y-76587290D01*
X130929383Y-76549550D01*
X130832419Y-76540000D01*
X130800000Y-76536807D01*
X130767581Y-76540000D01*
X129232419Y-76540000D01*
X129200000Y-76536807D01*
X129167581Y-76540000D01*
X129070617Y-76549550D01*
X128946207Y-76587290D01*
X128831550Y-76648575D01*
X128731052Y-76731052D01*
X128648575Y-76831550D01*
X128587290Y-76946207D01*
X128549550Y-77070617D01*
X128536807Y-77200000D01*
X128540000Y-77232420D01*
X128540001Y-78540000D01*
X127232419Y-78540000D01*
X127200000Y-78536807D01*
X127167581Y-78540000D01*
X127070617Y-78549550D01*
X126946207Y-78587290D01*
X126831550Y-78648575D01*
X126731052Y-78731052D01*
X126648575Y-78831550D01*
X126587290Y-78946207D01*
X126549550Y-79070617D01*
X126536807Y-79200000D01*
X126540000Y-79232420D01*
X126540001Y-80767571D01*
X126536807Y-80800000D01*
X126549550Y-80929383D01*
X126587290Y-81053793D01*
X126648575Y-81168450D01*
X126731052Y-81268948D01*
X126831550Y-81351425D01*
X126946207Y-81412710D01*
X127070617Y-81450450D01*
X127167581Y-81460000D01*
X127200000Y-81463193D01*
X127232419Y-81460000D01*
X128767581Y-81460000D01*
X128800000Y-81463193D01*
X128832419Y-81460000D01*
X128929383Y-81450450D01*
X129053793Y-81412710D01*
X129072474Y-81402725D01*
X128089002Y-82386197D01*
X128059999Y-82409999D01*
X127965026Y-82525724D01*
X127894454Y-82657753D01*
X127850997Y-82801014D01*
X127840000Y-82912667D01*
X127840000Y-82912678D01*
X127836324Y-82950000D01*
X127840000Y-82987322D01*
X127840000Y-83337332D01*
X127840001Y-83337342D01*
X127840000Y-115985197D01*
X121714002Y-122111196D01*
X121713997Y-122111201D01*
X121576624Y-122248575D01*
X121488998Y-122336201D01*
X121460000Y-122359999D01*
X121436202Y-122388997D01*
X121436201Y-122388998D01*
X121365026Y-122475724D01*
X121294454Y-122607754D01*
X121274056Y-122675000D01*
X121250998Y-122751014D01*
X121241249Y-122850000D01*
X121236324Y-122900000D01*
X121240001Y-122937332D01*
X121240000Y-128962667D01*
X121240000Y-132018850D01*
X120947683Y-132175097D01*
X120660655Y-132410655D01*
X120425097Y-132697683D01*
X120250061Y-133025153D01*
X120142275Y-133380477D01*
X120115000Y-133657404D01*
X103660000Y-133657404D01*
X103660000Y-70598061D01*
X120235000Y-70598061D01*
X120235000Y-70801939D01*
X120274774Y-71001898D01*
X120352795Y-71190256D01*
X120466063Y-71359774D01*
X120610226Y-71503937D01*
X120779744Y-71617205D01*
X120968102Y-71695226D01*
X121168061Y-71735000D01*
X121371939Y-71735000D01*
X121571898Y-71695226D01*
X121760256Y-71617205D01*
X121929774Y-71503937D01*
X121973711Y-71460000D01*
X124866289Y-71460000D01*
X124930226Y-71523937D01*
X125099744Y-71637205D01*
X125288102Y-71715226D01*
X125488061Y-71755000D01*
X125691939Y-71755000D01*
X125891898Y-71715226D01*
X126080256Y-71637205D01*
X126249774Y-71523937D01*
X126393937Y-71379774D01*
X126507205Y-71210256D01*
X126585226Y-71021898D01*
X126625000Y-70821939D01*
X126625000Y-70618061D01*
X126585226Y-70418102D01*
X126507205Y-70229744D01*
X126393937Y-70060226D01*
X126249774Y-69916063D01*
X126080256Y-69802795D01*
X125891898Y-69724774D01*
X125691939Y-69685000D01*
X125488061Y-69685000D01*
X125288102Y-69724774D01*
X125099744Y-69802795D01*
X124930226Y-69916063D01*
X124906289Y-69940000D01*
X121973711Y-69940000D01*
X121929774Y-69896063D01*
X121760256Y-69782795D01*
X121571898Y-69704774D01*
X121371939Y-69665000D01*
X121168061Y-69665000D01*
X120968102Y-69704774D01*
X120779744Y-69782795D01*
X120610226Y-69896063D01*
X120466063Y-70040226D01*
X120352795Y-70209744D01*
X120274774Y-70398102D01*
X120235000Y-70598061D01*
X103660000Y-70598061D01*
X103660000Y-61814344D01*
X120115000Y-61814344D01*
X120115000Y-62185656D01*
X120187439Y-62549834D01*
X120329534Y-62892882D01*
X120535825Y-63201618D01*
X120798382Y-63464175D01*
X121107118Y-63670466D01*
X121450166Y-63812561D01*
X121814344Y-63885000D01*
X122185656Y-63885000D01*
X122549834Y-63812561D01*
X122892882Y-63670466D01*
X123201618Y-63464175D01*
X123464175Y-63201618D01*
X123670466Y-62892882D01*
X123812561Y-62549834D01*
X123885000Y-62185656D01*
X123885000Y-61814344D01*
X123812561Y-61450166D01*
X123670466Y-61107118D01*
X123464175Y-60798382D01*
X123201618Y-60535825D01*
X123096467Y-60465565D01*
X137714040Y-60465565D01*
X137781020Y-60705656D01*
X138030048Y-60822756D01*
X138297135Y-60889023D01*
X138572017Y-60901910D01*
X138844133Y-60860922D01*
X139103023Y-60767636D01*
X139218980Y-60705656D01*
X139285960Y-60465565D01*
X138500000Y-59679605D01*
X137714040Y-60465565D01*
X123096467Y-60465565D01*
X122892882Y-60329534D01*
X122549834Y-60187439D01*
X122185656Y-60115000D01*
X121814344Y-60115000D01*
X121450166Y-60187439D01*
X121107118Y-60329534D01*
X120798382Y-60535825D01*
X120535825Y-60798382D01*
X120329534Y-61107118D01*
X120187439Y-61450166D01*
X120115000Y-61814344D01*
X103660000Y-61814344D01*
X103660000Y-59562845D01*
X106616761Y-59562845D01*
X106784802Y-59888643D01*
X107176607Y-60089426D01*
X107600055Y-60209914D01*
X108038873Y-60245476D01*
X108476197Y-60194746D01*
X108895221Y-60059674D01*
X109215198Y-59888643D01*
X109378508Y-59572017D01*
X137098090Y-59572017D01*
X137139078Y-59844133D01*
X137232364Y-60103023D01*
X137294344Y-60218980D01*
X137534435Y-60285960D01*
X138320395Y-59500000D01*
X138679605Y-59500000D01*
X139465565Y-60285960D01*
X139705656Y-60218980D01*
X139822756Y-59969952D01*
X139889023Y-59702865D01*
X139901910Y-59427983D01*
X139860922Y-59155867D01*
X139767636Y-58896977D01*
X139705656Y-58781020D01*
X139465565Y-58714040D01*
X138679605Y-59500000D01*
X138320395Y-59500000D01*
X137534435Y-58714040D01*
X137294344Y-58781020D01*
X137177244Y-59030048D01*
X137110977Y-59297135D01*
X137098090Y-59572017D01*
X109378508Y-59572017D01*
X109383239Y-59562845D01*
X108000000Y-58179605D01*
X106616761Y-59562845D01*
X103660000Y-59562845D01*
X103660000Y-58038873D01*
X105754524Y-58038873D01*
X105805254Y-58476197D01*
X105940326Y-58895221D01*
X106111357Y-59215198D01*
X106437155Y-59383239D01*
X107820395Y-58000000D01*
X108179605Y-58000000D01*
X109562845Y-59383239D01*
X109888643Y-59215198D01*
X110089426Y-58823393D01*
X110171646Y-58534435D01*
X137714040Y-58534435D01*
X138500000Y-59320395D01*
X139285960Y-58534435D01*
X139218980Y-58294344D01*
X138969952Y-58177244D01*
X138702865Y-58110977D01*
X138427983Y-58098090D01*
X138155867Y-58139078D01*
X137896977Y-58232364D01*
X137781020Y-58294344D01*
X137714040Y-58534435D01*
X110171646Y-58534435D01*
X110209914Y-58399945D01*
X110239175Y-58038873D01*
X189754524Y-58038873D01*
X189805254Y-58476197D01*
X189940326Y-58895221D01*
X190111357Y-59215198D01*
X190437155Y-59383239D01*
X191820395Y-58000000D01*
X192179605Y-58000000D01*
X193562845Y-59383239D01*
X193888643Y-59215198D01*
X194089426Y-58823393D01*
X194209914Y-58399945D01*
X194245476Y-57961127D01*
X194194746Y-57523803D01*
X194059674Y-57104779D01*
X193888643Y-56784802D01*
X193562845Y-56616761D01*
X192179605Y-58000000D01*
X191820395Y-58000000D01*
X190437155Y-56616761D01*
X190111357Y-56784802D01*
X189910574Y-57176607D01*
X189790086Y-57600055D01*
X189754524Y-58038873D01*
X110239175Y-58038873D01*
X110245476Y-57961127D01*
X110194746Y-57523803D01*
X110059674Y-57104779D01*
X109888643Y-56784802D01*
X109562845Y-56616761D01*
X108179605Y-58000000D01*
X107820395Y-58000000D01*
X106437155Y-56616761D01*
X106111357Y-56784802D01*
X105910574Y-57176607D01*
X105790086Y-57600055D01*
X105754524Y-58038873D01*
X103660000Y-58038873D01*
X103660000Y-56437155D01*
X106616761Y-56437155D01*
X108000000Y-57820395D01*
X109383239Y-56437155D01*
X190616761Y-56437155D01*
X192000000Y-57820395D01*
X193383239Y-56437155D01*
X193215198Y-56111357D01*
X192823393Y-55910574D01*
X192399945Y-55790086D01*
X191961127Y-55754524D01*
X191523803Y-55805254D01*
X191104779Y-55940326D01*
X190784802Y-56111357D01*
X190616761Y-56437155D01*
X109383239Y-56437155D01*
X109215198Y-56111357D01*
X108823393Y-55910574D01*
X108399945Y-55790086D01*
X107961127Y-55754524D01*
X107523803Y-55805254D01*
X107104779Y-55940326D01*
X106784802Y-56111357D01*
X106616761Y-56437155D01*
X103660000Y-56437155D01*
X103660000Y-55032279D01*
X103688625Y-54740341D01*
X103764035Y-54490571D01*
X103886522Y-54260208D01*
X104051422Y-54058020D01*
X104252450Y-53891714D01*
X104481954Y-53767622D01*
X104731195Y-53690469D01*
X105021088Y-53660000D01*
X134167581Y-53660000D01*
X134200000Y-53663193D01*
X134232419Y-53660000D01*
X134259925Y-53657291D01*
X134329383Y-53650450D01*
X134453793Y-53612710D01*
X134568450Y-53551425D01*
X134668948Y-53468948D01*
X134751425Y-53368450D01*
X134812710Y-53253793D01*
X134850450Y-53129383D01*
X134860000Y-53032419D01*
X134860000Y-53032418D01*
X134863193Y-53000000D01*
X134860000Y-52967581D01*
X134860000Y-52060000D01*
X135140001Y-52060000D01*
X135140000Y-52967580D01*
%TD*%
M02*
