%TF.GenerationSoftware,KiCad,Pcbnew,(5.1.6)-1*%
%TF.CreationDate,2020-10-21T23:40:19+01:00*%
%TF.ProjectId,nyantern,6e79616e-7465-4726-9e2e-6b696361645f,rev?*%
%TF.SameCoordinates,Original*%
%TF.FileFunction,Legend,Top*%
%TF.FilePolarity,Positive*%
%FSLAX46Y46*%
G04 Gerber Fmt 4.6, Leading zero omitted, Abs format (unit mm)*
G04 Created by KiCad (PCBNEW (5.1.6)-1) date 2020-10-21 23:40:19*
%MOMM*%
%LPD*%
G01*
G04 APERTURE LIST*
%ADD10C,0.250000*%
%ADD11C,0.300000*%
%ADD12C,0.120000*%
%ADD13C,0.100000*%
%ADD14C,0.150000*%
%ADD15C,0.200000*%
G04 APERTURE END LIST*
D10*
X177952380Y-90333333D02*
X177952380Y-90904761D01*
X177952380Y-90619047D02*
X176952380Y-90619047D01*
X177095238Y-90714285D01*
X177190476Y-90809523D01*
X177238095Y-90904761D01*
X177571428Y-89904761D02*
X177571428Y-89142857D01*
X176952380Y-88190476D02*
X176952380Y-88666666D01*
X177428571Y-88714285D01*
X177380952Y-88666666D01*
X177333333Y-88571428D01*
X177333333Y-88333333D01*
X177380952Y-88238095D01*
X177428571Y-88190476D01*
X177523809Y-88142857D01*
X177761904Y-88142857D01*
X177857142Y-88190476D01*
X177904761Y-88238095D01*
X177952380Y-88333333D01*
X177952380Y-88571428D01*
X177904761Y-88666666D01*
X177857142Y-88714285D01*
X176952380Y-87857142D02*
X177952380Y-87523809D01*
X176952380Y-87190476D01*
X176952380Y-86190476D02*
X176952380Y-85571428D01*
X177333333Y-85904761D01*
X177333333Y-85761904D01*
X177380952Y-85666666D01*
X177428571Y-85619047D01*
X177523809Y-85571428D01*
X177761904Y-85571428D01*
X177857142Y-85619047D01*
X177904761Y-85666666D01*
X177952380Y-85761904D01*
X177952380Y-86047619D01*
X177904761Y-86142857D01*
X177857142Y-86190476D01*
X177571428Y-85142857D02*
X177571428Y-84380952D01*
X176952380Y-84047619D02*
X177952380Y-83714285D01*
X176952380Y-83380952D01*
X177952380Y-83047619D02*
X176952380Y-83047619D01*
X177333333Y-83047619D02*
X177285714Y-82952380D01*
X177285714Y-82761904D01*
X177333333Y-82666666D01*
X177380952Y-82619047D01*
X177476190Y-82571428D01*
X177761904Y-82571428D01*
X177857142Y-82619047D01*
X177904761Y-82666666D01*
X177952380Y-82761904D01*
X177952380Y-82952380D01*
X177904761Y-83047619D01*
X177952380Y-81714285D02*
X177428571Y-81714285D01*
X177333333Y-81761904D01*
X177285714Y-81857142D01*
X177285714Y-82047619D01*
X177333333Y-82142857D01*
X177904761Y-81714285D02*
X177952380Y-81809523D01*
X177952380Y-82047619D01*
X177904761Y-82142857D01*
X177809523Y-82190476D01*
X177714285Y-82190476D01*
X177619047Y-82142857D01*
X177571428Y-82047619D01*
X177571428Y-81809523D01*
X177523809Y-81714285D01*
X177285714Y-81380952D02*
X177285714Y-81000000D01*
X176952380Y-81238095D02*
X177809523Y-81238095D01*
X177904761Y-81190476D01*
X177952380Y-81095238D01*
X177952380Y-81000000D01*
D11*
X148978571Y-127128571D02*
X150050000Y-127128571D01*
X150264285Y-127200000D01*
X150407142Y-127342857D01*
X150478571Y-127557142D01*
X150478571Y-127700000D01*
X150478571Y-125700000D02*
X150478571Y-126414285D01*
X148978571Y-126414285D01*
X150335714Y-124342857D02*
X150407142Y-124414285D01*
X150478571Y-124628571D01*
X150478571Y-124771428D01*
X150407142Y-124985714D01*
X150264285Y-125128571D01*
X150121428Y-125200000D01*
X149835714Y-125271428D01*
X149621428Y-125271428D01*
X149335714Y-125200000D01*
X149192857Y-125128571D01*
X149050000Y-124985714D01*
X148978571Y-124771428D01*
X148978571Y-124628571D01*
X149050000Y-124414285D01*
X149121428Y-124342857D01*
X148978571Y-123271428D02*
X150050000Y-123271428D01*
X150264285Y-123342857D01*
X150407142Y-123485714D01*
X150478571Y-123700000D01*
X150478571Y-123842857D01*
X150478571Y-121842857D02*
X150478571Y-122557142D01*
X148978571Y-122557142D01*
X150335714Y-120485714D02*
X150407142Y-120557142D01*
X150478571Y-120771428D01*
X150478571Y-120914285D01*
X150407142Y-121128571D01*
X150264285Y-121271428D01*
X150121428Y-121342857D01*
X149835714Y-121414285D01*
X149621428Y-121414285D01*
X149335714Y-121342857D01*
X149192857Y-121271428D01*
X149050000Y-121128571D01*
X148978571Y-120914285D01*
X148978571Y-120771428D01*
X149050000Y-120557142D01*
X149121428Y-120485714D01*
X148978571Y-119414285D02*
X150050000Y-119414285D01*
X150264285Y-119485714D01*
X150407142Y-119628571D01*
X150478571Y-119842857D01*
X150478571Y-119985714D01*
X150478571Y-117985714D02*
X150478571Y-118700000D01*
X148978571Y-118700000D01*
X150335714Y-116628571D02*
X150407142Y-116700000D01*
X150478571Y-116914285D01*
X150478571Y-117057142D01*
X150407142Y-117271428D01*
X150264285Y-117414285D01*
X150121428Y-117485714D01*
X149835714Y-117557142D01*
X149621428Y-117557142D01*
X149335714Y-117485714D01*
X149192857Y-117414285D01*
X149050000Y-117271428D01*
X148978571Y-117057142D01*
X148978571Y-116914285D01*
X149050000Y-116700000D01*
X149121428Y-116628571D01*
X148978571Y-115557142D02*
X150050000Y-115557142D01*
X150264285Y-115628571D01*
X150407142Y-115771428D01*
X150478571Y-115985714D01*
X150478571Y-116128571D01*
X150478571Y-114128571D02*
X150478571Y-114842857D01*
X148978571Y-114842857D01*
X150335714Y-112771428D02*
X150407142Y-112842857D01*
X150478571Y-113057142D01*
X150478571Y-113200000D01*
X150407142Y-113414285D01*
X150264285Y-113557142D01*
X150121428Y-113628571D01*
X149835714Y-113700000D01*
X149621428Y-113700000D01*
X149335714Y-113628571D01*
X149192857Y-113557142D01*
X149050000Y-113414285D01*
X148978571Y-113200000D01*
X148978571Y-113057142D01*
X149050000Y-112842857D01*
X149121428Y-112771428D01*
D12*
%TO.C,D8*%
X119250000Y-78650000D02*
X120400000Y-78650000D01*
X119250000Y-71350000D02*
X119250000Y-78650000D01*
X124750000Y-71350000D02*
X124750000Y-78650000D01*
%TO.C,D7*%
X119250000Y-128650000D02*
X120400000Y-128650000D01*
X119250000Y-121350000D02*
X119250000Y-128650000D01*
X124750000Y-121350000D02*
X124750000Y-128650000D01*
%TO.C,D4*%
X180750000Y-121350000D02*
X179600000Y-121350000D01*
X180750000Y-128650000D02*
X180750000Y-121350000D01*
X175250000Y-128650000D02*
X175250000Y-121350000D01*
%TO.C,D3*%
X180750000Y-71350000D02*
X179600000Y-71350000D01*
X180750000Y-78650000D02*
X180750000Y-71350000D01*
X175250000Y-78650000D02*
X175250000Y-71350000D01*
%TO.C,U4*%
X160110000Y-101330000D02*
X160110000Y-98670000D01*
X142270000Y-101330000D02*
X160110000Y-101330000D01*
X142270000Y-98670000D02*
X160110000Y-98670000D01*
X142270000Y-101330000D02*
X142270000Y-98670000D01*
X141000000Y-101330000D02*
X139670000Y-101330000D01*
X139670000Y-101330000D02*
X139670000Y-100000000D01*
D13*
%TO.C,U3*%
X160817472Y-139077228D02*
X155006180Y-139077228D01*
X155006180Y-139077228D02*
X154979849Y-137793795D01*
X154979849Y-137793795D02*
X146148627Y-137800483D01*
X146148627Y-137800483D02*
X146150603Y-139002736D01*
X146150603Y-139002736D02*
X137069807Y-138976658D01*
X137069807Y-138976658D02*
X137083805Y-107806507D01*
X137083805Y-107806507D02*
X137316616Y-107203714D01*
X137316616Y-107203714D02*
X137600099Y-106658833D01*
X137600099Y-106658833D02*
X137934747Y-106172423D01*
X137934747Y-106172423D02*
X138321047Y-105745048D01*
X138321047Y-105745048D02*
X138759488Y-105377259D01*
X138759488Y-105377259D02*
X139250560Y-105069623D01*
X139250560Y-105069623D02*
X139794750Y-104822690D01*
X139794750Y-104822690D02*
X140392547Y-104637024D01*
X140392547Y-104637024D02*
X159430460Y-104608266D01*
X159430460Y-104608266D02*
X160049824Y-104842259D01*
X160049824Y-104842259D02*
X160638018Y-105126742D01*
X160638018Y-105126742D02*
X161181445Y-105476257D01*
X161181445Y-105476257D02*
X161666503Y-105905342D01*
X161666503Y-105905342D02*
X162079595Y-106428540D01*
X162079595Y-106428540D02*
X162407122Y-107060387D01*
X162407122Y-107060387D02*
X162635482Y-107815425D01*
X162635482Y-107815425D02*
X162751078Y-108708193D01*
X162751078Y-108708193D02*
X162776026Y-131263285D01*
X162776026Y-131263285D02*
X160832480Y-132224181D01*
X160832480Y-132224181D02*
X160802686Y-139032524D01*
X146820350Y-132851451D02*
X153959931Y-132851451D01*
X153959931Y-132851451D02*
X153959931Y-138665188D01*
X153959931Y-138665188D02*
X146820350Y-138665188D01*
X146820350Y-138665188D02*
X146820350Y-132851451D01*
X160743600Y-132202349D02*
X159191378Y-132202349D01*
X159191378Y-132202349D02*
X158662211Y-132731515D01*
X158662211Y-132731515D02*
X157409850Y-132731515D01*
X157409850Y-132731515D02*
X157409850Y-137793876D01*
X157409850Y-137793876D02*
X158697489Y-137793876D01*
X158697489Y-137793876D02*
X159226656Y-138287765D01*
X159226656Y-138287765D02*
X160796517Y-138287765D01*
X160796517Y-138287765D02*
X160743600Y-132202349D01*
X160778878Y-134283738D02*
X161431517Y-134283738D01*
X161431517Y-134283738D02*
X161431517Y-136276932D01*
X161431517Y-136276932D02*
X160814156Y-136276932D01*
D12*
%TO.C,U2*%
X131400000Y-78900000D02*
X131400000Y-96100000D01*
X131400000Y-96100000D02*
X168600000Y-96100000D01*
X168600000Y-96100000D02*
X168600000Y-78900000D01*
X168600000Y-78900000D02*
X131400000Y-78900000D01*
D13*
G36*
X145000000Y-81500000D02*
G01*
X131500000Y-81500000D01*
X131500000Y-78900000D01*
X145000000Y-78900000D01*
X145000000Y-81500000D01*
G37*
X145000000Y-81500000D02*
X131500000Y-81500000D01*
X131500000Y-78900000D01*
X145000000Y-78900000D01*
X145000000Y-81500000D01*
G36*
X131487500Y-95975000D02*
G01*
X131500000Y-78900000D01*
X134525000Y-78950000D01*
X134512500Y-96025000D01*
X131487500Y-95975000D01*
G37*
X131487500Y-95975000D02*
X131500000Y-78900000D01*
X134525000Y-78950000D01*
X134512500Y-96025000D01*
X131487500Y-95975000D01*
G36*
X168500000Y-96100000D02*
G01*
X131500000Y-96100000D01*
X131500000Y-93500000D01*
X168500000Y-93500000D01*
X168500000Y-96100000D01*
G37*
X168500000Y-96100000D02*
X131500000Y-96100000D01*
X131500000Y-93500000D01*
X168500000Y-93500000D01*
X168500000Y-96100000D01*
G36*
X168500000Y-91500000D02*
G01*
X134500000Y-91500000D01*
X134500000Y-83500000D01*
X168500000Y-83500000D01*
X168500000Y-91500000D01*
G37*
X168500000Y-91500000D02*
X134500000Y-91500000D01*
X134500000Y-83500000D01*
X168500000Y-83500000D01*
X168500000Y-91500000D01*
G36*
X168500000Y-81500000D02*
G01*
X154750000Y-81500000D01*
X154750000Y-78900000D01*
X168500000Y-78900000D01*
X168500000Y-81500000D01*
G37*
X168500000Y-81500000D02*
X154750000Y-81500000D01*
X154750000Y-78900000D01*
X168500000Y-78900000D01*
X168500000Y-81500000D01*
G36*
X165487500Y-95975000D02*
G01*
X165500000Y-78900000D01*
X168525000Y-78950000D01*
X168512500Y-96025000D01*
X165487500Y-95975000D01*
G37*
X165487500Y-95975000D02*
X165500000Y-78900000D01*
X168525000Y-78950000D01*
X168512500Y-96025000D01*
X165487500Y-95975000D01*
D12*
%TO.C,U1*%
X136000000Y-57900000D02*
X164000000Y-57900000D01*
X164000000Y-57900000D02*
X164000000Y-75100000D01*
X164000000Y-75100000D02*
X136000000Y-75100000D01*
X136000000Y-75100000D02*
X136000000Y-57900000D01*
D13*
G36*
X164000000Y-75100000D02*
G01*
X140200000Y-75100000D01*
X140200000Y-61600000D01*
X164000000Y-61600000D01*
X164000000Y-75100000D01*
G37*
X164000000Y-75100000D02*
X140200000Y-75100000D01*
X140200000Y-61600000D01*
X164000000Y-61600000D01*
X164000000Y-75100000D01*
G36*
X143900000Y-63700000D02*
G01*
X136000000Y-63700000D01*
X136000000Y-57900000D01*
X143900000Y-57900000D01*
X143900000Y-63700000D01*
G37*
X143900000Y-63700000D02*
X136000000Y-63700000D01*
X136000000Y-57900000D01*
X143900000Y-57900000D01*
X143900000Y-63700000D01*
G36*
X140300000Y-75100000D02*
G01*
X136000000Y-75100000D01*
X136000000Y-69300000D01*
X140300000Y-69300000D01*
X140300000Y-75100000D01*
G37*
X140300000Y-75100000D02*
X136000000Y-75100000D01*
X136000000Y-69300000D01*
X140300000Y-69300000D01*
X140300000Y-75100000D01*
G36*
X164000000Y-63700000D02*
G01*
X156100000Y-63700000D01*
X156100000Y-57900000D01*
X164000000Y-57900000D01*
X164000000Y-63700000D01*
G37*
X164000000Y-63700000D02*
X156100000Y-63700000D01*
X156100000Y-57900000D01*
X164000000Y-57900000D01*
X164000000Y-63700000D01*
D12*
%TO.C,JP1*%
X174300000Y-88050000D02*
X173700000Y-88050000D01*
X175000000Y-84600000D02*
X175000000Y-87400000D01*
X173700000Y-83950000D02*
X174300000Y-83950000D01*
X173000000Y-87400000D02*
X173000000Y-84600000D01*
X173700000Y-88050000D02*
G75*
G02*
X173000000Y-87350000I0J700000D01*
G01*
X175000000Y-87350000D02*
G75*
G02*
X174300000Y-88050000I-700000J0D01*
G01*
X174300000Y-83950000D02*
G75*
G02*
X175000000Y-84650000I0J-700000D01*
G01*
X173000000Y-84650000D02*
G75*
G02*
X173700000Y-83950000I700000J0D01*
G01*
%TO.C,C8*%
X107258578Y-81710000D02*
X106741422Y-81710000D01*
X107258578Y-80290000D02*
X106741422Y-80290000D01*
%TO.C,C7*%
X107258578Y-131710000D02*
X106741422Y-131710000D01*
X107258578Y-130290000D02*
X106741422Y-130290000D01*
%TO.C,C6*%
X131710000Y-142741422D02*
X131710000Y-143258578D01*
X130290000Y-142741422D02*
X130290000Y-143258578D01*
%TO.C,C5*%
X181910000Y-142741422D02*
X181910000Y-143258578D01*
X180490000Y-142741422D02*
X180490000Y-143258578D01*
%TO.C,C4*%
X192741422Y-118290000D02*
X193258578Y-118290000D01*
X192741422Y-119710000D02*
X193258578Y-119710000D01*
%TO.C,C3*%
X192941422Y-68090000D02*
X193458578Y-68090000D01*
X192941422Y-69510000D02*
X193458578Y-69510000D01*
%TO.C,C2*%
X168290000Y-57258578D02*
X168290000Y-56741422D01*
X169710000Y-57258578D02*
X169710000Y-56741422D01*
%TO.C,C1*%
X118290000Y-57258578D02*
X118290000Y-56741422D01*
X119710000Y-57258578D02*
X119710000Y-56741422D01*
%TO.C,D8*%
X109750000Y-71350000D02*
X109750000Y-78650000D01*
X104250000Y-71350000D02*
X104250000Y-78650000D01*
X104250000Y-78650000D02*
X105400000Y-78650000D01*
%TO.C,D7*%
X109750000Y-121350000D02*
X109750000Y-128650000D01*
X104250000Y-121350000D02*
X104250000Y-128650000D01*
X104250000Y-128650000D02*
X105400000Y-128650000D01*
%TO.C,D6*%
X121350000Y-140250000D02*
X128650000Y-140250000D01*
X121350000Y-145750000D02*
X128650000Y-145750000D01*
X128650000Y-145750000D02*
X128650000Y-144600000D01*
%TO.C,D5*%
X171350000Y-140250000D02*
X178650000Y-140250000D01*
X171350000Y-145750000D02*
X178650000Y-145750000D01*
X178650000Y-145750000D02*
X178650000Y-144600000D01*
%TO.C,D4*%
X190250000Y-128650000D02*
X190250000Y-121350000D01*
X195750000Y-128650000D02*
X195750000Y-121350000D01*
X195750000Y-121350000D02*
X194600000Y-121350000D01*
%TO.C,D3*%
X190250000Y-78650000D02*
X190250000Y-71350000D01*
X195750000Y-78650000D02*
X195750000Y-71350000D01*
X195750000Y-71350000D02*
X194600000Y-71350000D01*
%TO.C,D2*%
X178650000Y-59750000D02*
X171350000Y-59750000D01*
X178650000Y-54250000D02*
X171350000Y-54250000D01*
X171350000Y-54250000D02*
X171350000Y-55400000D01*
%TO.C,D1*%
X128650000Y-59750000D02*
X121350000Y-59750000D01*
X128650000Y-54250000D02*
X121350000Y-54250000D01*
X121350000Y-54250000D02*
X121350000Y-55400000D01*
%TO.C,J1*%
X155150000Y-76620000D02*
X155150000Y-77950000D01*
X155150000Y-77950000D02*
X153820000Y-77950000D01*
X152550000Y-77950000D02*
X144870000Y-77950000D01*
X144870000Y-75290000D02*
X144870000Y-77950000D01*
X152550000Y-75290000D02*
X144870000Y-75290000D01*
X152550000Y-75290000D02*
X152550000Y-77950000D01*
%TO.C,D8*%
D14*
X125952380Y-75738095D02*
X124952380Y-75738095D01*
X124952380Y-75500000D01*
X125000000Y-75357142D01*
X125095238Y-75261904D01*
X125190476Y-75214285D01*
X125380952Y-75166666D01*
X125523809Y-75166666D01*
X125714285Y-75214285D01*
X125809523Y-75261904D01*
X125904761Y-75357142D01*
X125952380Y-75500000D01*
X125952380Y-75738095D01*
X125380952Y-74595238D02*
X125333333Y-74690476D01*
X125285714Y-74738095D01*
X125190476Y-74785714D01*
X125142857Y-74785714D01*
X125047619Y-74738095D01*
X125000000Y-74690476D01*
X124952380Y-74595238D01*
X124952380Y-74404761D01*
X125000000Y-74309523D01*
X125047619Y-74261904D01*
X125142857Y-74214285D01*
X125190476Y-74214285D01*
X125285714Y-74261904D01*
X125333333Y-74309523D01*
X125380952Y-74404761D01*
X125380952Y-74595238D01*
X125428571Y-74690476D01*
X125476190Y-74738095D01*
X125571428Y-74785714D01*
X125761904Y-74785714D01*
X125857142Y-74738095D01*
X125904761Y-74690476D01*
X125952380Y-74595238D01*
X125952380Y-74404761D01*
X125904761Y-74309523D01*
X125857142Y-74261904D01*
X125761904Y-74214285D01*
X125571428Y-74214285D01*
X125476190Y-74261904D01*
X125428571Y-74309523D01*
X125380952Y-74404761D01*
%TO.C,D7*%
X125952380Y-125738095D02*
X124952380Y-125738095D01*
X124952380Y-125500000D01*
X125000000Y-125357142D01*
X125095238Y-125261904D01*
X125190476Y-125214285D01*
X125380952Y-125166666D01*
X125523809Y-125166666D01*
X125714285Y-125214285D01*
X125809523Y-125261904D01*
X125904761Y-125357142D01*
X125952380Y-125500000D01*
X125952380Y-125738095D01*
X124952380Y-124833333D02*
X124952380Y-124166666D01*
X125952380Y-124595238D01*
%TO.C,D4*%
X174952380Y-125738095D02*
X173952380Y-125738095D01*
X173952380Y-125500000D01*
X174000000Y-125357142D01*
X174095238Y-125261904D01*
X174190476Y-125214285D01*
X174380952Y-125166666D01*
X174523809Y-125166666D01*
X174714285Y-125214285D01*
X174809523Y-125261904D01*
X174904761Y-125357142D01*
X174952380Y-125500000D01*
X174952380Y-125738095D01*
X174285714Y-124309523D02*
X174952380Y-124309523D01*
X173904761Y-124547619D02*
X174619047Y-124785714D01*
X174619047Y-124166666D01*
%TO.C,D3*%
X174952380Y-75738095D02*
X173952380Y-75738095D01*
X173952380Y-75500000D01*
X174000000Y-75357142D01*
X174095238Y-75261904D01*
X174190476Y-75214285D01*
X174380952Y-75166666D01*
X174523809Y-75166666D01*
X174714285Y-75214285D01*
X174809523Y-75261904D01*
X174904761Y-75357142D01*
X174952380Y-75500000D01*
X174952380Y-75738095D01*
X173952380Y-74833333D02*
X173952380Y-74214285D01*
X174333333Y-74547619D01*
X174333333Y-74404761D01*
X174380952Y-74309523D01*
X174428571Y-74261904D01*
X174523809Y-74214285D01*
X174761904Y-74214285D01*
X174857142Y-74261904D01*
X174904761Y-74309523D01*
X174952380Y-74404761D01*
X174952380Y-74690476D01*
X174904761Y-74785714D01*
X174857142Y-74833333D01*
%TO.C,U4*%
X138122380Y-100761904D02*
X138931904Y-100761904D01*
X139027142Y-100714285D01*
X139074761Y-100666666D01*
X139122380Y-100571428D01*
X139122380Y-100380952D01*
X139074761Y-100285714D01*
X139027142Y-100238095D01*
X138931904Y-100190476D01*
X138122380Y-100190476D01*
X138455714Y-99285714D02*
X139122380Y-99285714D01*
X138074761Y-99523809D02*
X138789047Y-99761904D01*
X138789047Y-99142857D01*
%TO.C,U3*%
X149238095Y-139852380D02*
X149238095Y-140661904D01*
X149285714Y-140757142D01*
X149333333Y-140804761D01*
X149428571Y-140852380D01*
X149619047Y-140852380D01*
X149714285Y-140804761D01*
X149761904Y-140757142D01*
X149809523Y-140661904D01*
X149809523Y-139852380D01*
X150190476Y-139852380D02*
X150809523Y-139852380D01*
X150476190Y-140233333D01*
X150619047Y-140233333D01*
X150714285Y-140280952D01*
X150761904Y-140328571D01*
X150809523Y-140423809D01*
X150809523Y-140661904D01*
X150761904Y-140757142D01*
X150714285Y-140804761D01*
X150619047Y-140852380D01*
X150333333Y-140852380D01*
X150238095Y-140804761D01*
X150190476Y-140757142D01*
X143142857Y-105917142D02*
X143857142Y-108917142D01*
X144428571Y-106774285D01*
X145000000Y-108917142D01*
X145714285Y-105917142D01*
X148000000Y-108774285D02*
X147714285Y-108917142D01*
X147142857Y-108917142D01*
X146857142Y-108774285D01*
X146714285Y-108488571D01*
X146714285Y-107345714D01*
X146857142Y-107060000D01*
X147142857Y-106917142D01*
X147714285Y-106917142D01*
X148000000Y-107060000D01*
X148142857Y-107345714D01*
X148142857Y-107631428D01*
X146714285Y-107917142D01*
X149428571Y-108917142D02*
X149428571Y-105917142D01*
X150428571Y-108060000D01*
X151428571Y-105917142D01*
X151428571Y-108917142D01*
X153285714Y-108917142D02*
X153000000Y-108774285D01*
X152857142Y-108631428D01*
X152714285Y-108345714D01*
X152714285Y-107488571D01*
X152857142Y-107202857D01*
X153000000Y-107060000D01*
X153285714Y-106917142D01*
X153714285Y-106917142D01*
X154000000Y-107060000D01*
X154142857Y-107202857D01*
X154285714Y-107488571D01*
X154285714Y-108345714D01*
X154142857Y-108631428D01*
X154000000Y-108774285D01*
X153714285Y-108917142D01*
X153285714Y-108917142D01*
X155428571Y-108774285D02*
X155714285Y-108917142D01*
X156285714Y-108917142D01*
X156571428Y-108774285D01*
X156714285Y-108488571D01*
X156714285Y-108345714D01*
X156571428Y-108060000D01*
X156285714Y-107917142D01*
X155857142Y-107917142D01*
X155571428Y-107774285D01*
X155428571Y-107488571D01*
X155428571Y-107345714D01*
X155571428Y-107060000D01*
X155857142Y-106917142D01*
X156285714Y-106917142D01*
X156571428Y-107060000D01*
%TO.C,U2*%
D15*
X162273809Y-81952380D02*
X162607142Y-82952380D01*
X162940476Y-81952380D01*
X163464285Y-81952380D02*
X163654761Y-81952380D01*
X163750000Y-82000000D01*
X163845238Y-82095238D01*
X163892857Y-82285714D01*
X163892857Y-82619047D01*
X163845238Y-82809523D01*
X163750000Y-82904761D01*
X163654761Y-82952380D01*
X163464285Y-82952380D01*
X163369047Y-82904761D01*
X163273809Y-82809523D01*
X163226190Y-82619047D01*
X163226190Y-82285714D01*
X163273809Y-82095238D01*
X163369047Y-82000000D01*
X163464285Y-81952380D01*
X164321428Y-82571428D02*
X165083333Y-82571428D01*
X162273809Y-91952380D02*
X162607142Y-92952380D01*
X162940476Y-91952380D01*
X163464285Y-91952380D02*
X163654761Y-91952380D01*
X163750000Y-92000000D01*
X163845238Y-92095238D01*
X163892857Y-92285714D01*
X163892857Y-92619047D01*
X163845238Y-92809523D01*
X163750000Y-92904761D01*
X163654761Y-92952380D01*
X163464285Y-92952380D01*
X163369047Y-92904761D01*
X163273809Y-92809523D01*
X163226190Y-92619047D01*
X163226190Y-92285714D01*
X163273809Y-92095238D01*
X163369047Y-92000000D01*
X163464285Y-91952380D01*
X164321428Y-92571428D02*
X165083333Y-92571428D01*
X164702380Y-92952380D02*
X164702380Y-92190476D01*
X134809523Y-81952380D02*
X135142857Y-82952380D01*
X135476190Y-81952380D01*
X135809523Y-82952380D02*
X135809523Y-81952380D01*
X136285714Y-82571428D02*
X137047619Y-82571428D01*
X134809523Y-91952380D02*
X135142857Y-92952380D01*
X135476190Y-91952380D01*
X135809523Y-92952380D02*
X135809523Y-91952380D01*
X136285714Y-92571428D02*
X137047619Y-92571428D01*
X136666666Y-92952380D02*
X136666666Y-92190476D01*
X146071428Y-80928571D02*
X146071428Y-79428571D01*
X146571428Y-80500000D01*
X147071428Y-79428571D01*
X147071428Y-80928571D01*
X147571428Y-79428571D02*
X148428571Y-79428571D01*
X148000000Y-80928571D02*
X148000000Y-79428571D01*
X148785714Y-79428571D02*
X149714285Y-79428571D01*
X149214285Y-80000000D01*
X149428571Y-80000000D01*
X149571428Y-80071428D01*
X149642857Y-80142857D01*
X149714285Y-80285714D01*
X149714285Y-80642857D01*
X149642857Y-80785714D01*
X149571428Y-80857142D01*
X149428571Y-80928571D01*
X149000000Y-80928571D01*
X148857142Y-80857142D01*
X148785714Y-80785714D01*
X151000000Y-79428571D02*
X150714285Y-79428571D01*
X150571428Y-79500000D01*
X150500000Y-79571428D01*
X150357142Y-79785714D01*
X150285714Y-80071428D01*
X150285714Y-80642857D01*
X150357142Y-80785714D01*
X150428571Y-80857142D01*
X150571428Y-80928571D01*
X150857142Y-80928571D01*
X151000000Y-80857142D01*
X151071428Y-80785714D01*
X151142857Y-80642857D01*
X151142857Y-80285714D01*
X151071428Y-80142857D01*
X151000000Y-80071428D01*
X150857142Y-80000000D01*
X150571428Y-80000000D01*
X150428571Y-80071428D01*
X150357142Y-80142857D01*
X150285714Y-80285714D01*
X152071428Y-79428571D02*
X152214285Y-79428571D01*
X152357142Y-79500000D01*
X152428571Y-79571428D01*
X152500000Y-79714285D01*
X152571428Y-80000000D01*
X152571428Y-80357142D01*
X152500000Y-80642857D01*
X152428571Y-80785714D01*
X152357142Y-80857142D01*
X152214285Y-80928571D01*
X152071428Y-80928571D01*
X151928571Y-80857142D01*
X151857142Y-80785714D01*
X151785714Y-80642857D01*
X151714285Y-80357142D01*
X151714285Y-80000000D01*
X151785714Y-79714285D01*
X151857142Y-79571428D01*
X151928571Y-79500000D01*
X152071428Y-79428571D01*
X153428571Y-80071428D02*
X153285714Y-80000000D01*
X153214285Y-79928571D01*
X153142857Y-79785714D01*
X153142857Y-79714285D01*
X153214285Y-79571428D01*
X153285714Y-79500000D01*
X153428571Y-79428571D01*
X153714285Y-79428571D01*
X153857142Y-79500000D01*
X153928571Y-79571428D01*
X154000000Y-79714285D01*
X154000000Y-79785714D01*
X153928571Y-79928571D01*
X153857142Y-80000000D01*
X153714285Y-80071428D01*
X153428571Y-80071428D01*
X153285714Y-80142857D01*
X153214285Y-80214285D01*
X153142857Y-80357142D01*
X153142857Y-80642857D01*
X153214285Y-80785714D01*
X153285714Y-80857142D01*
X153428571Y-80928571D01*
X153714285Y-80928571D01*
X153857142Y-80857142D01*
X153928571Y-80785714D01*
X154000000Y-80642857D01*
X154000000Y-80357142D01*
X153928571Y-80214285D01*
X153857142Y-80142857D01*
X153714285Y-80071428D01*
%TO.C,U1*%
X144619047Y-58804761D02*
X145761904Y-58804761D01*
X145190476Y-60804761D02*
X145190476Y-58804761D01*
X146428571Y-60804761D02*
X146428571Y-58804761D01*
X147190476Y-58804761D01*
X147380952Y-58900000D01*
X147476190Y-58995238D01*
X147571428Y-59185714D01*
X147571428Y-59471428D01*
X147476190Y-59661904D01*
X147380952Y-59757142D01*
X147190476Y-59852380D01*
X146428571Y-59852380D01*
X149285714Y-59471428D02*
X149285714Y-60804761D01*
X148809523Y-58709523D02*
X148333333Y-60138095D01*
X149571428Y-60138095D01*
X150714285Y-58804761D02*
X150904761Y-58804761D01*
X151095238Y-58900000D01*
X151190476Y-58995238D01*
X151285714Y-59185714D01*
X151380952Y-59566666D01*
X151380952Y-60042857D01*
X151285714Y-60423809D01*
X151190476Y-60614285D01*
X151095238Y-60709523D01*
X150904761Y-60804761D01*
X150714285Y-60804761D01*
X150523809Y-60709523D01*
X150428571Y-60614285D01*
X150333333Y-60423809D01*
X150238095Y-60042857D01*
X150238095Y-59566666D01*
X150333333Y-59185714D01*
X150428571Y-58995238D01*
X150523809Y-58900000D01*
X150714285Y-58804761D01*
X153190476Y-58804761D02*
X152238095Y-58804761D01*
X152142857Y-59757142D01*
X152238095Y-59661904D01*
X152428571Y-59566666D01*
X152904761Y-59566666D01*
X153095238Y-59661904D01*
X153190476Y-59757142D01*
X153285714Y-59947619D01*
X153285714Y-60423809D01*
X153190476Y-60614285D01*
X153095238Y-60709523D01*
X152904761Y-60804761D01*
X152428571Y-60804761D01*
X152238095Y-60709523D01*
X152142857Y-60614285D01*
X155000000Y-58804761D02*
X154619047Y-58804761D01*
X154428571Y-58900000D01*
X154333333Y-58995238D01*
X154142857Y-59280952D01*
X154047619Y-59661904D01*
X154047619Y-60423809D01*
X154142857Y-60614285D01*
X154238095Y-60709523D01*
X154428571Y-60804761D01*
X154809523Y-60804761D01*
X155000000Y-60709523D01*
X155095238Y-60614285D01*
X155190476Y-60423809D01*
X155190476Y-59947619D01*
X155095238Y-59757142D01*
X155000000Y-59661904D01*
X154809523Y-59566666D01*
X154428571Y-59566666D01*
X154238095Y-59661904D01*
X154142857Y-59757142D01*
X154047619Y-59947619D01*
%TO.C,JP1*%
D14*
X174452380Y-88314285D02*
X174452380Y-88885714D01*
X174452380Y-88600000D02*
X173452380Y-88600000D01*
X173595238Y-88695238D01*
X173690476Y-88790476D01*
X173738095Y-88885714D01*
X173452380Y-83733333D02*
X173452380Y-83114285D01*
X173833333Y-83447619D01*
X173833333Y-83304761D01*
X173880952Y-83209523D01*
X173928571Y-83161904D01*
X174023809Y-83114285D01*
X174261904Y-83114285D01*
X174357142Y-83161904D01*
X174404761Y-83209523D01*
X174452380Y-83304761D01*
X174452380Y-83590476D01*
X174404761Y-83685714D01*
X174357142Y-83733333D01*
%TO.C,C8*%
X106833333Y-83007142D02*
X106785714Y-83054761D01*
X106642857Y-83102380D01*
X106547619Y-83102380D01*
X106404761Y-83054761D01*
X106309523Y-82959523D01*
X106261904Y-82864285D01*
X106214285Y-82673809D01*
X106214285Y-82530952D01*
X106261904Y-82340476D01*
X106309523Y-82245238D01*
X106404761Y-82150000D01*
X106547619Y-82102380D01*
X106642857Y-82102380D01*
X106785714Y-82150000D01*
X106833333Y-82197619D01*
X107404761Y-82530952D02*
X107309523Y-82483333D01*
X107261904Y-82435714D01*
X107214285Y-82340476D01*
X107214285Y-82292857D01*
X107261904Y-82197619D01*
X107309523Y-82150000D01*
X107404761Y-82102380D01*
X107595238Y-82102380D01*
X107690476Y-82150000D01*
X107738095Y-82197619D01*
X107785714Y-82292857D01*
X107785714Y-82340476D01*
X107738095Y-82435714D01*
X107690476Y-82483333D01*
X107595238Y-82530952D01*
X107404761Y-82530952D01*
X107309523Y-82578571D01*
X107261904Y-82626190D01*
X107214285Y-82721428D01*
X107214285Y-82911904D01*
X107261904Y-83007142D01*
X107309523Y-83054761D01*
X107404761Y-83102380D01*
X107595238Y-83102380D01*
X107690476Y-83054761D01*
X107738095Y-83007142D01*
X107785714Y-82911904D01*
X107785714Y-82721428D01*
X107738095Y-82626190D01*
X107690476Y-82578571D01*
X107595238Y-82530952D01*
%TO.C,C7*%
X106833333Y-133007142D02*
X106785714Y-133054761D01*
X106642857Y-133102380D01*
X106547619Y-133102380D01*
X106404761Y-133054761D01*
X106309523Y-132959523D01*
X106261904Y-132864285D01*
X106214285Y-132673809D01*
X106214285Y-132530952D01*
X106261904Y-132340476D01*
X106309523Y-132245238D01*
X106404761Y-132150000D01*
X106547619Y-132102380D01*
X106642857Y-132102380D01*
X106785714Y-132150000D01*
X106833333Y-132197619D01*
X107166666Y-132102380D02*
X107833333Y-132102380D01*
X107404761Y-133102380D01*
%TO.C,C6*%
X133007142Y-143166666D02*
X133054761Y-143214285D01*
X133102380Y-143357142D01*
X133102380Y-143452380D01*
X133054761Y-143595238D01*
X132959523Y-143690476D01*
X132864285Y-143738095D01*
X132673809Y-143785714D01*
X132530952Y-143785714D01*
X132340476Y-143738095D01*
X132245238Y-143690476D01*
X132150000Y-143595238D01*
X132102380Y-143452380D01*
X132102380Y-143357142D01*
X132150000Y-143214285D01*
X132197619Y-143166666D01*
X132102380Y-142309523D02*
X132102380Y-142500000D01*
X132150000Y-142595238D01*
X132197619Y-142642857D01*
X132340476Y-142738095D01*
X132530952Y-142785714D01*
X132911904Y-142785714D01*
X133007142Y-142738095D01*
X133054761Y-142690476D01*
X133102380Y-142595238D01*
X133102380Y-142404761D01*
X133054761Y-142309523D01*
X133007142Y-142261904D01*
X132911904Y-142214285D01*
X132673809Y-142214285D01*
X132578571Y-142261904D01*
X132530952Y-142309523D01*
X132483333Y-142404761D01*
X132483333Y-142595238D01*
X132530952Y-142690476D01*
X132578571Y-142738095D01*
X132673809Y-142785714D01*
%TO.C,C5*%
X183207142Y-143166666D02*
X183254761Y-143214285D01*
X183302380Y-143357142D01*
X183302380Y-143452380D01*
X183254761Y-143595238D01*
X183159523Y-143690476D01*
X183064285Y-143738095D01*
X182873809Y-143785714D01*
X182730952Y-143785714D01*
X182540476Y-143738095D01*
X182445238Y-143690476D01*
X182350000Y-143595238D01*
X182302380Y-143452380D01*
X182302380Y-143357142D01*
X182350000Y-143214285D01*
X182397619Y-143166666D01*
X182302380Y-142261904D02*
X182302380Y-142738095D01*
X182778571Y-142785714D01*
X182730952Y-142738095D01*
X182683333Y-142642857D01*
X182683333Y-142404761D01*
X182730952Y-142309523D01*
X182778571Y-142261904D01*
X182873809Y-142214285D01*
X183111904Y-142214285D01*
X183207142Y-142261904D01*
X183254761Y-142309523D01*
X183302380Y-142404761D01*
X183302380Y-142642857D01*
X183254761Y-142738095D01*
X183207142Y-142785714D01*
%TO.C,C4*%
X192833333Y-117707142D02*
X192785714Y-117754761D01*
X192642857Y-117802380D01*
X192547619Y-117802380D01*
X192404761Y-117754761D01*
X192309523Y-117659523D01*
X192261904Y-117564285D01*
X192214285Y-117373809D01*
X192214285Y-117230952D01*
X192261904Y-117040476D01*
X192309523Y-116945238D01*
X192404761Y-116850000D01*
X192547619Y-116802380D01*
X192642857Y-116802380D01*
X192785714Y-116850000D01*
X192833333Y-116897619D01*
X193690476Y-117135714D02*
X193690476Y-117802380D01*
X193452380Y-116754761D02*
X193214285Y-117469047D01*
X193833333Y-117469047D01*
%TO.C,C3*%
X193033333Y-67507142D02*
X192985714Y-67554761D01*
X192842857Y-67602380D01*
X192747619Y-67602380D01*
X192604761Y-67554761D01*
X192509523Y-67459523D01*
X192461904Y-67364285D01*
X192414285Y-67173809D01*
X192414285Y-67030952D01*
X192461904Y-66840476D01*
X192509523Y-66745238D01*
X192604761Y-66650000D01*
X192747619Y-66602380D01*
X192842857Y-66602380D01*
X192985714Y-66650000D01*
X193033333Y-66697619D01*
X193366666Y-66602380D02*
X193985714Y-66602380D01*
X193652380Y-66983333D01*
X193795238Y-66983333D01*
X193890476Y-67030952D01*
X193938095Y-67078571D01*
X193985714Y-67173809D01*
X193985714Y-67411904D01*
X193938095Y-67507142D01*
X193890476Y-67554761D01*
X193795238Y-67602380D01*
X193509523Y-67602380D01*
X193414285Y-67554761D01*
X193366666Y-67507142D01*
%TO.C,C2*%
X167707142Y-57166666D02*
X167754761Y-57214285D01*
X167802380Y-57357142D01*
X167802380Y-57452380D01*
X167754761Y-57595238D01*
X167659523Y-57690476D01*
X167564285Y-57738095D01*
X167373809Y-57785714D01*
X167230952Y-57785714D01*
X167040476Y-57738095D01*
X166945238Y-57690476D01*
X166850000Y-57595238D01*
X166802380Y-57452380D01*
X166802380Y-57357142D01*
X166850000Y-57214285D01*
X166897619Y-57166666D01*
X166897619Y-56785714D02*
X166850000Y-56738095D01*
X166802380Y-56642857D01*
X166802380Y-56404761D01*
X166850000Y-56309523D01*
X166897619Y-56261904D01*
X166992857Y-56214285D01*
X167088095Y-56214285D01*
X167230952Y-56261904D01*
X167802380Y-56833333D01*
X167802380Y-56214285D01*
%TO.C,C1*%
X117707142Y-57166666D02*
X117754761Y-57214285D01*
X117802380Y-57357142D01*
X117802380Y-57452380D01*
X117754761Y-57595238D01*
X117659523Y-57690476D01*
X117564285Y-57738095D01*
X117373809Y-57785714D01*
X117230952Y-57785714D01*
X117040476Y-57738095D01*
X116945238Y-57690476D01*
X116850000Y-57595238D01*
X116802380Y-57452380D01*
X116802380Y-57357142D01*
X116850000Y-57214285D01*
X116897619Y-57166666D01*
X117802380Y-56214285D02*
X117802380Y-56785714D01*
X117802380Y-56500000D02*
X116802380Y-56500000D01*
X116945238Y-56595238D01*
X117040476Y-56690476D01*
X117088095Y-56785714D01*
%TO.C,D8*%
X110952380Y-75738095D02*
X109952380Y-75738095D01*
X109952380Y-75500000D01*
X110000000Y-75357142D01*
X110095238Y-75261904D01*
X110190476Y-75214285D01*
X110380952Y-75166666D01*
X110523809Y-75166666D01*
X110714285Y-75214285D01*
X110809523Y-75261904D01*
X110904761Y-75357142D01*
X110952380Y-75500000D01*
X110952380Y-75738095D01*
X110380952Y-74595238D02*
X110333333Y-74690476D01*
X110285714Y-74738095D01*
X110190476Y-74785714D01*
X110142857Y-74785714D01*
X110047619Y-74738095D01*
X110000000Y-74690476D01*
X109952380Y-74595238D01*
X109952380Y-74404761D01*
X110000000Y-74309523D01*
X110047619Y-74261904D01*
X110142857Y-74214285D01*
X110190476Y-74214285D01*
X110285714Y-74261904D01*
X110333333Y-74309523D01*
X110380952Y-74404761D01*
X110380952Y-74595238D01*
X110428571Y-74690476D01*
X110476190Y-74738095D01*
X110571428Y-74785714D01*
X110761904Y-74785714D01*
X110857142Y-74738095D01*
X110904761Y-74690476D01*
X110952380Y-74595238D01*
X110952380Y-74404761D01*
X110904761Y-74309523D01*
X110857142Y-74261904D01*
X110761904Y-74214285D01*
X110571428Y-74214285D01*
X110476190Y-74261904D01*
X110428571Y-74309523D01*
X110380952Y-74404761D01*
%TO.C,D7*%
X110952380Y-125738095D02*
X109952380Y-125738095D01*
X109952380Y-125500000D01*
X110000000Y-125357142D01*
X110095238Y-125261904D01*
X110190476Y-125214285D01*
X110380952Y-125166666D01*
X110523809Y-125166666D01*
X110714285Y-125214285D01*
X110809523Y-125261904D01*
X110904761Y-125357142D01*
X110952380Y-125500000D01*
X110952380Y-125738095D01*
X109952380Y-124833333D02*
X109952380Y-124166666D01*
X110952380Y-124595238D01*
%TO.C,D6*%
X124261904Y-139952380D02*
X124261904Y-138952380D01*
X124500000Y-138952380D01*
X124642857Y-139000000D01*
X124738095Y-139095238D01*
X124785714Y-139190476D01*
X124833333Y-139380952D01*
X124833333Y-139523809D01*
X124785714Y-139714285D01*
X124738095Y-139809523D01*
X124642857Y-139904761D01*
X124500000Y-139952380D01*
X124261904Y-139952380D01*
X125690476Y-138952380D02*
X125500000Y-138952380D01*
X125404761Y-139000000D01*
X125357142Y-139047619D01*
X125261904Y-139190476D01*
X125214285Y-139380952D01*
X125214285Y-139761904D01*
X125261904Y-139857142D01*
X125309523Y-139904761D01*
X125404761Y-139952380D01*
X125595238Y-139952380D01*
X125690476Y-139904761D01*
X125738095Y-139857142D01*
X125785714Y-139761904D01*
X125785714Y-139523809D01*
X125738095Y-139428571D01*
X125690476Y-139380952D01*
X125595238Y-139333333D01*
X125404761Y-139333333D01*
X125309523Y-139380952D01*
X125261904Y-139428571D01*
X125214285Y-139523809D01*
%TO.C,D5*%
X174261904Y-139952380D02*
X174261904Y-138952380D01*
X174500000Y-138952380D01*
X174642857Y-139000000D01*
X174738095Y-139095238D01*
X174785714Y-139190476D01*
X174833333Y-139380952D01*
X174833333Y-139523809D01*
X174785714Y-139714285D01*
X174738095Y-139809523D01*
X174642857Y-139904761D01*
X174500000Y-139952380D01*
X174261904Y-139952380D01*
X175738095Y-138952380D02*
X175261904Y-138952380D01*
X175214285Y-139428571D01*
X175261904Y-139380952D01*
X175357142Y-139333333D01*
X175595238Y-139333333D01*
X175690476Y-139380952D01*
X175738095Y-139428571D01*
X175785714Y-139523809D01*
X175785714Y-139761904D01*
X175738095Y-139857142D01*
X175690476Y-139904761D01*
X175595238Y-139952380D01*
X175357142Y-139952380D01*
X175261904Y-139904761D01*
X175214285Y-139857142D01*
%TO.C,D4*%
X189952380Y-125738095D02*
X188952380Y-125738095D01*
X188952380Y-125500000D01*
X189000000Y-125357142D01*
X189095238Y-125261904D01*
X189190476Y-125214285D01*
X189380952Y-125166666D01*
X189523809Y-125166666D01*
X189714285Y-125214285D01*
X189809523Y-125261904D01*
X189904761Y-125357142D01*
X189952380Y-125500000D01*
X189952380Y-125738095D01*
X189285714Y-124309523D02*
X189952380Y-124309523D01*
X188904761Y-124547619D02*
X189619047Y-124785714D01*
X189619047Y-124166666D01*
%TO.C,D3*%
X189952380Y-75738095D02*
X188952380Y-75738095D01*
X188952380Y-75500000D01*
X189000000Y-75357142D01*
X189095238Y-75261904D01*
X189190476Y-75214285D01*
X189380952Y-75166666D01*
X189523809Y-75166666D01*
X189714285Y-75214285D01*
X189809523Y-75261904D01*
X189904761Y-75357142D01*
X189952380Y-75500000D01*
X189952380Y-75738095D01*
X188952380Y-74833333D02*
X188952380Y-74214285D01*
X189333333Y-74547619D01*
X189333333Y-74404761D01*
X189380952Y-74309523D01*
X189428571Y-74261904D01*
X189523809Y-74214285D01*
X189761904Y-74214285D01*
X189857142Y-74261904D01*
X189904761Y-74309523D01*
X189952380Y-74404761D01*
X189952380Y-74690476D01*
X189904761Y-74785714D01*
X189857142Y-74833333D01*
%TO.C,D2*%
X174261904Y-60952380D02*
X174261904Y-59952380D01*
X174500000Y-59952380D01*
X174642857Y-60000000D01*
X174738095Y-60095238D01*
X174785714Y-60190476D01*
X174833333Y-60380952D01*
X174833333Y-60523809D01*
X174785714Y-60714285D01*
X174738095Y-60809523D01*
X174642857Y-60904761D01*
X174500000Y-60952380D01*
X174261904Y-60952380D01*
X175214285Y-60047619D02*
X175261904Y-60000000D01*
X175357142Y-59952380D01*
X175595238Y-59952380D01*
X175690476Y-60000000D01*
X175738095Y-60047619D01*
X175785714Y-60142857D01*
X175785714Y-60238095D01*
X175738095Y-60380952D01*
X175166666Y-60952380D01*
X175785714Y-60952380D01*
%TO.C,D1*%
X124261904Y-60952380D02*
X124261904Y-59952380D01*
X124500000Y-59952380D01*
X124642857Y-60000000D01*
X124738095Y-60095238D01*
X124785714Y-60190476D01*
X124833333Y-60380952D01*
X124833333Y-60523809D01*
X124785714Y-60714285D01*
X124738095Y-60809523D01*
X124642857Y-60904761D01*
X124500000Y-60952380D01*
X124261904Y-60952380D01*
X125785714Y-60952380D02*
X125214285Y-60952380D01*
X125500000Y-60952380D02*
X125500000Y-59952380D01*
X125404761Y-60095238D01*
X125309523Y-60190476D01*
X125214285Y-60238095D01*
%TO.C,J1*%
X156042380Y-76953333D02*
X156756666Y-76953333D01*
X156899523Y-77000952D01*
X156994761Y-77096190D01*
X157042380Y-77239047D01*
X157042380Y-77334285D01*
X157042380Y-75953333D02*
X157042380Y-76524761D01*
X157042380Y-76239047D02*
X156042380Y-76239047D01*
X156185238Y-76334285D01*
X156280476Y-76429523D01*
X156328095Y-76524761D01*
%TD*%
M02*
