%TF.GenerationSoftware,KiCad,Pcbnew,(5.1.6)-1*%
%TF.CreationDate,2020-10-21T23:40:19+01:00*%
%TF.ProjectId,nyantern,6e79616e-7465-4726-9e2e-6b696361645f,rev?*%
%TF.SameCoordinates,Original*%
%TF.FileFunction,Paste,Top*%
%TF.FilePolarity,Positive*%
%FSLAX46Y46*%
G04 Gerber Fmt 4.6, Leading zero omitted, Abs format (unit mm)*
G04 Created by KiCad (PCBNEW (5.1.6)-1) date 2020-10-21 23:40:19*
%MOMM*%
%LPD*%
G01*
G04 APERTURE LIST*
%ADD10R,1.500000X2.000000*%
%ADD11R,2.000000X1.500000*%
%ADD12R,1.000000X1.500000*%
%ADD13R,1.500000X1.000000*%
G04 APERTURE END LIST*
D10*
%TO.C,REF\u002A\u002A*%
X196000000Y-144100000D03*
%TD*%
D11*
%TO.C,REF\u002A\u002A*%
X194000000Y-146100000D03*
%TD*%
%TO.C,REF\u002A\u002A*%
X105900000Y-146100000D03*
%TD*%
D10*
%TO.C,REF\u002A\u002A*%
X103900000Y-144100000D03*
%TD*%
D11*
%TO.C,REF\u002A\u002A*%
X194100000Y-53900000D03*
%TD*%
D10*
%TO.C,REF\u002A\u002A*%
X196100000Y-55900000D03*
%TD*%
%TO.C,REF\u002A\u002A*%
X103900000Y-55900000D03*
%TD*%
D11*
%TO.C,REF\u002A\u002A*%
X105900000Y-53900000D03*
%TD*%
D12*
%TO.C,D8*%
X120400000Y-77450000D03*
X123600000Y-77450000D03*
X120400000Y-72550000D03*
X123600000Y-72550000D03*
%TD*%
%TO.C,D7*%
X120400000Y-127450000D03*
X123600000Y-127450000D03*
X120400000Y-122550000D03*
X123600000Y-122550000D03*
%TD*%
%TO.C,D4*%
X179600000Y-122550000D03*
X176400000Y-122550000D03*
X179600000Y-127450000D03*
X176400000Y-127450000D03*
%TD*%
%TO.C,D3*%
X179600000Y-72550000D03*
X176400000Y-72550000D03*
X179600000Y-77450000D03*
X176400000Y-77450000D03*
%TD*%
%TO.C,C8*%
G36*
G01*
X106550000Y-80543750D02*
X106550000Y-81456250D01*
G75*
G02*
X106306250Y-81700000I-243750J0D01*
G01*
X105818750Y-81700000D01*
G75*
G02*
X105575000Y-81456250I0J243750D01*
G01*
X105575000Y-80543750D01*
G75*
G02*
X105818750Y-80300000I243750J0D01*
G01*
X106306250Y-80300000D01*
G75*
G02*
X106550000Y-80543750I0J-243750D01*
G01*
G37*
G36*
G01*
X108425000Y-80543750D02*
X108425000Y-81456250D01*
G75*
G02*
X108181250Y-81700000I-243750J0D01*
G01*
X107693750Y-81700000D01*
G75*
G02*
X107450000Y-81456250I0J243750D01*
G01*
X107450000Y-80543750D01*
G75*
G02*
X107693750Y-80300000I243750J0D01*
G01*
X108181250Y-80300000D01*
G75*
G02*
X108425000Y-80543750I0J-243750D01*
G01*
G37*
%TD*%
%TO.C,C7*%
G36*
G01*
X106550000Y-130543750D02*
X106550000Y-131456250D01*
G75*
G02*
X106306250Y-131700000I-243750J0D01*
G01*
X105818750Y-131700000D01*
G75*
G02*
X105575000Y-131456250I0J243750D01*
G01*
X105575000Y-130543750D01*
G75*
G02*
X105818750Y-130300000I243750J0D01*
G01*
X106306250Y-130300000D01*
G75*
G02*
X106550000Y-130543750I0J-243750D01*
G01*
G37*
G36*
G01*
X108425000Y-130543750D02*
X108425000Y-131456250D01*
G75*
G02*
X108181250Y-131700000I-243750J0D01*
G01*
X107693750Y-131700000D01*
G75*
G02*
X107450000Y-131456250I0J243750D01*
G01*
X107450000Y-130543750D01*
G75*
G02*
X107693750Y-130300000I243750J0D01*
G01*
X108181250Y-130300000D01*
G75*
G02*
X108425000Y-130543750I0J-243750D01*
G01*
G37*
%TD*%
%TO.C,C6*%
G36*
G01*
X130543750Y-143450000D02*
X131456250Y-143450000D01*
G75*
G02*
X131700000Y-143693750I0J-243750D01*
G01*
X131700000Y-144181250D01*
G75*
G02*
X131456250Y-144425000I-243750J0D01*
G01*
X130543750Y-144425000D01*
G75*
G02*
X130300000Y-144181250I0J243750D01*
G01*
X130300000Y-143693750D01*
G75*
G02*
X130543750Y-143450000I243750J0D01*
G01*
G37*
G36*
G01*
X130543750Y-141575000D02*
X131456250Y-141575000D01*
G75*
G02*
X131700000Y-141818750I0J-243750D01*
G01*
X131700000Y-142306250D01*
G75*
G02*
X131456250Y-142550000I-243750J0D01*
G01*
X130543750Y-142550000D01*
G75*
G02*
X130300000Y-142306250I0J243750D01*
G01*
X130300000Y-141818750D01*
G75*
G02*
X130543750Y-141575000I243750J0D01*
G01*
G37*
%TD*%
%TO.C,C5*%
G36*
G01*
X180743750Y-143450000D02*
X181656250Y-143450000D01*
G75*
G02*
X181900000Y-143693750I0J-243750D01*
G01*
X181900000Y-144181250D01*
G75*
G02*
X181656250Y-144425000I-243750J0D01*
G01*
X180743750Y-144425000D01*
G75*
G02*
X180500000Y-144181250I0J243750D01*
G01*
X180500000Y-143693750D01*
G75*
G02*
X180743750Y-143450000I243750J0D01*
G01*
G37*
G36*
G01*
X180743750Y-141575000D02*
X181656250Y-141575000D01*
G75*
G02*
X181900000Y-141818750I0J-243750D01*
G01*
X181900000Y-142306250D01*
G75*
G02*
X181656250Y-142550000I-243750J0D01*
G01*
X180743750Y-142550000D01*
G75*
G02*
X180500000Y-142306250I0J243750D01*
G01*
X180500000Y-141818750D01*
G75*
G02*
X180743750Y-141575000I243750J0D01*
G01*
G37*
%TD*%
%TO.C,C4*%
G36*
G01*
X193450000Y-119456250D02*
X193450000Y-118543750D01*
G75*
G02*
X193693750Y-118300000I243750J0D01*
G01*
X194181250Y-118300000D01*
G75*
G02*
X194425000Y-118543750I0J-243750D01*
G01*
X194425000Y-119456250D01*
G75*
G02*
X194181250Y-119700000I-243750J0D01*
G01*
X193693750Y-119700000D01*
G75*
G02*
X193450000Y-119456250I0J243750D01*
G01*
G37*
G36*
G01*
X191575000Y-119456250D02*
X191575000Y-118543750D01*
G75*
G02*
X191818750Y-118300000I243750J0D01*
G01*
X192306250Y-118300000D01*
G75*
G02*
X192550000Y-118543750I0J-243750D01*
G01*
X192550000Y-119456250D01*
G75*
G02*
X192306250Y-119700000I-243750J0D01*
G01*
X191818750Y-119700000D01*
G75*
G02*
X191575000Y-119456250I0J243750D01*
G01*
G37*
%TD*%
%TO.C,C3*%
G36*
G01*
X193650000Y-69256250D02*
X193650000Y-68343750D01*
G75*
G02*
X193893750Y-68100000I243750J0D01*
G01*
X194381250Y-68100000D01*
G75*
G02*
X194625000Y-68343750I0J-243750D01*
G01*
X194625000Y-69256250D01*
G75*
G02*
X194381250Y-69500000I-243750J0D01*
G01*
X193893750Y-69500000D01*
G75*
G02*
X193650000Y-69256250I0J243750D01*
G01*
G37*
G36*
G01*
X191775000Y-69256250D02*
X191775000Y-68343750D01*
G75*
G02*
X192018750Y-68100000I243750J0D01*
G01*
X192506250Y-68100000D01*
G75*
G02*
X192750000Y-68343750I0J-243750D01*
G01*
X192750000Y-69256250D01*
G75*
G02*
X192506250Y-69500000I-243750J0D01*
G01*
X192018750Y-69500000D01*
G75*
G02*
X191775000Y-69256250I0J243750D01*
G01*
G37*
%TD*%
%TO.C,C2*%
G36*
G01*
X169456250Y-56550000D02*
X168543750Y-56550000D01*
G75*
G02*
X168300000Y-56306250I0J243750D01*
G01*
X168300000Y-55818750D01*
G75*
G02*
X168543750Y-55575000I243750J0D01*
G01*
X169456250Y-55575000D01*
G75*
G02*
X169700000Y-55818750I0J-243750D01*
G01*
X169700000Y-56306250D01*
G75*
G02*
X169456250Y-56550000I-243750J0D01*
G01*
G37*
G36*
G01*
X169456250Y-58425000D02*
X168543750Y-58425000D01*
G75*
G02*
X168300000Y-58181250I0J243750D01*
G01*
X168300000Y-57693750D01*
G75*
G02*
X168543750Y-57450000I243750J0D01*
G01*
X169456250Y-57450000D01*
G75*
G02*
X169700000Y-57693750I0J-243750D01*
G01*
X169700000Y-58181250D01*
G75*
G02*
X169456250Y-58425000I-243750J0D01*
G01*
G37*
%TD*%
%TO.C,C1*%
G36*
G01*
X119456250Y-56550000D02*
X118543750Y-56550000D01*
G75*
G02*
X118300000Y-56306250I0J243750D01*
G01*
X118300000Y-55818750D01*
G75*
G02*
X118543750Y-55575000I243750J0D01*
G01*
X119456250Y-55575000D01*
G75*
G02*
X119700000Y-55818750I0J-243750D01*
G01*
X119700000Y-56306250D01*
G75*
G02*
X119456250Y-56550000I-243750J0D01*
G01*
G37*
G36*
G01*
X119456250Y-58425000D02*
X118543750Y-58425000D01*
G75*
G02*
X118300000Y-58181250I0J243750D01*
G01*
X118300000Y-57693750D01*
G75*
G02*
X118543750Y-57450000I243750J0D01*
G01*
X119456250Y-57450000D01*
G75*
G02*
X119700000Y-57693750I0J-243750D01*
G01*
X119700000Y-58181250D01*
G75*
G02*
X119456250Y-58425000I-243750J0D01*
G01*
G37*
%TD*%
%TO.C,D8*%
X108600000Y-72550000D03*
X105400000Y-72550000D03*
X108600000Y-77450000D03*
X105400000Y-77450000D03*
%TD*%
%TO.C,D7*%
X108600000Y-122550000D03*
X105400000Y-122550000D03*
X108600000Y-127450000D03*
X105400000Y-127450000D03*
%TD*%
D13*
%TO.C,D6*%
X122550000Y-141400000D03*
X122550000Y-144600000D03*
X127450000Y-141400000D03*
X127450000Y-144600000D03*
%TD*%
%TO.C,D5*%
X172550000Y-141400000D03*
X172550000Y-144600000D03*
X177450000Y-141400000D03*
X177450000Y-144600000D03*
%TD*%
D12*
%TO.C,D4*%
X191400000Y-127450000D03*
X194600000Y-127450000D03*
X191400000Y-122550000D03*
X194600000Y-122550000D03*
%TD*%
%TO.C,D3*%
X191400000Y-77450000D03*
X194600000Y-77450000D03*
X191400000Y-72550000D03*
X194600000Y-72550000D03*
%TD*%
D13*
%TO.C,D2*%
X177450000Y-58600000D03*
X177450000Y-55400000D03*
X172550000Y-58600000D03*
X172550000Y-55400000D03*
%TD*%
%TO.C,D1*%
X127450000Y-58600000D03*
X127450000Y-55400000D03*
X122550000Y-58600000D03*
X122550000Y-55400000D03*
%TD*%
M02*
