M48
; DRILL file {KiCad (5.1.6)-1} date 10/21/20 23:40:21
; FORMAT={-:-/ absolute / inch / decimal}
; #@! TF.CreationDate,2020-10-21T23:40:21+01:00
; #@! TF.GenerationSoftware,Kicad,Pcbnew,(5.1.6)-1
FMAT,2
INCH
T1C0.0157
T2C0.0300
T3C0.0394
T4C0.0400
T5C0.0591
T6C0.1260
%
G90
G05
T1
X4.4803Y-5.0
X4.4961Y-3.0394
X4.7744Y-2.7835
X4.9445Y-2.7843
X6.6929Y-3.4646
X6.7016Y-3.3654
X7.1654Y-2.5787
X7.2913Y-2.8661
X7.2992Y-4.8425
T2
X5.2551Y-3.2449
X5.2551Y-3.6449
X6.5555Y-3.2449
X6.5555Y-3.6449
X5.4528Y-2.3425
X5.4528Y-2.8937
X6.3583Y-2.3425
X6.3583Y-2.4425
X6.3583Y-2.7937
X6.3583Y-2.8937
T3
X5.7559Y-3.0165
X5.8559Y-3.0165
X5.9559Y-3.0165
X6.0559Y-3.0165
X5.5512Y-3.937
X5.6512Y-3.937
X5.7512Y-3.937
X5.8512Y-3.937
X5.9512Y-3.937
X6.0512Y-3.937
X6.1512Y-3.937
X6.2512Y-3.937
T4
X5.4555Y-4.4346
X5.4555Y-4.5346
X5.4555Y-4.6346
X5.4555Y-4.7346
X5.4555Y-4.8346
X5.4555Y-4.9346
X5.4555Y-5.0346
X5.4555Y-5.1346
X6.3555Y-4.4346
X6.3555Y-4.5346
X6.3555Y-4.6346
X6.3555Y-4.7346
X6.3555Y-4.8346
X6.3555Y-4.9346
X6.3555Y-5.0346
X6.3555Y-5.1346
T5
X7.0079Y-2.4409
X4.8031Y-2.4409
T6
X7.5591Y-2.2835
X7.5591Y-5.5906
X4.252Y-2.2835
X4.252Y-5.5906
T5
G00X7.0079Y-5.2657
M15
G01X7.0079Y-5.4035
M16
G05
G00X4.8031Y-5.2657
M15
G01X4.8031Y-5.4035
M16
G05
T0
M30
