%TF.GenerationSoftware,KiCad,Pcbnew,(5.1.6)-1*%
%TF.CreationDate,2020-10-09T22:46:55+01:00*%
%TF.ProjectId,LED Panel,4c454420-5061-46e6-956c-2e6b69636164,rev?*%
%TF.SameCoordinates,Original*%
%TF.FileFunction,Legend,Top*%
%TF.FilePolarity,Positive*%
%FSLAX46Y46*%
G04 Gerber Fmt 4.6, Leading zero omitted, Abs format (unit mm)*
G04 Created by KiCad (PCBNEW (5.1.6)-1) date 2020-10-09 22:46:55*
%MOMM*%
%LPD*%
G01*
G04 APERTURE LIST*
%ADD10C,0.120000*%
%ADD11C,0.150000*%
G04 APERTURE END LIST*
D10*
%TO.C,C1*%
X112758578Y-37290000D02*
X112241422Y-37290000D01*
X112758578Y-38710000D02*
X112241422Y-38710000D01*
%TO.C,C2*%
X112758578Y-76710000D02*
X112241422Y-76710000D01*
X112758578Y-75290000D02*
X112241422Y-75290000D01*
%TO.C,C3*%
X112758578Y-114290000D02*
X112241422Y-114290000D01*
X112758578Y-115710000D02*
X112241422Y-115710000D01*
%TO.C,C4*%
X112758578Y-153710000D02*
X112241422Y-153710000D01*
X112758578Y-152290000D02*
X112241422Y-152290000D01*
%TO.C,C5*%
X148241422Y-152710000D02*
X148758578Y-152710000D01*
X148241422Y-151290000D02*
X148758578Y-151290000D01*
%TO.C,C6*%
X147741422Y-114290000D02*
X148258578Y-114290000D01*
X147741422Y-115710000D02*
X148258578Y-115710000D01*
%TO.C,C7*%
X147741422Y-76210000D02*
X148258578Y-76210000D01*
X147741422Y-74790000D02*
X148258578Y-74790000D01*
%TO.C,C8*%
X147741422Y-37290000D02*
X148258578Y-37290000D01*
X147741422Y-38710000D02*
X148258578Y-38710000D01*
%TO.C,D1*%
X109750000Y-46150000D02*
X110900000Y-46150000D01*
X109750000Y-38850000D02*
X109750000Y-46150000D01*
X115250000Y-38850000D02*
X115250000Y-46150000D01*
%TO.C,D2*%
X115250000Y-76850000D02*
X115250000Y-84150000D01*
X109750000Y-76850000D02*
X109750000Y-84150000D01*
X109750000Y-84150000D02*
X110900000Y-84150000D01*
%TO.C,D3*%
X109750000Y-123150000D02*
X110900000Y-123150000D01*
X109750000Y-115850000D02*
X109750000Y-123150000D01*
X115250000Y-115850000D02*
X115250000Y-123150000D01*
%TO.C,D4*%
X115250000Y-153850000D02*
X115250000Y-161150000D01*
X109750000Y-153850000D02*
X109750000Y-161150000D01*
X109750000Y-161150000D02*
X110900000Y-161150000D01*
%TO.C,D5*%
X150750000Y-153350000D02*
X149600000Y-153350000D01*
X150750000Y-160650000D02*
X150750000Y-153350000D01*
X145250000Y-160650000D02*
X145250000Y-153350000D01*
%TO.C,D6*%
X145250000Y-123150000D02*
X145250000Y-115850000D01*
X150750000Y-123150000D02*
X150750000Y-115850000D01*
X150750000Y-115850000D02*
X149600000Y-115850000D01*
%TO.C,D7*%
X150750000Y-76850000D02*
X149600000Y-76850000D01*
X150750000Y-84150000D02*
X150750000Y-76850000D01*
X145250000Y-84150000D02*
X145250000Y-76850000D01*
%TO.C,D8*%
X145250000Y-46150000D02*
X145250000Y-38850000D01*
X150750000Y-46150000D02*
X150750000Y-38850000D01*
X150750000Y-38850000D02*
X149600000Y-38850000D01*
%TO.C,J1*%
X109670000Y-141270000D02*
X112330000Y-141270000D01*
X109670000Y-141270000D02*
X109670000Y-148950000D01*
X109670000Y-148950000D02*
X112330000Y-148950000D01*
X112330000Y-141270000D02*
X112330000Y-148950000D01*
X112330000Y-138670000D02*
X112330000Y-140000000D01*
X111000000Y-138670000D02*
X112330000Y-138670000D01*
%TO.C,J2*%
X127570000Y-163990000D02*
X127570000Y-161330000D01*
X127570000Y-163990000D02*
X135250000Y-163990000D01*
X135250000Y-163990000D02*
X135250000Y-161330000D01*
X127570000Y-161330000D02*
X135250000Y-161330000D01*
X124970000Y-161330000D02*
X126300000Y-161330000D01*
X124970000Y-162660000D02*
X124970000Y-161330000D01*
%TO.C,J3*%
X149000000Y-138670000D02*
X150330000Y-138670000D01*
X150330000Y-138670000D02*
X150330000Y-140000000D01*
X150330000Y-141270000D02*
X150330000Y-148950000D01*
X147670000Y-148950000D02*
X150330000Y-148950000D01*
X147670000Y-141270000D02*
X147670000Y-148950000D01*
X147670000Y-141270000D02*
X150330000Y-141270000D01*
%TO.C,C1*%
D11*
X112333333Y-36857142D02*
X112285714Y-36904761D01*
X112142857Y-36952380D01*
X112047619Y-36952380D01*
X111904761Y-36904761D01*
X111809523Y-36809523D01*
X111761904Y-36714285D01*
X111714285Y-36523809D01*
X111714285Y-36380952D01*
X111761904Y-36190476D01*
X111809523Y-36095238D01*
X111904761Y-36000000D01*
X112047619Y-35952380D01*
X112142857Y-35952380D01*
X112285714Y-36000000D01*
X112333333Y-36047619D01*
X113285714Y-36952380D02*
X112714285Y-36952380D01*
X113000000Y-36952380D02*
X113000000Y-35952380D01*
X112904761Y-36095238D01*
X112809523Y-36190476D01*
X112714285Y-36238095D01*
%TO.C,C2*%
X112333333Y-74357142D02*
X112285714Y-74404761D01*
X112142857Y-74452380D01*
X112047619Y-74452380D01*
X111904761Y-74404761D01*
X111809523Y-74309523D01*
X111761904Y-74214285D01*
X111714285Y-74023809D01*
X111714285Y-73880952D01*
X111761904Y-73690476D01*
X111809523Y-73595238D01*
X111904761Y-73500000D01*
X112047619Y-73452380D01*
X112142857Y-73452380D01*
X112285714Y-73500000D01*
X112333333Y-73547619D01*
X112714285Y-73547619D02*
X112761904Y-73500000D01*
X112857142Y-73452380D01*
X113095238Y-73452380D01*
X113190476Y-73500000D01*
X113238095Y-73547619D01*
X113285714Y-73642857D01*
X113285714Y-73738095D01*
X113238095Y-73880952D01*
X112666666Y-74452380D01*
X113285714Y-74452380D01*
%TO.C,C3*%
X112333333Y-113857142D02*
X112285714Y-113904761D01*
X112142857Y-113952380D01*
X112047619Y-113952380D01*
X111904761Y-113904761D01*
X111809523Y-113809523D01*
X111761904Y-113714285D01*
X111714285Y-113523809D01*
X111714285Y-113380952D01*
X111761904Y-113190476D01*
X111809523Y-113095238D01*
X111904761Y-113000000D01*
X112047619Y-112952380D01*
X112142857Y-112952380D01*
X112285714Y-113000000D01*
X112333333Y-113047619D01*
X112666666Y-112952380D02*
X113285714Y-112952380D01*
X112952380Y-113333333D01*
X113095238Y-113333333D01*
X113190476Y-113380952D01*
X113238095Y-113428571D01*
X113285714Y-113523809D01*
X113285714Y-113761904D01*
X113238095Y-113857142D01*
X113190476Y-113904761D01*
X113095238Y-113952380D01*
X112809523Y-113952380D01*
X112714285Y-113904761D01*
X112666666Y-113857142D01*
%TO.C,C4*%
X112333333Y-151857142D02*
X112285714Y-151904761D01*
X112142857Y-151952380D01*
X112047619Y-151952380D01*
X111904761Y-151904761D01*
X111809523Y-151809523D01*
X111761904Y-151714285D01*
X111714285Y-151523809D01*
X111714285Y-151380952D01*
X111761904Y-151190476D01*
X111809523Y-151095238D01*
X111904761Y-151000000D01*
X112047619Y-150952380D01*
X112142857Y-150952380D01*
X112285714Y-151000000D01*
X112333333Y-151047619D01*
X113190476Y-151285714D02*
X113190476Y-151952380D01*
X112952380Y-150904761D02*
X112714285Y-151619047D01*
X113333333Y-151619047D01*
%TO.C,C5*%
X148333333Y-150707142D02*
X148285714Y-150754761D01*
X148142857Y-150802380D01*
X148047619Y-150802380D01*
X147904761Y-150754761D01*
X147809523Y-150659523D01*
X147761904Y-150564285D01*
X147714285Y-150373809D01*
X147714285Y-150230952D01*
X147761904Y-150040476D01*
X147809523Y-149945238D01*
X147904761Y-149850000D01*
X148047619Y-149802380D01*
X148142857Y-149802380D01*
X148285714Y-149850000D01*
X148333333Y-149897619D01*
X149238095Y-149802380D02*
X148761904Y-149802380D01*
X148714285Y-150278571D01*
X148761904Y-150230952D01*
X148857142Y-150183333D01*
X149095238Y-150183333D01*
X149190476Y-150230952D01*
X149238095Y-150278571D01*
X149285714Y-150373809D01*
X149285714Y-150611904D01*
X149238095Y-150707142D01*
X149190476Y-150754761D01*
X149095238Y-150802380D01*
X148857142Y-150802380D01*
X148761904Y-150754761D01*
X148714285Y-150707142D01*
%TO.C,C6*%
X147833333Y-113707142D02*
X147785714Y-113754761D01*
X147642857Y-113802380D01*
X147547619Y-113802380D01*
X147404761Y-113754761D01*
X147309523Y-113659523D01*
X147261904Y-113564285D01*
X147214285Y-113373809D01*
X147214285Y-113230952D01*
X147261904Y-113040476D01*
X147309523Y-112945238D01*
X147404761Y-112850000D01*
X147547619Y-112802380D01*
X147642857Y-112802380D01*
X147785714Y-112850000D01*
X147833333Y-112897619D01*
X148690476Y-112802380D02*
X148500000Y-112802380D01*
X148404761Y-112850000D01*
X148357142Y-112897619D01*
X148261904Y-113040476D01*
X148214285Y-113230952D01*
X148214285Y-113611904D01*
X148261904Y-113707142D01*
X148309523Y-113754761D01*
X148404761Y-113802380D01*
X148595238Y-113802380D01*
X148690476Y-113754761D01*
X148738095Y-113707142D01*
X148785714Y-113611904D01*
X148785714Y-113373809D01*
X148738095Y-113278571D01*
X148690476Y-113230952D01*
X148595238Y-113183333D01*
X148404761Y-113183333D01*
X148309523Y-113230952D01*
X148261904Y-113278571D01*
X148214285Y-113373809D01*
%TO.C,C7*%
X147833333Y-74207142D02*
X147785714Y-74254761D01*
X147642857Y-74302380D01*
X147547619Y-74302380D01*
X147404761Y-74254761D01*
X147309523Y-74159523D01*
X147261904Y-74064285D01*
X147214285Y-73873809D01*
X147214285Y-73730952D01*
X147261904Y-73540476D01*
X147309523Y-73445238D01*
X147404761Y-73350000D01*
X147547619Y-73302380D01*
X147642857Y-73302380D01*
X147785714Y-73350000D01*
X147833333Y-73397619D01*
X148166666Y-73302380D02*
X148833333Y-73302380D01*
X148404761Y-74302380D01*
%TO.C,C8*%
X147833333Y-36707142D02*
X147785714Y-36754761D01*
X147642857Y-36802380D01*
X147547619Y-36802380D01*
X147404761Y-36754761D01*
X147309523Y-36659523D01*
X147261904Y-36564285D01*
X147214285Y-36373809D01*
X147214285Y-36230952D01*
X147261904Y-36040476D01*
X147309523Y-35945238D01*
X147404761Y-35850000D01*
X147547619Y-35802380D01*
X147642857Y-35802380D01*
X147785714Y-35850000D01*
X147833333Y-35897619D01*
X148404761Y-36230952D02*
X148309523Y-36183333D01*
X148261904Y-36135714D01*
X148214285Y-36040476D01*
X148214285Y-35992857D01*
X148261904Y-35897619D01*
X148309523Y-35850000D01*
X148404761Y-35802380D01*
X148595238Y-35802380D01*
X148690476Y-35850000D01*
X148738095Y-35897619D01*
X148785714Y-35992857D01*
X148785714Y-36040476D01*
X148738095Y-36135714D01*
X148690476Y-36183333D01*
X148595238Y-36230952D01*
X148404761Y-36230952D01*
X148309523Y-36278571D01*
X148261904Y-36326190D01*
X148214285Y-36421428D01*
X148214285Y-36611904D01*
X148261904Y-36707142D01*
X148309523Y-36754761D01*
X148404761Y-36802380D01*
X148595238Y-36802380D01*
X148690476Y-36754761D01*
X148738095Y-36707142D01*
X148785714Y-36611904D01*
X148785714Y-36421428D01*
X148738095Y-36326190D01*
X148690476Y-36278571D01*
X148595238Y-36230952D01*
%TO.C,D1*%
X116452380Y-43238095D02*
X115452380Y-43238095D01*
X115452380Y-43000000D01*
X115500000Y-42857142D01*
X115595238Y-42761904D01*
X115690476Y-42714285D01*
X115880952Y-42666666D01*
X116023809Y-42666666D01*
X116214285Y-42714285D01*
X116309523Y-42761904D01*
X116404761Y-42857142D01*
X116452380Y-43000000D01*
X116452380Y-43238095D01*
X116452380Y-41714285D02*
X116452380Y-42285714D01*
X116452380Y-42000000D02*
X115452380Y-42000000D01*
X115595238Y-42095238D01*
X115690476Y-42190476D01*
X115738095Y-42285714D01*
%TO.C,D2*%
X116452380Y-81238095D02*
X115452380Y-81238095D01*
X115452380Y-81000000D01*
X115500000Y-80857142D01*
X115595238Y-80761904D01*
X115690476Y-80714285D01*
X115880952Y-80666666D01*
X116023809Y-80666666D01*
X116214285Y-80714285D01*
X116309523Y-80761904D01*
X116404761Y-80857142D01*
X116452380Y-81000000D01*
X116452380Y-81238095D01*
X115547619Y-80285714D02*
X115500000Y-80238095D01*
X115452380Y-80142857D01*
X115452380Y-79904761D01*
X115500000Y-79809523D01*
X115547619Y-79761904D01*
X115642857Y-79714285D01*
X115738095Y-79714285D01*
X115880952Y-79761904D01*
X116452380Y-80333333D01*
X116452380Y-79714285D01*
%TO.C,D3*%
X116452380Y-120238095D02*
X115452380Y-120238095D01*
X115452380Y-120000000D01*
X115500000Y-119857142D01*
X115595238Y-119761904D01*
X115690476Y-119714285D01*
X115880952Y-119666666D01*
X116023809Y-119666666D01*
X116214285Y-119714285D01*
X116309523Y-119761904D01*
X116404761Y-119857142D01*
X116452380Y-120000000D01*
X116452380Y-120238095D01*
X115452380Y-119333333D02*
X115452380Y-118714285D01*
X115833333Y-119047619D01*
X115833333Y-118904761D01*
X115880952Y-118809523D01*
X115928571Y-118761904D01*
X116023809Y-118714285D01*
X116261904Y-118714285D01*
X116357142Y-118761904D01*
X116404761Y-118809523D01*
X116452380Y-118904761D01*
X116452380Y-119190476D01*
X116404761Y-119285714D01*
X116357142Y-119333333D01*
%TO.C,D4*%
X116452380Y-158238095D02*
X115452380Y-158238095D01*
X115452380Y-158000000D01*
X115500000Y-157857142D01*
X115595238Y-157761904D01*
X115690476Y-157714285D01*
X115880952Y-157666666D01*
X116023809Y-157666666D01*
X116214285Y-157714285D01*
X116309523Y-157761904D01*
X116404761Y-157857142D01*
X116452380Y-158000000D01*
X116452380Y-158238095D01*
X115785714Y-156809523D02*
X116452380Y-156809523D01*
X115404761Y-157047619D02*
X116119047Y-157285714D01*
X116119047Y-156666666D01*
%TO.C,D5*%
X144952380Y-157738095D02*
X143952380Y-157738095D01*
X143952380Y-157500000D01*
X144000000Y-157357142D01*
X144095238Y-157261904D01*
X144190476Y-157214285D01*
X144380952Y-157166666D01*
X144523809Y-157166666D01*
X144714285Y-157214285D01*
X144809523Y-157261904D01*
X144904761Y-157357142D01*
X144952380Y-157500000D01*
X144952380Y-157738095D01*
X143952380Y-156261904D02*
X143952380Y-156738095D01*
X144428571Y-156785714D01*
X144380952Y-156738095D01*
X144333333Y-156642857D01*
X144333333Y-156404761D01*
X144380952Y-156309523D01*
X144428571Y-156261904D01*
X144523809Y-156214285D01*
X144761904Y-156214285D01*
X144857142Y-156261904D01*
X144904761Y-156309523D01*
X144952380Y-156404761D01*
X144952380Y-156642857D01*
X144904761Y-156738095D01*
X144857142Y-156785714D01*
%TO.C,D6*%
X144952380Y-120238095D02*
X143952380Y-120238095D01*
X143952380Y-120000000D01*
X144000000Y-119857142D01*
X144095238Y-119761904D01*
X144190476Y-119714285D01*
X144380952Y-119666666D01*
X144523809Y-119666666D01*
X144714285Y-119714285D01*
X144809523Y-119761904D01*
X144904761Y-119857142D01*
X144952380Y-120000000D01*
X144952380Y-120238095D01*
X143952380Y-118809523D02*
X143952380Y-119000000D01*
X144000000Y-119095238D01*
X144047619Y-119142857D01*
X144190476Y-119238095D01*
X144380952Y-119285714D01*
X144761904Y-119285714D01*
X144857142Y-119238095D01*
X144904761Y-119190476D01*
X144952380Y-119095238D01*
X144952380Y-118904761D01*
X144904761Y-118809523D01*
X144857142Y-118761904D01*
X144761904Y-118714285D01*
X144523809Y-118714285D01*
X144428571Y-118761904D01*
X144380952Y-118809523D01*
X144333333Y-118904761D01*
X144333333Y-119095238D01*
X144380952Y-119190476D01*
X144428571Y-119238095D01*
X144523809Y-119285714D01*
%TO.C,D7*%
X144952380Y-81238095D02*
X143952380Y-81238095D01*
X143952380Y-81000000D01*
X144000000Y-80857142D01*
X144095238Y-80761904D01*
X144190476Y-80714285D01*
X144380952Y-80666666D01*
X144523809Y-80666666D01*
X144714285Y-80714285D01*
X144809523Y-80761904D01*
X144904761Y-80857142D01*
X144952380Y-81000000D01*
X144952380Y-81238095D01*
X143952380Y-80333333D02*
X143952380Y-79666666D01*
X144952380Y-80095238D01*
%TO.C,D8*%
X144952380Y-43238095D02*
X143952380Y-43238095D01*
X143952380Y-43000000D01*
X144000000Y-42857142D01*
X144095238Y-42761904D01*
X144190476Y-42714285D01*
X144380952Y-42666666D01*
X144523809Y-42666666D01*
X144714285Y-42714285D01*
X144809523Y-42761904D01*
X144904761Y-42857142D01*
X144952380Y-43000000D01*
X144952380Y-43238095D01*
X144380952Y-42095238D02*
X144333333Y-42190476D01*
X144285714Y-42238095D01*
X144190476Y-42285714D01*
X144142857Y-42285714D01*
X144047619Y-42238095D01*
X144000000Y-42190476D01*
X143952380Y-42095238D01*
X143952380Y-41904761D01*
X144000000Y-41809523D01*
X144047619Y-41761904D01*
X144142857Y-41714285D01*
X144190476Y-41714285D01*
X144285714Y-41761904D01*
X144333333Y-41809523D01*
X144380952Y-41904761D01*
X144380952Y-42095238D01*
X144428571Y-42190476D01*
X144476190Y-42238095D01*
X144571428Y-42285714D01*
X144761904Y-42285714D01*
X144857142Y-42238095D01*
X144904761Y-42190476D01*
X144952380Y-42095238D01*
X144952380Y-41904761D01*
X144904761Y-41809523D01*
X144857142Y-41761904D01*
X144761904Y-41714285D01*
X144571428Y-41714285D01*
X144476190Y-41761904D01*
X144428571Y-41809523D01*
X144380952Y-41904761D01*
%TO.C,J1*%
X110666666Y-136682380D02*
X110666666Y-137396666D01*
X110619047Y-137539523D01*
X110523809Y-137634761D01*
X110380952Y-137682380D01*
X110285714Y-137682380D01*
X111666666Y-137682380D02*
X111095238Y-137682380D01*
X111380952Y-137682380D02*
X111380952Y-136682380D01*
X111285714Y-136825238D01*
X111190476Y-136920476D01*
X111095238Y-136968095D01*
%TO.C,J2*%
X122982380Y-162993333D02*
X123696666Y-162993333D01*
X123839523Y-163040952D01*
X123934761Y-163136190D01*
X123982380Y-163279047D01*
X123982380Y-163374285D01*
X123077619Y-162564761D02*
X123030000Y-162517142D01*
X122982380Y-162421904D01*
X122982380Y-162183809D01*
X123030000Y-162088571D01*
X123077619Y-162040952D01*
X123172857Y-161993333D01*
X123268095Y-161993333D01*
X123410952Y-162040952D01*
X123982380Y-162612380D01*
X123982380Y-161993333D01*
%TO.C,J3*%
X148666666Y-136682380D02*
X148666666Y-137396666D01*
X148619047Y-137539523D01*
X148523809Y-137634761D01*
X148380952Y-137682380D01*
X148285714Y-137682380D01*
X149047619Y-136682380D02*
X149666666Y-136682380D01*
X149333333Y-137063333D01*
X149476190Y-137063333D01*
X149571428Y-137110952D01*
X149619047Y-137158571D01*
X149666666Y-137253809D01*
X149666666Y-137491904D01*
X149619047Y-137587142D01*
X149571428Y-137634761D01*
X149476190Y-137682380D01*
X149190476Y-137682380D01*
X149095238Y-137634761D01*
X149047619Y-137587142D01*
%TD*%
M02*
