%TF.GenerationSoftware,KiCad,Pcbnew,(5.1.6)-1*%
%TF.CreationDate,2020-10-09T22:46:55+01:00*%
%TF.ProjectId,LED Panel,4c454420-5061-46e6-956c-2e6b69636164,rev?*%
%TF.SameCoordinates,Original*%
%TF.FileFunction,Profile,NP*%
%FSLAX46Y46*%
G04 Gerber Fmt 4.6, Leading zero omitted, Abs format (unit mm)*
G04 Created by KiCad (PCBNEW (5.1.6)-1) date 2020-10-09 22:46:55*
%MOMM*%
%LPD*%
G01*
G04 APERTURE LIST*
%TA.AperFunction,Profile*%
%ADD10C,0.254000*%
%TD*%
G04 APERTURE END LIST*
D10*
X146040000Y-164039999D02*
X146040000Y-174040000D01*
X149340000Y-174040000D02*
X149340000Y-175690000D01*
X146040000Y-164039999D02*
X114290000Y-164039999D01*
X149340000Y-174040000D02*
X146040000Y-174040000D01*
X110990000Y-24590000D02*
X110990000Y-22940000D01*
X109340000Y-22940000D02*
X109340000Y-175690000D01*
X114290000Y-174040000D02*
X110990000Y-174040000D01*
X149340000Y-24590000D02*
X146040000Y-24590000D01*
X150990000Y-175690000D02*
X150990000Y-22940000D01*
X150990000Y-22940000D02*
X149340000Y-22940000D01*
X149340000Y-24590000D02*
X149340000Y-22940000D01*
X146040000Y-34590001D02*
X146040000Y-24590000D01*
X146040000Y-34590001D02*
X114290000Y-34590001D01*
X109340000Y-175690000D02*
X110990000Y-175690000D01*
X114290000Y-34590001D02*
X114290000Y-24590000D01*
X114290000Y-24590000D02*
X110990000Y-24590000D01*
X110990000Y-22940000D02*
X109340000Y-22940000D01*
X110990000Y-174040000D02*
X110990000Y-175690000D01*
X114290000Y-164039999D02*
X114290000Y-174040000D01*
X149340000Y-175690000D02*
X150990000Y-175690000D01*
M02*
