%TF.GenerationSoftware,KiCad,Pcbnew,(5.1.6)-1*%
%TF.CreationDate,2020-10-09T22:46:55+01:00*%
%TF.ProjectId,LED Panel,4c454420-5061-46e6-956c-2e6b69636164,rev?*%
%TF.SameCoordinates,Original*%
%TF.FileFunction,Paste,Top*%
%TF.FilePolarity,Positive*%
%FSLAX46Y46*%
G04 Gerber Fmt 4.6, Leading zero omitted, Abs format (unit mm)*
G04 Created by KiCad (PCBNEW (5.1.6)-1) date 2020-10-09 22:46:55*
%MOMM*%
%LPD*%
G01*
G04 APERTURE LIST*
%ADD10R,1.000000X1.500000*%
G04 APERTURE END LIST*
%TO.C,C1*%
G36*
G01*
X112050000Y-37543750D02*
X112050000Y-38456250D01*
G75*
G02*
X111806250Y-38700000I-243750J0D01*
G01*
X111318750Y-38700000D01*
G75*
G02*
X111075000Y-38456250I0J243750D01*
G01*
X111075000Y-37543750D01*
G75*
G02*
X111318750Y-37300000I243750J0D01*
G01*
X111806250Y-37300000D01*
G75*
G02*
X112050000Y-37543750I0J-243750D01*
G01*
G37*
G36*
G01*
X113925000Y-37543750D02*
X113925000Y-38456250D01*
G75*
G02*
X113681250Y-38700000I-243750J0D01*
G01*
X113193750Y-38700000D01*
G75*
G02*
X112950000Y-38456250I0J243750D01*
G01*
X112950000Y-37543750D01*
G75*
G02*
X113193750Y-37300000I243750J0D01*
G01*
X113681250Y-37300000D01*
G75*
G02*
X113925000Y-37543750I0J-243750D01*
G01*
G37*
%TD*%
%TO.C,C2*%
G36*
G01*
X113925000Y-75543750D02*
X113925000Y-76456250D01*
G75*
G02*
X113681250Y-76700000I-243750J0D01*
G01*
X113193750Y-76700000D01*
G75*
G02*
X112950000Y-76456250I0J243750D01*
G01*
X112950000Y-75543750D01*
G75*
G02*
X113193750Y-75300000I243750J0D01*
G01*
X113681250Y-75300000D01*
G75*
G02*
X113925000Y-75543750I0J-243750D01*
G01*
G37*
G36*
G01*
X112050000Y-75543750D02*
X112050000Y-76456250D01*
G75*
G02*
X111806250Y-76700000I-243750J0D01*
G01*
X111318750Y-76700000D01*
G75*
G02*
X111075000Y-76456250I0J243750D01*
G01*
X111075000Y-75543750D01*
G75*
G02*
X111318750Y-75300000I243750J0D01*
G01*
X111806250Y-75300000D01*
G75*
G02*
X112050000Y-75543750I0J-243750D01*
G01*
G37*
%TD*%
%TO.C,C3*%
G36*
G01*
X112050000Y-114543750D02*
X112050000Y-115456250D01*
G75*
G02*
X111806250Y-115700000I-243750J0D01*
G01*
X111318750Y-115700000D01*
G75*
G02*
X111075000Y-115456250I0J243750D01*
G01*
X111075000Y-114543750D01*
G75*
G02*
X111318750Y-114300000I243750J0D01*
G01*
X111806250Y-114300000D01*
G75*
G02*
X112050000Y-114543750I0J-243750D01*
G01*
G37*
G36*
G01*
X113925000Y-114543750D02*
X113925000Y-115456250D01*
G75*
G02*
X113681250Y-115700000I-243750J0D01*
G01*
X113193750Y-115700000D01*
G75*
G02*
X112950000Y-115456250I0J243750D01*
G01*
X112950000Y-114543750D01*
G75*
G02*
X113193750Y-114300000I243750J0D01*
G01*
X113681250Y-114300000D01*
G75*
G02*
X113925000Y-114543750I0J-243750D01*
G01*
G37*
%TD*%
%TO.C,C4*%
G36*
G01*
X113925000Y-152543750D02*
X113925000Y-153456250D01*
G75*
G02*
X113681250Y-153700000I-243750J0D01*
G01*
X113193750Y-153700000D01*
G75*
G02*
X112950000Y-153456250I0J243750D01*
G01*
X112950000Y-152543750D01*
G75*
G02*
X113193750Y-152300000I243750J0D01*
G01*
X113681250Y-152300000D01*
G75*
G02*
X113925000Y-152543750I0J-243750D01*
G01*
G37*
G36*
G01*
X112050000Y-152543750D02*
X112050000Y-153456250D01*
G75*
G02*
X111806250Y-153700000I-243750J0D01*
G01*
X111318750Y-153700000D01*
G75*
G02*
X111075000Y-153456250I0J243750D01*
G01*
X111075000Y-152543750D01*
G75*
G02*
X111318750Y-152300000I243750J0D01*
G01*
X111806250Y-152300000D01*
G75*
G02*
X112050000Y-152543750I0J-243750D01*
G01*
G37*
%TD*%
%TO.C,C5*%
G36*
G01*
X148950000Y-152456250D02*
X148950000Y-151543750D01*
G75*
G02*
X149193750Y-151300000I243750J0D01*
G01*
X149681250Y-151300000D01*
G75*
G02*
X149925000Y-151543750I0J-243750D01*
G01*
X149925000Y-152456250D01*
G75*
G02*
X149681250Y-152700000I-243750J0D01*
G01*
X149193750Y-152700000D01*
G75*
G02*
X148950000Y-152456250I0J243750D01*
G01*
G37*
G36*
G01*
X147075000Y-152456250D02*
X147075000Y-151543750D01*
G75*
G02*
X147318750Y-151300000I243750J0D01*
G01*
X147806250Y-151300000D01*
G75*
G02*
X148050000Y-151543750I0J-243750D01*
G01*
X148050000Y-152456250D01*
G75*
G02*
X147806250Y-152700000I-243750J0D01*
G01*
X147318750Y-152700000D01*
G75*
G02*
X147075000Y-152456250I0J243750D01*
G01*
G37*
%TD*%
%TO.C,C6*%
G36*
G01*
X146575000Y-115456250D02*
X146575000Y-114543750D01*
G75*
G02*
X146818750Y-114300000I243750J0D01*
G01*
X147306250Y-114300000D01*
G75*
G02*
X147550000Y-114543750I0J-243750D01*
G01*
X147550000Y-115456250D01*
G75*
G02*
X147306250Y-115700000I-243750J0D01*
G01*
X146818750Y-115700000D01*
G75*
G02*
X146575000Y-115456250I0J243750D01*
G01*
G37*
G36*
G01*
X148450000Y-115456250D02*
X148450000Y-114543750D01*
G75*
G02*
X148693750Y-114300000I243750J0D01*
G01*
X149181250Y-114300000D01*
G75*
G02*
X149425000Y-114543750I0J-243750D01*
G01*
X149425000Y-115456250D01*
G75*
G02*
X149181250Y-115700000I-243750J0D01*
G01*
X148693750Y-115700000D01*
G75*
G02*
X148450000Y-115456250I0J243750D01*
G01*
G37*
%TD*%
%TO.C,C7*%
G36*
G01*
X148450000Y-75956250D02*
X148450000Y-75043750D01*
G75*
G02*
X148693750Y-74800000I243750J0D01*
G01*
X149181250Y-74800000D01*
G75*
G02*
X149425000Y-75043750I0J-243750D01*
G01*
X149425000Y-75956250D01*
G75*
G02*
X149181250Y-76200000I-243750J0D01*
G01*
X148693750Y-76200000D01*
G75*
G02*
X148450000Y-75956250I0J243750D01*
G01*
G37*
G36*
G01*
X146575000Y-75956250D02*
X146575000Y-75043750D01*
G75*
G02*
X146818750Y-74800000I243750J0D01*
G01*
X147306250Y-74800000D01*
G75*
G02*
X147550000Y-75043750I0J-243750D01*
G01*
X147550000Y-75956250D01*
G75*
G02*
X147306250Y-76200000I-243750J0D01*
G01*
X146818750Y-76200000D01*
G75*
G02*
X146575000Y-75956250I0J243750D01*
G01*
G37*
%TD*%
%TO.C,C8*%
G36*
G01*
X146575000Y-38456250D02*
X146575000Y-37543750D01*
G75*
G02*
X146818750Y-37300000I243750J0D01*
G01*
X147306250Y-37300000D01*
G75*
G02*
X147550000Y-37543750I0J-243750D01*
G01*
X147550000Y-38456250D01*
G75*
G02*
X147306250Y-38700000I-243750J0D01*
G01*
X146818750Y-38700000D01*
G75*
G02*
X146575000Y-38456250I0J243750D01*
G01*
G37*
G36*
G01*
X148450000Y-38456250D02*
X148450000Y-37543750D01*
G75*
G02*
X148693750Y-37300000I243750J0D01*
G01*
X149181250Y-37300000D01*
G75*
G02*
X149425000Y-37543750I0J-243750D01*
G01*
X149425000Y-38456250D01*
G75*
G02*
X149181250Y-38700000I-243750J0D01*
G01*
X148693750Y-38700000D01*
G75*
G02*
X148450000Y-38456250I0J243750D01*
G01*
G37*
%TD*%
D10*
%TO.C,D1*%
X114100000Y-40050000D03*
X110900000Y-40050000D03*
X114100000Y-44950000D03*
X110900000Y-44950000D03*
%TD*%
%TO.C,D2*%
X110900000Y-82950000D03*
X114100000Y-82950000D03*
X110900000Y-78050000D03*
X114100000Y-78050000D03*
%TD*%
%TO.C,D3*%
X114100000Y-117050000D03*
X110900000Y-117050000D03*
X114100000Y-121950000D03*
X110900000Y-121950000D03*
%TD*%
%TO.C,D4*%
X110900000Y-159950000D03*
X114100000Y-159950000D03*
X110900000Y-155050000D03*
X114100000Y-155050000D03*
%TD*%
%TO.C,D5*%
X146400000Y-159450000D03*
X149600000Y-159450000D03*
X146400000Y-154550000D03*
X149600000Y-154550000D03*
%TD*%
%TO.C,D6*%
X149600000Y-117050000D03*
X146400000Y-117050000D03*
X149600000Y-121950000D03*
X146400000Y-121950000D03*
%TD*%
%TO.C,D7*%
X146400000Y-82950000D03*
X149600000Y-82950000D03*
X146400000Y-78050000D03*
X149600000Y-78050000D03*
%TD*%
%TO.C,D8*%
X149600000Y-40050000D03*
X146400000Y-40050000D03*
X149600000Y-44950000D03*
X146400000Y-44950000D03*
%TD*%
M02*
