M48
; DRILL file {KiCad (5.1.6)-1} date 10/09/20 22:46:56
; FORMAT={-:-/ absolute / inch / decimal}
; #@! TF.CreationDate,2020-10-09T22:46:56+01:00
; #@! TF.GenerationSoftware,Kicad,Pcbnew,(5.1.6)-1
FMAT,2
INCH
T1C0.0157
T2C0.0394
%
G90
G05
T1
X4.3504Y-5.9646
X4.5567Y-5.511
X4.5669Y-5.7087
X4.5669Y-6.1024
X5.0197Y-6.2205
X5.0984Y-6.311
X5.1181Y-6.1811
X5.1969Y-6.1614
X5.2165Y-6.0039
X5.7087Y-5.6102
X5.7366Y-5.5114
X5.8858Y-6.1614
T2
X5.8661Y-5.5118
X5.8661Y-5.6118
X5.8661Y-5.7118
X5.8661Y-5.8118
X4.9724Y-6.4039
X5.0724Y-6.4039
X5.1724Y-6.4039
X5.2724Y-6.4039
X4.3701Y-5.5118
X4.3701Y-5.6118
X4.3701Y-5.7118
X4.3701Y-5.8118
T0
M30
