%TF.GenerationSoftware,KiCad,Pcbnew,(5.1.6)-1*%
%TF.CreationDate,2020-10-09T22:46:55+01:00*%
%TF.ProjectId,LED Panel,4c454420-5061-46e6-956c-2e6b69636164,rev?*%
%TF.SameCoordinates,Original*%
%TF.FileFunction,Soldermask,Top*%
%TF.FilePolarity,Negative*%
%FSLAX46Y46*%
G04 Gerber Fmt 4.6, Leading zero omitted, Abs format (unit mm)*
G04 Created by KiCad (PCBNEW (5.1.6)-1) date 2020-10-09 22:46:55*
%MOMM*%
%LPD*%
G01*
G04 APERTURE LIST*
%ADD10C,0.100000*%
%ADD11R,1.100000X1.600000*%
%ADD12R,1.800000X1.800000*%
%ADD13O,1.800000X1.800000*%
G04 APERTURE END LIST*
D10*
G36*
X143773438Y-160687500D02*
G01*
X115773438Y-160687500D01*
X116400000Y-34700000D01*
X144400000Y-34700000D01*
X143773438Y-160687500D01*
G37*
X143773438Y-160687500D02*
X115773438Y-160687500D01*
X116400000Y-34700000D01*
X144400000Y-34700000D01*
X143773438Y-160687500D01*
%TO.C,C1*%
G36*
G01*
X112100000Y-37518750D02*
X112100000Y-38481250D01*
G75*
G02*
X111831250Y-38750000I-268750J0D01*
G01*
X111293750Y-38750000D01*
G75*
G02*
X111025000Y-38481250I0J268750D01*
G01*
X111025000Y-37518750D01*
G75*
G02*
X111293750Y-37250000I268750J0D01*
G01*
X111831250Y-37250000D01*
G75*
G02*
X112100000Y-37518750I0J-268750D01*
G01*
G37*
G36*
G01*
X113975000Y-37518750D02*
X113975000Y-38481250D01*
G75*
G02*
X113706250Y-38750000I-268750J0D01*
G01*
X113168750Y-38750000D01*
G75*
G02*
X112900000Y-38481250I0J268750D01*
G01*
X112900000Y-37518750D01*
G75*
G02*
X113168750Y-37250000I268750J0D01*
G01*
X113706250Y-37250000D01*
G75*
G02*
X113975000Y-37518750I0J-268750D01*
G01*
G37*
%TD*%
%TO.C,C2*%
G36*
G01*
X113975000Y-75518750D02*
X113975000Y-76481250D01*
G75*
G02*
X113706250Y-76750000I-268750J0D01*
G01*
X113168750Y-76750000D01*
G75*
G02*
X112900000Y-76481250I0J268750D01*
G01*
X112900000Y-75518750D01*
G75*
G02*
X113168750Y-75250000I268750J0D01*
G01*
X113706250Y-75250000D01*
G75*
G02*
X113975000Y-75518750I0J-268750D01*
G01*
G37*
G36*
G01*
X112100000Y-75518750D02*
X112100000Y-76481250D01*
G75*
G02*
X111831250Y-76750000I-268750J0D01*
G01*
X111293750Y-76750000D01*
G75*
G02*
X111025000Y-76481250I0J268750D01*
G01*
X111025000Y-75518750D01*
G75*
G02*
X111293750Y-75250000I268750J0D01*
G01*
X111831250Y-75250000D01*
G75*
G02*
X112100000Y-75518750I0J-268750D01*
G01*
G37*
%TD*%
%TO.C,C3*%
G36*
G01*
X112100000Y-114518750D02*
X112100000Y-115481250D01*
G75*
G02*
X111831250Y-115750000I-268750J0D01*
G01*
X111293750Y-115750000D01*
G75*
G02*
X111025000Y-115481250I0J268750D01*
G01*
X111025000Y-114518750D01*
G75*
G02*
X111293750Y-114250000I268750J0D01*
G01*
X111831250Y-114250000D01*
G75*
G02*
X112100000Y-114518750I0J-268750D01*
G01*
G37*
G36*
G01*
X113975000Y-114518750D02*
X113975000Y-115481250D01*
G75*
G02*
X113706250Y-115750000I-268750J0D01*
G01*
X113168750Y-115750000D01*
G75*
G02*
X112900000Y-115481250I0J268750D01*
G01*
X112900000Y-114518750D01*
G75*
G02*
X113168750Y-114250000I268750J0D01*
G01*
X113706250Y-114250000D01*
G75*
G02*
X113975000Y-114518750I0J-268750D01*
G01*
G37*
%TD*%
%TO.C,C4*%
G36*
G01*
X113975000Y-152518750D02*
X113975000Y-153481250D01*
G75*
G02*
X113706250Y-153750000I-268750J0D01*
G01*
X113168750Y-153750000D01*
G75*
G02*
X112900000Y-153481250I0J268750D01*
G01*
X112900000Y-152518750D01*
G75*
G02*
X113168750Y-152250000I268750J0D01*
G01*
X113706250Y-152250000D01*
G75*
G02*
X113975000Y-152518750I0J-268750D01*
G01*
G37*
G36*
G01*
X112100000Y-152518750D02*
X112100000Y-153481250D01*
G75*
G02*
X111831250Y-153750000I-268750J0D01*
G01*
X111293750Y-153750000D01*
G75*
G02*
X111025000Y-153481250I0J268750D01*
G01*
X111025000Y-152518750D01*
G75*
G02*
X111293750Y-152250000I268750J0D01*
G01*
X111831250Y-152250000D01*
G75*
G02*
X112100000Y-152518750I0J-268750D01*
G01*
G37*
%TD*%
%TO.C,C5*%
G36*
G01*
X148900000Y-152481250D02*
X148900000Y-151518750D01*
G75*
G02*
X149168750Y-151250000I268750J0D01*
G01*
X149706250Y-151250000D01*
G75*
G02*
X149975000Y-151518750I0J-268750D01*
G01*
X149975000Y-152481250D01*
G75*
G02*
X149706250Y-152750000I-268750J0D01*
G01*
X149168750Y-152750000D01*
G75*
G02*
X148900000Y-152481250I0J268750D01*
G01*
G37*
G36*
G01*
X147025000Y-152481250D02*
X147025000Y-151518750D01*
G75*
G02*
X147293750Y-151250000I268750J0D01*
G01*
X147831250Y-151250000D01*
G75*
G02*
X148100000Y-151518750I0J-268750D01*
G01*
X148100000Y-152481250D01*
G75*
G02*
X147831250Y-152750000I-268750J0D01*
G01*
X147293750Y-152750000D01*
G75*
G02*
X147025000Y-152481250I0J268750D01*
G01*
G37*
%TD*%
%TO.C,C6*%
G36*
G01*
X146525000Y-115481250D02*
X146525000Y-114518750D01*
G75*
G02*
X146793750Y-114250000I268750J0D01*
G01*
X147331250Y-114250000D01*
G75*
G02*
X147600000Y-114518750I0J-268750D01*
G01*
X147600000Y-115481250D01*
G75*
G02*
X147331250Y-115750000I-268750J0D01*
G01*
X146793750Y-115750000D01*
G75*
G02*
X146525000Y-115481250I0J268750D01*
G01*
G37*
G36*
G01*
X148400000Y-115481250D02*
X148400000Y-114518750D01*
G75*
G02*
X148668750Y-114250000I268750J0D01*
G01*
X149206250Y-114250000D01*
G75*
G02*
X149475000Y-114518750I0J-268750D01*
G01*
X149475000Y-115481250D01*
G75*
G02*
X149206250Y-115750000I-268750J0D01*
G01*
X148668750Y-115750000D01*
G75*
G02*
X148400000Y-115481250I0J268750D01*
G01*
G37*
%TD*%
%TO.C,C7*%
G36*
G01*
X148400000Y-75981250D02*
X148400000Y-75018750D01*
G75*
G02*
X148668750Y-74750000I268750J0D01*
G01*
X149206250Y-74750000D01*
G75*
G02*
X149475000Y-75018750I0J-268750D01*
G01*
X149475000Y-75981250D01*
G75*
G02*
X149206250Y-76250000I-268750J0D01*
G01*
X148668750Y-76250000D01*
G75*
G02*
X148400000Y-75981250I0J268750D01*
G01*
G37*
G36*
G01*
X146525000Y-75981250D02*
X146525000Y-75018750D01*
G75*
G02*
X146793750Y-74750000I268750J0D01*
G01*
X147331250Y-74750000D01*
G75*
G02*
X147600000Y-75018750I0J-268750D01*
G01*
X147600000Y-75981250D01*
G75*
G02*
X147331250Y-76250000I-268750J0D01*
G01*
X146793750Y-76250000D01*
G75*
G02*
X146525000Y-75981250I0J268750D01*
G01*
G37*
%TD*%
%TO.C,C8*%
G36*
G01*
X146525000Y-38481250D02*
X146525000Y-37518750D01*
G75*
G02*
X146793750Y-37250000I268750J0D01*
G01*
X147331250Y-37250000D01*
G75*
G02*
X147600000Y-37518750I0J-268750D01*
G01*
X147600000Y-38481250D01*
G75*
G02*
X147331250Y-38750000I-268750J0D01*
G01*
X146793750Y-38750000D01*
G75*
G02*
X146525000Y-38481250I0J268750D01*
G01*
G37*
G36*
G01*
X148400000Y-38481250D02*
X148400000Y-37518750D01*
G75*
G02*
X148668750Y-37250000I268750J0D01*
G01*
X149206250Y-37250000D01*
G75*
G02*
X149475000Y-37518750I0J-268750D01*
G01*
X149475000Y-38481250D01*
G75*
G02*
X149206250Y-38750000I-268750J0D01*
G01*
X148668750Y-38750000D01*
G75*
G02*
X148400000Y-38481250I0J268750D01*
G01*
G37*
%TD*%
D11*
%TO.C,D1*%
X114100000Y-40050000D03*
X110900000Y-40050000D03*
X114100000Y-44950000D03*
X110900000Y-44950000D03*
%TD*%
%TO.C,D2*%
X110900000Y-82950000D03*
X114100000Y-82950000D03*
X110900000Y-78050000D03*
X114100000Y-78050000D03*
%TD*%
%TO.C,D3*%
X114100000Y-117050000D03*
X110900000Y-117050000D03*
X114100000Y-121950000D03*
X110900000Y-121950000D03*
%TD*%
%TO.C,D4*%
X110900000Y-159950000D03*
X114100000Y-159950000D03*
X110900000Y-155050000D03*
X114100000Y-155050000D03*
%TD*%
%TO.C,D5*%
X146400000Y-159450000D03*
X149600000Y-159450000D03*
X146400000Y-154550000D03*
X149600000Y-154550000D03*
%TD*%
%TO.C,D6*%
X149600000Y-117050000D03*
X146400000Y-117050000D03*
X149600000Y-121950000D03*
X146400000Y-121950000D03*
%TD*%
%TO.C,D7*%
X146400000Y-82950000D03*
X149600000Y-82950000D03*
X146400000Y-78050000D03*
X149600000Y-78050000D03*
%TD*%
%TO.C,D8*%
X149600000Y-40050000D03*
X146400000Y-40050000D03*
X149600000Y-44950000D03*
X146400000Y-44950000D03*
%TD*%
D12*
%TO.C,J1*%
X111000000Y-140000000D03*
D13*
X111000000Y-142540000D03*
X111000000Y-145080000D03*
X111000000Y-147620000D03*
%TD*%
D12*
%TO.C,J2*%
X126300000Y-162660000D03*
D13*
X128840000Y-162660000D03*
X131380000Y-162660000D03*
X133920000Y-162660000D03*
%TD*%
%TO.C,J3*%
X149000000Y-147620000D03*
X149000000Y-145080000D03*
X149000000Y-142540000D03*
D12*
X149000000Y-140000000D03*
%TD*%
M02*
