%TF.GenerationSoftware,KiCad,Pcbnew,(5.1.6)-1*%
%TF.CreationDate,2020-10-14T22:30:23+01:00*%
%TF.ProjectId,Side 2,53696465-2032-42e6-9b69-6361645f7063,rev?*%
%TF.SameCoordinates,Original*%
%TF.FileFunction,Soldermask,Bot*%
%TF.FilePolarity,Negative*%
%FSLAX46Y46*%
G04 Gerber Fmt 4.6, Leading zero omitted, Abs format (unit mm)*
G04 Created by KiCad (PCBNEW (5.1.6)-1) date 2020-10-14 22:30:23*
%MOMM*%
%LPD*%
G01*
G04 APERTURE LIST*
%ADD10C,0.010000*%
%ADD11C,3.200000*%
G04 APERTURE END LIST*
D10*
%TO.C,G\u002A\u002A\u002A*%
G36*
X-123289250Y-213748417D02*
G01*
X-125136041Y-213753824D01*
X-126982833Y-213759232D01*
X-126982833Y-210054833D01*
X-123278434Y-210054833D01*
X-123289250Y-213748417D01*
G37*
X-123289250Y-213748417D02*
X-125136041Y-213753824D01*
X-126982833Y-213759232D01*
X-126982833Y-210054833D01*
X-123278434Y-210054833D01*
X-123289250Y-213748417D01*
G36*
X-32500009Y-211901625D02*
G01*
X-32505416Y-213748417D01*
X-34352208Y-213753824D01*
X-36199000Y-213759232D01*
X-36199000Y-210054833D01*
X-32494601Y-210054833D01*
X-32500009Y-211901625D01*
G37*
X-32500009Y-211901625D02*
X-32505416Y-213748417D01*
X-34352208Y-213753824D01*
X-36199000Y-213759232D01*
X-36199000Y-210054833D01*
X-32494601Y-210054833D01*
X-32500009Y-211901625D01*
G36*
X-124987875Y-204345009D02*
G01*
X-123141083Y-204350417D01*
X-123135675Y-206197208D01*
X-123130267Y-208044000D01*
X-126834666Y-208044000D01*
X-126834666Y-204339601D01*
X-124987875Y-204345009D01*
G37*
X-124987875Y-204345009D02*
X-123141083Y-204350417D01*
X-123135675Y-206197208D01*
X-123130267Y-208044000D01*
X-126834666Y-208044000D01*
X-126834666Y-204339601D01*
X-124987875Y-204345009D01*
G36*
X-32727666Y-208044000D02*
G01*
X-36432066Y-208044000D01*
X-36426658Y-206197208D01*
X-36421250Y-204350417D01*
X-32727666Y-204339601D01*
X-32727666Y-208044000D01*
G37*
X-32727666Y-208044000D02*
X-36432066Y-208044000D01*
X-36426658Y-206197208D01*
X-36421250Y-204350417D01*
X-32727666Y-204339601D01*
X-32727666Y-208044000D01*
G36*
X-123363333Y-187110167D02*
G01*
X-125201305Y-187110167D01*
X-125476583Y-187110008D01*
X-125739691Y-187109547D01*
X-125987556Y-187108807D01*
X-126217106Y-187107812D01*
X-126425270Y-187106585D01*
X-126608974Y-187105149D01*
X-126765147Y-187103528D01*
X-126890715Y-187101746D01*
X-126982608Y-187099825D01*
X-127037752Y-187097789D01*
X-127053389Y-187096055D01*
X-127055501Y-187073248D01*
X-127057517Y-187011181D01*
X-127059415Y-186912924D01*
X-127061169Y-186781551D01*
X-127062758Y-186620134D01*
X-127064158Y-186431745D01*
X-127065344Y-186219456D01*
X-127066295Y-185986340D01*
X-127066985Y-185735469D01*
X-127067393Y-185469915D01*
X-127067500Y-185243972D01*
X-127067500Y-183406000D01*
X-123363333Y-183406000D01*
X-123363333Y-187110167D01*
G37*
X-123363333Y-187110167D02*
X-125201305Y-187110167D01*
X-125476583Y-187110008D01*
X-125739691Y-187109547D01*
X-125987556Y-187108807D01*
X-126217106Y-187107812D01*
X-126425270Y-187106585D01*
X-126608974Y-187105149D01*
X-126765147Y-187103528D01*
X-126890715Y-187101746D01*
X-126982608Y-187099825D01*
X-127037752Y-187097789D01*
X-127053389Y-187096055D01*
X-127055501Y-187073248D01*
X-127057517Y-187011181D01*
X-127059415Y-186912924D01*
X-127061169Y-186781551D01*
X-127062758Y-186620134D01*
X-127064158Y-186431745D01*
X-127065344Y-186219456D01*
X-127066295Y-185986340D01*
X-127066985Y-185735469D01*
X-127067393Y-185469915D01*
X-127067500Y-185243972D01*
X-127067500Y-183406000D01*
X-123363333Y-183406000D01*
X-123363333Y-187110167D01*
G36*
X-32500009Y-185252792D02*
G01*
X-32505416Y-187099583D01*
X-36199000Y-187110399D01*
X-36199000Y-183406000D01*
X-32494601Y-183406000D01*
X-32500009Y-185252792D01*
G37*
X-32500009Y-185252792D02*
X-32505416Y-187099583D01*
X-36199000Y-187110399D01*
X-36199000Y-183406000D01*
X-32494601Y-183406000D01*
X-32500009Y-185252792D01*
G36*
X-123321000Y-33165000D02*
G01*
X-36241333Y-33165000D01*
X-36241333Y-32297167D01*
X-32537166Y-32297167D01*
X-32537166Y-33165000D01*
X-32134994Y-33165000D01*
X-32140289Y-107867458D01*
X-32145583Y-182569917D01*
X-79670041Y-182575213D01*
X-127194500Y-182580509D01*
X-127194500Y-33165000D01*
X-127025166Y-33165000D01*
X-127025166Y-32297167D01*
X-123321000Y-32297167D01*
X-123321000Y-33165000D01*
G37*
X-123321000Y-33165000D02*
X-36241333Y-33165000D01*
X-36241333Y-32297167D01*
X-32537166Y-32297167D01*
X-32537166Y-33165000D01*
X-32134994Y-33165000D01*
X-32140289Y-107867458D01*
X-32145583Y-182569917D01*
X-79670041Y-182575213D01*
X-127194500Y-182580509D01*
X-127194500Y-33165000D01*
X-127025166Y-33165000D01*
X-127025166Y-32297167D01*
X-123321000Y-32297167D01*
X-123321000Y-33165000D01*
G36*
X-123321000Y-30307500D02*
G01*
X-125158972Y-30307500D01*
X-125434250Y-30307341D01*
X-125697358Y-30306880D01*
X-125945223Y-30306140D01*
X-126174773Y-30305145D01*
X-126382937Y-30303918D01*
X-126566641Y-30302482D01*
X-126722813Y-30300861D01*
X-126848382Y-30299079D01*
X-126940274Y-30297158D01*
X-126995418Y-30295123D01*
X-127011055Y-30293389D01*
X-127013168Y-30270582D01*
X-127015184Y-30208514D01*
X-127017081Y-30110257D01*
X-127018836Y-29978884D01*
X-127020425Y-29817467D01*
X-127021824Y-29629078D01*
X-127023011Y-29416789D01*
X-127023961Y-29183673D01*
X-127024652Y-28932803D01*
X-127025060Y-28667249D01*
X-127025166Y-28441305D01*
X-127025166Y-26603333D01*
X-123321000Y-26603333D01*
X-123321000Y-30307500D01*
G37*
X-123321000Y-30307500D02*
X-125158972Y-30307500D01*
X-125434250Y-30307341D01*
X-125697358Y-30306880D01*
X-125945223Y-30306140D01*
X-126174773Y-30305145D01*
X-126382937Y-30303918D01*
X-126566641Y-30302482D01*
X-126722813Y-30300861D01*
X-126848382Y-30299079D01*
X-126940274Y-30297158D01*
X-126995418Y-30295123D01*
X-127011055Y-30293389D01*
X-127013168Y-30270582D01*
X-127015184Y-30208514D01*
X-127017081Y-30110257D01*
X-127018836Y-29978884D01*
X-127020425Y-29817467D01*
X-127021824Y-29629078D01*
X-127023011Y-29416789D01*
X-127023961Y-29183673D01*
X-127024652Y-28932803D01*
X-127025060Y-28667249D01*
X-127025166Y-28441305D01*
X-127025166Y-26603333D01*
X-123321000Y-26603333D01*
X-123321000Y-30307500D01*
G36*
X-32547750Y-30296917D02*
G01*
X-34394541Y-30302324D01*
X-36241333Y-30307732D01*
X-36241333Y-26603333D01*
X-32536934Y-26603333D01*
X-32547750Y-30296917D01*
G37*
X-32547750Y-30296917D02*
X-34394541Y-30302324D01*
X-36241333Y-30307732D01*
X-36241333Y-26603333D01*
X-32536934Y-26603333D01*
X-32547750Y-30296917D01*
%TD*%
D11*
%TO.C,REF\u002A\u002A*%
X-36440000Y-17000000D03*
%TD*%
%TO.C,REF\u002A\u002A*%
X-123000000Y-17000000D03*
%TD*%
M02*
