%TF.GenerationSoftware,KiCad,Pcbnew,(5.1.6)-1*%
%TF.CreationDate,2020-10-14T22:30:23+01:00*%
%TF.ProjectId,Side 2,53696465-2032-42e6-9b69-6361645f7063,rev?*%
%TF.SameCoordinates,Original*%
%TF.FileFunction,Profile,NP*%
%FSLAX46Y46*%
G04 Gerber Fmt 4.6, Leading zero omitted, Abs format (unit mm)*
G04 Created by KiCad (PCBNEW (5.1.6)-1) date 2020-10-14 22:30:23*
%MOMM*%
%LPD*%
G01*
G04 APERTURE LIST*
%TA.AperFunction,Profile*%
%ADD10C,0.254000*%
%TD*%
G04 APERTURE END LIST*
D10*
X-128652175Y-32767334D02*
X-128652175Y-28829834D01*
X-32502175Y-36704834D02*
X-32502175Y-207592334D01*
X-142752175Y-36704834D02*
X-142752175Y-28829834D01*
X-142752175Y-28829834D02*
X-128652175Y-28829834D01*
X-30852175Y-32767334D02*
X-30852175Y-28829834D01*
X-16752175Y-36704834D02*
X-16752175Y-28829834D01*
X-16752175Y-203654834D02*
X-30852175Y-203654834D01*
X-127002175Y-13079834D02*
X-119127175Y-13079834D01*
X-32502175Y-13079834D02*
X-32502175Y-32767334D01*
X-16752175Y-36704834D02*
X-32502175Y-36704834D01*
X-142752175Y-36704834D02*
X-127002175Y-36704834D01*
X-32502175Y-32767334D02*
X-30852175Y-32767334D01*
X-30852175Y-207592334D02*
X-30852175Y-203654834D01*
X-32502175Y-207592334D02*
X-30852175Y-207592334D01*
X-16752175Y-211529834D02*
X-16752175Y-203654834D01*
X-16752175Y-211529834D02*
X-32502175Y-211529834D01*
X-127002175Y-32767334D02*
X-127002175Y-13079834D01*
X-32502175Y-13079834D02*
X-40377175Y-13079834D01*
X-40377175Y-28829834D02*
X-119127175Y-28829834D01*
X-40377175Y-13079834D02*
X-40377175Y-28829834D01*
X-127002175Y-32767334D02*
X-128652175Y-32767334D01*
X-119127175Y-13079834D02*
X-119127175Y-28829834D01*
X-16752175Y-28829834D02*
X-30852175Y-28829834D01*
X-127002175Y-207592334D02*
X-128652175Y-207592334D01*
X-127002175Y-207592334D02*
X-127002175Y-36704834D01*
X-32502175Y-211529834D02*
X-32502175Y-227279834D01*
X-40377175Y-227279834D02*
X-32502175Y-227279834D01*
X-40377175Y-211529834D02*
X-40377175Y-227279834D01*
X-119127175Y-227279834D02*
X-127002175Y-227279834D01*
X-142752175Y-203654834D02*
X-128652175Y-203654834D01*
X-40377175Y-211529834D02*
X-119127175Y-211529834D01*
X-119127175Y-211529834D02*
X-119127175Y-227279834D01*
X-127002175Y-227279834D02*
X-127002175Y-211529834D01*
X-142752175Y-211529834D02*
X-127002175Y-211529834D01*
X-142752175Y-211529834D02*
X-142752175Y-203654834D01*
X-128652175Y-207592334D02*
X-128652175Y-203654834D01*
M02*
