%TF.GenerationSoftware,KiCad,Pcbnew,(5.1.6)-1*%
%TF.CreationDate,2020-10-07T20:36:41+01:00*%
%TF.ProjectId,nyantern,6e79616e-7465-4726-9e2e-6b696361645f,rev?*%
%TF.SameCoordinates,Original*%
%TF.FileFunction,Profile,NP*%
%FSLAX46Y46*%
G04 Gerber Fmt 4.6, Leading zero omitted, Abs format (unit mm)*
G04 Created by KiCad (PCBNEW (5.1.6)-1) date 2020-10-07 20:36:41*
%MOMM*%
%LPD*%
G01*
G04 APERTURE LIST*
%TA.AperFunction,Profile*%
%ADD10C,0.050000*%
%TD*%
G04 APERTURE END LIST*
D10*
X130800000Y-121200000D02*
X129200000Y-121200000D01*
X172800000Y-79200000D02*
X171200000Y-79200000D01*
X129200000Y-121200000D02*
X129200000Y-122800000D01*
X171200000Y-79200000D02*
X171200000Y-80800000D01*
X130800000Y-122800000D02*
X129200000Y-122800000D01*
X172800000Y-80800000D02*
X171200000Y-80800000D01*
X130800000Y-121200000D02*
X130800000Y-122800000D01*
X172800000Y-79200000D02*
X172800000Y-80800000D01*
X128800000Y-119200000D02*
X128800000Y-120800000D01*
X170800000Y-77200000D02*
X170800000Y-78800000D01*
X127200000Y-119200000D02*
X127200000Y-120800000D01*
X169200000Y-77200000D02*
X169200000Y-78800000D01*
X128800000Y-119200000D02*
X127200000Y-119200000D01*
X170800000Y-77200000D02*
X169200000Y-77200000D01*
X128800000Y-120800000D02*
X127200000Y-120800000D01*
X170800000Y-78800000D02*
X169200000Y-78800000D01*
X170800000Y-122800000D02*
X169200000Y-122800000D01*
X172800000Y-120800000D02*
X171200000Y-120800000D01*
X172800000Y-119200000D02*
X172800000Y-120800000D01*
X171200000Y-119200000D02*
X171200000Y-120800000D01*
X170800000Y-121200000D02*
X170800000Y-122800000D01*
X169200000Y-121200000D02*
X169200000Y-122800000D01*
X172800000Y-119200000D02*
X171200000Y-119200000D01*
X170800000Y-121200000D02*
X169200000Y-121200000D01*
X130800000Y-78800000D02*
X129200000Y-78800000D01*
X130800000Y-77200000D02*
X130800000Y-78800000D01*
X129200000Y-77200000D02*
X129200000Y-78800000D01*
X130800000Y-77200000D02*
X129200000Y-77200000D01*
X128800000Y-79200000D02*
X127200000Y-79200000D01*
X127200000Y-79200000D02*
X127200000Y-80800000D01*
X128800000Y-80800000D02*
X127200000Y-80800000D01*
X128800000Y-79200000D02*
X128800000Y-80800000D01*
X165800000Y-147000000D02*
X174800000Y-147000000D01*
X134200000Y-147000000D02*
X134200000Y-148600000D01*
X164200000Y-148600000D02*
X165800000Y-148600000D01*
X165800000Y-147000000D02*
X165800000Y-148600000D01*
X164200000Y-148600000D02*
X164200000Y-147000000D01*
X135800000Y-147000000D02*
X164200000Y-147000000D01*
X135800000Y-148600000D02*
X134200000Y-148600000D01*
X135800000Y-148600000D02*
X135800000Y-147000000D01*
X125200000Y-147000000D02*
X134200000Y-147000000D01*
X165800000Y-53000000D02*
X174800000Y-53000000D01*
X165800000Y-51400000D02*
X165800000Y-53000000D01*
X164200000Y-51400000D02*
X165800000Y-51400000D01*
X164200000Y-53000000D02*
X164200000Y-51400000D01*
X134200000Y-51400000D02*
X134200000Y-53000000D01*
X135800000Y-51400000D02*
X134200000Y-51400000D01*
X135800000Y-53000000D02*
X135800000Y-51400000D01*
X135800000Y-53000000D02*
X164200000Y-53000000D01*
X125200000Y-147000000D02*
X125200000Y-53000000D01*
X174800000Y-53000000D02*
X174800000Y-147000000D01*
X125200000Y-53000000D02*
X134200000Y-53000000D01*
M02*
